<svg width="14" height="20" viewBox="0 0 14 20" fill="none" xmlns="http://www.w3.org/2000/svg">
<path d="M7.00007 20C3.41584 20 0.5 16.8607 0.5 13.0019C0.5 11.3202 1.035 10.1768 1.65465 8.853C1.99854 8.11783 2.35425 7.35779 2.68275 6.38794L3.0245 5.37888C3.52843 5.51102 3.35769 5.46631 3.86148 5.59845L3.72894 6.66245C3.62049 7.53189 3.7687 8.51807 4.13539 9.36798C4.29088 9.72855 4.47857 10.0485 4.68692 10.3145C4.61467 8.90274 4.74977 7.54196 5.09095 6.25443C5.44866 4.90479 6.02257 3.66043 6.79685 2.55569C7.76053 1.18103 8.86729 0.283203 9.38049 0.209351L10.835 0L9.8562 1.17096C9.41155 1.70273 9.16671 2.38922 9.16671 3.10394C9.16671 4.48547 9.95824 5.46585 10.8746 6.6011C11.4622 7.3288 12.128 8.15369 12.6324 9.16702C13.2163 10.3401 13.5 11.5944 13.5 13.0019C13.5 16.8607 10.5842 20 7.00007 20Z" fill="#C86800"/>
</svg>
