<svg width="16" height="16" viewBox="0 0 16 16" fill="none" xmlns="http://www.w3.org/2000/svg">
<path d="M4.14518 9.80426C4.78598 9.0062 5.42678 8.36775 6.06758 7.88891C7.26909 6.85142 8.31039 6.45239 8.31039 6.45239C8.31039 6.45239 7.74969 7.33026 6.86859 8.60717C6.70839 8.92639 6.46809 9.24562 6.22778 9.64465C5.98748 9.96388 5.82728 10.3629 5.58698 10.7619C5.34668 11.161 5.18648 11.56 4.94618 11.959C4.78598 12.3581 4.46558 12.8369 4.30538 13.2359C4.14518 13.635 3.90488 14.1138 3.74468 14.5128C3.66458 14.6725 3.58448 14.9119 3.50438 15.0715C6.14768 16.5878 9.67209 16.2686 11.8348 13.9542C15.8398 9.64465 12.3154 7.8091 16 0.227482C16 0.227482 7.82979 -1.44845 1.98248 4.29761C-0.660826 6.93123 -0.660826 11.161 1.98248 13.8744C2.14268 13.3956 2.30288 12.9167 2.54318 12.4379C2.94368 11.4802 3.50438 10.5225 4.14518 9.80426Z" fill="#448A39"/>
</svg>
