<svg width="14" height="20" viewBox="0 0 14 20" fill="none" xmlns="http://www.w3.org/2000/svg">
<path d="M6.99393 1.7422e-05C6.74764 0.00136849 6.52622 0.168035 6.43341 0.419368C5.83346 2.06603 4.37937 4.23069 3.05693 6.40802C1.73509 8.58535 0.5 10.7727 0.5 12.87C0.5 16.8 3.41666 20 6.99757 20C10.5791 20 13.5 16.7993 13.5 12.87C13.5 10.7727 12.2661 8.58535 10.9431 6.40802C9.62063 4.23069 8.1629 2.06536 7.56356 0.420034C7.46953 0.165368 7.24386 -0.00196484 6.99393 1.7422e-05ZM10.3225 12.1513C10.317 11.7853 10.5839 11.4833 10.917 11.4773C11.2531 11.4707 11.5291 11.764 11.5351 12.142C11.5351 14.892 9.49566 17.1273 6.99818 17.1273C6.66332 17.136 6.38549 16.8433 6.37881 16.4753C6.37032 16.1067 6.63724 15.802 6.98544 15.794C8.8405 15.7927 10.3225 14.1687 10.3225 12.1513Z" fill="#39768A"/>
</svg>
