<svg width="20" height="22" viewBox="0 0 20 22" fill="none" xmlns="http://www.w3.org/2000/svg">
<path d="M16.2 14.4C18.1882 14.4 19.8 12.7882 19.8 10.8C19.8 8.81178 18.1882 7.20001 16.2 7.20001C14.2118 7.20001 12.6 8.81178 12.6 10.8C12.6 12.7882 14.2118 14.4 16.2 14.4Z" fill="white"/>
<path d="M6.30005 8.99998C8.78533 8.99998 10.8 6.98527 10.8 4.49999C10.8 2.01471 8.78533 0 6.30005 0C3.81477 0 1.80005 2.01471 1.80005 4.49999C1.80005 6.98527 3.81477 8.99998 6.30005 8.99998Z" fill="white"/>
<path d="M6.30002 21.6C9.28236 21.6 11.7 19.1823 11.7 16.2C11.7 13.2176 9.28236 10.8 6.30002 10.8C3.31769 10.8 0.900024 13.2176 0.900024 16.2C0.900024 19.1823 3.31769 21.6 6.30002 21.6Z" fill="white"/>
</svg>
