<?xml version="1.0" encoding="UTF-8"?>
<svg width="30px" height="30px" viewBox="0 0 30 30" version="1.1" xmlns="http://www.w3.org/2000/svg" xmlns:xlink="http://www.w3.org/1999/xlink">
    <title>BCCABD5F-FF34-4DDD-80DB-4B09286B54C1</title>
    <defs>
        <linearGradient x1="50%" y1="-7.06032455e-14%" x2="50%" y2="100%" id="linearGradient-1">
            <stop stop-color="#FEDD60" offset="0%"></stop>
            <stop stop-color="#935A0F" offset="100%"></stop>
        </linearGradient>
    </defs>
    <g id="Ready-Flow--(-Janis-)" stroke="none" stroke-width="1" fill="none" fill-rule="evenodd">
        <g id="14" transform="translate(-1485.000000, -151.000000)">
            <g id="Group-21" transform="translate(1500.000000, 166.000000) scale(-1, 1) translate(-1500.000000, -166.000000) translate(1485.000000, 151.000000)">
                <g id="Group-48">
                    <path d="M15,0.5 C19.0040644,0.5 22.6290644,2.12296778 25.2530483,4.74695167 C27.8770322,7.37093556 29.5,10.9959356 29.5,15 C29.5,19.0040644 27.8770322,22.6290644 25.2530483,25.2530483 C22.6290644,27.8770322 19.0040644,29.5 15,29.5 C10.9959356,29.5 7.37093556,27.8770322 4.74695167,25.2530483 C2.12296778,22.6290644 0.5,19.0040644 0.5,15 C0.5,10.9959356 2.12296778,7.37093556 4.74695167,4.74695167 C7.37093556,2.12296778 10.9959356,0.5 15,0.5 Z" id="Rectangle" stroke="url(#linearGradient-1)" fill-opacity="0.3" fill="#1B1B1B"></path>
                    <rect id="Rectangle-Copy" fill-opacity="0.8" fill="#000000" x="1.875" y="1.875" width="26.25" height="26.25" rx="13.125"></rect>
                </g>
                <path d="M20.2804771,14.2803489 L15.6137107,14.2944572 L15.6137107,9.71952288 C15.6137107,9.32089951 15.2928112,9 14.8941878,9 C14.4956927,9 14.1746649,9.32089951 14.1746649,9.71952288 L14.1887732,14.2804771 L9.71952288,14.2804771 C9.32089951,14.2804771 9,14.6013766 9,15 C9,15.3984951 9.32089951,15.7193946 9.71952288,15.7193946 L14.1817191,15.7193946 L14.1817191,20.2804771 C14.1817191,20.678844 14.5026186,21 14.901242,21 C15.2998653,21 15.6207648,20.678844 15.6207648,20.2804771 L15.6207648,15.7195229 L20.2804771,15.7195229 C20.6791005,15.7195229 21,15.3983669 21,15 C21,14.6012484 20.6755093,14.2803489 20.2804771,14.2803489 Z" id="Path" stroke="#D64444" fill="#D64444" fill-rule="nonzero" transform="translate(15.000000, 15.000000) rotate(-45.000000) translate(-15.000000, -15.000000) "></path>
            </g>
        </g>
    </g>
</svg>