<?xml version="1.0" encoding="UTF-8"?>
<svg width="91px" height="90px" viewBox="0 0 91 90" version="1.1" xmlns="http://www.w3.org/2000/svg" xmlns:xlink="http://www.w3.org/1999/xlink">
    <title>1CD635BB-30EA-4824-B527-290314474D7D</title>
    <defs>
        <linearGradient x1="50%" y1="-7.06032455e-14%" x2="50%" y2="100%" id="linearGradient-1">
            <stop stop-color="#FEDD60" offset="0%"></stop>
            <stop stop-color="#935A0F" offset="100%"></stop>
        </linearGradient>
        <circle id="path-2" cx="33.75" cy="33.75" r="33.75"></circle>
        <radialGradient cx="-29.0466412%" cy="-52.233037%" fx="-29.0466412%" fy="-52.233037%" r="221.468769%" gradientTransform="translate(-0.290466,-0.522330),scale(0.751187,1.000000),translate(0.290466,0.522330)" id="radialGradient-4">
            <stop stop-color="#FFFFFF" offset="0%"></stop>
            <stop stop-color="#5E689E" offset="100%"></stop>
        </radialGradient>
        <radialGradient cx="31.9336444%" cy="108.371041%" fx="31.9336444%" fy="108.371041%" r="158.926269%" gradientTransform="translate(0.319336,1.083710),scale(0.459603,1.000000),translate(-0.319336,-1.083710)" id="radialGradient-5">
            <stop stop-color="#95C11F" offset="0%"></stop>
            <stop stop-color="#3D8C00" offset="100%"></stop>
        </radialGradient>
        <radialGradient cx="33.001188%" cy="25.7302893%" fx="33.001188%" fy="25.7302893%" r="138.340351%" gradientTransform="translate(0.330012,0.257303),scale(0.647033,1.000000),translate(-0.330012,-0.257303)" id="radialGradient-6">
            <stop stop-color="#79A600" offset="0%"></stop>
            <stop stop-color="#007011" offset="61%"></stop>
            <stop stop-color="#95C11F" offset="89%"></stop>
        </radialGradient>
        <radialGradient cx="39.931576%" cy="138.053395%" fx="39.931576%" fy="138.053395%" r="252.736536%" gradientTransform="translate(0.399316,1.380534),scale(0.380588,1.000000),translate(-0.399316,-1.380534)" id="radialGradient-7">
            <stop stop-color="#468A00" offset="0%"></stop>
            <stop stop-color="#000000" offset="100%"></stop>
        </radialGradient>
        <radialGradient cx="22.2296844%" cy="156.521873%" fx="22.2296844%" fy="156.521873%" r="262.014749%" gradientTransform="translate(0.222297,1.565219),scale(0.376532,1.000000),translate(-0.222297,-1.565219)" id="radialGradient-8">
            <stop stop-color="#64AA19" offset="0%"></stop>
            <stop stop-color="#000000" offset="100%"></stop>
        </radialGradient>
        <radialGradient cx="46.4185801%" cy="-3.05141304%" fx="46.4185801%" fy="-3.05141304%" r="114.190766%" gradientTransform="translate(0.464186,-0.030514),scale(0.596101,1.000000),translate(-0.464186,0.030514)" id="radialGradient-9">
            <stop stop-color="#95C11F" offset="0%"></stop>
            <stop stop-color="#000000" offset="100%"></stop>
        </radialGradient>
        <radialGradient cx="599.790063%" cy="5.27453873%" fx="599.790063%" fy="5.27453873%" r="128.909358%" gradientTransform="translate(5.997901,0.052745),scale(0.598768,1.000000),translate(-5.997901,-0.052745)" id="radialGradient-10">
            <stop stop-color="#95C11F" offset="0%"></stop>
            <stop stop-color="#000000" offset="100%"></stop>
        </radialGradient>
        <radialGradient cx="43.6015022%" cy="19.1533912%" fx="43.6015022%" fy="19.1533912%" r="176.279145%" gradientTransform="translate(0.436015,0.191534),scale(1.000000,0.838173),translate(-0.436015,-0.191534)" id="radialGradient-11">
            <stop stop-color="#CCF0EF" offset="0%"></stop>
            <stop stop-color="#5E73E6" offset="100%"></stop>
        </radialGradient>
        <linearGradient x1="48.6544998%" y1="8.94890095e-14%" x2="53.9119172%" y2="178.337531%" id="linearGradient-12">
            <stop stop-color="#FFFFFF" offset="0%"></stop>
            <stop stop-color="#000000" offset="100%"></stop>
        </linearGradient>
        <radialGradient cx="-54.1853546%" cy="-14.5402574%" fx="-54.1853546%" fy="-14.5402574%" r="184.037926%" gradientTransform="translate(-0.541854,-0.145403),scale(1.000000,0.877914),translate(0.541854,0.145403)" id="radialGradient-13">
            <stop stop-color="#FFFFFF" offset="0%"></stop>
            <stop stop-color="#000000" offset="100%"></stop>
        </radialGradient>
        <radialGradient cx="-12.5319484%" cy="8.23757156%" fx="-12.5319484%" fy="8.23757156%" r="176.149256%" gradientTransform="translate(-0.125319,0.082376),scale(1.000000,0.806939),translate(0.125319,-0.082376)" id="radialGradient-14">
            <stop stop-color="#FFFFFF" offset="0%"></stop>
            <stop stop-color="#000000" offset="100%"></stop>
        </radialGradient>
        <radialGradient cx="148.790012%" cy="89.4929879%" fx="148.790012%" fy="89.4929879%" r="96.1474071%" gradientTransform="translate(1.487900,0.894930),scale(1.000000,0.880895),translate(-1.487900,-0.894930)" id="radialGradient-15">
            <stop stop-color="#000000" stop-opacity="0" offset="0%"></stop>
            <stop stop-color="#FFFFFF" stop-opacity="0.357517483" offset="100%"></stop>
        </radialGradient>
        <radialGradient cx="87.1291892%" cy="86.720013%" fx="87.1291892%" fy="86.720013%" r="179.66627%" gradientTransform="translate(0.871292,0.867200),scale(1.000000,0.939479),translate(-0.871292,-0.867200)" id="radialGradient-16">
            <stop stop-color="#ABABAB" stop-opacity="0.117023601" offset="0%"></stop>
            <stop stop-color="#FFFFFF" stop-opacity="0.232708698" offset="100%"></stop>
        </radialGradient>
        <radialGradient cx="-1.19802974%" cy="21.4673074%" fx="-1.19802974%" fy="21.4673074%" r="207.016974%" gradientTransform="translate(-0.011980,0.214673),scale(1.000000,0.712645),translate(0.011980,-0.214673)" id="radialGradient-17">
            <stop stop-color="#FFFFFF" offset="0%"></stop>
            <stop stop-color="#000000" offset="100%"></stop>
        </radialGradient>
        <radialGradient cx="20.5359295%" cy="-0.38579208%" fx="20.5359295%" fy="-0.38579208%" r="176.564323%" gradientTransform="translate(0.205359,-0.003858),scale(0.771767,1.000000),translate(-0.205359,0.003858)" id="radialGradient-18">
            <stop stop-color="#CCF0EF" offset="0%"></stop>
            <stop stop-color="#364E82" offset="100%"></stop>
        </radialGradient>
        <linearGradient x1="-5.02857143%" y1="36.0076521%" x2="96.6857143%" y2="71.1055805%" id="linearGradient-19">
            <stop stop-color="#FFFFFF" offset="0%"></stop>
            <stop stop-color="#000000" offset="100%"></stop>
        </linearGradient>
        <radialGradient cx="135.852419%" cy="63.9072848%" fx="135.852419%" fy="63.9072848%" r="173.44819%" gradientTransform="translate(1.358524,0.639073),scale(1.000000,0.511098),translate(-1.358524,-0.639073)" id="radialGradient-20">
            <stop stop-color="#000000" offset="0%"></stop>
            <stop stop-color="#FFFFFF" offset="100%"></stop>
        </radialGradient>
        <radialGradient cx="1.31531426%" cy="3.15238003%" fx="1.31531426%" fy="3.15238003%" r="283.336274%" gradientTransform="translate(0.013153,0.031524),scale(0.651966,1.000000),translate(-0.013153,-0.031524)" id="radialGradient-21">
            <stop stop-color="#F2FFFF" offset="0%"></stop>
            <stop stop-color="#6A79C2" offset="100%"></stop>
        </radialGradient>
        <radialGradient cx="25.6213409%" cy="17.7330969%" fx="25.6213409%" fy="17.7330969%" r="95.812204%" gradientTransform="translate(0.256213,0.177331),scale(1.000000,0.996539),translate(-0.256213,-0.177331)" id="radialGradient-22">
            <stop stop-color="#CA9E67" offset="0%"></stop>
            <stop stop-color="#000000" offset="100%"></stop>
        </radialGradient>
        <radialGradient cx="34.5636016%" cy="4.36812207%" fx="34.5636016%" fy="4.36812207%" r="136.695527%" gradientTransform="translate(0.345636,0.043681),scale(1.000000,0.748006),translate(-0.345636,-0.043681)" id="radialGradient-23">
            <stop stop-color="#CA9E67" offset="0%"></stop>
            <stop stop-color="#000000" offset="100%"></stop>
        </radialGradient>
        <linearGradient x1="73.6535157%" y1="78.7363334%" x2="24.5381814%" y2="14.1698708%" id="linearGradient-24">
            <stop stop-color="#B07A38" offset="0%"></stop>
            <stop stop-color="#704824" offset="100%"></stop>
        </linearGradient>
        <linearGradient x1="85.2888714%" y1="80.2585364%" x2="23.5924458%" y2="21.2481751%" id="linearGradient-25">
            <stop stop-color="#B07A38" offset="0%"></stop>
            <stop stop-color="#704824" offset="100%"></stop>
        </linearGradient>
        <radialGradient cx="17.8176266%" cy="-39.7948356%" fx="17.8176266%" fy="-39.7948356%" r="169.939173%" gradientTransform="translate(0.178176,-0.397948),scale(0.881429,1.000000),translate(-0.178176,0.397948)" id="radialGradient-26">
            <stop stop-color="#CA9E67" offset="0%"></stop>
            <stop stop-color="#000000" offset="100%"></stop>
        </radialGradient>
        <linearGradient x1="0.24375597%" y1="48.6993566%" x2="100.116035%" y2="48.6993566%" id="linearGradient-27">
            <stop stop-color="#6B4E35" offset="0%"></stop>
            <stop stop-color="#87643A" offset="100%"></stop>
        </linearGradient>
        <linearGradient x1="0.482740855%" y1="49.9901245%" x2="100.031613%" y2="49.9901245%" id="linearGradient-28">
            <stop stop-color="#6B4E35" offset="0%"></stop>
            <stop stop-color="#87643A" offset="100%"></stop>
        </linearGradient>
        <linearGradient x1="-0.076859757%" y1="51.5462228%" x2="100.110969%" y2="51.5462228%" id="linearGradient-29">
            <stop stop-color="#6B4E35" offset="0%"></stop>
            <stop stop-color="#87643A" offset="100%"></stop>
        </linearGradient>
        <linearGradient x1="86.7096359%" y1="90.6041975%" x2="9.21293983%" y2="9.93653778%" id="linearGradient-30">
            <stop stop-color="#B07A38" offset="0%"></stop>
            <stop stop-color="#704824" offset="100%"></stop>
        </linearGradient>
        <radialGradient cx="693.527508%" cy="-37.0348042%" fx="693.527508%" fy="-37.0348042%" r="205.960458%" gradientTransform="translate(6.935275,-0.370348),scale(0.466675,1.000000),translate(-6.935275,0.370348)" id="radialGradient-31">
            <stop stop-color="#95C11F" offset="0%"></stop>
            <stop stop-color="#000000" offset="100%"></stop>
        </radialGradient>
    </defs>
    <g id="Ready-Flow--(-Janis-)" stroke="none" stroke-width="1" fill="none" fill-rule="evenodd">
        <g id="14" transform="translate(-1484.000000, -151.000000)">
            <g id="Group-47" transform="translate(1529.800000, 196.000000) scale(-1, 1) translate(-1529.800000, -196.000000) translate(1484.800000, 151.000000)">
                <path d="M45,1 C57.1502645,1 68.1502645,5.92486775 76.1126984,13.8873016 C84.0751322,21.8497355 89,32.8497355 89,45 C89,57.1502645 84.0751322,68.1502645 76.1126984,76.1126984 C68.1502645,84.0751322 57.1502645,89 45,89 C32.8497355,89 21.8497355,84.0751322 13.8873016,76.1126984 C5.92486775,68.1502645 1,57.1502645 1,45 C1,32.8497355 5.92486775,21.8497355 13.8873016,13.8873016 C21.8497355,5.92486775 32.8497355,1 45,1 Z" id="Rectangle" stroke="url(#linearGradient-1)" stroke-width="2" fill-opacity="0.3" fill="#1B1B1B"></path>
                <rect id="Rectangle-Copy" fill-opacity="0.496687882" fill="#000000" x="5.625" y="5.625" width="78.75" height="78.75" rx="39"></rect>
                <g id="Screenshot-2022-03-15-at-14.59.53" transform="translate(11.250000, 11.250000)">
                    <mask id="mask-3" fill="white">
                        <use xlink:href="#path-2"></use>
                    </mask>
                    <use id="Mask" fill="#1A0408" xlink:href="#path-2"></use>
                    <g id="Group-102" mask="url(#mask-3)">
                        <g transform="translate(33.550000, 33.750000) scale(-1, 1) translate(-33.550000, -33.750000) translate(18.550000, 13.750000)">
                            <path d="M9.64603214,32.4258077 C12.8327996,34.2687848 14.635533,37.0915726 13.6701984,38.8062411 C12.7048637,40.5209097 9.33200761,40.3576079 6.14524014,38.5146308 C2.95847267,36.6716537 1.14410871,33.848866 2.10944338,32.122533 C3.07477805,30.3962001 6.45926467,30.5711662 9.64603214,32.4258077 L9.64603214,32.4258077 Z" id="Path" fill="url(#radialGradient-4)"></path>
                            <path d="M13.8330259,38.5846173 C12.9607355,40.1126553 9.65766268,39.8327094 6.44763413,37.9780679 C3.23760559,36.1234264 1.3534584,33.3822895 2.22574876,31.865916 C3.67956604,34.6537104 9.00635254,38.4213155 13.856287,38.5846173 L13.8330259,38.5846173 Z" id="Path" fill="#5ACCC9" style="mix-blend-mode: multiply;"></path>
                            <path d="M19.1481819,9.47024486 L18.3107831,10.8816387 C17.1477293,12.8412599 17.659473,12.3163614 15.7985868,13.7394197 C14.7875798,14.5255573 13.5805532,15.0178444 12.3094254,15.1624779 C8.23873701,15.8973359 4.50533425,17.4953603 2.35368468,21.2163078 C1.48632155,22.7491716 1.02953426,24.4811779 1.02780333,26.2436694 C1.15677147,30.5574887 3.51301788,34.4937184 7.24867901,36.6359592 C10.9843401,38.7782001 15.5619323,38.8182283 19.3342705,36.7416402 C20.8330793,35.8468024 22.0783548,34.581837 22.9513678,33.0673504 C25.1030174,29.3230741 24.5912737,25.298852 23.1956091,21.4029384 C22.7049728,20.2366675 22.5323716,18.9605294 22.695496,17.7053198 C22.6724735,16.4075609 23.0817599,15.1391824 23.8585498,14.1010164 L24.661057,12.6662938 C23.624227,12.3556624 22.6284642,11.9209503 21.6952697,11.371544 C20.7535089,10.8372575 19.8821892,10.1867628 19.1016597,9.43525162 L19.1481819,9.47024486 Z" id="Path" fill="#FFFFFF" opacity="0.15"></path>
                            <path d="M12.646711,18.7084592 C18.8341573,18.7084592 23.8585498,21.0413416 23.8585498,23.8641293 C23.8585498,26.686917 18.8341573,29.0197994 12.646711,29.0197994 C6.45926467,29.0197994 1.42324163,26.686917 1.42324163,23.8641293 C1.42324163,21.0413416 6.44763413,18.7084592 12.646711,18.7084592 Z" id="Path" fill="url(#radialGradient-5)"></path>
                            <path d="M12.646711,29.0197994 C6.44763413,29.0197994 1.42324163,26.686917 1.42324163,23.8641293 C1.42685708,23.6148664 1.46602256,23.3674052 1.53954701,23.1292714 C1.22276017,24.1218505 1.05040386,25.1550717 1.02780333,26.1970117 C1.14103233,30.5191998 3.49102955,34.4701065 7.22944688,36.623456 C10.9678642,38.7768055 15.5547615,38.8215892 19.3342705,36.7416402 C20.8330793,35.8468024 22.0783548,34.581837 22.9513678,33.0673504 C24.5704405,30.0498588 24.8735118,26.4952858 23.7887666,23.2459155 C23.8586878,23.4609087 23.8978463,23.6847625 23.905072,23.910787 C23.905072,26.7569035 18.8806795,29.0664571 12.6932331,29.0664571 L12.646711,29.0197994 Z" id="Path" fill="url(#radialGradient-6)"></path>
                            <path d="M21.9627721,26.0803676 C21.9627721,23.4208817 17.3105568,21.251301 11.4952877,21.251301 C6.84307243,21.251301 2.97010321,22.6160372 1.55117755,24.505672 C2.2373793,27.0485138 6.95937781,29.0197994 12.6816026,29.0197994 C15.8931971,29.1450556 19.0768733,28.3781021 21.8813583,26.8035611 C21.9604997,26.5707959 21.9998225,26.326284 21.997748,26.0803676 L21.9627721,26.0803676 Z" id="Path" fill="url(#radialGradient-7)" style="mix-blend-mode: screen;"></path>
                            <path d="M19.0667681,26.628595 C19.0667681,24.2957126 15.0542324,22.4993931 10.0996231,22.4993931 C6.30806767,22.4993931 3.1213002,23.572519 1.7488967,25.100557 C2.91195052,27.3517885 7.37807719,29.0197994 12.646711,29.0197994 C14.5452912,29.0300068 16.4372673,28.7947812 18.2758915,28.3199347 C18.7572777,27.8870253 19.0427138,27.276602 19.0667681,26.628595 L19.0667681,26.628595 Z" id="Path" fill="url(#radialGradient-8)" style="mix-blend-mode: screen;"></path>
                            <path d="M12.646711,29.0197994 C7.37807719,29.0197994 2.97010321,27.4101106 1.80704939,25.0772282 C1.71153811,24.9000341 1.63735806,24.7120861 1.58606916,24.5173364 C1.49102655,25.033261 1.4365829,25.5558822 1.42324163,26.0803676 C1.49770407,29.8858917 3.54916189,33.3758686 6.83314206,35.2837873 C10.1171222,37.1917061 14.1563588,37.2402859 17.4850149,35.4118972 C18.7957614,34.6226937 19.8876118,33.51563 20.6601518,32.1925195 C21.5955452,30.5577753 22.0360528,28.6852317 21.9278805,26.8035611 L21.9278805,26.8035611 C20.8268342,27.4984804 19.6211241,28.0105287 18.3573053,28.3199347 C16.5186811,28.7947812 14.626705,29.0300068 12.7281248,29.0197994 L12.646711,29.0197994 Z" id="Path" fill="url(#radialGradient-9)" style="mix-blend-mode: screen;"></path>
                            <path d="M12.7048637,28.9964706 C7.37807719,29.0197994 2.97010321,27.4101106 1.80704939,25.0772282 L1.88846315,24.9839129 C1.88188337,24.9335825 1.88188337,24.8826059 1.88846315,24.8322755 C1.88846315,24.9139264 1.88846315,24.9839129 1.88846315,25.0538993 C1.83823782,25.4016444 1.81104033,25.7523448 1.80704939,26.1036964 C1.867508,29.2032811 3.54015934,32.0453438 6.21669954,33.5962932 C8.89323973,35.1472427 12.1836952,35.1811046 14.8914049,33.6855642 C15.9579399,33.0417858 16.8458486,32.1392575 17.4733844,31.0610715 C17.9685677,30.2110374 18.2925927,29.2717984 18.4270885,28.2966059 L18.4270885,28.2966059 C16.5884643,28.7714524 14.6964882,29.006678 12.797908,28.9964706 L12.7048637,28.9964706 Z" id="Shape" fill="url(#radialGradient-10)" style="mix-blend-mode: screen;"></path>
                            <path d="M24.812254,14.6375794 L25.7775886,12.9112464 C25.5782837,12.8913015 25.3802528,12.8601473 25.1844312,12.8179311 C24.9800566,12.7744325 24.7781679,12.7199195 24.5796432,12.6546293 L23.7887666,14.0660232 C22.3164544,16.2587222 22.045334,19.0479926 23.0676732,21.4845893 C24.4517073,25.3455096 24.963451,29.3347386 22.8234319,33.0440216 C21.9662334,34.5426884 20.7359502,35.7926312 19.2528567,36.6716537 C15.5066805,38.7337194 10.9582826,38.6819164 7.25976513,36.5350608 C3.56124764,34.3882052 1.25069759,30.4586371 1.16736979,26.1736829 C1.19653421,24.4488017 1.66066945,22.7594048 2.51651222,21.2629654 C4.64490071,17.5536824 8.33178132,16.0256444 12.3792086,15.2674576 C12.8432184,15.1538091 13.3335176,15.2428287 13.728351,15.5124103 C14.8099911,16.3172547 15.6124982,17.6586621 17.3338179,18.4518421 C16.3452221,17.6936553 14.8448827,15.9439935 14.8332522,14.9525185 C14.8182339,14.7462076 14.9051789,14.5456517 15.0658629,14.4159556 C16.5068795,13.6088225 17.6766658,12.3909747 18.4270885,10.916632 L19.2412262,9.54023133 C19.0900292,9.38859397 18.9388322,9.23695662 18.8108962,9.08531926 C18.6728068,8.93848281 18.5445889,8.78261463 18.4270885,8.61874278 L17.4152317,10.3100825 C16.439538,12.3996364 14.455017,13.8338887 12.1698589,14.1010164 C7.7153628,14.9058609 3.79587142,16.6788515 1.50465539,20.656416 C-1.79841746,26.3953067 0.516059646,33.9538457 6.69187543,37.5231558 C12.8676912,41.0924659 20.5438464,39.3428041 23.8469193,33.6039134 C26.1730269,29.6146844 25.7078054,25.3221808 24.1725744,21.053006 C23.2752815,18.9459263 23.5166975,16.5247355 24.812254,14.6375794 L24.812254,14.6375794 Z" id="Path" fill="url(#radialGradient-11)"></path>
                            <path d="M23.2653924,15.2324644 C22.8611398,16.6654505 22.7620724,18.167713 22.9746289,19.6416122 C23.19457,21.2751704 23.5052003,22.8951521 23.905072,24.4940076 C23.1435623,22.8848843 22.5285222,21.2100698 22.0674469,19.4899748 C22.1234647,17.9999795 22.5214695,16.5430308 23.2305008,15.2324644 L23.2653924,15.2324644 Z" id="Path" fill="url(#linearGradient-12)" style="mix-blend-mode: screen;"></path>
                            <path d="M22.1372302,10.7300014 L24.8006234,12.2463749 C22.6838655,15.9206647 19.7762309,18.2068895 18.3107831,17.3553874 C16.8453353,16.5038853 17.357079,12.8295955 19.4738369,9.19029897 L22.1372302,10.7416658 L22.1372302,10.7300014 Z" id="Path" fill="url(#radialGradient-13)" opacity="0.5" style="mix-blend-mode: screen;"></path>
                            <path d="M21.1951566,10.0767943 L22.4163631,10.8816387 C20.9625458,13.2145211 19.2412262,14.7658879 18.5666549,14.3809623 C17.8920837,13.9960367 18.5666549,11.6864831 19.9623195,9.34193633 L21.1951566,10.1351163 L21.1951566,10.0767943 Z" id="Path" fill="url(#radialGradient-14)" opacity="0.5" style="mix-blend-mode: screen;"></path>
                            <path d="M8.41319509,19.3616663 C8.14569271,19.1050492 7.83166818,18.7901101 7.47112149,18.8134389 C6.16850121,18.8134389 4.61000909,20.4814498 3.98196003,21.4729248 C2.30020251,23.6902284 1.861744,26.6144695 2.81890621,29.2297588 C3.13293074,29.941288 5.21479708,31.2127089 5.2496887,30.7461324 C5.24386792,29.5304648 5.5269402,28.3309012 6.07545691,27.2468088 C6.89620215,25.8261978 8.00096965,24.5911319 9.32037707,23.6191767 C10.5881057,22.639366 10.6695195,22.3127625 10.1926674,21.6128978 C9.64623504,20.8005156 9.0520247,20.0215078 8.41319509,19.2800154 L8.41319509,19.3616663 Z M14.0191145,17.5770112 C15.3449959,19.0583916 15.2868432,19.9098936 14.6820552,20.6097584 C13.5190014,21.9045081 11.7278985,21.2979587 10.5648447,19.8515716 C9.40179084,18.4051845 9.18081061,17.6353333 9.79722913,16.9821262 C10.7160417,16.01398 12.6932331,16.1072953 14.0191145,17.5770112 Z" id="Shape" fill="url(#radialGradient-15)" style="mix-blend-mode: screen;"></path>
                            <path d="M13.1933463,17.6936553 C12.5595283,16.8621418 11.3948414,16.6589976 10.5183225,17.2270789 C10.1461453,17.60034 10.3089728,18.0669165 11.0765883,18.9650763 C11.8442039,19.863236 13.0072577,20.2714904 13.6934594,19.524968 C14.0540061,19.128378 14.0656367,18.6151439 13.1933463,17.6936553 Z M7.28503288,19.6882698 C7.13383589,19.5949545 6.95937781,19.5949545 6.6802449,19.6882698 C5.83781429,20.2077707 5.10648792,20.8896869 4.52859533,21.6945487 C3.09710604,23.4552949 2.52545586,25.7656692 2.97010321,27.9933312 C3.0282559,28.2032906 3.1794529,28.611545 3.40043312,28.6931959 C3.62141335,28.7748468 3.59815227,28.6931959 3.65630496,28.3782568 C3.83665382,27.63723 4.13094169,26.928882 4.52859533,26.2786626 C5.47424049,24.7636496 6.69296695,23.4385284 8.12243163,22.3710846 C8.5992837,22.0094878 8.692328,21.787864 8.64580585,21.589569 C8.25896685,20.9103309 7.80293684,20.2731566 7.28503288,19.6882698 L7.28503288,19.6882698 Z" id="Shape" fill="url(#radialGradient-16)"></path>
                            <path d="M20.9392847,10.0767943 L21.5673338,10.5083775 C20.5903686,12.1880529 19.5087285,13.3544941 19.1598124,13.1095414 C18.8108962,12.8645888 19.3226399,11.3248864 20.3228662,9.6102178 L20.9509153,10.041801 L20.9392847,10.0767943 Z" id="Path" fill="url(#radialGradient-17)" opacity="0.5" style="mix-blend-mode: screen;"></path>
                            <path d="M24.8006234,14.6609082 C24.4400767,15.2791221 22.7187571,14.4392844 20.9625458,12.7829379 C19.2063345,11.1265914 18.0549113,9.28361427 18.4038274,8.67706484 L18.4038274,8.67706484 C20.3237529,10.8820099 22.9231293,12.3804913 25.7892192,12.9345752 L24.7889929,14.6725726 L24.8006234,14.6609082 Z" id="Path" fill="#7F8E99" opacity="0.5" style="mix-blend-mode: multiply;"></path>
                            <path d="M27.5919526,13.0512194 C26.8592287,13.8560638 24.2423576,13.3078364 21.5440727,11.7564696 C18.8457879,10.2051028 17.0663155,8.18715953 17.4036011,7.14902686 C17.8237902,6.11599804 18.4266311,5.16761099 19.1830735,4.34956797 L24.1493133,7.21901334 L24.1493133,7.21901334 L29.1155531,10.1001231 C28.777742,11.1654256 28.2583042,12.1639144 27.5803221,13.0512194 L27.5919526,13.0512194 Z M27.5919526,9.93682134 L23.8934414,7.79056952 L20.1716692,5.64431771 C19.9798962,5.88611192 19.8087132,6.14363429 19.6599255,6.4141689 C18.2642609,8.86369543 25.7659581,13.2028567 27.1732532,10.776659 C27.3381139,10.5101322 27.4782668,10.2290101 27.5919526,9.93682134 L27.5919526,9.93682134 Z" id="Shape" fill="url(#radialGradient-18)"></path>
                            <path d="M27.254667,10.8466455 C27.4382412,10.536728 27.5976663,10.2130494 27.731519,9.87849928 L23.905072,7.65059658 L20.0669944,5.44602271 C19.8420692,5.72641475 19.6435031,6.02708368 19.4738369,6.34418243 C17.9734975,8.95701073 25.742697,13.4594738 27.254667,10.8466455 L27.254667,10.8466455 Z" id="Path" fill="#FFFFFF" opacity="0.15"></path>
                            <path d="M26.2311796,10.9049675 C25.8357413,11.371544 24.2423576,11.0099472 22.5791906,10.041801 C20.9160237,9.07365485 19.8925363,7.96553571 20.0088417,7.37065069 C20.1989115,6.80146363 20.4322057,6.24772604 20.706674,5.71430418 L27.2662975,9.50523809 C26.9464909,9.99006187 26.6009541,10.4573112 26.2311796,10.9049675 L26.2311796,10.9049675 Z" id="Path" fill="#8E633F"></path>
                            <path d="M12.8095385,38.7129258 C9.15754953,39.027865 4.01685165,36.3800434 2.6328176,32.8807198 C5.1598877,36.0545785 8.80010393,38.1407604 12.8095385,38.7129258 L12.8095385,38.7129258 Z" id="Path" fill="url(#linearGradient-19)" style="mix-blend-mode: screen;"></path>
                            <path d="M16.6359856,37.8031017 C20.4904264,36.2687347 23.3295404,32.9096103 24.207466,28.8448333 C24.0678995,33.6155778 21.1370039,37.1848879 16.6359856,37.8031017 L16.6359856,37.8031017 Z" id="Path" fill="#FFFFFF"></path>
                            <path d="M18.2293693,8.23381718 C18.0549113,7.33565746 19.3924232,5.51600918 19.9390584,4.73449357 L19.1830735,4.30291033 C18.4266311,5.12095334 17.8237902,6.06934039 17.4036011,7.10236921 C17.0895766,8.07051541 18.5666549,9.85517046 20.9625458,11.3482152 C19.8576447,10.5550352 18.438719,9.3186075 18.2293693,8.18715953 L18.2293693,8.23381718 Z" id="Path" fill="url(#radialGradient-20)" style="mix-blend-mode: screen;"></path>
                            <path d="M25.0681258,5.62098889 C27.8129328,7.20734892 29.6272968,9.21362779 29.1155531,10.1001231 C28.6038094,10.9866184 25.9753078,10.4267266 23.2305008,8.8287022 C20.4856937,7.23067775 18.6713298,5.23606329 19.1830735,4.34956797 C19.6948171,3.46307266 22.3233188,4.03462885 25.0681258,5.62098889 L25.0681258,5.62098889 Z" id="Path" fill="url(#radialGradient-21)"></path>
                            <path d="M27.8013023,10.5083775 C26.095108,10.399001 24.4453474,9.85283372 23.0095205,8.92201749 C22.3991041,8.57247898 21.8124187,8.18281402 21.2533093,7.75557629 C21.119718,7.9361002 20.9141216,8.04904086 20.6905114,8.06473916 C20.4669013,8.08043746 20.247621,7.99732478 20.0902554,7.83722717 C19.6825559,7.45988975 19.560817,6.86351033 19.7878615,6.35584684 C19.1481819,5.58599565 18.89231,4.89779534 19.1481819,4.45454768 C19.1459693,4.42737595 19.1459693,4.40006853 19.1481819,4.3728968 C18.8225268,5.2477277 20.6950434,7.19568451 23.4398504,8.78204455 C24.7774305,9.59762929 26.2388562,10.1886301 27.7664107,10.5317064 L27.8013023,10.5083775 Z" id="Path" fill="#FFFFFF"></path>
                            <path d="M27.5454304,9.03866161 C27.1151005,9.54023133 25.4054114,9.14364132 23.6375696,8.11717306 C21.8697278,7.0907048 20.7531961,5.88927036 20.8695015,5.2477277 C21.5419251,3.4823124 22.346735,1.77052217 23.2770229,0.127050816 L29.9296908,5.81928389 C29.1388142,6.92740303 28.4060903,8.03552218 27.5454304,9.03866161 L27.5454304,9.03866161 Z" id="Path" fill="#8E633F"></path>
                            <path d="M27.5803221,8.38545454 C27.1965143,8.8287022 25.6263916,8.45544101 23.9864857,7.49895922 C22.3465799,6.54247744 21.3230925,5.45768712 21.4161368,4.88613093 C22.0057761,3.32191634 22.7134107,1.8050394 23.5328948,0.348674645 L29.6040357,5.539338 C28.8829423,6.53081302 28.3479376,7.48729481 27.5803221,8.38545454 L27.5803221,8.38545454 Z" id="Path" fill="url(#radialGradient-22)" style="mix-blend-mode: screen;"></path>
                            <path d="M26.4405293,3.18312677 C25.0913869,5.51600918 23.8003971,6.68245038 22.7652792,5.87760595 C21.7301613,5.07276152 22.3465799,2.86818765 23.6957223,0.523640826 L26.4405293,3.18312677 L26.4405293,3.18312677 Z" id="Path" fill="url(#radialGradient-23)" style="mix-blend-mode: screen;"></path>
                            <path d="M23.6840918,5.03776828 C24.1300574,5.07458872 24.4709762,5.45222266 24.4633378,5.90093477 C24.4868128,6.35839253 24.2411428,6.78728588 23.8352887,6.99738951 C23.4747421,7.11403363 23.0560427,6.49581979 22.9746289,5.9242636 C22.8932152,5.35270741 23.2305008,4.94445299 23.6840918,5.03776828 L23.6840918,5.03776828 Z" id="Path" fill="url(#linearGradient-24)"></path>
                            <path d="M27.9641298,6.51914861 C28.1431779,6.99633688 27.9924532,7.53485747 27.5919526,7.84889159 C27.179318,8.06961917 26.6696176,7.97799167 26.3591155,7.62726776 C26.1265048,7.34732187 26.3591155,6.82242333 26.7661844,6.51914861 C27.1732532,6.2158739 27.7431496,6.18088066 27.9292382,6.51914861 L27.9641298,6.51914861 Z" id="Path" fill="url(#linearGradient-25)"></path>
                            <path d="M27.1383616,2.02834998 C25.2425839,0.558634062 23.5561558,-0.397847725 23.2072397,0.220366113 C23.0211511,0.54696965 23.2072397,1.22350555 23.7073528,2.01668557 C23.3671592,2.4428248 23.3671592,3.04859784 23.7073528,3.47473707 C24.0380538,3.90667937 24.6410403,4.01754886 25.1030174,3.73135414 C25.3123671,3.94131355 25.5449779,4.13960856 25.7892192,4.34956797 C27.731519,5.94759242 29.4877303,6.53081302 29.9180602,5.81928389 C30.3483901,5.10775476 29.0341393,3.50973031 27.1383616,2.02834998 Z" id="Path" fill="#EDCAA6" opacity="0.25" style="mix-blend-mode: screen;"></path>
                            <path d="M27.2081448,1.90004145 C29.0690309,3.45140825 30.2902375,5.20107005 29.9296908,5.81928389 C29.5691441,6.43749773 27.7780412,5.69097536 25.9171551,4.15127297 C24.056269,2.61157058 22.846693,0.850244363 23.2072397,0.220366113 C23.5677864,-0.409512137 25.3588893,0.360339057 27.2081448,1.90004145 L27.2081448,1.90004145 Z" id="Path" fill="#936E4E"></path>
                            <path d="M26.6149874,1.57343791 C28.1385879,2.84485882 29.1388142,4.29124591 28.8480507,4.80448004 C28.5572873,5.31771417 27.0802089,4.69950033 25.5449779,3.42807942 C24.0097468,2.15665851 23.0211511,0.710271418 23.3119145,0.197037289 C23.602678,-0.316196841 25.0797563,0.302016997 26.6149874,1.57343791 L26.6149874,1.57343791 Z" id="Path" fill="url(#radialGradient-26)" style="mix-blend-mode: screen;"></path>
                            <path d="M25.6263916,1.0835326 C26.2079185,1.51511585 26.5917263,2.01668557 26.4754209,2.24997381 C26.3591155,2.48326205 25.8124802,2.24997381 25.2425839,1.80672615 C24.6726875,1.36347849 24.2772492,0.873573187 24.381924,0.640284946 C24.4865989,0.406996705 25.0448647,0.640284946 25.6263916,1.0835326 L25.6263916,1.0835326 Z" id="Path" fill="url(#linearGradient-27)"></path>
                            <path d="M26.8824898,3.33476413 C27.2895586,3.63803884 27.557061,4.02296444 27.4523861,4.18626621 C27.3477113,4.34956797 26.952273,4.18626621 26.5335736,3.92964914 C26.1148742,3.67303208 25.8590024,3.22978442 25.9520467,3.06648265 C26.045091,2.90318088 26.4637904,3.06648265 26.8824898,3.33476413 L26.8824898,3.33476413 Z" id="Path" fill="url(#linearGradient-28)"></path>
                            <path d="M28.9527256,4.0812865 C29.4063165,4.45454768 29.69708,4.90945975 29.5924052,5.09609034 C29.4877303,5.28272094 29.0225088,5.09609034 28.5572873,4.76948681 C28.0920657,4.44288327 27.8129328,3.92964914 27.9176077,3.74301855 C28.0222825,3.55638796 28.487504,3.74301855 28.9527256,4.0812865 L28.9527256,4.0812865 Z" id="Path" fill="url(#linearGradient-29)"></path>
                            <path d="M24.9750815,3.52139472 C24.5891887,3.74320216 24.0972243,3.61336078 23.8701804,3.22978442 C23.5534494,2.91583688 23.523368,2.41302012 23.8003971,2.06334321 C24.0795301,1.8533838 24.6261653,2.06334321 24.963451,2.49492646 C25.3007366,2.92650971 25.2542144,3.32309971 24.963451,3.53305913 L24.9750815,3.52139472 Z" id="Path" fill="url(#linearGradient-30)"></path>
                            <path d="M22.7420182,30.9094342 C21.6827636,33.6540932 19.5233802,35.8267743 16.7901285,36.8979762 C14.0568767,37.9691781 11.0007935,37.8405157 8.36667293,36.5433452 C13.6899626,36.5218036 18.8145862,34.5133876 22.7420182,30.9094342 L22.7420182,30.9094342 Z" id="Path" fill="url(#radialGradient-31)" style="mix-blend-mode: screen;"></path>
                        </g>
                    </g>
                </g>
            </g>
        </g>
    </g>
</svg>