<?xml version="1.0" encoding="UTF-8"?>
<svg width="22px" height="22px" viewBox="0 0 22 22" version="1.1" xmlns="http://www.w3.org/2000/svg" xmlns:xlink="http://www.w3.org/1999/xlink">
    <title>73AA0C6D-EF68-415F-941C-872E79954998</title>
    <defs>
        <linearGradient x1="71.2203152%" y1="65.8178474%" x2="36.8264047%" y2="24.3019597%" id="linearGradient-1">
            <stop stop-color="#1F0E00" offset="0%"></stop>
            <stop stop-color="#782700" offset="100%"></stop>
        </linearGradient>
        <linearGradient x1="25.9607119%" y1="-10.1616789%" x2="64.4261106%" y2="60.7463504%" id="linearGradient-2">
            <stop stop-color="#943800" offset="0%"></stop>
            <stop stop-color="#782700" offset="100%"></stop>
        </linearGradient>
        <linearGradient x1="74.4419547%" y1="71.3582942%" x2="37.8633333%" y2="19.2738606%" id="linearGradient-3">
            <stop stop-color="#1F0E00" offset="0%"></stop>
            <stop stop-color="#782700" offset="51%"></stop>
            <stop stop-color="#782700" offset="71%"></stop>
            <stop stop-color="#6F2400" offset="74%"></stop>
            <stop stop-color="#561E00" offset="81%"></stop>
            <stop stop-color="#2F1200" offset="89%"></stop>
            <stop stop-color="#1F0E00" offset="100%"></stop>
        </linearGradient>
        <linearGradient x1="39.3382589%" y1="24.7317574%" x2="65.2039833%" y2="58.4685731%" id="linearGradient-4">
            <stop stop-color="#943800" offset="0%"></stop>
            <stop stop-color="#782700" offset="100%"></stop>
        </linearGradient>
        <linearGradient x1="80.7756922%" y1="85.2463212%" x2="37.2303227%" y2="18.9164733%" id="linearGradient-5">
            <stop stop-color="#1F0E00" offset="0%"></stop>
            <stop stop-color="#782700" offset="100%"></stop>
        </linearGradient>
        <linearGradient x1="108.363155%" y1="139.345019%" x2="5.90979114%" y2="-38.6919396%" id="linearGradient-6">
            <stop stop-color="#7C2900" offset="0%"></stop>
            <stop stop-color="#CF5700" offset="93%"></stop>
        </linearGradient>
        <linearGradient x1="66.6257492%" y1="23.0948959%" x2="-1.2484694%" y2="132.85907%" id="linearGradient-7">
            <stop stop-color="#8C3000" offset="0%"></stop>
            <stop stop-color="#701F00" offset="100%"></stop>
        </linearGradient>
        <linearGradient x1="66.6347859%" y1="23.1363445%" x2="-1.25407536%" y2="132.899462%" id="linearGradient-8">
            <stop stop-color="#F8D487" offset="0%"></stop>
            <stop stop-color="#CF8A29" offset="100%"></stop>
        </linearGradient>
        <linearGradient x1="70.4451172%" y1="65.6780691%" x2="33.9051463%" y2="22.0326727%" id="linearGradient-9">
            <stop stop-color="#7C2900" offset="0%"></stop>
            <stop stop-color="#CF5700" offset="100%"></stop>
        </linearGradient>
        <linearGradient x1="61.7647987%" y1="58.8661738%" x2="26.8423804%" y2="23.4931764%" id="linearGradient-10">
            <stop stop-color="#A84100" offset="0%"></stop>
            <stop stop-color="#FF8A17" offset="100%"></stop>
        </linearGradient>
        <linearGradient x1="66.1072732%" y1="22.0913203%" x2="11.6199213%" y2="116.61026%" id="linearGradient-11">
            <stop stop-color="#8C3000" offset="0%"></stop>
            <stop stop-color="#701F00" offset="100%"></stop>
        </linearGradient>
        <linearGradient x1="66.0848327%" y1="22.093291%" x2="11.6657023%" y2="116.558025%" id="linearGradient-12">
            <stop stop-color="#F8D487" offset="0%"></stop>
            <stop stop-color="#CF8A29" offset="100%"></stop>
        </linearGradient>
        <linearGradient x1="38.7584904%" y1="23.3704672%" x2="65.3928145%" y2="64.472772%" id="linearGradient-13">
            <stop stop-color="#D4611B" offset="0%"></stop>
            <stop stop-color="#682200" offset="100%"></stop>
        </linearGradient>
        <linearGradient x1="70.3647541%" y1="71.3740479%" x2="43.9885557%" y2="34.3226603%" id="linearGradient-14">
            <stop stop-color="#7C2900" offset="0%"></stop>
            <stop stop-color="#CF5700" offset="100%"></stop>
        </linearGradient>
        <linearGradient x1="62.8135455%" y1="62.8727615%" x2="42.5113103%" y2="35.8058917%" id="linearGradient-15">
            <stop stop-color="#A84100" offset="0%"></stop>
            <stop stop-color="#FF8A17" offset="100%"></stop>
        </linearGradient>
        <linearGradient x1="0.000735445297%" y1="49.996858%" x2="99.9985923%" y2="49.996858%" id="linearGradient-16">
            <stop stop-color="#8C3000" offset="0%"></stop>
            <stop stop-color="#701F00" offset="100%"></stop>
        </linearGradient>
        <linearGradient x1="57.4157468%" y1="16.2088743%" x2="26.3435531%" y2="158.312108%" id="linearGradient-17">
            <stop stop-color="#F8D487" offset="0%"></stop>
            <stop stop-color="#CF8A29" offset="100%"></stop>
        </linearGradient>
        <linearGradient x1="68.6276038%" y1="-15.7463997%" x2="42.0268237%" y2="78.3702209%" id="linearGradient-18">
            <stop stop-color="#F0CC78" offset="0%"></stop>
            <stop stop-color="#D18F31" offset="100%"></stop>
        </linearGradient>
        <linearGradient x1="68.492558%" y1="-13.1040999%" x2="35.5958871%" y2="76.0468795%" id="linearGradient-19">
            <stop stop-color="#F0CC78" offset="0%"></stop>
            <stop stop-color="#D18F31" offset="100%"></stop>
        </linearGradient>
        <linearGradient x1="67.7205855%" y1="-14.5930544%" x2="42.387157%" y2="77.8293446%" id="linearGradient-20">
            <stop stop-color="#F0CC78" offset="0%"></stop>
            <stop stop-color="#D18F31" offset="100%"></stop>
        </linearGradient>
        <linearGradient x1="56.4635435%" y1="57.1641144%" x2="29.6231067%" y2="27.460074%" id="linearGradient-21">
            <stop stop-color="#5E1400" offset="12%"></stop>
            <stop stop-color="#DC8A1F" offset="100%"></stop>
        </linearGradient>
        <linearGradient x1="46.5679012%" y1="45.1027321%" x2="58.1234568%" y2="61.6666559%" id="linearGradient-22">
            <stop stop-color="#5E1400" offset="0%"></stop>
            <stop stop-color="#DC8A1F" offset="100%"></stop>
        </linearGradient>
        <linearGradient x1="71.7154557%" y1="70.9837859%" x2="39.2706894%" y2="35.8242809%" id="linearGradient-23">
            <stop stop-color="#7C2900" offset="0%"></stop>
            <stop stop-color="#CF5700" offset="87%"></stop>
        </linearGradient>
        <linearGradient x1="59.6899404%" y1="59.1267399%" x2="44.1384736%" y2="42.2358552%" id="linearGradient-24">
            <stop stop-color="#A84100" offset="0%"></stop>
            <stop stop-color="#FF8A17" offset="100%"></stop>
        </linearGradient>
        <linearGradient x1="45.1101322%" y1="37.9571401%" x2="68.2525698%" y2="64.0574982%" id="linearGradient-25">
            <stop stop-color="#80481F" offset="0%"></stop>
            <stop stop-color="#DC8A1F" offset="100%"></stop>
        </linearGradient>
        <linearGradient x1="57.5940092%" y1="58.5039077%" x2="33.0096059%" y2="30.8894678%" id="linearGradient-26">
            <stop stop-color="#80481F" offset="0%"></stop>
            <stop stop-color="#DC8A1F" offset="100%"></stop>
        </linearGradient>
        <linearGradient x1="72.2005617%" y1="24.2352941%" x2="48.1461853%" y2="52.0588235%" id="linearGradient-27">
            <stop stop-color="#80481F" offset="40%"></stop>
            <stop stop-color="#D1941F" offset="89%"></stop>
        </linearGradient>
        <linearGradient x1="60.3104408%" y1="34.0008948%" x2="51.0054037%" y2="49.4150222%" id="linearGradient-28">
            <stop stop-color="#80B800" offset="0%"></stop>
            <stop stop-color="#618C00" offset="89%"></stop>
        </linearGradient>
        <linearGradient x1="55.9589079%" y1="39.5947426%" x2="32.3584784%" y2="66.1422844%" id="linearGradient-29">
            <stop stop-color="#B8DE00" offset="0%"></stop>
            <stop stop-color="#7DB400" offset="89%"></stop>
        </linearGradient>
        <linearGradient x1="43.6867967%" y1="69.2379718%" x2="73.3477015%" y2="20.8918336%" id="linearGradient-30">
            <stop stop-color="#8FC213" offset="0%"></stop>
            <stop stop-color="#85C20B" offset="38%"></stop>
            <stop stop-color="#77AC00" offset="43%"></stop>
            <stop stop-color="#77AC00" offset="100%"></stop>
        </linearGradient>
        <linearGradient x1="-177.833618%" y1="52.0883828%" x2="-239.618223%" y2="87.9735582%" id="linearGradient-31">
            <stop stop-color="#80B800" offset="0%"></stop>
            <stop stop-color="#618C00" offset="89%"></stop>
        </linearGradient>
        <linearGradient x1="61.1418048%" y1="35.6525959%" x2="33.4714549%" y2="52.5890053%" id="linearGradient-32">
            <stop stop-color="#80481F" offset="19%"></stop>
            <stop stop-color="#DC8A1F" offset="89%"></stop>
        </linearGradient>
    </defs>
    <g id="Ready-Flow--(-Janis-)" stroke="none" stroke-width="1" fill="none" fill-rule="evenodd">
        <g id="14" transform="translate(-1334.000000, -446.000000)" fill-rule="nonzero">
            <g id="Group-5" transform="translate(1196.000000, 375.000000)">
                <g id="Group-4" transform="translate(138.000000, 0.000000)">
                    <g id="Group-124" transform="translate(0.000000, 71.000000)">
                        <path d="M12.1087713,8.50638475 C12.1087713,8.50638475 1.07524441,15.9090385 0.788179157,17.2989559 C0.557657061,18.4190076 3.28912642,19.585134 5.41384423,19.3053954 C6.81763681,19.1210969 8.4443399,20.7633276 10.0079756,21.3897229 C11.5716113,22.0161182 12.9503945,22.4505359 14.9826859,21.1889692 C17.0149774,19.9274026 20.7707478,14.6639271 21.5525657,13.7183006 C22.3343835,12.7726741 22.4452951,10.6049735 18.8950374,11.0361002 C15.3447796,11.4672268 12.1087713,8.50638475 12.1087713,8.50638475 Z" id="Path" fill="#000000" opacity="0.33"></path>
                        <path d="M10.8213272,4.24228944 C10.5831935,4.05250593 10.1112756,3.60602104 9.97752931,3.15295405 C9.89923879,2.88747655 10.195003,2.24901412 10.3287493,1.93417096 C10.4624956,1.6193278 10.236323,1.23537273 9.86335563,1.35933537 C9.59477564,1.51072337 9.01629566,2.58689458 8.86080199,3.04983469 C8.70530831,3.5127748 8.80969567,3.58737179 8.88254935,4.19511782 C8.95540304,4.80286384 9.3174967,5.63330381 9.3174967,5.63330381 L10.8213272,4.24228944 Z" id="Path" fill="#943800"></path>
                        <path d="M1.8113928,13.0436367 C1.8113928,13.0436367 0.112923395,11.9894057 1.44821176,11.2390478 C2.9357317,10.4020258 5.4801737,9.3357277 7.320001,8.54258623 C9.36642828,7.66497464 11.177984,6.91681076 11.8771619,6.81917647 C12.875366,6.67875861 14.9294049,7.06161667 15.5568165,9.73613799 C15.9515312,11.4156672 14.8271923,12.5609503 13.6289123,13.3562858 C12.4306324,14.1516213 6.23480736,18.1886346 5.4355916,18.6219553 C4.63637584,19.0552761 1.8113928,13.0436367 1.8113928,13.0436367 Z" id="Path" fill="url(#linearGradient-1)"></path>
                        <path d="M1.86358648,11.6723686 C2.06801174,11.5692492 2.58016224,11.2598911 3.04120643,11.0009957 C3.50225063,10.7421003 4.21882639,10.6400779 4.2699327,10.8978763 C4.32103901,11.1556747 4.83210215,11.5176895 5.19093371,11.931264 C5.52395159,12.333806 5.88321848,12.7134848 6.26634104,13.067771 C6.57297892,13.3255694 6.72629786,13.7380468 7.03402311,13.7380468 C7.34174836,13.7380468 7.13623574,14.4094197 7.13623574,14.6156584 C7.13623574,14.8218971 7.23844837,15.2354716 6.93181049,15.7521654 C6.6251726,16.2688593 5.4975716,16.6813367 5.4975716,16.6813367 L1.86358648,11.6723686 Z" id="Path" fill="url(#linearGradient-2)"></path>
                        <path d="M9.09567356,16.478389 C9.09567356,16.478389 7.20800205,14.5344794 8.50197042,13.7150095 C10.0351598,12.7419577 11.4487387,11.7590327 13.3657692,10.5336675 C15.2447417,9.32695158 16.1766164,8.63254141 16.7996785,8.297952 C17.5814964,7.87669843 20.2390247,7.82513875 21.0208425,10.0334289 C21.6950109,11.9378461 20.9947457,13.22245 20.0259005,14.2909421 C19.0570553,15.3594342 14.3585365,20.2444398 13.6865428,20.8554768 C13.0145492,21.4665139 9.09567356,16.478389 9.09567356,16.478389 Z" id="Path" fill="url(#linearGradient-3)"></path>
                        <path d="M9.55563038,13.8663975 C9.97209247,13.6042111 10.9626851,13.1303008 11.3791471,12.8681143 C11.7956092,12.6059279 11.7445029,12.237331 12.2653524,12.0793609 C12.694892,11.9446286 13.0873312,11.7106073 13.4114386,11.3959209 C13.6202134,11.1852941 13.7246007,10.7124809 14.0888691,10.6598242 C14.4531375,10.6071675 14.5586123,10.2912273 14.870687,10.0806005 C15.1827617,9.86997376 15.4970112,9.92372746 15.8090859,9.66044399 C16.1211606,9.39716051 16.5387101,8.97700396 17.0051911,8.81903388 C17.3810917,8.6913486 17.7641525,8.58621712 18.1523648,8.50419072 C18.4133332,8.45153402 19.298451,8.55684741 19.9236879,9.02966066 C20.4040241,9.40267287 20.7218085,9.94946905 20.8098931,10.5545108 C20.8620868,10.9220106 20.8620868,11.1326374 20.653312,11.4485776 C20.5017303,11.6623004 20.4283288,11.9224541 20.4456247,12.1846743 C20.4456247,12.3942041 20.4978184,12.3415474 20.0802689,12.6574876 C19.6627194,12.9734277 19.5594194,13.1303008 19.4550321,13.3935843 C19.3506447,13.6568678 18.8297953,13.8663975 18.6732142,13.9190542 C18.5166332,13.9717109 18.5644774,14.0287557 18.1523648,14.4456212 C17.7402522,14.8624867 17.3705469,15.1290612 17.2661595,15.338591 C17.1617722,15.5481207 16.7453101,14.9184344 16.5365354,15.7071878 C16.3277606,16.4959413 16.172267,16.6012546 15.8069112,16.706568 C15.4415554,16.8118814 15.5459428,17.2846947 15.3382554,17.4426648 C15.130568,17.6006348 14.5510007,18.4146196 14.1421502,18.4541121 C13.7332997,18.4936046 9.55563038,13.8663975 9.55563038,13.8663975 Z" id="Path" fill="url(#linearGradient-4)"></path>
                        <path d="M5.93034421,7.7834522 C5.93034421,7.7834522 4.23187481,6.72922128 5.5660758,5.97886337 C7.05468311,5.14184132 9.59912511,4.07554324 11.437865,3.28240176 C12.5637624,2.77964602 13.7210117,2.35163037 14.9022207,2.00108884 C15.9167354,1.6719845 18.262189,2.4069842 18.5829626,4.91805036 C18.8200089,6.77310186 17.8533385,7.74286267 16.6550585,8.53819817 C15.4567786,9.33353367 10.2243619,12.7068532 9.42514617,13.1357859 C8.62593042,13.5647185 5.93034421,7.7834522 5.93034421,7.7834522 Z" id="Path" fill="url(#linearGradient-5)"></path>
                        <path d="M3.16407906,11.0810777 C3.41091168,10.9187196 3.99047903,10.8945853 4.1427106,10.9560181 C4.29494217,11.0174509 4.54938637,11.4540627 4.75924847,11.6142268 C4.96911057,11.7743909 5.36382529,12.4479578 5.46277581,12.6092189 C5.56172633,12.7704801 6.0923621,13.144562 6.4120484,13.4561141 C6.7317347,13.7676662 6.79480207,13.8038677 6.94268417,13.8543304 C7.09056627,13.904793 7.09056627,14.0660542 7.01662522,14.4138078 C6.94268417,14.7615614 6.89375259,15.0489791 6.75783155,15.1608746 C6.6219105,15.2727701 3.16407906,11.0810777 3.16407906,11.0810777 Z" id="Path" fill="url(#linearGradient-6)"></path>
                        <path d="M6.92419891,15.9507251 C6.86983049,18.1293958 5.21485582,19.3997386 3.25433064,18.7525001 C1.32098966,18.1129406 -0.116511332,15.8662549 0.00744866277,13.7654722 C0.132496026,11.70857 1.72331596,10.5237944 3.58380325,11.0854658 C5.47038739,11.6526223 6.97747996,13.8148378 6.92419891,15.9507251 Z" id="Path" fill="url(#linearGradient-7)"></path>
                        <path d="M6.75783155,15.8980684 C6.70563786,17.9725228 5.12677898,19.1825297 3.26411695,18.5649106 C1.42428966,17.9571646 0.0520307662,15.8223744 0.173816024,13.8181289 C0.293426546,11.861055 1.80486859,10.7322271 3.57836641,11.2675702 C5.37469897,11.8105924 6.80785049,13.8663975 6.75783155,15.8980684 Z" id="Path" fill="url(#linearGradient-8)"></path>
                        <path d="M10.7017166,14.0792183 C11.2225661,13.9695169 11.7445029,13.6590618 12.0065587,13.2378082 C12.2686145,12.8165547 12.0587524,12.6070249 12.5284955,12.5543682 C12.9982387,12.5017115 13.4658071,12.3963981 13.5701944,12.081555 C13.6745818,11.7667118 13.9355502,11.6076447 14.2998186,11.6603014 C14.664087,11.7129581 14.1432376,11.1874882 14.560787,11.0295181 C14.9783365,10.871548 15.1860238,11.1392195 15.4991859,10.6093615 C15.812348,10.0795035 15.5502922,9.97857819 16.0200354,9.8732648 C16.4897785,9.76795141 17.113928,9.55732463 17.3248774,9.39935454 C17.5474175,9.25114074 17.7945563,9.14449684 18.0545016,9.08451138 C18.2632763,9.03185469 18.5231574,8.8738846 18.8363195,9.08451138 C19.1494816,9.29513816 18.9929005,8.82122791 19.5659437,9.03185469 C20.1389868,9.24248147 20.3999552,9.66263802 20.3999552,10.0827946 C20.3999552,10.5029511 20.2912184,10.6620182 20.0867931,10.871548 C19.8823679,11.0810777 19.8269121,11.0295181 19.8269121,11.2928015 C19.8269121,11.556085 19.5659437,11.8182715 19.2527816,11.9762416 C18.9396195,12.1342117 19.0450942,12.085943 18.7841258,12.3963981 C18.5231574,12.7068532 18.4981479,12.6618756 18.2632763,12.9229651 C17.7413395,13.5010917 17.8979206,13.6064051 17.4814585,13.8685916 C17.0649964,14.130778 16.9084153,14.1845317 16.7518343,14.3425018 C16.5952533,14.5004719 16.1265975,14.1845317 15.9178228,14.5004719 L15.3926238,15.2925164 C15.283887,15.4504864 15.0794617,15.87174 14.870687,15.9243967 C14.6619123,15.9770534 14.2976439,16.1339265 13.9333755,16.6604934 C13.5691071,17.1870604 13.0471702,16.8173665 13.0471702,16.8173665 L10.7017166,14.0792183 Z" id="Path" fill="url(#linearGradient-9)"></path>
                        <path d="M11.6227177,14.2196362 C11.9695882,13.7643752 12.1783629,13.8334871 12.3838755,13.4133305 C12.5893882,12.993174 12.5567671,12.7825472 12.7655418,12.9580695 C12.9743166,13.1335919 12.9743166,13.2729127 13.2178871,13.0622859 C13.4614576,12.8516591 13.9127155,12.4315026 13.5995534,12.5017115 C13.2863913,12.5719204 13.5299618,12.2910847 13.7735323,11.9762416 C14.0171028,11.6613984 14.1204028,11.7305103 14.3639733,11.8007193 C14.6075439,11.8709282 14.7119312,11.9104207 14.9196186,11.5900925 C15.1273059,11.2697642 15.2675765,11.0646225 15.4067596,11.2752493 C15.5459428,11.4858761 15.9624049,11.2050404 16.2059754,10.9242047 C16.4495459,10.643369 16.0319964,10.6093615 16.0319964,10.6093615 C16.2036358,10.4555216 16.3659468,10.2914043 16.5180501,10.117899 C16.7268248,9.8732648 16.866008,9.97857819 17.1084911,9.94347373 C17.3529101,9.92472743 17.5846176,9.82613878 17.7685237,9.66263802 C17.9425027,9.4871157 17.7685237,9.41690677 18.220869,9.34669784 C18.6732142,9.27648892 18.5677395,9.73284694 18.8809016,9.52222016 C19.1940637,9.31159338 19.0896763,9.41251871 19.4713426,9.52222016 C19.8530089,9.63192161 20.0965794,9.80305587 19.9226005,9.90836926 C19.7486215,10.0136827 19.57573,10.118996 19.7497089,10.2583169 C19.9236879,10.3976377 19.8530089,10.5040481 19.6105258,10.8891002 C19.3680426,11.2741523 19.2973637,11.2401448 19.0548805,11.1699359 C18.8123974,11.099727 18.6025353,11.0602345 18.4981479,11.3103538 C18.3937605,11.5604731 17.7000195,11.9411371 18.0816858,11.8709282 C18.4633521,11.8007193 18.4981479,11.9806296 18.04689,12.3261892 C17.5956322,12.6717488 17.5956322,12.6421294 17.1769953,12.6421294 C16.7583585,12.6421294 16.8649206,12.7518308 16.3777796,12.9580695 C15.8906385,13.1643083 15.9613175,13.1324948 16.0657049,13.4133305 C16.1700922,13.6941663 16.2396838,13.7643752 15.8917259,13.903696 C15.543768,14.0430169 15.3012849,14.5344794 15.130568,14.2898451 C14.9598512,14.0452109 14.817406,14.1494273 14.5053312,14.360054 C14.1932565,14.5706808 14.3313523,14.7451061 14.3313523,14.9908374 C14.3313523,15.2365686 14.1573733,15.1005388 13.9148902,15.4460984 C13.6724071,15.791658 12.4904376,16.1821951 12.4904376,16.1821951 L11.6227177,14.2196362 Z" id="Path" fill="url(#linearGradient-10)"></path>
                        <path d="M14.5618744,18.4738584 C14.5923207,20.7227381 12.9308218,22.0248943 10.8789577,21.3458423 C8.85536514,20.6766635 7.27759363,18.3509928 7.32761258,16.1898742 C7.37545678,14.0704422 8.97171356,12.8571442 10.9159282,13.447338 C12.8884145,14.0397258 14.5314281,16.2798294 14.5618744,18.4738584 Z" id="Path" fill="url(#linearGradient-11)"></path>
                        <path d="M14.395507,18.4266868 C14.424866,20.5724471 12.8405702,21.8142675 10.8822198,21.169223 C8.95214093,20.5307605 7.4472231,18.3169853 7.49397994,16.245822 C7.54073678,14.2251213 9.06196514,13.0644799 10.918103,13.6283454 C12.7992502,14.1955019 14.3661481,16.3291951 14.395507,18.4266868 Z" id="Path" fill="url(#linearGradient-12)"></path>
                        <path d="M6.37616525,6.18729612 C6.66975471,6.00738575 8.15509991,5.35356511 8.40628201,5.21205024 C8.6574641,5.07053538 9.36751565,4.51873709 9.88945247,4.54067738 C10.4113893,4.56261767 10.8920061,4.22254318 11.0996935,4.02069251 C11.3073808,3.81884185 11.6781735,3.84626721 12.0185198,3.64441654 C12.3588661,3.44256588 12.9895397,3.27252863 13.2896534,3.07396901 C13.5897671,2.87540939 14.2084797,2.74486466 14.466186,2.7097602 C14.79141,2.64912442 15.1053829,2.53811102 15.3969733,2.38065585 C15.5274575,2.28411858 16.2451206,2.22049174 16.6615827,2.4749991 C17.0780448,2.72950646 17.1378501,2.90173774 17.2857322,2.93245414 C17.4336143,2.96317055 17.5586616,3.19244657 17.6934953,3.43927483 C17.828329,3.68610309 17.8587753,3.65867773 17.9609879,3.92964031 C18.1012998,4.30837097 18.157354,4.71359435 18.1251806,5.11660998 C18.0925595,5.66511723 17.9142311,5.72764705 17.8392027,6.00190067 C17.7641743,6.2761543 17.8392027,6.42205722 17.5760595,6.52407957 C17.3129164,6.62610192 16.9442985,6.79284812 16.8149017,7.01005699 C16.6855048,7.22726586 16.4995648,7.35671357 16.1624806,7.49493739 C15.8253964,7.63316122 15.3621775,7.84159397 15.1360049,8.12791475 C14.9098323,8.41423553 14.8804733,8.38571315 14.5042439,8.56013846 C14.1280144,8.73456376 14.1204028,8.8892428 13.8964049,9.05598901 C13.7401365,9.15914772 13.5898349,9.27122566 13.4462344,9.39167544 C13.3483713,9.48930973 13.1907029,9.53099628 12.9601808,9.79208573 C12.7296587,10.0531752 12.2870997,9.96541402 11.9554524,10.3274288 C11.623805,10.6894436 10.5418735,10.9911226 10.3711567,11.0755927 C10.2004398,11.1600628 6.37616525,6.18729612 6.37616525,6.18729612 Z" id="Path" fill="url(#linearGradient-13)"></path>
                        <path d="M7.34935994,6.29699757 C7.73102624,5.9810574 9.36425355,5.45558746 9.64153248,5.20985622 C9.91881142,4.96412497 10.5799314,4.85990859 10.7887061,4.82480413 C10.9974808,4.78969967 11.5879219,4.64928181 11.6923092,4.40355057 C11.7966966,4.15781932 11.8999966,4.26313271 12.3871376,4.05360295 C12.8742787,3.84407318 13.1167618,3.84297617 13.3940407,3.63234938 C13.6713197,3.4217226 13.9507734,3.38771515 14.3324397,3.42281962 C14.714106,3.45792408 14.7499891,3.28240176 15.0272681,3.07177498 C15.304547,2.8611482 15.3056344,2.79093927 15.6873007,2.79093927 C16.068967,2.79093927 16.2777417,2.72073035 16.5909038,2.82604374 C16.9040659,2.93135713 17.2857322,3.21219284 17.5293027,3.77276724 C17.7728732,4.33334164 17.4945069,4.92902051 17.2161406,5.28006514 C16.9377743,5.63110978 16.6952911,5.80553508 16.4549827,6.12147525 C16.2146743,6.43741543 16.0037249,6.50652734 15.5513796,6.68204966 C15.0990344,6.85757197 15.1697133,6.79175111 14.7184554,7.27772852 C14.2671976,7.76370594 14.3357018,7.10330322 13.8844439,7.4883553 C13.433186,7.87340739 13.6060776,7.41814638 12.9058123,7.80429548 C12.2055471,8.19044458 12.7318334,8.39997434 12.1065966,8.50528773 C11.4813598,8.61060112 11.3073808,8.50528773 10.9257145,9.06586214 C10.5440482,9.62643654 10.1286735,9.69774248 10.1286735,9.69774248 L7.34935994,6.29699757 Z" id="Path" fill="url(#linearGradient-14)"></path>
                        <path d="M8.07028518,6.42863931 C8.40845674,6.16645285 8.46065042,5.88013207 8.90429672,5.79785598 C9.34794302,5.71557989 9.32075881,5.74519928 9.7372209,5.40402778 C10.153683,5.06285627 10.1025767,5.24605769 10.4407482,5.21972935 C10.7789198,5.193401 10.8322009,5.21972935 11.0670724,4.93011752 C11.301944,4.6405057 11.0931693,4.87746083 11.6401156,4.82041607 C12.1870619,4.76337132 12.6035239,4.63611764 12.2925366,4.53080425 C11.9815492,4.42549086 12.3447303,4.34650581 12.656805,4.21486408 C12.9688797,4.08322234 13.6734944,3.79470753 13.6995913,4.03166266 C13.7256881,4.26861779 14.0899565,4.1106477 14.2987312,3.92196121 C14.507506,3.73327472 14.2987312,3.65867773 14.8978712,3.4217226 C15.4970112,3.18476747 15.6796891,2.94890936 15.7579796,3.05422275 C15.8362701,3.15953614 15.9145606,3.4217226 16.1233354,3.26484953 C16.3321101,3.10797646 16.2527322,3.0278944 16.618088,3.18586449 C16.9834438,3.34383457 16.7268248,3.44805095 16.3571196,3.63234938 C15.9874143,3.81664782 15.8362701,3.94828956 16.0711417,4.07993129 C16.3060133,4.21157303 16.4093133,4.26313271 16.1798785,4.47375949 C15.9504438,4.68438628 15.502448,5.26251291 15.4241575,4.99922943 C15.345867,4.73594596 14.9022207,4.57907289 15.0848986,4.88952799 C15.2675765,5.19998309 15.1109954,5.31078155 14.7717365,5.54773668 C14.4324775,5.78469181 14.1986933,5.6782814 13.9649091,5.6782814 C13.7311249,5.6782814 13.3907786,5.83625149 13.6778439,5.86257984 C13.9649091,5.88890818 14.2769839,6.02054992 13.9649091,6.12586331 C13.6528344,6.2311767 13.1569944,6.46703482 13.0526071,6.23556476 C12.9482197,6.0040947 12.7916387,6.02493798 12.4001861,6.20923641 C12.0087334,6.39353485 12.3218955,6.28822146 12.0609271,6.65572131 C11.7999587,7.02322116 11.8521524,6.91900479 11.5172429,7.10330322 C11.1823335,7.28760165 10.578844,7.47080307 10.7876188,7.05064652 C10.9963935,6.63048998 10.8137156,6.73470635 10.5005535,6.97166148 C10.1873914,7.20861661 10.422263,7.18119125 10.2406725,7.47080307 C10.0590819,7.7604149 9.53714512,7.99627301 9.35446723,8.01931032 C9.17178934,8.04234762 8.07028518,6.42863931 8.07028518,6.42863931 Z" id="Path" fill="url(#linearGradient-15)"></path>
                        <path d="M10.9735587,10.490884 C10.9605103,12.5686294 9.35120512,13.7961886 7.40155362,13.2005097 C5.47908633,12.61251 4.00570218,10.4832049 4.08834218,8.47457133 C4.16880744,6.50652734 5.71939475,5.35575914 7.57553257,5.87574401 C9.45450512,6.40669902 10.9876945,8.45592208 10.9735587,10.490884 Z" id="Path" fill="url(#linearGradient-16)"></path>
                        <path d="M10.8017545,10.4437123 C10.7887061,12.4183384 9.25986618,13.5844648 7.40807784,13.0184053 C5.58129896,12.4589279 4.18185586,10.4371302 4.25470954,8.52832504 C4.33082533,6.66340041 5.80420948,5.56638592 7.56683362,6.06004244 C9.35664197,6.56028105 10.8137156,8.51077281 10.8017545,10.4437123 Z" id="Path" fill="url(#linearGradient-17)"></path>
                        <path d="M7.57879467,6.35623635 C5.95970316,5.90207236 4.6070169,6.9047436 4.53416322,8.62266828 C4.4623969,10.3778915 5.74657896,12.2318459 7.42438836,12.7441517 C9.12394513,13.2641366 10.5277377,12.1956445 10.5396988,10.3811825 C10.5527472,8.60621307 9.21745881,6.81588542 7.57879467,6.35623635 Z M7.43308731,12.5730175 C5.84661685,12.088137 4.630939,10.3307198 4.69835584,8.67313095 C4.76468531,7.0484525 6.04451789,6.09843795 7.57661993,6.52737061 C9.12720724,6.96617641 10.3918167,8.65667573 10.380943,10.3373019 C10.3711567,12.0519356 9.04239251,13.065577 7.43308731,12.5730175 Z M7.57227046,6.86305705 C6.20979788,6.48129601 5.07132319,7.32599716 5.0126053,8.77186225 C4.95171267,10.2462497 6.03364421,11.8083984 7.44504836,12.2406221 C8.87602514,12.6794279 10.0547325,11.7765849 10.0666935,10.2517348 C10.0764798,8.75650405 8.95214093,7.25030316 7.57227046,6.86305705 Z M7.4504852,12.0969132 C6.11410947,11.6877268 5.09089582,10.2089512 5.14743898,8.8135488 C5.20398214,7.44666875 6.2815642,6.64694519 7.57009572,7.00786296 C8.87493778,7.3742658 9.93947142,8.80038463 9.93077247,10.2144363 C9.92207352,11.6581074 8.80425883,12.5104876 7.4504852,12.0969132 Z M7.56574625,7.36329565 C6.45663051,7.05174354 5.52910528,7.74066864 5.4801737,8.91776518 C5.43124213,10.118996 6.31201051,11.3926299 7.46244625,11.7436745 C8.612882,12.0947191 9.59042617,11.3663015 9.59803775,10.1233841 C9.60564932,8.90569802 8.69008515,7.67813881 7.56574625,7.36329565 Z M7.46679573,11.6262939 C6.37942735,11.2971896 5.54432844,10.0904737 5.59108528,8.95286964 C5.63675475,7.83830293 6.51426103,7.18667632 7.56465888,7.48177322 C8.61505673,7.77687011 9.49473775,8.94080248 9.4882496,10.0937647 C9.48060196,11.2697642 8.56938726,11.9641744 7.46679573,11.6262939 L7.46679573,11.6262939 Z M7.56030941,7.82952681 C6.69041471,7.58489258 5.95535368,8.12681774 5.91729579,9.05489199 C5.87815053,10.0005185 6.56971682,11.0042867 7.47875678,11.2807344 C8.38779674,11.557182 9.15547882,10.9834435 9.16091566,10.0038095 C9.16743987,9.04501886 8.44542727,8.07745208 7.56030941,7.83281785 L7.56030941,7.82952681 Z M7.48310625,11.1622568 C6.63930839,10.9044584 5.99232421,9.96980207 6.02929473,9.08889944 C6.06409052,8.22554904 6.74478313,7.72092238 7.55813467,7.94910139 C8.37148622,8.1772804 9.05544093,9.08122034 9.04891672,9.97419013 C9.04347987,10.8847122 8.3377778,11.4233463 7.48310625,11.1622568 Z M7.55595993,8.14327295 C6.84047154,7.9425193 6.24241894,8.38681017 6.21088525,9.14594419 C6.17935157,9.90507822 6.74695786,10.7421003 7.48963046,10.9691823 C8.23230306,11.1962643 8.86188935,10.7256451 8.8673262,9.92372746 C8.87276304,9.12180988 8.28123464,8.34731765 7.55595993,8.14327295 L7.55595993,8.14327295 Z M7.49397994,10.8342495 C6.82307365,10.6291078 6.30983577,9.88642897 6.33810735,9.18872776 C6.36637893,8.49102655 6.90680101,8.10048939 7.55487257,8.28149678 C8.20294412,8.46250417 8.74445357,9.18104866 8.7401041,9.89191404 C8.73575462,10.6027794 8.17358517,11.0415852 7.49397994,10.8342495 Z M7.55161046,8.53051907 C7.03076101,8.38461614 6.59472629,8.7071384 6.57297252,9.2600337 C6.57118325,9.85823638 6.94724211,10.3911539 7.50811573,10.5852272 C8.05179991,10.7530704 8.50740726,10.4086079 8.51066937,9.82499616 C8.4955546,9.23168623 8.11121354,8.71248734 7.55161046,8.52942205 L7.55161046,8.53051907 Z M7.50811573,10.4481004 C7.02503078,10.2775424 6.70206338,9.81697385 6.7034586,9.30062324 C6.72303576,8.82122791 7.10035258,8.54258623 7.55052309,8.66874289 C8.03466087,8.82682899 8.36665399,9.27664094 8.37801043,9.7898917 C8.37801043,10.2945184 7.98112097,10.5929063 7.50811573,10.4481004 Z M7.54834836,8.87607863 C7.39534176,8.8219245 7.22569325,8.84757362 7.09514321,8.94459863 C6.96459317,9.04162364 6.89002059,9.19748005 6.89592733,9.36095903 C6.89580241,9.75625768 7.14359693,10.1083601 7.51355257,10.2385706 C7.87673361,10.3482721 8.17684728,10.1211901 8.18010938,9.73284694 C8.16929567,9.34121451 7.91615387,8.99850387 7.54726099,8.87607863 L7.54834836,8.87607863 Z M7.51898941,10.1497124 C7.19762341,10.036842 6.98272767,9.73058703 6.98400417,9.38728738 C6.97962034,9.2463773 7.04415003,9.11229067 7.15661564,9.02861696 C7.26908126,8.94494325 7.41512151,8.92236717 7.54726099,8.96822785 C7.86627713,9.07569586 8.08390808,9.37386048 8.09094518,9.71310068 C8.1022241,9.85931392 8.03886679,10.0012454 7.92286535,10.089629 C7.80686391,10.1780125 7.6542139,10.2006609 7.51790204,10.1497124 L7.51898941,10.1497124 Z M7.54508625,9.15581732 C7.45465653,9.1239076 7.35444499,9.1390584 7.27725932,9.19630959 C7.20007366,9.25356077 7.15585149,9.34554127 7.15907048,9.44213811 C7.15752552,9.67748585 7.30497275,9.88759712 7.52551362,9.964317 C7.61920277,9.99992934 7.72443736,9.98472416 7.80445265,9.92401355 C7.88446793,9.86330293 7.92814632,9.76552221 7.92022834,9.66483205 C7.91480281,9.43173166 7.76389859,9.22756778 7.54399888,9.15581732 L7.54508625,9.15581732 Z M7.52877573,9.88313793 C7.35247565,9.82201587 7.23438786,9.65434388 7.23518626,9.46627242 C7.23274866,9.38903133 7.26814715,9.31552755 7.32984229,9.26972238 C7.39153742,9.2239172 7.47162552,9.21167868 7.54399888,9.2369964 C7.7195014,9.29467287 7.8398072,9.45782286 7.84411255,9.64398877 C7.85112512,9.72486554 7.81622058,9.80365729 7.75181663,9.85233293 C7.68741268,9.90100856 7.60265169,9.91265842 7.52768836,9.88313793 L7.52877573,9.88313793 Z M7.54182415,9.40813066 C7.50739804,9.39549798 7.46898096,9.40120234 7.43962238,9.42330609 C7.41026381,9.44540983 7.39391029,9.48094164 7.39611678,9.5178321 C7.39623263,9.60620349 7.45157357,9.68489566 7.53421257,9.7141977 C7.56900928,9.72829275 7.60854911,9.72330612 7.63883577,9.70100295 C7.66912242,9.67869979 7.68588203,9.64222739 7.68318203,9.60449625 C7.68243028,9.51497003 7.62509302,9.43592869 7.54073678,9.40813066 L7.54182415,9.40813066 Z" id="Shape" fill="url(#linearGradient-18)"></path>
                        <path d="M3.77083061,11.6592044 C2.12346752,11.0415852 0.617462322,11.9499132 0.399988647,13.7139125 C0.168379183,15.5119193 1.34164966,17.5446871 3.04555591,18.2281271 C4.77120952,18.9214403 6.33267051,17.9483884 6.50664945,16.0812698 C6.67192944,14.2525466 5.44211581,12.2845026 3.77083061,11.6592044 Z M3.06077906,18.0526048 C1.44929913,17.4053663 0.342358123,15.4822999 0.559831798,13.7797334 C0.777305474,12.1111744 2.19088436,11.251115 3.75452009,11.8358237 C5.33337897,12.4271145 6.50012524,14.2909421 6.33810735,16.020934 C6.17173999,17.7882243 4.69509374,18.7086195 3.06077906,18.0526048 Z M3.71863693,12.1813833 C2.33224225,11.6613984 1.0687202,12.4271145 0.877343364,13.9102781 C0.681617056,15.4241581 1.66894754,17.1355007 3.10318643,17.7103363 C4.55591058,18.293948 5.86945158,17.4744782 6.01624631,15.9035534 C6.16086631,14.3644421 5.12351688,12.7079502 3.71863693,12.1813833 Z M3.12167169,17.5633364 C1.76463596,17.0148291 0.830586524,15.3989268 1.01435178,13.9673229 C1.20137914,12.5620473 2.39748435,11.8380177 3.70232641,12.3305772 C5.03217793,12.8286218 6.01407158,14.3962555 5.87706316,15.8530908 C5.74005475,17.3395454 4.49610532,18.1151346 3.12167169,17.5633364 Z M3.66535588,12.6958831 C2.53558014,12.2724355 1.50584229,12.8955397 1.35034861,14.1044497 C1.19050546,15.337494 1.99515806,16.7372844 3.16407906,17.2002246 C4.33300007,17.6631647 5.42036844,17.008247 5.53997896,15.7313222 C5.65958949,14.4741436 4.81144215,13.1248157 3.66753062,12.6958831 L3.66535588,12.6958831 Z M3.17821485,17.083941 C2.07236121,16.6451352 1.31120335,15.3210387 1.46234755,14.1538153 C1.61022965,13.0096292 2.58342435,12.4194354 3.65339483,12.8209427 C4.72336531,13.22245 5.53562949,14.5037629 5.42471792,15.6907326 C5.31380634,16.8985456 4.30037901,17.5304259 3.18038959,17.08065 L3.17821485,17.083941 Z M3.6131622,13.1796665 C2.7226075,12.845077 1.91143069,13.3365395 1.78855806,14.2887481 C1.6635107,15.2607029 2.29744646,16.3588144 3.21736011,16.7285083 C4.13727376,17.0982022 4.99412004,16.5771203 5.08763372,15.567867 C5.18658424,14.5772629 4.52111479,13.5142559 3.61968641,13.1763754 L3.6131622,13.1796665 Z M3.23910748,16.6089337 C2.3822612,16.2644712 1.79182017,15.2420537 1.90925595,14.3381138 C2.02669174,13.4341738 2.77915066,12.994271 3.60663799,13.3047261 C4.43412532,13.6151812 5.06588635,14.6090763 4.97998425,15.5283745 C4.89843162,16.4619338 4.10791481,16.9512023 3.23910748,16.6089337 Z M3.58706536,13.5043827 C2.85852855,13.2312261 2.19414647,13.6338305 2.09410858,14.4127107 C1.98537174,15.2091433 2.5094833,16.1075981 3.26302958,16.4103741 C4.01657587,16.7131501 4.71792847,16.2864115 4.79513163,15.4603596 C4.87016004,14.6463748 4.32538849,13.7753453 3.58706536,13.4988977 L3.58706536,13.5043827 Z M3.28042748,16.2710533 C2.59973487,15.9978967 2.12999173,15.1850089 2.22350541,14.4664645 C2.3170191,13.74792 2.91398433,13.3979723 3.57292957,13.6448006 C4.23187481,13.8916289 4.73315163,14.6814793 4.66029795,15.413188 C4.58744427,16.1448966 3.9709064,16.5431129 3.28042748,16.2655682 L3.28042748,16.2710533 Z M3.54683273,13.901502 C3.01728433,13.7029424 2.5334054,13.9958452 2.45946435,14.5597107 C2.40530567,15.1782089 2.74772161,15.7627886 3.31087379,16.0132549 C3.86651903,16.2326578 4.36888322,15.9232997 4.42542638,15.3221358 C4.46252819,14.7067486 4.11021039,14.1348721 3.54683273,13.8960169 L3.54683273,13.901502 Z M3.32935905,15.8761281 C2.84219271,15.6602266 2.54594517,15.1547428 2.59321066,14.6200465 C2.65627803,14.128584 3.07382749,13.8751736 3.53269694,14.0474049 C4.02019951,14.2530619 4.3255124,14.7472161 4.2938548,15.2793522 C4.2460106,15.7905609 3.81106324,16.0604265 3.32935905,15.868449 L3.32935905,15.8761281 Z M3.51203694,14.2602257 C3.35864371,14.1908845 3.18131638,14.2017157 3.03733559,14.2892206 C2.8933548,14.3767254 2.80097031,14.5298126 2.79002434,14.6990315 C2.75393198,15.1098264 2.98137072,15.4981372 3.35545589,15.6644043 C3.72516114,15.8125012 4.05789587,15.6040685 4.09595376,15.2047552 C4.12228216,14.7942598 3.88788532,14.4120227 3.51203694,14.2525466 L3.51203694,14.2602257 Z M3.36632958,15.5766431 C3.0432974,15.4322874 2.8467423,15.0969422 2.87701381,14.7418151 C2.88641904,14.5952175 2.96636207,14.4625504 3.09103212,14.3866473 C3.21570217,14.3107443 3.36930611,14.3012205 3.50225063,14.3611511 C3.82593363,14.4979577 4.02866948,14.8260924 4.00787692,15.1795239 C4.00121052,15.3310714 3.91927322,15.4690188 3.78995301,15.5464147 C3.66063279,15.6238107 3.50135446,15.6302266 3.36632958,15.5634789 L3.36632958,15.5766431 Z M3.48267799,14.5542256 C3.39185775,14.5129716 3.28675107,14.5193206 3.20145881,14.5712127 C3.11616655,14.6231048 3.06155495,14.7139289 3.05534222,14.814218 C3.0342631,15.0574033 3.16889866,15.2871675 3.39025168,15.3857626 C3.48371078,15.4305075 3.59329599,15.4243147 3.6812174,15.3693199 C3.76913881,15.314325 3.82336601,15.2180531 3.82519903,15.113703 C3.8465898,14.8686173 3.70921569,14.6374818 3.48485273,14.5410614 L3.48267799,14.5542256 Z M3.400038,15.3023895 C3.22367987,15.2232191 3.11633687,15.0400856 3.13254538,14.8460315 C3.1376995,14.7657263 3.18150169,14.693056 3.24980438,14.651492 C3.31810707,14.6099281 3.40225388,14.6047383 3.47506642,14.6375987 C3.65188257,14.7126227 3.76257067,14.8919982 3.75125798,15.0851806 C3.74641038,15.1674967 3.70113768,15.2419334 3.63059121,15.2835791 C3.56004474,15.3252248 3.473544,15.328578 3.400038,15.2925164 L3.400038,15.3023895 Z M3.45658115,14.814218 C3.42242377,14.7986566 3.38287139,14.8009985 3.3507529,14.8204844 C3.31863442,14.8399702 3.29804043,14.8741182 3.29565063,14.9118523 C3.28729046,15.0045797 3.33785411,15.0925318 3.42178537,15.1312552 C3.45724232,15.1484906 3.49896542,15.1462816 3.53243953,15.1253969 C3.56591364,15.1045122 3.58651077,15.0678391 3.58706536,15.0281359 C3.59819501,14.9316461 3.54510828,14.8392591 3.45658115,14.8010539 L3.45658115,14.814218 Z" id="Shape" fill="url(#linearGradient-19)"></path>
                        <path d="M10.9061419,13.9475766 C9.25769144,13.3990694 7.86151045,14.3095914 7.72885151,16.0560384 C7.58640625,17.9034108 8.88472409,20.0744025 10.7071535,20.8357306 C12.6133103,21.6321631 14.1867323,20.5285665 14.1388881,18.4563061 C14.0964807,16.5058144 12.6187471,14.5246062 10.9061419,13.9475766 Z M10.7158524,20.639365 C8.99237356,19.9219175 7.76038519,17.8705004 7.88869466,16.1207623 C8.01482939,14.4631734 9.33706934,13.597629 10.8996177,14.1209049 C12.5252334,14.6694121 13.9181523,16.5475009 13.9551228,18.3915823 C13.9964428,20.3464621 12.5100103,21.3875289 10.7158524,20.639365 Z M10.897443,14.4620764 C9.50017459,13.9870691 8.31929253,14.7648524 8.21273043,16.246919 C8.1039936,17.8068736 9.20114829,19.6257236 10.7299882,20.2576039 C12.3218955,20.9158126 13.6343492,19.9943205 13.6060776,18.2676197 C13.5788934,16.629777 12.3458176,14.9535389 10.897443,14.4620764 L10.897443,14.4620764 Z M10.7365124,20.0941488 C9.2903125,19.4984699 8.24535149,17.7794482 8.35082622,16.3017697 C8.45086411,14.8953971 9.56976617,14.1582034 10.8952682,14.6090763 C12.2664397,15.0764045 13.4320986,16.6659785 13.4549334,18.2138659 C13.4799429,19.8440295 12.2392555,20.7128649 10.7365124,20.0941488 L10.7365124,20.0941488 Z M10.888744,14.9732851 C9.74157037,14.5794569 8.77381252,15.2179194 8.69225989,16.4367025 C8.60527042,17.7114333 9.50996091,19.1869178 10.7582598,19.6948355 C12.0446166,20.2192084 13.1069755,19.4754326 13.0917523,18.0822242 C13.0710923,16.7526426 12.0750629,15.3802775 10.888744,14.9732851 L10.888744,14.9732851 Z M10.7582598,19.5620967 C9.58281459,19.0837984 8.72488094,17.688396 8.80099673,16.4816801 C8.87819988,15.3265238 9.79485142,14.7198748 10.8822198,15.0950538 C12.0022092,15.4812029 12.9482197,16.781165 12.9590934,18.0394406 C12.9775787,19.356955 11.9728503,20.0568503 10.7582598,19.5620967 L10.7582598,19.5620967 Z M10.8789577,15.4548745 C9.96991773,15.1389343 9.20223566,15.646852 9.13916829,16.6144188 C9.07610093,17.6214781 9.79158932,18.7799254 10.7702209,19.1748506 C11.7760366,19.580746 12.6089608,19.0015223 12.6013492,17.912187 C12.5980871,16.8667322 11.8151819,15.7806878 10.8789577,15.4548745 Z M10.7778324,19.0421119 C9.86879247,18.675709 9.20006092,17.5995378 9.25551671,16.6604934 C9.31097249,15.7576505 10.0264609,15.2837402 10.8746082,15.5799342 C11.7445029,15.8838072 12.4741271,16.8963515 12.4784766,17.8683064 C12.4871755,18.8808507 11.7140566,19.4183878 10.7789198,19.0421119 L10.7778324,19.0421119 Z M10.8735209,15.7828818 C10.1254114,15.5206954 9.49473775,15.9386579 9.44689354,16.7350904 C9.39796196,17.5622393 9.99057773,18.5078658 10.7865314,18.827097 C11.6064071,19.1562014 12.284925,18.6844852 12.2816746,17.7970004 C12.2805755,16.9435232 11.6401156,16.0516504 10.8789577,15.7828818 L10.8735209,15.7828818 Z M10.7919682,18.6779031 C10.071043,18.3893883 9.53605775,17.535911 9.57955248,16.7877471 C9.62195985,16.0659116 10.1928282,15.6907326 10.8702587,15.9254937 C11.5650871,16.1690309 12.1413924,16.9764336 12.1424855,17.7487318 C12.1446545,18.5484554 11.5313787,18.974097 10.7930556,18.6779031 L10.7919682,18.6779031 Z M10.8659093,16.1887772 C10.3222251,15.9946056 9.85791879,16.2984786 9.82529774,16.8853814 C9.79158932,17.4876424 10.2232746,18.1732764 10.8039293,18.4036494 C11.384584,18.6340225 11.8912977,18.293948 11.8912977,17.6576796 C11.8891229,17.0378664 11.4226419,16.3895308 10.8669966,16.1887772 L10.8659093,16.1887772 Z M10.8093661,18.2544555 C10.2915466,18.0259495 9.95841341,17.5082267 9.96230615,16.9380381 C9.99057773,16.4312174 10.3896419,16.170128 10.8648219,16.3335831 C11.3824247,16.5460159 11.7284304,17.04494 11.7488524,17.6083139 C11.7488524,18.1612092 11.3215166,18.4552091 10.8093661,18.2544555 Z M10.8604724,16.5573741 C10.4951167,16.4268293 10.1873914,16.6319711 10.1678186,17.0225082 C10.1676091,17.4588985 10.4237982,17.8539144 10.8202398,18.0284705 C11.2116924,18.1831495 11.5368156,17.9582616 11.5389903,17.535911 C11.5248729,17.1024237 11.2589272,16.7180253 10.8604724,16.55518 L10.8604724,16.5573741 Z M10.8224145,17.9286422 C10.4793956,17.7772969 10.2578283,17.4353218 10.2580702,17.0576127 C10.2754682,16.7197322 10.5418735,16.5420159 10.8593851,16.6550084 C11.2021183,16.7971588 11.4308583,17.1282998 11.4443892,17.5019035 C11.4422145,17.8661123 11.1616735,18.0602839 10.8224145,17.9253511 L10.8224145,17.9286422 Z M10.856123,16.854665 C10.7645172,16.8118771 10.657457,16.8201662 10.5733956,16.8765551 C10.4893342,16.932944 10.44034,17.0293372 10.4440103,17.1311126 C10.443978,17.3897186 10.5960304,17.6236986 10.8311135,17.7267915 C10.9263147,17.7766528 11.0409704,17.7697195 11.1295865,17.7087426 C11.2182026,17.6477657 11.266451,17.5426044 11.2551872,17.4349857 C11.2474672,17.1784762 11.0912353,16.9504243 10.856123,16.852471 L10.856123,16.854665 Z M10.8343756,17.6390303 C10.6466347,17.5563676 10.5250559,17.3695841 10.5244756,17.1629261 C10.5223786,17.082643 10.5612957,17.0068991 10.6275309,16.9623506 C10.6937661,16.9178021 10.7780368,16.9106922 10.8506861,16.9435232 C11.0383512,17.0214144 11.1634184,17.2029543 11.1703724,17.4075603 C11.1765782,17.4918489 11.137604,17.573044 11.0682093,17.6203972 C10.9988147,17.6677504 10.9096094,17.6740218 10.8343756,17.6368363 L10.8343756,17.6390303 Z M10.8506861,17.1267246 C10.8161614,17.1100813 10.7755068,17.1129701 10.7436353,17.1343313 C10.7117638,17.1556925 10.6933667,17.1923819 10.6951924,17.230941 C10.6978289,17.3266006 10.755035,17.4121022 10.8419872,17.4503439 C10.877685,17.4693486 10.9208801,17.4668404 10.9541809,17.4438293 C10.9874818,17.4208182 11.0054084,17.3810907 11.000743,17.3406424 C10.9970894,17.2451405 10.9384043,17.1606222 10.8506861,17.1245306 L10.8506861,17.1267246 Z" id="Shape" fill="url(#linearGradient-20)"></path>
                        <polygon id="Path" fill="url(#linearGradient-21)" points="9.8677051 5.90316937 8.64332831 6.35075128 7.97894623 8.41862359 9.37295249 6.92887792 11.0659851 5.48301282"></polygon>
                        <polygon id="Path" fill="url(#linearGradient-22)" points="10.2841672 8.40107136 9.50234933 9.00552634 10.6234261 8.90021295 11.7042703 7.90960887"></polygon>
                        <path d="M9.08153777,3.85175228 C9.10872198,3.68720011 9.1043725,3.57749866 8.99128619,3.48534944 C8.87819988,3.39320023 8.80969567,3.30324504 8.96845146,3.09700631 C9.12720724,2.89076759 9.28596302,2.89076759 9.30879776,2.68562588 C9.33163249,2.48048417 9.33054513,2.38833496 9.46646617,2.24682009 C9.56992336,2.15593022 9.64822915,2.03950851 9.69372616,1.90893962 C9.73723259,1.79802446 9.7903573,1.69119961 9.85248195,1.58970841 C10.0786546,1.49755919 10.3276619,1.5205965 10.2145756,1.65772331 C10.1014893,1.79485012 10.0112377,2.0965291 9.94273352,2.20623055 C9.87422931,2.315932 9.7165609,2.48048417 9.78397774,2.61761098 C9.85139458,2.75473779 9.87422931,2.82384971 9.78397774,2.96097652 C9.69372616,3.09810333 9.60238722,3.12114063 9.69372616,3.21219284 C9.78506511,3.30324504 9.91989879,3.55555837 9.85248195,3.60053596 C9.78506511,3.64551356 9.67089143,3.87478959 9.53497038,3.87478959 C9.39904933,3.87478959 9.05870303,3.99326715 9.08153777,3.85175228 Z" id="Path" fill="url(#linearGradient-23)"></path>
                        <path d="M9.95360721,1.59080542 C9.89185769,1.66520122 9.85227036,1.75572852 9.83943353,1.85189487 C9.7914863,1.96354965 9.72071398,2.06373415 9.63174617,2.14589475 C9.57723041,2.19540542 9.5253278,2.24776846 9.47625249,2.30276783 C9.41820899,2.38044758 9.39567146,2.47937551 9.41427249,2.57482742 C9.43493249,2.69001394 9.42405881,2.80520046 9.34141881,2.83701388 C9.25877881,2.8688273 9.28922513,2.96317055 9.21637145,3.03667052 C9.14351776,3.11017049 9.01955777,3.04654365 9.02934408,3.19354359 C9.0391304,3.34054353 9.12285777,3.42391663 9.24681776,3.36138681 C9.37077776,3.29885698 9.35011776,3.09920034 9.45450512,2.97304368 C9.55889248,2.84688701 9.66219248,2.75364078 9.6306588,2.62748411 C9.59912511,2.50132745 9.70351248,2.29179768 9.79702616,2.20842458 C9.886038,2.10172671 9.94032863,1.96996691 9.95251984,1.8310516 C9.95251984,1.75755163 10.0460335,1.6423651 10.0612567,1.6116487 C10.0764798,1.58093229 9.99601457,1.54802186 9.95360721,1.59080542 Z" id="Path" fill="url(#linearGradient-24)"></path>
                        <polygon id="Path" fill="url(#linearGradient-25)" points="12.7263966 17.6938811 13.8920555 17.762993 13.5495344 17.4514409 14.5085933 17.4514409 16.4288859 16.2414339 14.5433891 18.4892166"></polygon>
                        <polygon id="Path" fill="url(#linearGradient-26)" points="11.1638482 13.4999947 13.0004134 12.3207041 11.6368535 13.752308 11.0801208 15.268382"></polygon>
                        <path d="M1.15788441,12.0672938 C1.53520123,12.2153907 2.60408435,13.9322184 2.60408435,13.9322184 C2.60408435,13.9322184 1.26227177,12.6805249 1.15788441,12.0672938 Z" id="Path" fill="url(#linearGradient-27)"></path>
                        <path d="M9.17396408,2.99059591 C9.40122407,2.93574518 8.09529465,2.45854388 8.46717463,2.11956641 C8.9119083,1.71367105 8.51828095,0.1350672 7.21887574,0.0297538092 C5.91947053,-0.0755595815 5.06153688,0.132873171 4.73206426,0.128485113 C4.40259164,0.124097055 4.07203166,0.119708997 4.44608638,0.48720885 C4.8201411,0.854708703 5.51062002,2.60664084 6.94703364,2.8381109 C7.83541361,2.98072278 7.98981992,2.52436475 8.23012833,2.67465574 C8.47043674,2.82494672 8.82383146,3.07396901 9.17396408,2.99059591 Z" id="Path" fill="url(#linearGradient-28)"></path>
                        <path d="M8.12682833,2.39052898 C8.12682833,2.39052898 8.2551378,1.78717102 6.76000628,1.14870859 C5.82269474,0.748298298 4.52763901,0.294134301 4.52763901,0.294134301 C4.52763901,0.294134301 5.36056318,1.93965603 6.36202946,2.51010356 C7.34609784,3.07506602 8.05179991,2.58908861 8.12682833,2.39052898 Z" id="Path" fill="url(#linearGradient-29)"></path>
                        <path d="M6.02712,0.802052008 C5.98928394,0.584837124 5.97361645,0.364281642 5.98036316,0.143843316 C5.98036316,0.0198806788 5.86184,0.623238647 5.9205579,0.810828124 C5.71347576,0.88542224 5.51394106,0.979829773 5.32468003,1.09276085 C5.09307056,1.24963392 5.18875898,1.23427572 5.29858318,1.17723096 C5.48503327,1.08560255 5.67804009,1.00822834 5.87597579,0.945760906 C5.99232421,0.921626587 6.07496421,1.00829073 6.02712,0.802052008 Z M6.77631681,1.04229818 C6.69802629,0.843738558 6.66757997,0.378604416 6.67410418,0.217343286 C6.68062839,0.0560821569 6.52078524,0.836059457 6.59690103,1.07959667 C6.32918111,1.17552244 6.07134749,1.29750002 5.82704422,1.44380548 C5.52693054,1.64675316 5.65089054,1.62590989 5.7933358,1.55350693 C6.05414425,1.42131158 6.32330797,1.30660765 6.59907576,1.2101414 C6.74695786,1.1728429 6.87526733,1.29790256 6.77631681,1.04229818 L6.77631681,1.04229818 Z M7.44069889,1.31874583 C7.36349573,0.989641485 7.39285468,0.510246154 7.39502941,0.310589518 C7.39720415,0.110932881 7.20473995,1.07849966 7.30042837,1.38127566 C6.96732158,1.50065989 6.64649231,1.6523942 6.34245683,1.83434264 C5.9684021,2.08775299 6.10758526,2.06032762 6.2848263,1.96817841 C6.60141701,1.80633583 6.92835282,1.66597226 7.26345784,1.54802186 C7.45157257,1.50304426 7.51898941,1.65004421 7.44069889,1.31874583 Z M7.91370413,1.87602919 C7.91370413,1.87602919 7.24388521,1.99121571 6.89918943,2.2248798 C6.52187261,2.48048417 6.68171576,2.45854388 6.8556947,2.36200661 C7.20908942,2.16673803 7.58314414,2.12395446 7.77343361,2.07897687 C7.96372308,2.03399928 8.16379886,2.19416339 8.08550833,1.85957397 C8.00721781,1.52498455 8.08550833,0.994029543 8.08550833,0.792178877 C8.08550833,0.590328212 7.81692834,1.57105916 7.91370413,1.87602919 Z" id="Shape" fill="url(#linearGradient-30)"></path>
                        <path d="M6.84808312,1.09276085 C5.91077158,0.692350559 4.57113374,0.241477605 4.57113374,0.241477605 C4.57113374,0.241477605 4.19164218,0.18882091 4.53960006,0.301813402 C5.19202108,0.557417777 6.18152631,0.972089253 6.74478313,1.21233543 C7.87455887,1.6950218 8.08224623,2.18209623 8.10508096,2.43440956 C8.15292517,2.39052898 8.16706096,2.37736481 8.18010938,2.34335736 C8.18010938,2.34774542 8.34212727,1.73122328 6.84808312,1.09276085 Z" id="Path" fill="#B0D900"></path>
                        <path d="M6.76761786,1.16077575 C5.83030632,0.760365457 4.52763901,0.297425344 4.52763901,0.297425344 C4.52763901,0.297425344 4.23622428,0.120806012 4.49175585,0.34788801 C5.13765266,0.602395371 6.16304104,0.995126558 6.72738523,1.23646974 C7.85607361,1.7180591 8.06484833,2.19964846 8.08768307,2.4519618 C8.13661465,2.40808122 8.10943044,2.4519618 8.12139149,2.42014838 C8.12139149,2.42014838 8.26166201,1.79923818 6.76761786,1.16077575 Z" id="Path" fill="url(#linearGradient-31)"></path>
                        <polygon id="Path" fill="url(#linearGradient-32)" points="6.80458839 16.9643664 4.83645162 16.170128 6.59037682 17.5413961 7.19821574 16.928165"></polygon>
                    </g>
                </g>
            </g>
        </g>
    </g>
</svg>