<?xml version="1.0" encoding="UTF-8"?>
<svg width="17px" height="22px" viewBox="0 0 17 22" version="1.1" xmlns="http://www.w3.org/2000/svg" xmlns:xlink="http://www.w3.org/1999/xlink">
    <title>2F777FE3-41D5-4A8F-99EC-C425C8E6EEE4</title>
    <defs>
        <radialGradient cx="-29.0255552%" cy="-52.0857985%" fx="-29.0255552%" fy="-52.0857985%" r="227.83478%" gradientTransform="translate(-0.290256,-0.520858),scale(0.730079,1.000000),translate(0.290256,0.520858)" id="radialGradient-1">
            <stop stop-color="#FFFFFF" offset="0%"></stop>
            <stop stop-color="#5E689E" offset="100%"></stop>
        </radialGradient>
        <radialGradient cx="31.9502075%" cy="108.257919%" fx="31.9502075%" fy="108.257919%" r="163.693665%" gradientTransform="translate(0.319502,1.082579),scale(0.446449,1.000000),translate(-0.319502,-1.082579)" id="radialGradient-2">
            <stop stop-color="#4FC7FF" offset="0%"></stop>
            <stop stop-color="#0064B0" offset="100%"></stop>
        </radialGradient>
        <radialGradient cx="33.0018269%" cy="25.6303223%" fx="33.0018269%" fy="25.6303223%" r="141.93662%" gradientTransform="translate(0.330018,0.256303),scale(0.630651,1.000000),translate(-0.330018,-0.256303)" id="radialGradient-3">
            <stop stop-color="#00AEFF" offset="0%"></stop>
            <stop stop-color="#003F7A" offset="61%"></stop>
            <stop stop-color="#00ABFA" offset="89%"></stop>
        </radialGradient>
        <radialGradient cx="39.8746934%" cy="138.058477%" fx="39.8746934%" fy="138.058477%" r="260.327591%" gradientTransform="translate(0.398747,1.380585),scale(0.369490,1.000000),translate(-0.398747,-1.380585)" id="radialGradient-4">
            <stop stop-color="#007FE7" offset="0%"></stop>
            <stop stop-color="#000000" offset="100%"></stop>
        </radialGradient>
        <radialGradient cx="22.2296844%" cy="156.240849%" fx="22.2296844%" fy="156.240849%" r="269.390005%" gradientTransform="translate(0.222297,1.562408),scale(0.366223,1.000000),translate(-0.222297,-1.562408)" id="radialGradient-5">
            <stop stop-color="#00A9E7" offset="0%"></stop>
            <stop stop-color="#000000" offset="100%"></stop>
        </radialGradient>
        <radialGradient cx="46.7040924%" cy="-3.24172863%" fx="46.7040924%" fy="-3.24172863%" r="117.601779%" gradientTransform="translate(0.467041,-0.032417),scale(0.578838,1.000000),translate(-0.467041,0.032417)" id="radialGradient-6">
            <stop stop-color="#1DE4E7" offset="0%"></stop>
            <stop stop-color="#000000" offset="100%"></stop>
        </radialGradient>
        <radialGradient cx="35.1994402%" cy="5.04918413%" fx="35.1994402%" fy="5.04918413%" r="133.015242%" gradientTransform="translate(0.351994,0.050492),scale(0.580286,1.000000),translate(-0.351994,-0.050492)" id="radialGradient-7">
            <stop stop-color="#1DE4E7" offset="0%"></stop>
            <stop stop-color="#000000" offset="100%"></stop>
        </radialGradient>
        <radialGradient cx="43.6211651%" cy="19.0925742%" fx="43.6211651%" fy="19.0925742%" r="176.217686%" gradientTransform="translate(0.436212,0.190926),scale(1.000000,0.862583),translate(-0.436212,-0.190926)" id="radialGradient-8">
            <stop stop-color="#CCF0EF" offset="0%"></stop>
            <stop stop-color="#5E73E6" offset="100%"></stop>
        </radialGradient>
        <linearGradient x1="48.515962%" y1="0%" x2="54.0811046%" y2="178.436318%" id="linearGradient-9">
            <stop stop-color="#FFFFFF" offset="0%"></stop>
            <stop stop-color="#000000" offset="100%"></stop>
        </linearGradient>
        <radialGradient cx="-54.3441448%" cy="-14.6800676%" fx="-54.3441448%" fy="-14.6800676%" r="184.037926%" gradientTransform="translate(-0.543441,-0.146801),scale(1.000000,0.904249),translate(0.543441,0.146801)" id="radialGradient-10">
            <stop stop-color="#FFFFFF" offset="0%"></stop>
            <stop stop-color="#000000" offset="100%"></stop>
        </radialGradient>
        <radialGradient cx="-12.2777627%" cy="9.55666722%" fx="-12.2777627%" fy="9.55666722%" r="175.751372%" gradientTransform="translate(-0.122778,0.095567),scale(1.000000,0.828361),translate(0.122778,-0.095567)" id="radialGradient-11">
            <stop stop-color="#FFFFFF" offset="0%"></stop>
            <stop stop-color="#000000" offset="100%"></stop>
        </radialGradient>
        <radialGradient cx="148.790012%" cy="89.4566758%" fx="148.790012%" fy="89.4566758%" r="96.1474071%" gradientTransform="translate(1.487900,0.894567),scale(1.000000,0.907767),translate(-1.487900,-0.894567)" id="radialGradient-12">
            <stop stop-color="#FFFFFF" stop-opacity="0" offset="0%"></stop>
            <stop stop-color="#FFFFFF" stop-opacity="0.36205201" offset="100%"></stop>
        </radialGradient>
        <radialGradient cx="86.9104425%" cy="86.9862307%" fx="86.9104425%" fy="86.9862307%" r="180.953682%" gradientTransform="translate(0.869104,0.869862),scale(1.000000,0.962989),translate(-0.869104,-0.869862)" id="radialGradient-13">
            <stop stop-color="#FFFFFF" stop-opacity="0.119891827" offset="0%"></stop>
            <stop stop-color="#FFFFFF" stop-opacity="0.229048295" offset="100%"></stop>
        </radialGradient>
        <radialGradient cx="-1.6601212%" cy="21.484349%" fx="-1.6601212%" fy="21.484349%" r="207.016974%" gradientTransform="translate(-0.016601,0.214843),scale(1.000000,0.734605),translate(0.016601,-0.214843)" id="radialGradient-14">
            <stop stop-color="#FFFFFF" offset="0%"></stop>
            <stop stop-color="#000000" offset="100%"></stop>
        </radialGradient>
        <radialGradient cx="20.5344954%" cy="-0.256982388%" fx="20.5344954%" fy="-0.256982388%" r="181.710679%" gradientTransform="translate(0.205345,-0.002570),scale(0.749923,1.000000),translate(-0.205345,0.002570)" id="radialGradient-15">
            <stop stop-color="#CCF0EF" offset="0%"></stop>
            <stop stop-color="#364E82" offset="100%"></stop>
        </radialGradient>
        <linearGradient x1="-4.9086758%" y1="36.8720915%" x2="96.6894977%" y2="70.2742354%" id="linearGradient-16">
            <stop stop-color="#FFFFFF" offset="0%"></stop>
            <stop stop-color="#000000" offset="100%"></stop>
        </linearGradient>
        <radialGradient cx="136.292553%" cy="63.7110016%" fx="136.292553%" fy="63.7110016%" r="174.009828%" gradientTransform="translate(1.362926,0.637110),scale(1.000000,0.520423),translate(-1.362926,-0.637110)" id="radialGradient-17">
            <stop stop-color="#000000" offset="0%"></stop>
            <stop stop-color="#FFFFFF" offset="100%"></stop>
        </radialGradient>
        <radialGradient cx="1.40233481%" cy="3.14239812%" fx="1.40233481%" fy="3.14239812%" r="291.444386%" gradientTransform="translate(0.014023,0.031424),scale(0.633269,1.000000),translate(-0.014023,-0.031424)" id="radialGradient-18">
            <stop stop-color="#F2FFFF" offset="0%"></stop>
            <stop stop-color="#6A79C2" offset="100%"></stop>
        </radialGradient>
        <radialGradient cx="25.6213409%" cy="17.6003649%" fx="25.6213409%" fy="17.6003649%" r="98.3958778%" gradientTransform="translate(0.256213,0.176004),scale(0.973742,1.000000),translate(-0.256213,-0.176004)" id="radialGradient-19">
            <stop stop-color="#CA9E67" offset="0%"></stop>
            <stop stop-color="#000000" offset="100%"></stop>
        </radialGradient>
        <radialGradient cx="34.5636016%" cy="4.36812207%" fx="34.5636016%" fy="4.36812207%" r="136.695527%" gradientTransform="translate(0.345636,0.043681),scale(1.000000,0.770444),translate(-0.345636,-0.043681)" id="radialGradient-20">
            <stop stop-color="#CA9E67" offset="0%"></stop>
            <stop stop-color="#000000" offset="100%"></stop>
        </radialGradient>
        <linearGradient x1="74.4665408%" y1="79.1987581%" x2="21.3092831%" y2="13.6886748%" id="linearGradient-21">
            <stop stop-color="#B07A38" offset="0%"></stop>
            <stop stop-color="#704824" offset="100%"></stop>
        </linearGradient>
        <linearGradient x1="85.4142095%" y1="82.1305289%" x2="22.9698071%" y2="23.8381463%" id="linearGradient-22">
            <stop stop-color="#B07A38" offset="0%"></stop>
            <stop stop-color="#704824" offset="100%"></stop>
        </linearGradient>
        <radialGradient cx="17.6113053%" cy="-40.0430152%" fx="17.6113053%" fy="-40.0430152%" r="175.095619%" gradientTransform="translate(0.176113,-0.400430),scale(0.855471,1.000000),translate(-0.176113,0.400430)" id="radialGradient-23">
            <stop stop-color="#CA9E67" offset="0%"></stop>
            <stop stop-color="#000000" offset="100%"></stop>
        </radialGradient>
        <linearGradient x1="0.244120709%" y1="48.6993566%" x2="100.265842%" y2="48.6993566%" id="linearGradient-24">
            <stop stop-color="#6B4E35" offset="0%"></stop>
            <stop stop-color="#87643A" offset="100%"></stop>
        </linearGradient>
        <linearGradient x1="0.483891527%" y1="50%" x2="100.270051%" y2="50%" id="linearGradient-25">
            <stop stop-color="#6B4E35" offset="0%"></stop>
            <stop stop-color="#87643A" offset="100%"></stop>
        </linearGradient>
        <linearGradient x1="-0.111006936%" y1="50%" x2="100.111007%" y2="50%" id="linearGradient-26">
            <stop stop-color="#6B4E35" offset="0%"></stop>
            <stop stop-color="#87643A" offset="100%"></stop>
        </linearGradient>
        <linearGradient x1="89.3874553%" y1="89.7122257%" x2="6.75058372%" y2="9.48007685%" id="linearGradient-27">
            <stop stop-color="#B07A38" offset="0%"></stop>
            <stop stop-color="#704824" offset="100%"></stop>
        </linearGradient>
        <radialGradient cx="40.0485437%" cy="-36.1654426%" fx="40.0485437%" fy="-36.1654426%" r="212.138764%" gradientTransform="translate(0.400485,-0.361654),scale(0.453083,1.000000),translate(-0.400485,0.361654)" id="radialGradient-28">
            <stop stop-color="#1DE4E7" offset="0%"></stop>
            <stop stop-color="#000000" offset="100%"></stop>
        </radialGradient>
    </defs>
    <g id="Ready-Flow--(-Janis-)" stroke="none" stroke-width="1" fill="none" fill-rule="evenodd">
        <g id="14" transform="translate(-1419.000000, -409.000000)">
            <g id="Group-5" transform="translate(1196.000000, 375.000000)">
                <g id="Group-4" transform="translate(138.000000, 0.000000)">
                    <g id="Group-121" transform="translate(85.000000, 34.000000)">
                        <path d="M5.46954028,17.8258949 C7.27483418,18.8459446 8.29607707,20.3920576 7.74921797,21.3415378 C7.20235887,22.2910181 5.29164636,22.194787 3.4797638,21.1747373 C1.66788124,20.1546876 0.653227006,18.6085745 1.20008611,17.6590943 C1.7469452,16.7096141 3.65765772,16.8122606 5.46954028,17.8258949 L5.46954028,17.8258949 Z" id="Path" fill="url(#radialGradient-1)"></path>
                        <path d="M7.84145927,21.2453067 C7.34730948,22.0793096 5.47612894,21.9317553 3.65765772,20.9052902 C1.8391865,19.8788251 0.765234291,18.3840353 1.26597274,17.5500324 C2.08955573,19.0768992 5.10716377,21.155491 7.8546366,21.2453067 L7.84145927,21.2453067 Z" id="Path" fill="#5ACCC9" style="mix-blend-mode: multiply;"></path>
                        <path d="M10.84589,5.20678953 L10.3780949,5.98305377 C9.71922847,7.05442672 10.002541,6.76573341 8.95494346,7.55482845 C8.37934326,7.98124093 7.69670758,8.24933052 6.9783443,8.33109269 C4.67231196,8.73526332 2.55735086,9.61417406 1.33844805,11.6671043 C0.843345041,12.4982878 0.575648621,13.4393039 0.560985712,14.4000676 C0.61135518,16.7826839 1.93659563,18.9665032 4.05569271,20.1588782 C6.17478979,21.3512532 8.77970713,21.3788578 10.924954,20.2316725 C11.774207,19.73974 12.4797045,19.043959 12.9740284,18.2108193 C14.1995199,16.1514737 13.9096187,13.9317429 13.118979,11.7954124 C12.8410964,11.1516933 12.7433419,10.4477752 12.8356665,9.75531301 C13.0069717,8.47223164 12.9015531,8.86998686 13.4945329,7.77295229 L13.9491507,6.98385724 C13.3615811,6.81641672 12.7973294,6.57941459 12.2690414,6.27816248 C11.7540803,5.97529203 11.2765649,5.61581018 10.84589,5.20678953 L10.84589,5.20678953 Z" id="Path" fill="#FFFFFF" opacity="0.15"></path>
                        <path d="M7.16282689,10.2877918 C10.6745847,10.2877918 13.5142988,11.5708732 13.5142988,13.1234016 C13.5142988,14.6759301 10.6745847,15.9590115 7.16282689,15.9590115 C3.65106906,15.9590115 0.811354938,14.6759301 0.811354938,13.1234016 C0.811354938,11.5708732 3.65765772,10.2877918 7.16282689,10.2877918 Z" id="Path" fill="url(#radialGradient-2)"></path>
                        <path d="M7.16282689,15.9590115 C3.65765772,15.9590115 0.811354938,14.6759301 0.811354938,13.1234016 C0.813402808,12.9842057 0.835583041,12.8459851 0.877241576,12.7128156 C0.695101618,13.2580965 0.597395723,13.8267539 0.587340367,14.4000676 C0.637709835,16.7826839 1.96295028,18.9665032 4.08204736,20.1588782 C6.20114444,21.3512532 8.80606178,21.3788578 10.9513086,20.2316725 C11.8005616,19.73974 12.5060592,19.043959 13.0003831,18.2108193 C13.9228623,16.5530166 14.0970522,14.5966999 13.4813555,12.8090467 C13.5055966,12.9121098 13.5166616,13.0176952 13.5142988,13.1234016 C13.5142988,14.6887609 10.6745847,15.9590115 7.16282689,15.9590115 L7.16282689,15.9590115 Z" id="Path" fill="url(#radialGradient-3)"></path>
                        <path d="M12.4469353,14.3423289 C12.4469353,12.8732008 9.81146976,11.6863505 6.51713783,11.6863505 C3.91461561,11.6863505 1.69423589,12.4305377 0.890418904,13.476249 C1.27915007,14.8748077 3.9541476,15.9590115 7.18918155,15.9590115 C9.01055201,16.02709 10.8159899,15.6053568 12.4074033,14.7400842 C12.4522366,14.6120637 12.4745129,14.4775825 12.4733377,14.3423289 L12.4469353,14.3423289 Z" id="Path" fill="url(#radialGradient-4)" style="mix-blend-mode: screen;"></path>
                        <path d="M10.806358,14.6374377 C10.806358,13.3543563 8.53326897,12.3663836 5.71990951,12.3663836 C3.57859376,12.3663836 1.7667112,12.9630165 0.995837526,13.8034348 C1.65470391,15.0416083 4.18475083,15.9590115 7.16282689,15.9590115 C8.24057047,15.9651776 9.31461987,15.8357995 10.3583289,15.5740871 C10.6314055,15.3335633 10.7929955,14.9957433 10.806358,14.6374377 Z" id="Path" fill="url(#radialGradient-5)" style="mix-blend-mode: screen;"></path>
                        <path d="M7.16282689,15.9590115 C4.18475083,15.9590115 1.68105857,15.0416083 0.995837526,13.8034348 C0.942813189,13.7054903 0.9008402,13.6022416 0.870652913,13.4954952 C0.813551617,13.7787855 0.782680653,14.0664948 0.778411619,14.3551597 C0.818028829,16.4478613 1.97859794,18.3680407 3.83828814,19.4177726 C5.69797833,20.4675044 7.98601495,20.4939454 9.87076773,19.4874853 C10.6179193,19.0563608 11.2376193,18.4441154 11.669473,17.7104175 C12.2018487,16.8144027 12.4537542,15.7864511 12.394226,14.752915 C11.764867,15.1349251 11.0778952,15.4185071 10.3583289,15.5933333 C9.31461987,15.8550457 8.24057047,15.9844238 7.16282689,15.9782577 L7.16282689,15.9590115 Z" id="Path" fill="url(#radialGradient-6)" style="mix-blend-mode: screen;"></path>
                        <path d="M7.16282689,15.9590115 C4.18475083,15.9590115 1.68105857,15.0416083 0.995837526,13.8034348 L1.04195817,13.7521115 C1.03909591,13.7243813 1.03909591,13.6964415 1.04195817,13.6687112 C1.03888099,13.7092869 1.03888099,13.7500283 1.04195817,13.7906039 C1.01350567,13.9818632 0.998098383,14.1747478 0.995837526,14.3679906 C1.03355594,16.069672 1.98108562,17.6286647 3.49490271,18.4797609 C5.00871979,19.3308571 6.86907242,19.3505081 8.4014957,18.5315896 C9.01043631,18.181279 9.51644767,17.6841549 9.87076773,17.0881231 C10.1464714,16.6207651 10.3297282,16.1072125 10.4110382,15.5740871 C9.36732918,15.8357995 8.29327979,15.9651776 7.2155362,15.9590115 L7.16282689,15.9590115 Z" id="Path" fill="url(#radialGradient-7)" style="mix-blend-mode: screen;"></path>
                        <path d="M14.0611579,8.04239938 L14.608017,7.09291916 C14.4950452,7.08245706 14.3828309,7.0653177 14.2719952,7.0415959 C14.1563258,7.01985351 14.041954,6.99201244 13.9293847,6.95819561 L13.4813555,7.72804444 C12.6472937,8.93641459 12.4937608,10.4723608 13.0728584,11.8146586 C13.8569094,13.9381583 14.1468106,16.1322275 12.9344964,18.1723268 C12.4467958,18.9933513 11.7501916,19.6782657 10.9117766,20.161103 C8.78957944,21.2952356 6.21292611,21.266744 4.11772742,20.0859771 C2.02252872,18.9052101 0.713609276,16.7439544 0.666404333,14.3872368 C0.678857521,13.4379893 0.942065236,12.5078466 1.43068934,11.6863505 C2.63641482,9.6462511 4.72502127,8.80583279 7.01787629,8.38883135 C7.27981031,8.32445936 7.55748909,8.37107606 7.78216129,8.51713948 C8.39490703,8.96621797 8.84952484,9.69757435 9.82464709,10.1402374 C9.258022,9.71682057 8.41467302,8.75450954 8.40808436,8.21561536 C8.3994625,8.10394855 8.44895493,7.99551888 8.53985764,7.92692205 C9.3516642,7.47730763 10.0128582,6.80899579 10.4439815,6.00229999 L10.905188,5.23886657 L10.6548187,4.99508111 C10.5955208,4.93092704 10.5230455,4.84111134 10.4439815,4.73846483 L9.87076773,5.66869883 C9.32330686,6.82540525 8.19811044,7.62221107 6.89928034,7.77295229 C4.36923342,8.21561536 2.15544236,9.19075721 0.850886921,11.378411 C-1.02029361,14.5347911 0.297439158,18.6855594 3.79601966,20.6550893 C7.29460017,22.6246192 11.6365296,21.6494774 13.5077102,18.4930972 C14.825443,16.3054434 14.5684851,13.9445737 13.6987814,11.5965348 C13.1806673,10.430453 13.3176927,9.08652762 14.0611579,8.04239938 L14.0611579,8.04239938 Z" id="Path" fill="url(#radialGradient-8)"></path>
                        <path d="M13.1848657,8.37600053 C12.956007,9.16197301 12.8998812,9.98609363 13.0201491,10.7946089 C13.148472,11.6934101 13.3288497,12.5844333 13.5604195,13.4634182 C13.1292979,12.5805073 12.7808821,11.6615159 12.5194106,10.717624 C12.5511445,9.89812917 12.776613,9.09680983 13.178277,8.37600053 L13.1848657,8.37600053 Z" id="Path" fill="url(#linearGradient-9)" style="mix-blend-mode: screen;"></path>
                        <path d="M12.5457653,5.89323807 L14.0545693,6.74007178 C12.8554325,8.76092495 11.2082665,10.0183447 10.3780949,9.55001999 C9.54792321,9.08169529 9.83782441,7.06725753 11.0369612,5.05923517 L12.5457653,5.90606888 L12.5457653,5.89323807 Z" id="Path" fill="url(#radialGradient-10)" opacity="0.5" style="mix-blend-mode: screen;"></path>
                        <path d="M12.0054948,5.54039069 L12.7038932,5.98305377 C11.8803102,7.26613514 10.905188,8.11938426 10.5230455,7.8755988 C10.140903,7.63181333 10.4901021,6.3872244 11.3136851,5.09772762 L12.0054948,5.54039069 Z" id="Path" fill="url(#radialGradient-11)" opacity="0.5" style="mix-blend-mode: screen;"></path>
                        <path d="M4.76455325,10.6406392 C4.61960264,10.5059156 4.43512006,10.3326996 4.23746014,10.339115 C3.49952979,10.3776075 2.61664883,11.2629336 2.26086099,11.8082432 C1.30815056,13.0277564 1.05976517,14.6360841 1.6019946,16.0744888 C1.77988852,16.4658286 2.95267069,17.165108 2.97902535,16.9020763 C2.96858037,16.232684 3.12934044,15.5712784 3.44682048,14.9774542 C3.91177012,14.1961205 4.53761748,13.5168364 5.28505769,12.9822627 C6.00322205,12.4433685 6.0493427,12.2573217 5.77920748,11.8788127 C5.46771786,11.4316955 5.12888785,11.0032279 4.76455325,10.5957313 L4.76455325,10.6406392 Z M7.94687789,9.69757435 C8.69798557,10.5059156 8.66504225,10.9806557 8.32243173,11.3655801 C7.66356534,12.0776903 6.64891111,11.7440891 5.99004473,10.9485787 C5.33117834,10.1530682 5.20599373,9.69757435 5.53542692,9.33831157 C6.05593136,8.80583279 7.17600422,8.85715605 7.9271119,9.66549732 L7.94687789,9.69757435 Z" id="Shape" fill="url(#radialGradient-12)" style="mix-blend-mode: screen;"></path>
                        <path d="M7.51202608,9.72965139 C7.15491663,9.27014699 6.49481199,9.15557046 5.99663339,9.4666197 C5.78579615,9.67191272 5.87803744,9.928529 6.31288925,10.4225153 C6.74774107,10.9165017 7.40660745,11.1474563 7.78874996,10.7368703 C7.96664388,10.5187464 7.97323254,10.2300531 7.51202608,9.72965139 Z M4.16498484,10.826686 C4.05935811,10.7657381 3.92800105,10.7657381 3.82237432,10.826686 C3.34629459,11.1165472 2.93237283,11.4934415 2.60347151,11.9365514 C1.80670658,12.8991203 1.49046473,14.1566802 1.74035654,15.368794 C1.77988852,15.4906868 1.86554115,15.715226 1.99072577,15.7601339 C2.11591038,15.8050417 2.10273305,15.7601339 2.13567637,15.5869179 C2.23899893,15.1777057 2.40561956,14.7861685 2.62982616,14.4257292 C3.16911933,13.5951489 3.85896271,12.866927 4.66572329,12.2765679 C4.93585851,12.0776903 4.98856782,11.962213 4.96221316,11.8531511 C4.72487145,11.482466 4.44648238,11.138252 4.13204152,10.826686 L4.16498484,10.826686 Z" id="Shape" fill="url(#radialGradient-13)"></path>
                        <path d="M11.8671329,5.54039069 L12.2229207,5.77134534 C11.669473,6.69516393 11.0567272,7.33670462 10.8590673,7.20839648 C10.6614074,7.08008834 10.9513086,6.22683923 11.5179337,5.28377442 L11.8737215,5.52114447 L11.8671329,5.54039069 Z" id="Path" fill="url(#radialGradient-14)" opacity="0.5" style="mix-blend-mode: screen;"></path>
                        <path d="M14.0545693,8.05523019 C13.8503207,8.39524675 12.8751985,7.93975287 11.8803102,7.02876509 C10.885422,6.11777731 10.2331442,5.10414302 10.4308042,4.77054187 C10.9617283,5.37741634 11.6026935,5.88409811 12.3217507,6.26533167 C13.0232358,6.69660949 13.8042472,6.99077556 14.6211944,7.1314116 L14.0545693,8.08089182 L14.0545693,8.05523019 Z" id="Path" fill="#7F8E99" opacity="0.5" style="mix-blend-mode: multiply;"></path>
                        <path d="M15.6292599,7.16990404 C15.2207628,7.61898252 13.7317248,7.3174584 12.2097434,6.45779388 C10.6877621,5.59812935 9.67310782,4.50109478 9.86417907,3.93012356 C10.1038621,3.3623364 10.4426913,2.83924067 10.865656,2.3840105 L13.6856041,3.9622006 L16.4989636,5.5532215 C16.3116496,6.13880995 16.0169962,6.68653802 15.6292599,7.16990404 L15.6292599,7.16990404 Z M15.6292599,5.46340581 L13.5274762,4.27655554 L11.4256924,3.09612067 C11.3162325,3.23079534 11.2192207,3.37463322 11.1357912,3.52595293 C10.3451515,4.86677297 14.5948397,7.25971974 15.392068,5.9253151 C15.4841675,5.77802559 15.5635058,5.62352159 15.6292599,5.46340581 L15.6292599,5.46340581 Z" id="Shape" fill="url(#radialGradient-15)"></path>
                        <path d="M15.4184227,5.96380755 C15.5264838,5.79453855 15.6190803,5.61636213 15.6951466,5.43132877 L13.5274762,4.20598606 L11.3532171,2.98705875 C11.2246352,3.14273145 11.1120864,3.3103385 11.0171952,3.48746049 C10.1672576,4.92451163 14.5684851,7.40085869 15.4184227,5.96380755 L15.4184227,5.96380755 Z" id="Path" fill="#FFFFFF" opacity="0.15"></path>
                        <path d="M14.8320316,5.98946917 C14.608017,6.25250086 13.7053701,6.04720783 12.7631912,5.52114447 C11.8210122,4.99508111 11.2412098,4.37920205 11.3005078,4.04560089 C11.4161179,3.7345667 11.5503167,3.43038446 11.7024163,3.13461311 L15.4184227,5.20678953 C15.2373939,5.47148278 15.0416381,5.72634093 14.8320316,5.97022295 L14.8320316,5.98946917 Z" id="Path" fill="#8E633F"></path>
                        <path d="M7.26165685,21.2902146 C5.1928164,21.4634306 2.28062698,20.0071332 1.48998731,18.0440187 C2.92119053,19.7999415 4.98445321,20.9603952 7.26165685,21.2902146 Z" id="Path" fill="url(#linearGradient-16)" style="mix-blend-mode: screen;"></path>
                        <path d="M9.42932726,20.7833974 C11.6107581,19.9418702 13.2172064,18.0961086 13.7119588,15.8627804 C13.6394835,18.4866818 11.9791402,20.4497963 9.42932726,20.7833974 L9.42932726,20.7833974 Z" id="Path" fill="#FFFFFF"></path>
                        <path d="M10.3319742,4.520341 C10.2331442,4.02635467 10.9908406,3.02555119 11.3005078,2.59571893 L10.865656,2.35193347 C10.4401053,2.81487781 10.1011544,3.34684658 9.86417907,3.92370816 C9.68628515,4.44977152 10.5230455,5.43132877 11.8737215,6.25891626 C11.2543871,5.82266859 10.4505702,5.13622006 10.3319742,4.51392559 L10.3319742,4.520341 Z" id="Path" fill="url(#radialGradient-17)" style="mix-blend-mode: screen;"></path>
                        <path d="M14.2061085,3.08970526 C15.7610332,3.9622006 16.7888648,5.06565058 16.4989636,5.5532215 C16.2090624,6.04079243 14.7200243,5.72643749 13.158511,4.85394215 C11.5969977,3.98144682 10.5823434,2.87158143 10.865656,2.3840105 C11.1489685,1.89643958 12.6511839,2.21079452 14.2061085,3.08970526 Z" id="Path" fill="url(#radialGradient-18)"></path>
                        <path d="M15.7544446,5.77134534 C14.7878908,5.71118842 13.8533065,5.41079735 13.039915,4.89885 C12.6931216,4.70818134 12.3606576,4.49379626 12.0450268,4.25730931 C11.9683291,4.35571312 11.8513208,4.41659527 11.7246788,4.42399398 C11.5980368,4.43139269 11.4743918,4.38457003 11.3861604,4.29580176 C11.1544225,4.09139786 11.0851431,3.764488 11.2148552,3.48746049 C10.8524786,3.06404363 10.7009394,2.67911922 10.84589,2.43533376 L10.8788333,2.39042591 C10.6943507,2.87799683 11.7551256,3.94295438 13.3100503,4.82186512 C14.0662441,5.27201083 14.8947887,5.59514734 15.7610332,5.77776075 L15.7544446,5.77134534 Z" id="Path" fill="#FFFFFF"></path>
                        <path d="M15.6094939,4.96300407 C15.3657134,5.24528197 14.3971798,5.02715814 13.3957029,4.46260233 C12.394226,3.89804653 11.7617143,3.23725962 11.8276009,2.88441224 C12.2088317,1.91562986 12.6647492,0.976302769 13.1914543,0.0744640267 L16.96017,3.20518259 C16.5055522,3.84672327 16.0904664,4.41769449 15.6424373,4.96941948 L15.6094939,4.96300407 Z" id="Path" fill="#8E633F"></path>
                        <path d="M15.6292599,4.60374129 C15.411834,4.85394215 14.5223644,4.64864913 13.5933628,4.12258577 C12.6643612,3.59652241 12.0845588,2.99988957 12.1372681,2.67911922 C12.46744,1.81928549 12.8684584,0.986848298 13.3364049,0.189941351 L16.7756875,3.04479741 C16.3671903,3.58369159 16.0641118,4.11617036 15.6292599,4.60374129 L15.6292599,4.60374129 Z" id="Path" fill="url(#radialGradient-19)" style="mix-blend-mode: screen;"></path>
                        <path d="M14.9835709,1.74888522 C14.2192859,3.0319666 13.4879442,3.67350729 12.9015531,3.23084421 C12.315162,2.78818114 12.6643612,1.56925383 13.4286462,0.286172454 L14.9835709,1.74888522 L14.9835709,1.74888522 Z" id="Path" fill="url(#radialGradient-20)" style="mix-blend-mode: screen;"></path>
                        <path d="M13.4418235,2.76893492 C13.6944617,2.78918609 13.8875912,2.99688412 13.883264,3.24367503 C13.8939338,3.49300365 13.7551508,3.72573353 13.5274762,3.84030787 C13.3232276,3.90446194 13.0860357,3.57086078 13.0333264,3.25009043 C12.9806171,2.92932009 13.1848657,2.71761166 13.4418235,2.76893492 L13.4418235,2.76893492 Z" id="Path" fill="url(#linearGradient-21)"></path>
                        <path d="M15.8466858,3.58369159 C15.9466728,3.84752858 15.8585297,4.1440158 15.6292599,4.31504798 C15.3971329,4.4330489 15.11239,4.38287891 14.9374502,4.19315525 C14.805677,4.03918548 14.9374502,3.75049217 15.1680535,3.55161456 C15.3986567,3.35273694 15.7215012,3.36556776 15.8269199,3.55161456 L15.8466858,3.58369159 Z" id="Path" fill="url(#linearGradient-22)"></path>
                        <path d="M15.3788907,1.11375994 C14.3049385,0.305418675 13.3495822,-0.22064469 13.1453337,0.119371875 C13.039915,0.299003268 13.1453337,0.66468146 13.4352349,1.10092913 C13.2425162,1.33530498 13.2425162,1.66847913 13.4352349,1.90285499 C13.6190029,2.14604929 13.9654567,2.20789558 14.2258745,2.04399394 C14.3444705,2.15947126 14.4762438,2.27494859 14.6146057,2.39042591 C15.7149126,3.26292125 16.7098008,3.58369159 16.9535814,3.19876718 C17.1973619,2.81384277 16.4528429,1.92210121 15.3788907,1.11375994 Z" id="Path" fill="#EDCAA6" opacity="0.25" style="mix-blend-mode: screen;"></path>
                        <path d="M15.4184227,1.04319047 C16.4726089,1.89002417 17.1644186,2.85875061 16.96017,3.19876718 C16.7559215,3.53878374 15.7412672,3.1281977 14.687081,2.27494859 C13.6328948,1.42169947 12.9476738,0.45938844 13.1453337,0.119371875 C13.3429936,-0.22064469 14.3708251,0.189941351 15.4184227,1.04319047 L15.4184227,1.04319047 Z" id="Path" fill="#936E4E"></path>
                        <path d="M15.0824008,0.863559073 C15.9455158,1.56283842 16.5121409,2.35834888 16.3474243,2.64062678 C16.1827077,2.92290468 15.3459474,2.57647271 14.4762438,1.87719336 C13.6065401,1.17791401 13.0465037,0.388818964 13.2112203,0.106541061 C13.3759369,-0.175736842 14.2126972,0.164279723 15.0824008,0.863559073 L15.0824008,0.863559073 Z" id="Path" fill="url(#radialGradient-23)" style="mix-blend-mode: screen;"></path>
                        <path d="M14.5223644,0.594111984 C14.8517976,0.831482039 15.0626348,1.10734453 15.0033369,1.23565267 C14.9440389,1.36396081 14.627783,1.23565267 14.3049385,0.991867211 C13.982094,0.748081749 13.7580794,0.47863466 13.8173774,0.350326523 C13.8766754,0.222018385 14.1929312,0.350326523 14.5223644,0.594111984 Z" id="Path" fill="url(#linearGradient-24)"></path>
                        <path d="M15.2339401,1.82587011 C15.4645433,1.99908609 15.6094939,2.21079452 15.5567846,2.30061022 C15.5040753,2.39042591 15.2734721,2.30061022 15.0362802,2.15947126 C14.7990883,2.01833231 14.6541377,1.77454685 14.706847,1.68473115 C14.7595563,1.59491546 14.9967482,1.68473115 15.2339401,1.82587011 Z" id="Path" fill="url(#linearGradient-25)"></path>
                        <path d="M16.4067223,2.25570237 C16.6636802,2.46099539 16.8283968,2.71119626 16.7690988,2.81384277 C16.7098008,2.91648928 16.4396656,2.81384277 16.1827077,2.62779597 C15.9257498,2.44174917 15.7610332,2.17230208 15.8203312,2.06965557 C15.8796292,1.96700906 16.1431757,2.06965557 16.4067223,2.25570237 Z" id="Path" fill="url(#linearGradient-26)"></path>
                        <path d="M14.1468106,1.93493202 C13.9301868,2.05633334 13.6535413,1.98469217 13.5274762,1.77454685 C13.3298163,1.53076139 13.3298163,1.24848349 13.4879442,1.13300616 C13.6460721,1.01752884 13.9557393,1.13300616 14.1468106,1.36396081 C14.3378818,1.59491546 14.3181158,1.82587011 14.1468106,1.94134743 L14.1468106,1.93493202 Z" id="Path" fill="url(#linearGradient-27)"></path>
                        <path d="M12.9147304,16.9662303 C12.314666,18.4757882 11.091382,19.6707591 9.54300336,20.2599183 C7.9946247,20.8490776 6.26336306,20.7783135 4.77114191,20.0648719 C7.78533052,20.0456979 10.6858084,18.9420639 12.9147304,16.9662303 L12.9147304,16.9662303 Z" id="Path" fill="url(#radialGradient-28)" style="mix-blend-mode: screen;"></path>
                    </g>
                </g>
            </g>
        </g>
    </g>
</svg>