<?xml version="1.0" encoding="UTF-8"?>
<svg width="397px" height="736px" viewBox="0 0 397 736" preserveAspectRatio="none" version="1.1"
     xmlns="http://www.w3.org/2000/svg">
    <title>19937579-18EB-467B-8DD0-256EE0E73447@0.5x</title>
    <defs>
        <linearGradient x1="0%" y1="49.7584541%" x2="100.385356%" y2="49.7584541%" id="linearGradient-1">
            <stop stop-color="#935A0F" offset="0%"></stop>
            <stop stop-color="#C88C4A" offset="100%"></stop>
        </linearGradient>
        <linearGradient x1="0.382409178%" y1="49.7584541%" x2="100%" y2="49.7584541%" id="linearGradient-2">
            <stop stop-color="#935A0F" offset="0%"></stop>
            <stop stop-color="#CA8E4C" offset="100%"></stop>
        </linearGradient>
        <linearGradient x1="2.97765421e-13%" y1="50.1766784%" x2="100%" y2="50.1766784%" id="linearGradient-3">
            <stop stop-color="#BA7621" offset="0%"></stop>
            <stop stop-color="#FFD24F" offset="100%"></stop>
        </linearGradient>
        <linearGradient x1="0%" y1="49.9013807%" x2="100%" y2="49.9013807%" id="linearGradient-4">
            <stop stop-color="#BA7014" offset="0%"></stop>
            <stop stop-color="#FFD24F" offset="72%"></stop>
            <stop stop-color="#FFE48A" offset="100%"></stop>
        </linearGradient>
        <linearGradient x1="0%" y1="50.1766784%" x2="99.947644%" y2="50.1766784%" id="linearGradient-5">
            <stop stop-color="#BA7014" offset="0%"></stop>
            <stop stop-color="#FFD24F" offset="100%"></stop>
        </linearGradient>
        <linearGradient x1="0%" y1="49.2%" x2="100%" y2="49.2%" id="linearGradient-6">
            <stop stop-color="#473626" offset="0%"></stop>
            <stop stop-color="#E8E7B3" offset="100%"></stop>
        </linearGradient>
        <linearGradient x1="0%" y1="50%" x2="99.6879875%" y2="50%" id="linearGradient-7">
            <stop stop-color="#473626" offset="0%"></stop>
            <stop stop-color="#E8E7B3" offset="100%"></stop>
        </linearGradient>
        <linearGradient x1="0%" y1="50%" x2="99.6875%" y2="50%" id="linearGradient-8">
            <stop stop-color="#473626" offset="0%"></stop>
            <stop stop-color="#E8E7B3" offset="100%"></stop>
        </linearGradient>
        <linearGradient x1="50%" y1="100%" x2="50%" y2="-4.2079519e-13%" id="linearGradient-9">
            <stop stop-color="#000000" offset="0%"></stop>
            <stop stop-color="#FFC782" offset="100%"></stop>
        </linearGradient>
        <linearGradient x1="-2.51187959e-13%" y1="50%" x2="100%" y2="50%" id="linearGradient-10">
            <stop stop-color="#1C0005" stop-opacity="0.798677885" offset="0%"></stop>
            <stop stop-color="#1C0005" stop-opacity="0.80039882" offset="100%"></stop>
        </linearGradient>
        <linearGradient x1="50%" y1="-7.06032455e-14%" x2="50%" y2="100%" id="linearGradient-11">
            <stop stop-color="#FEDD60" offset="0%"></stop>
            <stop stop-color="#935A0F" offset="100%"></stop>
        </linearGradient>
        <linearGradient x1="100%" y1="50%" x2="-1.0668731e-13%" y2="50%" id="linearGradient-12">
            <stop stop-color="#D58D03" offset="0%"></stop>
            <stop stop-color="#C98E4E" offset="100%"></stop>
        </linearGradient>
    </defs>
    <g id="Ready-Flow--(-Janis-)" stroke="none" stroke-width="1" fill="none" fill-rule="evenodd">
        <g id="14" transform="translate(-1169.000000, -153.000000)">
            <g id="Group-20" transform="translate(1171.000127, 153.500000)">
                <g id="Group-67" transform="translate(155.999873, 726.900000)">
                    <path d="M0,0 C2.22030883,1.68041129 4.70078932,2.98592734 7.34299517,3.8647343 C18.4071444,3.70008764 29.4394794,5.09213934 40.115942,8 L40.115942,0 L0,0 Z"
                          id="Path" fill="url(#linearGradient-1)"></path>
                    <path d="M80.5410628,0 C78.320754,1.68041129 75.8402735,2.98592734 73.1980676,3.8647343 C62.0304657,3.66882754 50.8917023,5.06117297 40.115942,8 L40.115942,0 L80.5410628,0 Z"
                          id="Path" fill="url(#linearGradient-2)"></path>
                </g>
                <g id="Group-61"
                   transform="translate(196.361971, 4.000000) scale(-1, 1) translate(-196.361971, -4.000000) translate(145.999873, 0.000000)">
                    <path d="M2.2605753,8 L98.4500846,8 L100.71066,5.7394247 L87.891709,5.7394247 C87.191911,5.74786866 86.5391254,5.38806559 86.1725888,4.79187817 L85.9153976,4.3857868 L74.8697124,3.0321489 L71.0659898,4.3857868 L70.7952623,4.79187817 C70.4350994,5.38794639 69.7860489,5.74853004 69.0896785,5.7394247 L67.0050761,5.7394247 C65.6047991,5.75903263 64.297973,5.03873476 63.5668359,3.84433164 L62.5380711,2.21996616 L50.3553299,0 L38.1725888,2.21996616 L37.143824,3.84433164 C36.4126869,5.03873476 35.1058608,5.75903263 33.7055838,5.7394247 L31.6345178,5.7394247 C30.9340371,5.7506009 30.2799887,5.39010179 29.9153976,4.79187817 L29.6582064,4.3857868 L25.8409475,3.0321489 L14.7952623,4.3857868 L14.5380711,4.79187817 C14.1715345,5.38806559 13.5187489,5.74786866 12.8189509,5.7394247 L0,5.7394247 L2.2605753,8 L2.2605753,8 Z"
                          id="Path" fill="#CCCCCC"></path>
                    <path d="M1.13705584,6.86294416 L25.8409475,6.86294416 L25.8409475,3.0321489 L14.7952623,4.3857868 L14.5380711,4.79187817 C14.1715345,5.38806559 13.5187489,5.74786866 12.8189509,5.7394247 L0,5.7394247 L1.13705584,6.86294416 L1.13705584,6.86294416 Z"
                          id="Path" fill="url(#linearGradient-3)"></path>
                    <path d="M25.8409475,3.0321489 L25.8409475,6.86294416 L50.3553299,6.86294416 L50.3553299,0 L38.1725888,2.21996616 L37.143824,3.84433164 C36.4126869,5.03873476 35.1058608,5.75903263 33.7055838,5.7394247 L31.6345178,5.7394247 C30.9340371,5.7506009 30.2799887,5.39010179 29.9153976,4.79187817 L29.6582064,4.3857868 L25.8409475,3.0321489 L25.8409475,3.0321489 Z"
                          id="Path" fill="url(#linearGradient-4)"></path>
                    <path d="M50.3553299,0 L50.3553299,6.86294416 L74.8697124,6.86294416 L74.8697124,3.0321489 L71.0659898,4.3857868 L70.7952623,4.79187817 C70.4350994,5.38794639 69.7860489,5.74853004 69.0896785,5.7394247 L67.0050761,5.7394247 C65.6047991,5.75903263 64.297973,5.03873476 63.5668359,3.84433164 L62.5380711,2.21996616 L50.3553299,0 L50.3553299,0 Z"
                          id="Path" fill="url(#linearGradient-4)"></path>
                    <path d="M74.8697124,3.0321489 L74.8697124,6.86294416 L99.5871404,6.86294416 L100.724196,5.7394247 L87.9052453,5.7394247 C87.2054474,5.74786866 86.5526618,5.38806559 86.1861252,4.79187817 L85.928934,4.3857868 L74.8832487,3.0321489 L74.8697124,3.0321489 Z"
                          id="Path" fill="url(#linearGradient-5)"></path>
                    <path d="M33.786802,6.86294416 C36.1827411,6.61928934 46.5516074,5.79357022 47.8104907,5.50930626 C49.6108291,5.03553299 49.6649746,2.80203046 50.3553299,0.0947546531 L50.3553299,6.86294416 L33.786802,6.86294416 Z"
                          id="Path" fill="url(#linearGradient-6)" style="mix-blend-mode: screen;"></path>
                    <path d="M17.1912014,6.86294416 C18.4500846,6.74111675 23.8510998,6.30795262 24.5143824,6.1319797 C25.4483926,5.88832487 25.4754653,4.77834179 25.8680203,3.2893401 L25.8680203,6.86294416 L17.1912014,6.86294416 Z"
                          id="Path" fill="url(#linearGradient-7)" style="mix-blend-mode: screen;"></path>
                    <path d="M66.2335025,6.86294416 C67.4923858,6.74111675 72.893401,6.30795262 73.5431472,6.1319797 C74.4906937,5.88832487 74.5177665,4.77834179 74.8967851,3.2893401 L74.8967851,6.86294416 L66.2335025,6.86294416 Z"
                          id="Path" fill="url(#linearGradient-8)" style="mix-blend-mode: screen;"></path>
                    <path d="M98.4500846,8 L100.71066,5.7394247 L87.891709,5.7394247 C87.191911,5.74786866 86.5391254,5.38806559 86.1725888,4.79187817 L85.9153976,4.3857868 L74.8697124,3.0321489 L71.0659898,4.3857868 L70.7952623,4.79187817 C70.4350994,5.38794639 69.7860489,5.74853004 69.0896785,5.7394247 L67.0050761,5.7394247 C65.6047991,5.75903263 64.297973,5.03873476 63.5668359,3.84433164 L62.5380711,2.21996616 L50.3553299,0 L38.1725888,2.21996616 L37.143824,3.84433164 C36.4126869,5.03873476 35.1058608,5.75903263 33.7055838,5.7394247 L31.6345178,5.7394247 C30.9340371,5.7506009 30.2799887,5.39010179 29.9153976,4.79187817 L29.6582064,4.3857868 L25.8409475,3.0321489 L14.7952623,4.3857868 L14.5380711,4.79187817 C14.1715345,5.38806559 13.5187489,5.74786866 12.8189509,5.7394247 L0,5.7394247 L2.2605753,8 L98.4500846,8 Z"
                          id="Path" fill="url(#linearGradient-9)" opacity="0.75" style="mix-blend-mode: screen;"></path>
                </g>
                <path d="M382,10.7091988 C382,15.9559039 386.029437,20.2091988 391,20.2091988 C391.687343,20.2091988 392.356689,20.1278669 392.999873,19.9738229 L392.999238,725.5 L0,725.5 L0,23.5 C7.61826213e-16,15.2157288 6.71572875,8.5 15,8.5 L382.244778,8.49931874 C382.084732,9.20842888 382,9.94836904 382,10.7091988 Z"
                      id="Combined-Shape" stroke="url(#linearGradient-11)" stroke-width="3" fill="transparent"
                      transform="translate(196.499937, 366.999659) scale(-1, 1) translate(-196.499937, -366.999659) "></path>
                <path d="M389.999728,22.8706944 L389.999873,722.5 L2.9998733,722.5 L2.9998733,21.5 C2.9998733,15.9771525 7.4770258,11.5 12.9998733,11.5 L379.176928,11.5009753 C379.68421,17.99546 383.927204,22.4327905 389.999728,22.8706944 Z"
                      id="Combined-Shape" stroke="url(#linearGradient-12)" stroke-width="3"
                      transform="translate(196.499873, 367.000000) scale(-1, 1) translate(-196.499873, -367.000000) "></path>
            </g>
        </g>
    </g>
</svg>