<?xml version="1.0" encoding="UTF-8"?>
<svg width="56px" height="57px" viewBox="0 0 56 57" version="1.1" xmlns="http://www.w3.org/2000/svg" xmlns:xlink="http://www.w3.org/1999/xlink">
    <title>5DBA174A-278A-4F0A-B548-23CA07E73419</title>
    <defs>
        <linearGradient x1="70.051913%" y1="96.1912944%" x2="33.2121205%" y2="4.3814433%" id="linearGradient-1">
            <stop stop-color="#FFD24F" offset="0%"></stop>
            <stop stop-color="#BA7014" offset="100%"></stop>
        </linearGradient>
        <linearGradient x1="29.6796315%" y1="96.9125214%" x2="67.1865293%" y2="3.25900515%" id="linearGradient-2">
            <stop stop-color="#FFD24F" offset="0%"></stop>
            <stop stop-color="#FCB33A" offset="50%"></stop>
            <stop stop-color="#FFD24F" offset="100%"></stop>
        </linearGradient>
        <linearGradient x1="50.0276243%" y1="100%" x2="50.0276243%" y2="0%" id="linearGradient-3">
            <stop stop-color="#F7BC34" offset="0%"></stop>
            <stop stop-color="#6E4500" offset="100%"></stop>
        </linearGradient>
        <linearGradient x1="0.235710077%" y1="50%" x2="100%" y2="50%" id="linearGradient-4">
            <stop stop-color="#BA7014" offset="0%"></stop>
            <stop stop-color="#FFD24F" offset="72%"></stop>
            <stop stop-color="#FFE48A" offset="100%"></stop>
        </linearGradient>
        <linearGradient x1="0%" y1="50.4750594%" x2="100%" y2="50.4750594%" id="linearGradient-5">
            <stop stop-color="#BA7014" offset="0%"></stop>
            <stop stop-color="#FFD24F" offset="72%"></stop>
            <stop stop-color="#FFE48A" offset="100%"></stop>
        </linearGradient>
        <linearGradient x1="70.4417693%" y1="3.00773417%" x2="32.6648221%" y2="97.1354913%" id="linearGradient-6">
            <stop stop-color="#945200" offset="0%"></stop>
            <stop stop-color="#B57405" offset="100%"></stop>
        </linearGradient>
        <linearGradient x1="29.9197841%" y1="3.83624392%" x2="67.3948973%" y2="97.2802748%" id="linearGradient-7">
            <stop stop-color="#945200" offset="0%"></stop>
            <stop stop-color="#C77E00" offset="100%"></stop>
        </linearGradient>
        <linearGradient x1="0.235710077%" y1="50%" x2="100%" y2="50%" id="linearGradient-8">
            <stop stop-color="#945200" offset="0%"></stop>
            <stop stop-color="#E39919" offset="70%"></stop>
            <stop stop-color="#EBAB21" offset="100%"></stop>
        </linearGradient>
        <linearGradient x1="0%" y1="50%" x2="100%" y2="50%" id="linearGradient-9">
            <stop stop-color="#945200" offset="0%"></stop>
            <stop stop-color="#E39919" offset="70%"></stop>
            <stop stop-color="#EBAB21" offset="100%"></stop>
        </linearGradient>
        <linearGradient x1="0%" y1="49.5967742%" x2="100%" y2="49.5967742%" id="linearGradient-10">
            <stop stop-color="#473626" offset="0%"></stop>
            <stop stop-color="#E8E7B3" offset="100%"></stop>
        </linearGradient>
        <linearGradient x1="1.36752411e-12%" y1="50.2024291%" x2="100%" y2="50.2024291%" id="linearGradient-11">
            <stop stop-color="#473626" offset="0%"></stop>
            <stop stop-color="#E8E7B3" offset="100%"></stop>
        </linearGradient>
        <linearGradient x1="49.609375%" y1="100%" x2="49.609375%" y2="-0.170357751%" id="linearGradient-12">
            <stop stop-color="#E8E7B3" offset="0%"></stop>
            <stop stop-color="#473626" offset="100%"></stop>
        </linearGradient>
        <linearGradient x1="49.9013807%" y1="100%" x2="49.9013807%" y2="-0.170357751%" id="linearGradient-13">
            <stop stop-color="#E8E7B3" offset="0%"></stop>
            <stop stop-color="#473626" offset="100%"></stop>
        </linearGradient>
        <radialGradient cx="-29.0466412%" cy="-52.233037%" fx="-29.0466412%" fy="-52.233037%" r="221.468769%" gradientTransform="translate(-0.290466,-0.522330),scale(0.751187,1.000000),translate(0.290466,0.522330)" id="radialGradient-14">
            <stop stop-color="#FFFFFF" offset="0%"></stop>
            <stop stop-color="#5E689E" offset="100%"></stop>
        </radialGradient>
        <radialGradient cx="31.9336444%" cy="108.371041%" fx="31.9336444%" fy="108.371041%" r="158.926269%" gradientTransform="translate(0.319336,1.083710),scale(0.459603,1.000000),translate(-0.319336,-1.083710)" id="radialGradient-15">
            <stop stop-color="#95C11F" offset="0%"></stop>
            <stop stop-color="#3D8C00" offset="100%"></stop>
        </radialGradient>
        <radialGradient cx="33.001188%" cy="25.7302893%" fx="33.001188%" fy="25.7302893%" r="138.340351%" gradientTransform="translate(0.330012,0.257303),scale(0.647033,1.000000),translate(-0.330012,-0.257303)" id="radialGradient-16">
            <stop stop-color="#79A600" offset="0%"></stop>
            <stop stop-color="#007011" offset="61%"></stop>
            <stop stop-color="#95C11F" offset="89%"></stop>
        </radialGradient>
        <radialGradient cx="39.931576%" cy="138.053395%" fx="39.931576%" fy="138.053395%" r="252.736536%" gradientTransform="translate(0.399316,1.380534),scale(0.380588,1.000000),translate(-0.399316,-1.380534)" id="radialGradient-17">
            <stop stop-color="#468A00" offset="0%"></stop>
            <stop stop-color="#000000" offset="100%"></stop>
        </radialGradient>
        <radialGradient cx="22.2296844%" cy="156.521873%" fx="22.2296844%" fy="156.521873%" r="262.014749%" gradientTransform="translate(0.222297,1.565219),scale(0.376532,1.000000),translate(-0.222297,-1.565219)" id="radialGradient-18">
            <stop stop-color="#64AA19" offset="0%"></stop>
            <stop stop-color="#000000" offset="100%"></stop>
        </radialGradient>
        <radialGradient cx="46.4185801%" cy="-3.05141304%" fx="46.4185801%" fy="-3.05141304%" r="114.190766%" gradientTransform="translate(0.464186,-0.030514),scale(0.596101,1.000000),translate(-0.464186,0.030514)" id="radialGradient-19">
            <stop stop-color="#95C11F" offset="0%"></stop>
            <stop stop-color="#000000" offset="100%"></stop>
        </radialGradient>
        <radialGradient cx="599.790063%" cy="5.27453873%" fx="599.790063%" fy="5.27453873%" r="128.909358%" gradientTransform="translate(5.997901,0.052745),scale(0.598768,1.000000),translate(-5.997901,-0.052745)" id="radialGradient-20">
            <stop stop-color="#95C11F" offset="0%"></stop>
            <stop stop-color="#000000" offset="100%"></stop>
        </radialGradient>
        <radialGradient cx="43.6015022%" cy="19.1533912%" fx="43.6015022%" fy="19.1533912%" r="176.279145%" gradientTransform="translate(0.436015,0.191534),scale(1.000000,0.838173),translate(-0.436015,-0.191534)" id="radialGradient-21">
            <stop stop-color="#CCF0EF" offset="0%"></stop>
            <stop stop-color="#5E73E6" offset="100%"></stop>
        </radialGradient>
        <linearGradient x1="48.6544998%" y1="8.94890095e-14%" x2="53.9119172%" y2="178.337531%" id="linearGradient-22">
            <stop stop-color="#FFFFFF" offset="0%"></stop>
            <stop stop-color="#000000" offset="100%"></stop>
        </linearGradient>
        <radialGradient cx="-54.1853546%" cy="-14.5402574%" fx="-54.1853546%" fy="-14.5402574%" r="184.037926%" gradientTransform="translate(-0.541854,-0.145403),scale(1.000000,0.877914),translate(0.541854,0.145403)" id="radialGradient-23">
            <stop stop-color="#FFFFFF" offset="0%"></stop>
            <stop stop-color="#000000" offset="100%"></stop>
        </radialGradient>
        <radialGradient cx="-12.5319484%" cy="8.23757156%" fx="-12.5319484%" fy="8.23757156%" r="176.149256%" gradientTransform="translate(-0.125319,0.082376),scale(1.000000,0.806939),translate(0.125319,-0.082376)" id="radialGradient-24">
            <stop stop-color="#FFFFFF" offset="0%"></stop>
            <stop stop-color="#000000" offset="100%"></stop>
        </radialGradient>
        <radialGradient cx="148.790012%" cy="89.4929879%" fx="148.790012%" fy="89.4929879%" r="96.1474071%" gradientTransform="translate(1.487900,0.894930),scale(1.000000,0.880895),translate(-1.487900,-0.894930)" id="radialGradient-25">
            <stop stop-color="#000000" stop-opacity="0" offset="0%"></stop>
            <stop stop-color="#FFFFFF" stop-opacity="0.357517483" offset="100%"></stop>
        </radialGradient>
        <radialGradient cx="87.1291892%" cy="86.720013%" fx="87.1291892%" fy="86.720013%" r="179.66627%" gradientTransform="translate(0.871292,0.867200),scale(1.000000,0.939479),translate(-0.871292,-0.867200)" id="radialGradient-26">
            <stop stop-color="#ABABAB" stop-opacity="0.117023601" offset="0%"></stop>
            <stop stop-color="#FFFFFF" stop-opacity="0.232708698" offset="100%"></stop>
        </radialGradient>
        <radialGradient cx="-1.19802974%" cy="21.4673074%" fx="-1.19802974%" fy="21.4673074%" r="207.016974%" gradientTransform="translate(-0.011980,0.214673),scale(1.000000,0.712645),translate(0.011980,-0.214673)" id="radialGradient-27">
            <stop stop-color="#FFFFFF" offset="0%"></stop>
            <stop stop-color="#000000" offset="100%"></stop>
        </radialGradient>
        <radialGradient cx="20.5359295%" cy="-0.38579208%" fx="20.5359295%" fy="-0.38579208%" r="176.564323%" gradientTransform="translate(0.205359,-0.003858),scale(0.771767,1.000000),translate(-0.205359,0.003858)" id="radialGradient-28">
            <stop stop-color="#CCF0EF" offset="0%"></stop>
            <stop stop-color="#364E82" offset="100%"></stop>
        </radialGradient>
        <linearGradient x1="-5.02857143%" y1="36.0076521%" x2="96.6857143%" y2="71.1055805%" id="linearGradient-29">
            <stop stop-color="#FFFFFF" offset="0%"></stop>
            <stop stop-color="#000000" offset="100%"></stop>
        </linearGradient>
        <radialGradient cx="135.852419%" cy="63.9072848%" fx="135.852419%" fy="63.9072848%" r="173.44819%" gradientTransform="translate(1.358524,0.639073),scale(1.000000,0.511098),translate(-1.358524,-0.639073)" id="radialGradient-30">
            <stop stop-color="#000000" offset="0%"></stop>
            <stop stop-color="#FFFFFF" offset="100%"></stop>
        </radialGradient>
        <radialGradient cx="1.31531426%" cy="3.15238003%" fx="1.31531426%" fy="3.15238003%" r="283.336274%" gradientTransform="translate(0.013153,0.031524),scale(0.651966,1.000000),translate(-0.013153,-0.031524)" id="radialGradient-31">
            <stop stop-color="#F2FFFF" offset="0%"></stop>
            <stop stop-color="#6A79C2" offset="100%"></stop>
        </radialGradient>
        <radialGradient cx="25.6213409%" cy="17.7330969%" fx="25.6213409%" fy="17.7330969%" r="95.812204%" gradientTransform="translate(0.256213,0.177331),scale(1.000000,0.996539),translate(-0.256213,-0.177331)" id="radialGradient-32">
            <stop stop-color="#CA9E67" offset="0%"></stop>
            <stop stop-color="#000000" offset="100%"></stop>
        </radialGradient>
        <radialGradient cx="34.5636016%" cy="4.36812207%" fx="34.5636016%" fy="4.36812207%" r="136.695527%" gradientTransform="translate(0.345636,0.043681),scale(1.000000,0.748006),translate(-0.345636,-0.043681)" id="radialGradient-33">
            <stop stop-color="#CA9E67" offset="0%"></stop>
            <stop stop-color="#000000" offset="100%"></stop>
        </radialGradient>
        <linearGradient x1="73.6535157%" y1="78.7363334%" x2="24.5381814%" y2="14.1698708%" id="linearGradient-34">
            <stop stop-color="#B07A38" offset="0%"></stop>
            <stop stop-color="#704824" offset="100%"></stop>
        </linearGradient>
        <linearGradient x1="85.2888714%" y1="80.2585364%" x2="23.5924458%" y2="21.2481751%" id="linearGradient-35">
            <stop stop-color="#B07A38" offset="0%"></stop>
            <stop stop-color="#704824" offset="100%"></stop>
        </linearGradient>
        <radialGradient cx="17.8176266%" cy="-39.7948356%" fx="17.8176266%" fy="-39.7948356%" r="169.939173%" gradientTransform="translate(0.178176,-0.397948),scale(0.881429,1.000000),translate(-0.178176,0.397948)" id="radialGradient-36">
            <stop stop-color="#CA9E67" offset="0%"></stop>
            <stop stop-color="#000000" offset="100%"></stop>
        </radialGradient>
        <linearGradient x1="0.24375597%" y1="48.6993566%" x2="100.116035%" y2="48.6993566%" id="linearGradient-37">
            <stop stop-color="#6B4E35" offset="0%"></stop>
            <stop stop-color="#87643A" offset="100%"></stop>
        </linearGradient>
        <linearGradient x1="0.482740855%" y1="49.9901245%" x2="100.031613%" y2="49.9901245%" id="linearGradient-38">
            <stop stop-color="#6B4E35" offset="0%"></stop>
            <stop stop-color="#87643A" offset="100%"></stop>
        </linearGradient>
        <linearGradient x1="-0.076859757%" y1="51.5462228%" x2="100.110969%" y2="51.5462228%" id="linearGradient-39">
            <stop stop-color="#6B4E35" offset="0%"></stop>
            <stop stop-color="#87643A" offset="100%"></stop>
        </linearGradient>
        <linearGradient x1="86.7096359%" y1="90.6041975%" x2="9.21293983%" y2="9.93653778%" id="linearGradient-40">
            <stop stop-color="#B07A38" offset="0%"></stop>
            <stop stop-color="#704824" offset="100%"></stop>
        </linearGradient>
        <radialGradient cx="693.527508%" cy="-37.0348042%" fx="693.527508%" fy="-37.0348042%" r="205.960458%" gradientTransform="translate(6.935275,-0.370348),scale(0.466675,1.000000),translate(-6.935275,0.370348)" id="radialGradient-41">
            <stop stop-color="#95C11F" offset="0%"></stop>
            <stop stop-color="#000000" offset="100%"></stop>
        </radialGradient>
    </defs>
    <g id="Ready-Flow--(-Janis-)" stroke="none" stroke-width="1" fill="none" fill-rule="evenodd">
        <g id="21" transform="translate(-1166.000000, -30.000000)">
            <g id="Group-3" transform="translate(1166.000000, 30.000000)">
                <g id="Group-103">
                    <path d="M28,2.63966181 C38.5432319,2.63684579 48.0497549,8.94157278 52.0857856,18.6133581 C56.1218163,28.2851435 53.8923259,39.4188113 46.4371349,46.8216879 C38.9819439,54.2245645 27.7695971,56.4384102 18.0294635,52.430701 C8.28932992,48.4229918 1.9400489,38.9831778 1.94288482,28.5139296 C1.94675752,14.2255594 13.6106572,2.64350733 28,2.63966181 L28,2.63966181 Z M28,3.96994036 C17.9992557,3.96994036 8.98338102,9.9523433 5.15691744,19.1272608 C1.33045385,28.3021783 3.44705863,38.8625272 10.5196559,45.8835024 C17.5922531,52.9044777 28.2278296,55.0032335 37.4664981,51.2010179 C46.7051665,47.3988022 52.727286,38.4444965 52.7244499,28.5139296 C52.7244499,22.0032523 50.1193355,15.7593371 45.4824002,11.1562462 C40.8454648,6.55315525 34.5566865,3.96809382 28,3.96994036 Z" id="Shape" fill="#936037"></path>
                    <path d="M39.2224449,5.8643695 L39.2224449,5.8643695 C47.896362,10.1078947 53.3878367,18.8774322 53.3837675,28.4791056 L56,28.4791056 C55.7565539,27.0841482 55.3880199,25.7135916 54.8987976,24.3837977 C54.7928295,24.0727581 54.6687048,23.7681121 54.5270541,23.4714076 L54.5270541,23.4714076 C53.8906864,23.2507163 53.4084828,22.7274159 53.243487,22.0784457 C52.1826818,17.9504429 50.1077606,14.147988 47.2044088,11.0113636 C46.9308617,10.7118768 46.6503006,10.4193548 46.3557114,10.1337977 L46.3136273,10.0920088 L46.2364729,10.0153959 C45.9488978,9.73680352 45.6613226,9.47214076 45.3667335,9.20747801 L45.3176353,9.15872434 C44.9886822,8.88006008 44.8075286,8.46633053 44.8266533,8.03739003 C43.3746825,6.51213335 41.7065001,5.20525322 39.8747495,4.1579912 L39.4539078,5.25146628 L39.4539078,5.25146628 L39.2154309,5.87133431 L39.2224449,5.8643695 Z" id="Path" fill="url(#linearGradient-1)"></path>
                    <path d="M2.60921844,28.5139296 L2.60921844,28.5139296 C2.59940315,18.897992 8.09733103,10.1133312 16.7845691,5.8643695 L16.5390782,5.24450147 L16.5390782,5.24450147 L16.1252505,4.15102639 C14.2904582,5.19689782 12.6197666,6.50389247 11.1663327,8.03042522 C11.193799,8.45936326 11.0141123,8.87569001 10.6823647,9.15175953 L10.6332665,9.2005132 C10.3386774,9.45821114 10.0511022,9.72983871 9.76352705,10.0014663 L9.68637275,10.085044 L9.64428858,10.1268328 C9.3496994,10.41239 9.06212425,10.704912 8.79559118,11.0043988 C5.8897036,14.1402817 3.81233887,17.9427983 2.749499,22.0714809 C2.58702631,22.7194582 2.10733322,23.2428944 1.47294589,23.4644428 L1.47294589,23.4644428 C1.36072144,23.7082111 1.23446894,24.0146628 1.1012024,24.3768328 C0.615080015,25.7075959 0.24661994,27.0778776 -2.55168854e-12,28.4721408 L2.60921844,28.5139296 Z" id="Path" fill="url(#linearGradient-2)"></path>
                    <path d="M3.26853608,28.5139296 C3.26853608,18.5833623 9.29321526,9.63075361 18.5329697,5.831141 C27.7727242,2.03152838 38.4077006,4.13328057 45.4782915,11.1562482 C52.5488823,18.1792157 54.6624695,28.7401605 50.8333845,37.9139996 C47.0042995,47.0878387 37.9867158,53.0676999 27.9859719,53.0648837 C21.4292852,53.0648837 15.1412457,50.4780499 10.5056258,45.8736527 C5.87000594,41.2692556 3.26667649,35.0246067 3.26853608,28.5139296 L3.26853608,28.5139296 Z M27.9859719,3.30131965 C13.9630305,3.30131965 2.59519038,14.5893896 2.59519038,28.5139296 C2.59519038,42.4384696 13.9630305,53.7265396 27.9859719,53.7265396 C42.0089134,53.7265396 53.3767535,42.4384696 53.3767535,28.5139296 C53.3767535,14.5893896 42.0089134,3.30131965 27.9859719,3.30131965 L27.9859719,3.30131965 Z" id="Shape" fill="url(#linearGradient-3)"></path>
                    <path d="M16.1252505,4.17888563 L16.7775551,5.89222874 C20.2681548,4.18371 24.1083799,3.29712297 28,3.30131965 L28,0.0278592375 C25.9952019,0.28487954 24.0415698,0.843840432 22.2064128,1.68548387 C22.0467628,2.29830979 21.7015639,2.84772472 21.2174349,3.25953079 C20.9495273,3.47729876 20.6425164,3.64272478 20.3126253,3.74706745 C19.9759519,3.84457478 19.6462926,3.95601173 19.3166333,4.0813783 C18.943647,4.2367713 18.5147534,4.17516545 18.2014028,3.92118768 C17.4951713,3.94506508 16.7917663,4.02189669 16.0971944,4.15102639 L16.1252505,4.17888563 Z" id="Path" fill="url(#linearGradient-4)"></path>
                    <path d="M39.8817635,4.17888563 L39.2224449,5.8643695 C35.7327012,4.15347322 31.8919081,3.26675504 28,3.27346041 L28,0 C29.9991178,0.267932085 31.9455617,0.836260227 33.7725451,1.68548387 C33.9345264,2.29900182 34.282165,2.84840329 34.7685371,3.25953079 C35.0338723,3.47723356 35.3385788,3.64270063 35.6663327,3.74706745 C36.003006,3.84457478 36.3677355,3.95601173 36.6693387,4.0813783 C37.0399522,4.23715269 37.4670474,4.17541687 37.7775551,3.92118768 C38.4837259,3.94589958 39.1870682,4.02272433 39.8817635,4.15102639 L39.8817635,4.17888563 Z" id="Path" fill="url(#linearGradient-5)"></path>
                    <path d="M39.2224449,51.1356305 L39.2224449,51.1356305 C47.8940403,46.8895613 53.384512,38.1216255 53.3837675,28.5208944 L56,28.5208944 C55.7573668,29.9183002 55.3888185,31.2912407 54.8987976,32.6231672 C54.7929659,32.9319883 54.6688347,33.2343245 54.5270541,33.5285924 L54.5270541,33.5285924 C53.892116,33.7514327 53.4107651,34.2738078 53.243487,34.9215543 C52.1826818,39.0495571 50.1077606,42.852012 47.2044088,45.9886364 C46.9308617,46.2881232 46.6503006,46.5806452 46.3557114,46.8662023 L46.3136273,46.9079912 L46.2364729,46.9846041 C45.9488978,47.2562317 45.6613226,47.5278592 45.3667335,47.792522 L45.3176353,47.8412757 C44.9886822,48.1199399 44.8075286,48.5336695 44.8266533,48.96261 C43.3741975,50.4854006 41.7060395,51.7899154 39.8747495,52.835044 L39.4539078,51.7485337 L39.4539078,51.7485337 L39.2154309,51.1217009 L39.2224449,51.1356305 Z" id="Path" fill="url(#linearGradient-6)"></path>
                    <path d="M2.60921844,28.5208944 L2.60921844,28.5208944 C2.60777994,38.1256937 8.10519692,46.8960329 16.7845691,51.1356305 L16.5390782,51.7624633 L16.5390782,51.7624633 L16.1252505,52.8489736 C14.290751,51.8054843 12.6200492,50.5008282 11.1663327,48.9765396 C11.193799,48.5476016 11.0141123,48.1312748 10.6823647,47.8552053 L10.6332665,47.8064516 C10.3386774,47.5417889 10.0511022,47.2771261 9.76352705,46.9985337 L9.68637275,46.9219208 L9.64428858,46.880132 C9.3496994,46.5945748 9.06212425,46.3020528 8.79559118,46.002566 C5.8897036,42.8666831 3.81233887,39.0641665 2.749499,34.9354839 C2.58473466,34.2887266 2.10589463,33.7662212 1.47294589,33.542522 L1.47294589,33.542522 C1.36072144,33.3057185 1.23446894,32.9923021 1.1012024,32.6370968 C0.614345861,31.3041818 0.245873295,29.9315232 -2.55168854e-12,28.534824 L2.61623246,28.534824 L2.60921844,28.5208944 Z" id="Path" fill="url(#linearGradient-7)"></path>
                    <path d="M16.1252505,52.8489736 L16.7775551,51.1356305 C20.2681548,52.8441492 24.1083799,53.7307363 28,53.7265396 L28,57 C25.9930261,56.7372685 24.0388622,56.1687586 22.2064128,55.3145161 C22.0488882,54.7007865 21.7033157,54.1507769 21.2174349,53.7404692 C20.9512197,53.5202116 20.643696,53.3545093 20.3126253,53.2529326 C19.9759519,53.1484604 19.6462926,53.0439883 19.3166333,52.9186217 C18.943647,52.7632287 18.5147534,52.8248346 18.2014028,53.0788123 C17.4947628,53.0557232 16.7911155,52.9765361 16.0971944,52.8420088 L16.1252505,52.8489736 Z" id="Path" fill="url(#linearGradient-8)"></path>
                    <path d="M39.8817635,52.8489736 L39.2224449,51.1356305 C35.7327012,52.8465268 31.8919081,53.733245 28,53.7265396 L28,57 C29.9997836,56.7351745 31.9466954,56.1667097 33.7725451,55.3145161 C33.9328337,54.7002717 34.2807714,54.1503976 34.7685371,53.7404692 C35.0321446,53.5202464 35.3373743,53.3544952 35.6663327,53.2529326 C36.003006,53.1484604 36.3677355,53.0439883 36.6693387,52.9186217 C37.0399522,52.7628473 37.4670474,52.8245831 37.7775551,53.0788123 C38.4841432,53.0550192 39.1877344,52.9758384 39.8817635,52.8420088 L39.8817635,52.8489736 Z" id="Path" fill="url(#linearGradient-9)"></path>
                    <path d="M17.7314629,5.45344575 C20.9655146,4.03224308 24.4633984,3.2991409 28,3.30131965 L28,0.292521994 C27.9509018,0.738269795 27.9368737,1.19794721 27.8527054,1.63673021 C27.7513778,2.12744932 27.3925043,2.52635432 26.9128257,2.68145161 C26.7105996,2.76191055 26.5017365,2.82482887 26.2885772,2.86950147 C22.9639279,3.60777126 20.7124248,4.03958944 17.7314629,5.47434018 L17.7314629,5.45344575 Z" id="Path" fill="url(#linearGradient-10)" style="mix-blend-mode: screen;"></path>
                    <path d="M8.03106212,12.9475806 C10.3767101,9.96699635 13.3655113,7.5465622 16.7775551,5.8643695 L16.5390782,5.24450147 L16.1953908,4.34604106 C16.3041489,4.68115369 16.3258632,5.03812248 16.258517,5.38379765 C16.1677519,5.63464249 15.9948692,5.84800322 15.7675351,5.98973607 C15.5150301,6.1638563 15.255511,6.32404692 14.995992,6.49120235 C11.9519038,8.40652493 9.95290581,10.0432551 8.03106212,12.9197214 L8.03106212,12.9475806 Z" id="Path" fill="url(#linearGradient-11)" style="mix-blend-mode: screen;"></path>
                    <path d="M1.69038076,28.3398094 C1.28356713,28.4164223 0.841683367,28.465176 0.420841683,28.5139296 L2.60921844,28.5139296 L2.60921844,28.5139296 C2.61889019,25.7301465 3.09290872,22.9671829 4.01202405,20.3372434 C3.03707415,22.7958211 2.85470942,24.1121701 2.48296593,27.0791789 C2.41282565,27.6642229 2.48296593,28.0890762 1.97094188,28.2840909 C1.8888342,28.3141274 1.80438238,28.3374217 1.71843687,28.353739 L1.69038076,28.3398094 Z" id="Path" fill="url(#linearGradient-12)" style="mix-blend-mode: screen;"></path>
                    <path d="M54.3096192,28.3398094 C54.7234469,28.4164223 55.1583166,28.465176 55.5791583,28.5139296 L53.3907816,28.5139296 L53.3907816,28.5139296 C53.3925232,25.7320856 52.9303605,22.9691539 52.0230461,20.3372434 C52.997996,22.7958211 53.1803607,24.1121701 53.5450902,27.0791789 C53.6152305,27.6642229 53.5801603,28.0890762 54.0571142,28.2840909 L54.3096192,28.353739 L54.3096192,28.3398094 Z" id="Path" fill="url(#linearGradient-13)" style="mix-blend-mode: screen;"></path>
                </g>
                <ellipse id="Oval" fill-opacity="0.8" fill="#1C0005" cx="28" cy="28.498607" rx="24.5" ry="24.3280792"></ellipse>
                <g id="Group-102" transform="translate(17.500000, 14.500000)">
                    <path d="M6.7522225,22.6980654 C8.98295972,23.9881494 10.2448731,25.9641008 9.56913885,27.1643688 C8.89340458,28.3646368 6.53240532,28.2503256 4.3016681,26.9602416 C2.07093087,25.6701576 0.800876096,23.6942062 1.47661037,22.4857731 C2.15234464,21.27734 4.52148527,21.3998164 6.7522225,22.6980654 L6.7522225,22.6980654 Z" id="Path" fill="url(#radialGradient-14)"></path>
                    <path d="M9.68311812,27.0092321 C9.07251487,28.0788587 6.76036387,27.8828966 4.51334389,26.5846475 C2.26632391,25.2863985 0.947420878,23.3676027 1.55802413,22.3061412 C2.57569623,24.2575973 6.30444678,26.8949209 9.69940088,27.0092321 L9.68311812,27.0092321 Z" id="Path" fill="#5ACCC9" style="mix-blend-mode: multiply;"></path>
                    <path d="M13.4037273,6.6291714 L12.8175482,7.6171471 C12.0034105,8.98888196 12.3616311,8.62145298 11.0590108,9.61759376 C10.3513058,10.1678901 9.50638727,10.5124911 8.61659777,10.6137346 C5.76711591,11.1281351 3.15373398,12.2467522 1.64757928,14.8514154 C1.04042509,15.9244201 0.720673984,17.1368246 0.719462329,18.3705686 C0.809740026,21.3902421 2.45911252,24.1456029 5.0740753,25.6451715 C7.68903809,27.1447401 10.8933526,27.1727598 13.5339893,25.7191481 C14.5831555,25.0927617 15.4548484,24.2072859 16.0659575,23.1471453 C17.5721122,20.5261519 17.2138916,17.7091964 16.2369264,14.9820569 C15.8934809,14.1656673 15.7726601,13.2723706 15.8868472,12.3937238 C15.8707314,11.4852927 16.1572319,10.5974277 16.7009849,9.87071151 L17.2627399,8.86640563 C16.5369589,8.64896368 15.8399249,8.3446652 15.1866888,7.96008081 C14.5274562,7.58608027 13.9175325,7.13073398 13.3711618,6.60467614 L13.4037273,6.6291714 Z" id="Path" fill="#FFFFFF" opacity="0.15"></path>
                    <path d="M8.8526977,13.0959214 C13.1839101,13.0959214 16.7009849,14.7289391 16.7009849,16.7048905 C16.7009849,18.6808419 13.1839101,20.3138596 8.8526977,20.3138596 C4.52148527,20.3138596 0.996269138,18.6808419 0.996269138,16.7048905 C0.996269138,14.7289391 4.51334389,13.0959214 8.8526977,13.0959214 Z" id="Path" fill="url(#radialGradient-15)"></path>
                    <path d="M8.8526977,20.3138596 C4.51334389,20.3138596 0.996269138,18.6808419 0.996269138,16.7048905 C0.998799955,16.5304065 1.02621579,16.3571837 1.07768291,16.1904899 C0.855932117,16.8852954 0.735282704,17.6085502 0.719462329,18.3379082 C0.79872263,21.3634399 2.44372068,24.1290745 5.06061281,25.6364192 C7.67750494,27.1437638 10.888333,27.1751124 13.5339893,25.7191481 C14.5831555,25.0927617 15.4548484,24.2072859 16.0659575,23.1471453 C17.1993083,21.0349011 17.4114582,18.5467001 16.6521366,16.2721408 C16.7010814,16.4226361 16.7284924,16.5793337 16.7335504,16.7375509 C16.7335504,18.7298324 13.2164756,20.34652 8.8852632,20.34652 L8.8526977,20.3138596 Z" id="Path" fill="url(#radialGradient-16)"></path>
                    <path d="M15.3739405,18.2562573 C15.3739405,16.3946172 12.1173898,14.8759107 8.0467014,14.8759107 C4.7901507,14.8759107 2.07907225,15.8312261 1.08582428,17.1539704 C1.56616551,18.9339597 4.87156447,20.3138596 8.87712183,20.3138596 C11.125238,20.401539 13.3538113,19.8646715 15.3169508,18.7624928 C15.3723498,18.5995571 15.3998758,18.4283988 15.3984236,18.2562573 L15.3739405,18.2562573 Z" id="Path" fill="url(#radialGradient-17)" style="mix-blend-mode: screen;"></path>
                    <path d="M13.3467377,18.6400165 C13.3467377,17.0069988 10.5379627,15.7495752 7.06973619,15.7495752 C4.41564737,15.7495752 2.18491014,16.5007633 1.22422769,17.5703899 C2.03836536,19.146252 5.16465403,20.3138596 8.8526977,20.3138596 C10.1817038,20.3210048 11.5060871,20.1563469 12.793124,19.8239543 C13.1300944,19.5209177 13.3298997,19.0936214 13.3467377,18.6400165 L13.3467377,18.6400165 Z" id="Path" fill="url(#radialGradient-18)" style="mix-blend-mode: screen;"></path>
                    <path d="M8.8526977,20.3138596 C5.16465403,20.3138596 2.07907225,19.1870774 1.26493457,17.5540597 C1.19807668,17.4300239 1.14615064,17.2984603 1.11024841,17.1621355 C1.04371859,17.5232827 1.00560803,17.8891175 0.996269138,18.2562573 C1.04839285,20.9201242 2.48441333,23.363108 4.78319944,24.6986511 C7.08198556,26.0341943 9.90945118,26.0682001 12.2395104,24.7883281 C13.157033,24.2358856 13.9213283,23.460941 14.4621063,22.5347637 C15.1168817,21.3904427 15.425237,20.0796622 15.3495163,18.7624928 L15.3495163,18.7624928 C14.5787839,19.2489363 13.7347869,19.6073701 12.8501137,19.8239543 C11.5630767,20.1563469 10.2386935,20.3210048 8.90968733,20.3138596 L8.8526977,20.3138596 Z" id="Path" fill="url(#radialGradient-19)" style="mix-blend-mode: screen;"></path>
                    <path d="M8.89340458,20.2975294 C5.16465403,20.3138596 2.07907225,19.1870774 1.26493457,17.5540597 L1.32192421,17.488739 C1.31731836,17.4535077 1.31731836,17.4178241 1.32192421,17.3825929 C1.32192421,17.4397485 1.32192421,17.488739 1.32192421,17.5377295 C1.28676647,17.7811511 1.26772823,18.0266414 1.26493457,18.2725875 C1.3072556,20.4422968 2.47811154,22.4317406 4.35168967,23.5174053 C6.22526781,24.6030699 8.52858664,24.6267732 10.4239834,23.579895 C11.170558,23.1292501 11.792094,22.4974802 12.231369,21.7427501 C12.5779974,21.1477262 12.8048149,20.4902589 12.8989619,19.8076241 L12.8989619,19.8076241 C11.611925,20.1400167 10.2875417,20.3046746 8.95853559,20.2975294 L8.89340458,20.2975294 Z" id="Shape" fill="url(#radialGradient-20)" style="mix-blend-mode: screen;"></path>
                    <path d="M17.3685778,10.2463056 L18.044312,9.03787249 C17.9047986,9.02391103 17.7661769,9.00210312 17.6291018,8.97255178 C17.4860396,8.94210276 17.3447175,8.90394368 17.2057502,8.85824054 L16.6521366,9.84621624 C15.6215181,11.3811056 15.4317338,13.3335948 16.1473713,15.0392125 C17.1161951,17.7418567 17.4744157,20.534317 15.9764023,23.1308151 C15.3763634,24.1798819 14.5151651,25.0548418 13.4769997,25.6701576 C10.8546764,27.1136036 7.67079783,27.0773415 5.08183559,25.5745425 C2.49287335,24.0717436 0.875488313,21.321046 0.81715885,18.321578 C0.837573946,17.1141612 1.16246862,15.9315834 1.76155855,14.8840758 C3.2514305,12.2875777 5.83224692,11.2179511 8.66544603,10.6872203 C8.99025288,10.6076664 9.33346235,10.6699801 9.60984573,10.8586872 C10.3669938,11.4220783 10.9287488,12.3610635 12.1336725,12.9162895 C11.4416555,12.3855587 10.3914179,11.1607955 10.3832765,10.466763 C10.3727637,10.3223453 10.4336252,10.1819562 10.5461041,10.0911689 C11.5548156,9.52617575 12.3736661,8.6736823 12.8989619,7.64164237 L13.4688583,6.67816193 C13.3630204,6.57201578 13.2571825,6.46586963 13.1676274,6.35972348 C13.0709647,6.25693797 12.9812123,6.14783024 12.8989619,6.03311995 L12.1906622,7.21705777 C11.5076766,8.67974549 10.1185119,9.68372211 8.51890125,9.87071151 C5.40075396,10.4341026 2.65710999,11.675196 1.05325878,14.4594912 C-1.25889222,18.4767147 0.361241752,23.767692 4.6843128,26.2662091 C9.00738385,28.7647261 14.3806925,27.5399629 16.6928435,23.5227394 C18.3211188,20.7302791 17.9954638,17.7255266 16.920802,14.7371042 C16.2926971,13.2621484 16.4616882,11.5673148 17.3685778,10.2463056 L17.3685778,10.2463056 Z" id="Path" fill="url(#radialGradient-21)"></path>
                    <path d="M16.2857747,10.6627251 C16.0027979,11.6658154 15.9334507,12.7173991 16.0822402,13.7491285 C16.236199,14.8926193 16.4536402,16.0266065 16.7335504,17.1458053 C16.2004936,16.019419 15.7699655,14.8470489 15.4472129,13.6429824 C15.4864253,12.5999857 15.7650287,11.5801216 16.2613505,10.6627251 L16.2857747,10.6627251 Z" id="Path" fill="url(#linearGradient-22)" style="mix-blend-mode: screen;"></path>
                    <path d="M15.4960611,7.51100095 L17.3604364,8.57246245 C15.8787058,11.1444653 13.8433616,12.7448226 12.8175482,12.1487712 C11.7917347,11.5527197 12.1499553,8.98071687 13.6316858,6.43320928 L15.4960611,7.51916604 L15.4960611,7.51100095 Z" id="Path" fill="url(#radialGradient-23)" opacity="0.5" style="mix-blend-mode: screen;"></path>
                    <path d="M14.8366096,7.053756 L15.6914542,7.6171471 C14.6737821,9.25016479 13.4688583,10.3361215 12.9966585,10.0666736 C12.5244586,9.79722571 12.9966585,8.1805382 13.9736237,6.53935543 L14.8366096,7.09458144 L14.8366096,7.053756 Z" id="Path" fill="url(#radialGradient-24)" opacity="0.5" style="mix-blend-mode: screen;"></path>
                    <path d="M5.88923656,13.5531664 C5.7019849,13.3735344 5.48216772,13.1530771 5.22978505,13.1694072 C4.31795085,13.1694072 3.22700637,14.3370149 2.78737202,15.0310474 C1.61014176,16.5831599 1.3032208,18.6301287 1.97323435,20.4608312 C2.19305152,20.9589016 3.65035796,21.8488962 3.67478209,21.5222927 C3.67070755,20.6713253 3.86885814,19.8316308 4.25281984,19.0727662 C4.82734151,18.0783384 5.60067876,17.2137923 6.52426395,16.5334237 C7.41167401,15.8475562 7.46866365,15.6189338 7.1348672,15.1290285 C6.75236453,14.5603609 6.33641729,14.0150555 5.88923656,13.4960108 L5.88923656,13.5531664 Z M9.81338015,12.3039079 C10.7414971,13.3408741 10.7007902,13.9369255 10.2774386,14.4268308 C9.46330095,15.3331557 8.20952893,14.9085711 7.39539126,13.8961001 C6.58125358,12.8836291 6.42656743,12.3447333 6.85806039,11.8874883 C7.50122916,11.209786 8.8852632,11.2751067 9.81338015,12.3039079 Z" id="Shape" fill="url(#radialGradient-25)" style="mix-blend-mode: screen;"></path>
                    <path d="M9.2353424,12.3855587 C8.7916698,11.8034993 7.976389,11.6612984 7.36282575,12.0589552 C7.1023017,12.320238 7.21628097,12.6468416 7.75361184,13.2755534 C8.2909427,13.9042652 9.10508038,14.1900433 9.5854216,13.6674776 C9.83780428,13.3898646 9.84594566,13.0306007 9.2353424,12.3855587 Z M5.09952302,13.7817889 C4.99368512,13.7164682 4.87156447,13.7164682 4.67617143,13.7817889 C4.08647001,14.1454395 3.57454154,14.6227808 3.17001673,15.1861841 C2.16797422,16.4187064 1.7678191,18.0359684 2.07907225,19.5953318 C2.11977913,19.7423034 2.22561703,20.0280815 2.38030318,20.0852371 C2.53498934,20.1423927 2.51870659,20.0852371 2.55941347,19.8647797 C2.68565768,19.346061 2.89165918,18.8502174 3.17001673,18.3950638 C3.83196834,17.3345548 4.68507687,16.4069699 5.68570214,15.6597592 C6.01949859,15.4066415 6.0846296,15.2515048 6.0520641,15.1126983 C5.78127679,14.6372316 5.46205579,14.1912096 5.09952302,13.7817889 L5.09952302,13.7817889 Z" id="Shape" fill="url(#radialGradient-26)"></path>
                    <path d="M14.6574993,7.053756 L15.0971337,7.35586427 C14.413258,8.531637 13.65611,9.34814585 13.4118687,9.17667899 C13.1676274,9.00521213 13.5258479,7.92742046 14.2260063,6.72715246 L14.6656407,7.02926073 L14.6574993,7.053756 Z" id="Path" fill="url(#radialGradient-27)" opacity="0.5" style="mix-blend-mode: screen;"></path>
                    <path d="M17.3604364,10.2626358 C17.1080537,10.6953854 15.90313,10.1074991 14.6737821,8.94805651 C13.4444342,7.78861396 12.6384379,6.49852999 12.8826792,6.07394539 L12.8826792,6.07394539 C14.226627,7.6174069 16.0461905,8.66634388 18.0524534,9.05420266 L17.352295,10.2708008 L17.3604364,10.2626358 Z" id="Path" fill="#7F8E99" opacity="0.5" style="mix-blend-mode: multiply;"></path>
                    <path d="M19.3143668,9.13585355 C18.8014601,9.69924465 16.9696503,9.31548549 15.0808509,8.22952873 C13.1920515,7.14357197 11.9464209,5.73101167 12.1825208,5.0043188 C12.4766531,4.28119863 12.8986418,3.61732769 13.4281514,3.04469758 L16.9045193,5.05330933 L16.9045193,5.05330933 L20.3808872,7.07008618 C20.1444194,7.81579791 19.7808129,8.51474005 19.3062254,9.13585355 L19.3143668,9.13585355 Z M19.3143668,6.95577494 L16.725409,5.45339867 L14.1201684,3.9510224 C13.9859273,4.12027835 13.8660992,4.300544 13.7619479,4.48991823 C12.7849827,6.2045868 18.0361707,9.2419997 19.0212772,7.5436613 C19.1366798,7.35709254 19.2347868,7.16030709 19.3143668,6.95577494 L19.3143668,6.95577494 Z" id="Shape" fill="url(#radialGradient-28)"></path>
                    <path d="M19.0782669,7.59265184 C19.2067688,7.37570961 19.3183664,7.14913461 19.4120633,6.9149495 L16.7335504,5.35541761 L14.0468961,3.81221589 C13.8894484,4.00849032 13.7504522,4.21895858 13.6316858,4.4409277 C12.5814482,6.26990751 18.0198879,9.42163164 19.0782669,7.59265184 L19.0782669,7.59265184 Z" id="Path" fill="#FFFFFF" opacity="0.15"></path>
                    <path d="M18.3618257,7.63347728 C18.0850189,7.96008081 16.9696503,7.70696307 15.8054334,7.02926073 C14.6412166,6.35155839 13.9247754,5.57587499 14.0061892,5.15945548 C14.139238,4.76102454 14.302544,4.37340823 14.4946718,4.00001293 L19.0864083,6.65366667 C18.8625436,6.99304331 18.6206678,7.32011782 18.3618257,7.63347728 L18.3618257,7.63347728 Z" id="Path" fill="#8E633F"></path>
                    <path d="M8.96667697,27.0990481 C6.41028467,27.3195055 2.81179615,25.4660304 1.84297232,23.0165039 C3.61192139,25.238205 6.16007275,26.6985323 8.96667697,27.0990481 L8.96667697,27.0990481 Z" id="Path" fill="url(#linearGradient-29)" style="mix-blend-mode: screen;"></path>
                    <path d="M11.6451899,26.4621712 C14.3432985,25.3881143 16.3306782,23.0367272 16.9452262,20.1913833 C16.8475297,23.5309044 14.7959027,26.0294215 11.6451899,26.4621712 L11.6451899,26.4621712 Z" id="Path" fill="#FFFFFF"></path>
                    <path d="M12.7605585,5.76367203 C12.6384379,5.13496022 13.5746962,3.86120642 13.9573409,3.3141455 L13.4281514,3.01203723 C12.8986418,3.58466734 12.4766531,4.24853827 12.1825208,4.97165845 C11.9627036,5.64936079 12.9966585,6.89861932 14.6737821,7.94375064 C13.9003513,7.38852462 12.9071033,6.52302525 12.7605585,5.73101167 L12.7605585,5.76367203 Z" id="Path" fill="url(#radialGradient-30)" style="mix-blend-mode: screen;"></path>
                    <path d="M17.5476881,3.93469222 C19.469053,5.04514425 20.7391077,6.44953946 20.3808872,7.07008618 C20.0226666,7.6906329 18.1827154,7.29870865 16.2613505,6.18009154 C14.3399856,5.06147442 13.0699308,3.6652443 13.4281514,3.04469758 C13.786372,2.42415086 15.6263231,2.82424019 17.5476881,3.93469222 L17.5476881,3.93469222 Z" id="Path" fill="url(#radialGradient-31)"></path>
                    <path d="M19.4609116,7.35586427 C18.2665756,7.27930068 17.1117432,6.8969836 16.1066644,6.24541224 C15.6793729,6.00073529 15.2686931,5.72796981 14.8773165,5.4289034 C14.7838026,5.55527014 14.6398851,5.6343286 14.483358,5.64531741 C14.3268309,5.65630622 14.1733347,5.59812735 14.0631788,5.48605902 C13.7777891,5.22192283 13.6925719,4.80445723 13.851503,4.44909279 C13.4037273,3.91019695 13.224617,3.42845674 13.4037273,3.11818338 C13.4021785,3.09916317 13.4021785,3.08004797 13.4037273,3.06102776 C13.1757687,3.67340939 14.4865304,5.03697916 16.4078953,6.14743118 C17.3442014,6.7183405 18.3671994,7.1320411 19.4364875,7.37219445 L19.4609116,7.35586427 Z" id="Path" fill="#FFFFFF"></path>
                    <path d="M19.2818013,6.32706313 C18.9805704,6.67816193 17.783788,6.40054892 16.5462987,5.68202114 C15.3088095,4.96349336 14.5272373,4.12248925 14.6086511,3.67340939 C15.0793475,2.43761868 15.6427145,1.23936552 16.293916,0.0889355714 L20.9507835,4.07349872 C20.3971699,4.84918212 19.8842632,5.62486552 19.2818013,6.32706313 L19.2818013,6.32706313 Z" id="Path" fill="#8E633F"></path>
                    <path d="M19.3062254,5.86981818 C19.03756,6.18009154 17.9384741,5.91880871 16.79054,5.24927146 C15.6426059,4.57973421 14.9261647,3.82038098 14.9912958,3.42029165 C15.4040432,2.32534144 15.8993875,1.26352758 16.4730263,0.244072252 L20.722825,3.8775366 C20.2180596,4.57156912 19.8435563,5.24110637 19.3062254,5.86981818 L19.3062254,5.86981818 Z" id="Path" fill="url(#radialGradient-32)" style="mix-blend-mode: screen;"></path>
                    <path d="M18.5083705,2.22818874 C17.5639708,3.86120642 16.660278,4.67771527 15.9356955,4.11432417 C15.2111129,3.55093306 15.6426059,2.00773135 16.5870056,0.366548578 L18.5083705,2.22818874 L18.5083705,2.22818874 Z" id="Path" fill="url(#radialGradient-33)" style="mix-blend-mode: screen;"></path>
                    <path d="M16.5788642,3.5264378 C16.8910401,3.5522121 17.1296834,3.81655586 17.1243365,4.13065434 C17.1407689,4.45087477 16.9687999,4.75110011 16.6847021,4.89817265 C16.4323194,4.97982354 16.1392299,4.54707385 16.0822402,4.14698452 C16.0252506,3.74689519 16.2613505,3.46111709 16.5788642,3.5264378 L16.5788642,3.5264378 Z" id="Path" fill="url(#linearGradient-34)"></path>
                    <path d="M19.5748909,4.56340403 C19.7002245,4.89743581 19.5947173,5.27440023 19.3143668,5.49422411 C19.0255226,5.64873342 18.6687323,5.58459417 18.4513809,5.33908743 C18.2885533,5.14312531 18.4513809,4.77569633 18.7363291,4.56340403 C19.0212772,4.35111173 19.4202047,4.32661646 19.5504667,4.56340403 L19.5748909,4.56340403 Z" id="Path" fill="url(#linearGradient-35)"></path>
                    <path d="M18.9968531,1.41984498 C17.6698087,0.391043843 16.4893091,-0.278493408 16.2450678,0.154256279 C16.1148058,0.382878755 16.2450678,0.856453883 16.595147,1.4116799 C16.3570114,1.70997736 16.3570114,2.13401849 16.595147,2.43231595 C16.8266377,2.73467556 17.2487282,2.8122842 17.5721122,2.6119479 C17.718657,2.75891949 17.8814845,2.89772599 18.0524534,3.04469758 C19.4120633,4.1633147 20.6414112,4.57156912 20.9426422,4.07349872 C21.2438731,3.57542833 20.3238975,2.45681122 18.9968531,1.41984498 Z" id="Path" fill="#EDCAA6" opacity="0.25" style="mix-blend-mode: screen;"></path>
                    <path d="M19.0457014,1.33002901 C20.3483217,2.41598577 21.2031662,3.64074904 20.9507835,4.07349872 C20.6984009,4.50624841 19.4446288,3.98368275 18.1420086,2.90589108 C16.8393883,1.82809941 15.9926851,0.595171054 16.2450678,0.154256279 C16.4974505,-0.286658496 17.7512225,0.25223734 19.0457014,1.33002901 L19.0457014,1.33002901 Z" id="Path" fill="#936E4E"></path>
                    <path d="M18.6304912,1.10140654 C19.6970115,1.99140117 20.3971699,3.00387214 20.1936355,3.36313603 C19.9901011,3.72239992 18.9561462,3.28965023 17.8814845,2.3996556 C16.8068228,1.50966096 16.1148058,0.497189993 16.3183402,0.137926102 C16.5218746,-0.221337789 17.5558294,0.211411898 18.6304912,1.10140654 L18.6304912,1.10140654 Z" id="Path" fill="url(#radialGradient-36)" style="mix-blend-mode: screen;"></path>
                    <path d="M17.9384741,0.758472822 C18.345543,1.06058109 18.6142084,1.4116799 18.5327946,1.57498166 C18.4513809,1.73828343 18.0687362,1.57498166 17.6698087,1.2647083 C17.2708812,0.954434945 16.9940744,0.611501231 17.0673468,0.448199462 C17.1406192,0.284897694 17.5314053,0.448199462 17.9384741,0.758472822 L17.9384741,0.758472822 Z" id="Path" fill="url(#linearGradient-37)"></path>
                    <path d="M18.8177428,2.33433489 C19.102691,2.54662719 19.2899427,2.81607511 19.2166703,2.93038634 C19.1433979,3.04469758 18.8665911,2.93038634 18.5735015,2.7507544 C18.280412,2.57112245 18.1013017,2.26084909 18.1664327,2.14653785 C18.2315637,2.03222662 18.5246533,2.14653785 18.8177428,2.33433489 L18.8177428,2.33433489 Z" id="Path" fill="url(#linearGradient-38)"></path>
                    <path d="M20.2669079,2.85690055 C20.5844216,3.11818338 20.787956,3.43662183 20.7146836,3.56726324 C20.6414112,3.69790466 20.3157562,3.56726324 19.9901011,3.33864077 C19.664446,3.11001829 19.469053,2.7507544 19.5423254,2.62011298 C19.6155978,2.48947157 19.9412528,2.62011298 20.2669079,2.85690055 L20.2669079,2.85690055 Z" id="Path" fill="url(#linearGradient-39)"></path>
                    <path d="M17.482557,2.4649763 C17.2124321,2.62024151 16.868057,2.52935255 16.7091263,2.26084909 C16.4874146,2.04108581 16.4663576,1.68911408 16.660278,1.44434025 C16.855671,1.29736866 17.2383157,1.44434025 17.4744157,1.74644852 C17.7105156,2.04855679 17.6779501,2.3261698 17.4744157,2.47314139 L17.482557,2.4649763 Z" id="Path" fill="url(#linearGradient-40)"></path>
                    <path d="M15.9194127,21.6366039 C15.1779345,23.5578653 13.6663662,25.078742 11.7530899,25.8285834 C9.83981368,26.5784247 7.70055546,26.488361 5.85667105,25.5803416 C9.58297381,25.5652625 13.1702103,24.1593713 15.9194127,21.6366039 L15.9194127,21.6366039 Z" id="Path" fill="url(#radialGradient-41)" style="mix-blend-mode: screen;"></path>
                </g>
            </g>
        </g>
    </g>
</svg>