<?xml version="1.0" encoding="UTF-8"?>
<svg width="56px" height="57px" viewBox="0 0 56 57" version="1.1" xmlns="http://www.w3.org/2000/svg" xmlns:xlink="http://www.w3.org/1999/xlink">
    <title>0CC37BE8-BF5C-40DB-B72A-9EE36850BE1D</title>
    <defs>
        <linearGradient x1="70.051913%" y1="96.1912944%" x2="33.2121205%" y2="4.3814433%" id="linearGradient-1">
            <stop stop-color="#FFD24F" offset="0%"></stop>
            <stop stop-color="#BA7014" offset="100%"></stop>
        </linearGradient>
        <linearGradient x1="29.6796315%" y1="96.9125214%" x2="67.1865293%" y2="3.25900515%" id="linearGradient-2">
            <stop stop-color="#FFD24F" offset="0%"></stop>
            <stop stop-color="#FCB33A" offset="50%"></stop>
            <stop stop-color="#FFD24F" offset="100%"></stop>
        </linearGradient>
        <linearGradient x1="50.0276243%" y1="100%" x2="50.0276243%" y2="0%" id="linearGradient-3">
            <stop stop-color="#F7BC34" offset="0%"></stop>
            <stop stop-color="#6E4500" offset="100%"></stop>
        </linearGradient>
        <linearGradient x1="0.235710077%" y1="50%" x2="100%" y2="50%" id="linearGradient-4">
            <stop stop-color="#BA7014" offset="0%"></stop>
            <stop stop-color="#FFD24F" offset="72%"></stop>
            <stop stop-color="#FFE48A" offset="100%"></stop>
        </linearGradient>
        <linearGradient x1="0%" y1="50.4750594%" x2="100%" y2="50.4750594%" id="linearGradient-5">
            <stop stop-color="#BA7014" offset="0%"></stop>
            <stop stop-color="#FFD24F" offset="72%"></stop>
            <stop stop-color="#FFE48A" offset="100%"></stop>
        </linearGradient>
        <linearGradient x1="70.4417693%" y1="3.00773417%" x2="32.6648221%" y2="97.1354913%" id="linearGradient-6">
            <stop stop-color="#945200" offset="0%"></stop>
            <stop stop-color="#B57405" offset="100%"></stop>
        </linearGradient>
        <linearGradient x1="29.9197841%" y1="3.83624392%" x2="67.3948973%" y2="97.2802748%" id="linearGradient-7">
            <stop stop-color="#945200" offset="0%"></stop>
            <stop stop-color="#C77E00" offset="100%"></stop>
        </linearGradient>
        <linearGradient x1="0.235710077%" y1="50%" x2="100%" y2="50%" id="linearGradient-8">
            <stop stop-color="#945200" offset="0%"></stop>
            <stop stop-color="#E39919" offset="70%"></stop>
            <stop stop-color="#EBAB21" offset="100%"></stop>
        </linearGradient>
        <linearGradient x1="0%" y1="50%" x2="100%" y2="50%" id="linearGradient-9">
            <stop stop-color="#945200" offset="0%"></stop>
            <stop stop-color="#E39919" offset="70%"></stop>
            <stop stop-color="#EBAB21" offset="100%"></stop>
        </linearGradient>
        <linearGradient x1="0%" y1="49.5967742%" x2="100%" y2="49.5967742%" id="linearGradient-10">
            <stop stop-color="#473626" offset="0%"></stop>
            <stop stop-color="#E8E7B3" offset="100%"></stop>
        </linearGradient>
        <linearGradient x1="1.36752411e-12%" y1="50.2024291%" x2="100%" y2="50.2024291%" id="linearGradient-11">
            <stop stop-color="#473626" offset="0%"></stop>
            <stop stop-color="#E8E7B3" offset="100%"></stop>
        </linearGradient>
        <linearGradient x1="49.609375%" y1="100%" x2="49.609375%" y2="-0.170357751%" id="linearGradient-12">
            <stop stop-color="#E8E7B3" offset="0%"></stop>
            <stop stop-color="#473626" offset="100%"></stop>
        </linearGradient>
        <linearGradient x1="49.9013807%" y1="100%" x2="49.9013807%" y2="-0.170357751%" id="linearGradient-13">
            <stop stop-color="#E8E7B3" offset="0%"></stop>
            <stop stop-color="#473626" offset="100%"></stop>
        </linearGradient>
        <radialGradient cx="9.40325497%" cy="74.9518973%" fx="9.40325497%" fy="74.9518973%" r="109.364746%" gradientTransform="translate(0.094033,0.749519),scale(0.862563,1.000000),translate(-0.094033,-0.749519)" id="radialGradient-14">
            <stop stop-color="#C28A1F" offset="0%"></stop>
            <stop stop-color="#753E0A" offset="100%"></stop>
        </radialGradient>
        <linearGradient x1="41.7861503%" y1="80.4400978%" x2="58.5569871%" y2="18.4352078%" id="linearGradient-15">
            <stop stop-color="#E3A634" offset="0%"></stop>
            <stop stop-color="#D6902D" offset="100%"></stop>
        </linearGradient>
        <radialGradient cx="125.535824%" cy="102.21328%" fx="125.535824%" fy="102.21328%" r="162.522964%" gradientTransform="translate(1.255358,1.022133),scale(1.000000,0.811262),translate(-1.255358,-1.022133)" id="radialGradient-16">
            <stop stop-color="#C28A1F" offset="0%"></stop>
            <stop stop-color="#87550C" offset="100%"></stop>
        </radialGradient>
        <radialGradient cx="2.08205756%" cy="12.1730382%" fx="2.08205756%" fy="12.1730382%" r="121.249235%" gradientTransform="translate(0.020821,0.121730),scale(1.000000,0.811262),translate(-0.020821,-0.121730)" id="radialGradient-17">
            <stop stop-color="#FFFFFF" offset="64%"></stop>
            <stop stop-color="#E6C3E6" offset="79%"></stop>
            <stop stop-color="#BC61BE" offset="100%"></stop>
        </radialGradient>
        <radialGradient cx="64.6445498%" cy="-22.0574606%" fx="64.6445498%" fy="-22.0574606%" r="128.530806%" gradientTransform="translate(0.646445,-0.220575),scale(1.000000,0.965656),translate(-0.646445,0.220575)" id="radialGradient-18">
            <stop stop-color="#8A3434" offset="0%"></stop>
            <stop stop-color="#4A2121" offset="100%"></stop>
        </radialGradient>
        <radialGradient cx="-14.6458583%" cy="-0.198412698%" fx="-14.6458583%" fy="-0.198412698%" r="176.35054%" gradientTransform="translate(-0.146459,-0.001984),scale(1.000000,0.816161),translate(0.146459,0.001984)" id="radialGradient-19">
            <stop stop-color="#781616" offset="0%"></stop>
            <stop stop-color="#330A0A" offset="100%"></stop>
        </radialGradient>
        <radialGradient cx="-416.5%" cy="124.410541%" fx="-416.5%" fy="124.410541%" r="1062%" gradientTransform="translate(-4.165000,1.244105),scale(1.000000,0.136980),translate(4.165000,-1.244105)" id="radialGradient-20">
            <stop stop-color="#C28A1F" offset="0%"></stop>
            <stop stop-color="#87550C" offset="100%"></stop>
        </radialGradient>
        <linearGradient x1="0%" y1="49.8789346%" x2="100%" y2="49.8789346%" id="linearGradient-21">
            <stop stop-color="#E8AB23" offset="0%"></stop>
            <stop stop-color="#FFC75C" offset="51%"></stop>
            <stop stop-color="#823C00" offset="100%"></stop>
        </linearGradient>
        <linearGradient x1="0%" y1="50.1474926%" x2="100%" y2="50.1474926%" id="linearGradient-22">
            <stop stop-color="#824F23" offset="0%"></stop>
            <stop stop-color="#E0A531" offset="100%"></stop>
        </linearGradient>
        <linearGradient x1="51%" y1="100%" x2="51%" y2="0%" id="linearGradient-23">
            <stop stop-color="#E3A634" offset="0%"></stop>
            <stop stop-color="#945906" offset="100%"></stop>
        </linearGradient>
        <linearGradient x1="43.5812411%" y1="67.3311035%" x2="55.5187115%" y2="29.620011%" id="linearGradient-24">
            <stop stop-color="#4A2121" offset="0%"></stop>
            <stop stop-color="#8A3434" offset="51%"></stop>
            <stop stop-color="#4A2121" offset="100%"></stop>
        </linearGradient>
        <radialGradient cx="68.5847589%" cy="-159.143328%" fx="68.5847589%" fy="-159.143328%" r="303.446114%" gradientTransform="translate(0.685848,-1.591433),scale(0.477921,1.000000),translate(-0.685848,1.591433)" id="radialGradient-25">
            <stop stop-color="#B17575" offset="0%"></stop>
            <stop stop-color="#000505" offset="100%"></stop>
        </radialGradient>
        <radialGradient cx="102.697731%" cy="117.479864%" fx="102.697731%" fy="117.479864%" r="140.779162%" gradientTransform="translate(1.026977,1.174799),scale(0.941158,1.000000),translate(-1.026977,-1.174799)" id="radialGradient-26">
            <stop stop-color="#C28A1F" offset="0%"></stop>
            <stop stop-color="#87550C" offset="100%"></stop>
        </radialGradient>
        <linearGradient x1="45.6698241%" y1="60.1580592%" x2="54.6008119%" y2="31.6277987%" id="linearGradient-27">
            <stop stop-color="#E8AB23" offset="0%"></stop>
            <stop stop-color="#FFC75C" offset="51%"></stop>
            <stop stop-color="#823C00" offset="100%"></stop>
        </linearGradient>
        <radialGradient cx="18.3125599%" cy="-4.08914781%" fx="18.3125599%" fy="-4.08914781%" r="146.157238%" gradientTransform="translate(0.183126,-0.040891),scale(0.703218,1.000000),translate(-0.183126,0.040891)" id="radialGradient-28">
            <stop stop-color="#781616" offset="0%"></stop>
            <stop stop-color="#330A0A" offset="100%"></stop>
        </radialGradient>
        <linearGradient x1="49.7326203%" y1="100%" x2="49.7326203%" y2="0%" id="linearGradient-29">
            <stop stop-color="#E3A634" offset="0%"></stop>
            <stop stop-color="#945906" offset="100%"></stop>
        </linearGradient>
        <linearGradient x1="-1.01596817e-12%" y1="50%" x2="100.357462%" y2="50%" id="linearGradient-30">
            <stop stop-color="#824F23" offset="0%"></stop>
            <stop stop-color="#E0A531" offset="100%"></stop>
        </linearGradient>
        <radialGradient cx="27.8600269%" cy="477.561297%" fx="27.8600269%" fy="477.561297%" r="544.884204%" gradientTransform="translate(0.278600,4.775613),scale(0.226669,1.000000),translate(-0.278600,-4.775613)" id="radialGradient-31">
            <stop stop-color="#FFFFFF" offset="64%"></stop>
            <stop stop-color="#C3C7E6" offset="79%"></stop>
            <stop stop-color="#616DBE" offset="100%"></stop>
        </radialGradient>
        <radialGradient cx="55.1675319%" cy="-37.5294118%" fx="55.1675319%" fy="-37.5294118%" r="308.370928%" gradientTransform="translate(0.551675,-0.375294),scale(0.406159,1.000000),translate(-0.551675,0.375294)" id="radialGradient-32">
            <stop stop-color="#B18654" offset="0%"></stop>
            <stop stop-color="#000505" offset="100%"></stop>
        </radialGradient>
        <radialGradient cx="89.4480519%" cy="-281.481481%" fx="89.4480519%" fy="-281.481481%" r="409.680878%" gradientTransform="translate(0.894481,-2.814815),scale(0.399424,1.000000),translate(-0.894481,2.814815)" id="radialGradient-33">
            <stop stop-color="#000505" offset="0%"></stop>
            <stop stop-color="#B18654" offset="100%"></stop>
        </radialGradient>
        <radialGradient cx="53.4028204%" cy="-118.061674%" fx="53.4028204%" fy="-118.061674%" r="318.911039%" gradientTransform="translate(0.534028,-1.180617),scale(0.422768,1.000000),translate(-0.534028,1.180617)" id="radialGradient-34">
            <stop stop-color="#000505" offset="0%"></stop>
            <stop stop-color="#B18654" offset="100%"></stop>
        </radialGradient>
        <radialGradient cx="55.76882%" cy="-44.3000051%" fx="55.76882%" fy="-44.3000051%" r="148.571172%" gradientTransform="translate(0.557688,-0.443000),scale(0.861330,1.000000),translate(-0.557688,0.443000)" id="radialGradient-35">
            <stop stop-color="#B17575" offset="0%"></stop>
            <stop stop-color="#000505" offset="100%"></stop>
        </radialGradient>
        <radialGradient cx="77.7839335%" cy="-144.318182%" fx="77.7839335%" fy="-144.318182%" r="275.412293%" gradientTransform="translate(0.777839,-1.443182),scale(0.493644,1.000000),translate(-0.777839,1.443182)" id="radialGradient-36">
            <stop stop-color="#FFFFFF" offset="64%"></stop>
            <stop stop-color="#E6C3E6" offset="79%"></stop>
            <stop stop-color="#BC61BE" offset="100%"></stop>
        </radialGradient>
        <radialGradient cx="69.016843%" cy="103.541677%" fx="69.016843%" fy="103.541677%" r="185.831531%" gradientTransform="translate(0.690168,1.035417),scale(1.000000,0.920484),translate(-0.690168,-1.035417)" id="radialGradient-37">
            <stop stop-color="#000505" offset="0%"></stop>
            <stop stop-color="#B17575" offset="100%"></stop>
        </radialGradient>
        <radialGradient cx="109.295048%" cy="103.483066%" fx="109.295048%" fy="103.483066%" r="233.576357%" gradientTransform="translate(1.092950,1.034831),scale(0.915959,1.000000),translate(-1.092950,-1.034831)" id="radialGradient-38">
            <stop stop-color="#000505" offset="0%"></stop>
            <stop stop-color="#B17575" offset="100%"></stop>
        </radialGradient>
        <linearGradient x1="1.43296402%" y1="50.2612699%" x2="101.740445%" y2="50.2612699%" id="linearGradient-39">
            <stop stop-color="#E3A634" offset="0%"></stop>
            <stop stop-color="#D6902D" offset="100%"></stop>
        </linearGradient>
        <radialGradient cx="18.688502%" cy="45.6834532%" fx="18.688502%" fy="45.6834532%" r="91.987665%" gradientTransform="translate(0.186885,0.456835),scale(1.000000,0.729926),translate(-0.186885,-0.456835)" id="radialGradient-40">
            <stop stop-color="#DB950D" offset="0%"></stop>
            <stop stop-color="#875000" offset="100%"></stop>
        </radialGradient>
        <radialGradient cx="66.7342799%" cy="53.8961039%" fx="66.7342799%" fy="53.8961039%" r="116.077832%" gradientTransform="translate(0.667343,0.538961),scale(0.632575,1.000000),translate(-0.667343,-0.538961)" id="radialGradient-41">
            <stop stop-color="#616DBE" offset="0%"></stop>
            <stop stop-color="#C3C7E6" offset="60%"></stop>
            <stop stop-color="#FFFFFF" offset="100%"></stop>
        </radialGradient>
        <radialGradient cx="-81.640125%" cy="54.2168675%" fx="-81.640125%" fy="54.2168675%" r="206.27932%" gradientTransform="translate(-0.816401,0.542169),scale(1.000000,0.409559),translate(0.816401,-0.542169)" id="radialGradient-42">
            <stop stop-color="#FFFFFF" offset="64%"></stop>
            <stop stop-color="#E6C3E6" offset="79%"></stop>
            <stop stop-color="#BC61BE" offset="100%"></stop>
        </radialGradient>
        <linearGradient x1="41.9288207%" y1="1.06666667%" x2="67.5621084%" y2="89.8666667%" id="linearGradient-43">
            <stop stop-color="#A16702" offset="0%"></stop>
            <stop stop-color="#E6A529" offset="51%"></stop>
            <stop stop-color="#823C00" offset="100%"></stop>
        </linearGradient>
        <radialGradient cx="13.9784946%" cy="119.879518%" fx="13.9784946%" fy="119.879518%" r="218.943051%" gradientTransform="translate(0.139785,1.198795),scale(0.903657,1.000000),translate(-0.139785,-1.198795)" id="radialGradient-44">
            <stop stop-color="#B18654" offset="0%"></stop>
            <stop stop-color="#000505" offset="100%"></stop>
        </radialGradient>
        <radialGradient cx="9.42408377%" cy="-160%" fx="9.42408377%" fy="-160%" r="275.593999%" gradientTransform="translate(0.094241,-1.600000),scale(0.556627,1.000000),translate(-0.094241,1.600000)" id="radialGradient-45">
            <stop stop-color="#FFFFFF" offset="64%"></stop>
            <stop stop-color="#C3C7E6" offset="79%"></stop>
            <stop stop-color="#616DBE" offset="100%"></stop>
        </radialGradient>
        <linearGradient x1="-2.71939247e-12%" y1="50%" x2="100.464122%" y2="50%" id="linearGradient-46">
            <stop stop-color="#E3A634" offset="0%"></stop>
            <stop stop-color="#D6902D" offset="100%"></stop>
        </linearGradient>
        <radialGradient cx="5.89830974%" cy="12.5941134%" fx="5.89830974%" fy="12.5941134%" r="381.553653%" gradientTransform="translate(0.058983,0.125941),scale(1.000000,0.314692),translate(-0.058983,-0.125941)" id="radialGradient-47">
            <stop stop-color="#B18654" offset="0%"></stop>
            <stop stop-color="#000505" offset="100%"></stop>
        </radialGradient>
        <radialGradient cx="145.615124%" cy="89.0247623%" fx="145.615124%" fy="89.0247623%" r="222.538647%" gradientTransform="translate(1.456151,0.890248),scale(1.000000,0.591440),translate(-1.456151,-0.890248)" id="radialGradient-48">
            <stop stop-color="#B18654" offset="0%"></stop>
            <stop stop-color="#000505" offset="100%"></stop>
        </radialGradient>
    </defs>
    <g id="Ready-Flow--(-Janis-)" stroke="none" stroke-width="1" fill="none" fill-rule="evenodd">
        <g id="21" transform="translate(-1237.000000, -30.000000)">
            <g id="Group-3" transform="translate(1237.000000, 30.000000)">
                <g id="Group-103">
                    <path d="M28,2.63966181 C38.5432319,2.63684579 48.0497549,8.94157278 52.0857856,18.6133581 C56.1218163,28.2851435 53.8923259,39.4188113 46.4371349,46.8216879 C38.9819439,54.2245645 27.7695971,56.4384102 18.0294635,52.430701 C8.28932992,48.4229918 1.9400489,38.9831778 1.94288482,28.5139296 C1.94675752,14.2255594 13.6106572,2.64350733 28,2.63966181 L28,2.63966181 Z M28,3.96994036 C17.9992557,3.96994036 8.98338102,9.9523433 5.15691744,19.1272608 C1.33045385,28.3021783 3.44705863,38.8625272 10.5196559,45.8835024 C17.5922531,52.9044777 28.2278296,55.0032335 37.4664981,51.2010179 C46.7051665,47.3988022 52.727286,38.4444965 52.7244499,28.5139296 C52.7244499,22.0032523 50.1193355,15.7593371 45.4824002,11.1562462 C40.8454648,6.55315525 34.5566865,3.96809382 28,3.96994036 Z" id="Shape" fill="#936037"></path>
                    <path d="M39.2224449,5.8643695 L39.2224449,5.8643695 C47.896362,10.1078947 53.3878367,18.8774322 53.3837675,28.4791056 L56,28.4791056 C55.7565539,27.0841482 55.3880199,25.7135916 54.8987976,24.3837977 C54.7928295,24.0727581 54.6687048,23.7681121 54.5270541,23.4714076 L54.5270541,23.4714076 C53.8906864,23.2507163 53.4084828,22.7274159 53.243487,22.0784457 C52.1826818,17.9504429 50.1077606,14.147988 47.2044088,11.0113636 C46.9308617,10.7118768 46.6503006,10.4193548 46.3557114,10.1337977 L46.3136273,10.0920088 L46.2364729,10.0153959 C45.9488978,9.73680352 45.6613226,9.47214076 45.3667335,9.20747801 L45.3176353,9.15872434 C44.9886822,8.88006008 44.8075286,8.46633053 44.8266533,8.03739003 C43.3746825,6.51213335 41.7065001,5.20525322 39.8747495,4.1579912 L39.4539078,5.25146628 L39.4539078,5.25146628 L39.2154309,5.87133431 L39.2224449,5.8643695 Z" id="Path" fill="url(#linearGradient-1)"></path>
                    <path d="M2.60921844,28.5139296 L2.60921844,28.5139296 C2.59940315,18.897992 8.09733103,10.1133312 16.7845691,5.8643695 L16.5390782,5.24450147 L16.5390782,5.24450147 L16.1252505,4.15102639 C14.2904582,5.19689782 12.6197666,6.50389247 11.1663327,8.03042522 C11.193799,8.45936326 11.0141123,8.87569001 10.6823647,9.15175953 L10.6332665,9.2005132 C10.3386774,9.45821114 10.0511022,9.72983871 9.76352705,10.0014663 L9.68637275,10.085044 L9.64428858,10.1268328 C9.3496994,10.41239 9.06212425,10.704912 8.79559118,11.0043988 C5.8897036,14.1402817 3.81233887,17.9427983 2.749499,22.0714809 C2.58702631,22.7194582 2.10733322,23.2428944 1.47294589,23.4644428 L1.47294589,23.4644428 C1.36072144,23.7082111 1.23446894,24.0146628 1.1012024,24.3768328 C0.615080015,25.7075959 0.24661994,27.0778776 0,28.4721408 L2.60921844,28.5139296 Z" id="Path" fill="url(#linearGradient-2)"></path>
                    <path d="M3.26853608,28.5139296 C3.26853608,18.5833623 9.29321526,9.63075361 18.5329697,5.831141 C27.7727242,2.03152838 38.4077006,4.13328057 45.4782915,11.1562482 C52.5488823,18.1792157 54.6624695,28.7401605 50.8333845,37.9139996 C47.0042995,47.0878387 37.9867158,53.0676999 27.9859719,53.0648837 C21.4292852,53.0648837 15.1412457,50.4780499 10.5056258,45.8736527 C5.87000594,41.2692556 3.26667649,35.0246067 3.26853608,28.5139296 L3.26853608,28.5139296 Z M27.9859719,3.30131965 C13.9630305,3.30131965 2.59519038,14.5893896 2.59519038,28.5139296 C2.59519038,42.4384696 13.9630305,53.7265396 27.9859719,53.7265396 C42.0089134,53.7265396 53.3767535,42.4384696 53.3767535,28.5139296 C53.3767535,14.5893896 42.0089134,3.30131965 27.9859719,3.30131965 L27.9859719,3.30131965 Z" id="Shape" fill="url(#linearGradient-3)"></path>
                    <path d="M16.1252505,4.17888563 L16.7775551,5.89222874 C20.2681548,4.18371 24.1083799,3.29712297 28,3.30131965 L28,0.0278592375 C25.9952019,0.28487954 24.0415698,0.843840432 22.2064128,1.68548387 C22.0467628,2.29830979 21.7015639,2.84772472 21.2174349,3.25953079 C20.9495273,3.47729876 20.6425164,3.64272478 20.3126253,3.74706745 C19.9759519,3.84457478 19.6462926,3.95601173 19.3166333,4.0813783 C18.943647,4.2367713 18.5147534,4.17516545 18.2014028,3.92118768 C17.4951713,3.94506508 16.7917663,4.02189669 16.0971944,4.15102639 L16.1252505,4.17888563 Z" id="Path" fill="url(#linearGradient-4)"></path>
                    <path d="M39.8817635,4.17888563 L39.2224449,5.8643695 C35.7327012,4.15347322 31.8919081,3.26675504 28,3.27346041 L28,0 C29.9991178,0.267932085 31.9455617,0.836260227 33.7725451,1.68548387 C33.9345264,2.29900182 34.282165,2.84840329 34.7685371,3.25953079 C35.0338723,3.47723356 35.3385788,3.64270063 35.6663327,3.74706745 C36.003006,3.84457478 36.3677355,3.95601173 36.6693387,4.0813783 C37.0399522,4.23715269 37.4670474,4.17541687 37.7775551,3.92118768 C38.4837259,3.94589958 39.1870682,4.02272433 39.8817635,4.15102639 L39.8817635,4.17888563 Z" id="Path" fill="url(#linearGradient-5)"></path>
                    <path d="M39.2224449,51.1356305 L39.2224449,51.1356305 C47.8940403,46.8895613 53.384512,38.1216255 53.3837675,28.5208944 L56,28.5208944 C55.7573668,29.9183002 55.3888185,31.2912407 54.8987976,32.6231672 C54.7929659,32.9319883 54.6688347,33.2343245 54.5270541,33.5285924 L54.5270541,33.5285924 C53.892116,33.7514327 53.4107651,34.2738078 53.243487,34.9215543 C52.1826818,39.0495571 50.1077606,42.852012 47.2044088,45.9886364 C46.9308617,46.2881232 46.6503006,46.5806452 46.3557114,46.8662023 L46.3136273,46.9079912 L46.2364729,46.9846041 C45.9488978,47.2562317 45.6613226,47.5278592 45.3667335,47.792522 L45.3176353,47.8412757 C44.9886822,48.1199399 44.8075286,48.5336695 44.8266533,48.96261 C43.3741975,50.4854006 41.7060395,51.7899154 39.8747495,52.835044 L39.4539078,51.7485337 L39.4539078,51.7485337 L39.2154309,51.1217009 L39.2224449,51.1356305 Z" id="Path" fill="url(#linearGradient-6)"></path>
                    <path d="M2.60921844,28.5208944 L2.60921844,28.5208944 C2.60777994,38.1256937 8.10519692,46.8960329 16.7845691,51.1356305 L16.5390782,51.7624633 L16.5390782,51.7624633 L16.1252505,52.8489736 C14.290751,51.8054843 12.6200492,50.5008282 11.1663327,48.9765396 C11.193799,48.5476016 11.0141123,48.1312748 10.6823647,47.8552053 L10.6332665,47.8064516 C10.3386774,47.5417889 10.0511022,47.2771261 9.76352705,46.9985337 L9.68637275,46.9219208 L9.64428858,46.880132 C9.3496994,46.5945748 9.06212425,46.3020528 8.79559118,46.002566 C5.8897036,42.8666831 3.81233887,39.0641665 2.749499,34.9354839 C2.58473466,34.2887266 2.10589463,33.7662212 1.47294589,33.542522 L1.47294589,33.542522 C1.36072144,33.3057185 1.23446894,32.9923021 1.1012024,32.6370968 C0.614345861,31.3041818 0.245873295,29.9315232 0,28.534824 L2.61623246,28.534824 L2.60921844,28.5208944 Z" id="Path" fill="url(#linearGradient-7)"></path>
                    <path d="M16.1252505,52.8489736 L16.7775551,51.1356305 C20.2681548,52.8441492 24.1083799,53.7307363 28,53.7265396 L28,57 C25.9930261,56.7372685 24.0388622,56.1687586 22.2064128,55.3145161 C22.0488882,54.7007865 21.7033157,54.1507769 21.2174349,53.7404692 C20.9512197,53.5202116 20.643696,53.3545093 20.3126253,53.2529326 C19.9759519,53.1484604 19.6462926,53.0439883 19.3166333,52.9186217 C18.943647,52.7632287 18.5147534,52.8248346 18.2014028,53.0788123 C17.4947628,53.0557232 16.7911155,52.9765361 16.0971944,52.8420088 L16.1252505,52.8489736 Z" id="Path" fill="url(#linearGradient-8)"></path>
                    <path d="M39.8817635,52.8489736 L39.2224449,51.1356305 C35.7327012,52.8465268 31.8919081,53.733245 28,53.7265396 L28,57 C29.9997836,56.7351745 31.9466954,56.1667097 33.7725451,55.3145161 C33.9328337,54.7002717 34.2807714,54.1503976 34.7685371,53.7404692 C35.0321446,53.5202464 35.3373743,53.3544952 35.6663327,53.2529326 C36.003006,53.1484604 36.3677355,53.0439883 36.6693387,52.9186217 C37.0399522,52.7628473 37.4670474,52.8245831 37.7775551,53.0788123 C38.4841432,53.0550192 39.1877344,52.9758384 39.8817635,52.8420088 L39.8817635,52.8489736 Z" id="Path" fill="url(#linearGradient-9)"></path>
                    <path d="M17.7314629,5.45344575 C20.9655146,4.03224308 24.4633984,3.2991409 28,3.30131965 L28,0.292521994 C27.9509018,0.738269795 27.9368737,1.19794721 27.8527054,1.63673021 C27.7513778,2.12744932 27.3925043,2.52635432 26.9128257,2.68145161 C26.7105996,2.76191055 26.5017365,2.82482887 26.2885772,2.86950147 C22.9639279,3.60777126 20.7124248,4.03958944 17.7314629,5.47434018 L17.7314629,5.45344575 Z" id="Path" fill="url(#linearGradient-10)" style="mix-blend-mode: screen;"></path>
                    <path d="M8.03106212,12.9475806 C10.3767101,9.96699635 13.3655113,7.5465622 16.7775551,5.8643695 L16.5390782,5.24450147 L16.1953908,4.34604106 C16.3041489,4.68115369 16.3258632,5.03812248 16.258517,5.38379765 C16.1677519,5.63464249 15.9948692,5.84800322 15.7675351,5.98973607 C15.5150301,6.1638563 15.255511,6.32404692 14.995992,6.49120235 C11.9519038,8.40652493 9.95290581,10.0432551 8.03106212,12.9197214 L8.03106212,12.9475806 Z" id="Path" fill="url(#linearGradient-11)" style="mix-blend-mode: screen;"></path>
                    <path d="M1.69038076,28.3398094 C1.28356713,28.4164223 0.841683367,28.465176 0.420841683,28.5139296 L2.60921844,28.5139296 L2.60921844,28.5139296 C2.61889019,25.7301465 3.09290872,22.9671829 4.01202405,20.3372434 C3.03707415,22.7958211 2.85470942,24.1121701 2.48296593,27.0791789 C2.41282565,27.6642229 2.48296593,28.0890762 1.97094188,28.2840909 C1.8888342,28.3141274 1.80438238,28.3374217 1.71843687,28.353739 L1.69038076,28.3398094 Z" id="Path" fill="url(#linearGradient-12)" style="mix-blend-mode: screen;"></path>
                    <path d="M54.3096192,28.3398094 C54.7234469,28.4164223 55.1583166,28.465176 55.5791583,28.5139296 L53.3907816,28.5139296 L53.3907816,28.5139296 C53.3925232,25.7320856 52.9303605,22.9691539 52.0230461,20.3372434 C52.997996,22.7958211 53.1803607,24.1121701 53.5450902,27.0791789 C53.6152305,27.6642229 53.5801603,28.0890762 54.0571142,28.2840909 L54.3096192,28.353739 L54.3096192,28.3398094 Z" id="Path" fill="url(#linearGradient-13)" style="mix-blend-mode: screen;"></path>
                </g>
                <ellipse id="Oval" fill-opacity="0.8" fill="#1C0005" cx="28" cy="28.498607" rx="24.5" ry="24.3280792"></ellipse>
                <g id="Group-99" transform="translate(14.000000, 14.500000)">
                    <path d="M2.90877698,12.1887735 L16.276259,9.74121524 C16.276259,7.65263218 16.0828777,5.531415 14.9225899,3.56520985 C13.4802878,1.11765157 11.1355396,0.17126237 8.79079137,1.11765157 C6.06733813,2.18641869 4.08517986,5.36008592 3.38417266,8.20741205 C3.1056064,9.55004575 2.9465041,10.915267 2.90877698,12.2866758 L2.90877698,12.1887735 Z" id="Path" fill="url(#radialGradient-14)"></path>
                    <path d="M0.0402877698,11.2750184 C0.501923155,14.9134526 0.601800015,18.5896092 0.338417266,22.248238 L14.8420144,27.9592074 L27.7341007,22.835652 C27.4319308,19.1380943 27.5210705,15.4184215 28,11.7400545 L0.0402877698,11.2750184 L0.0402877698,11.2750184 Z" id="Path" fill="#BC7800"></path>
                    <path d="M14.8420144,27.9592074 L14.8420144,15.9988059 L0.0241726619,11.2750184 C0.338328151,14.9235322 0.443252492,18.5874228 0.338417266,22.248238 L14.8420144,27.9592074 L14.8420144,27.9592074 Z" id="Path" fill="url(#linearGradient-15)"></path>
                    <path d="M14.8420144,15.9988059 L14.8420144,27.9592074 L27.7341007,22.835652 C27.6253343,19.1349698 27.7140967,15.4310402 28,11.7400545 L14.8420144,15.9988059 Z" id="Path" fill="url(#radialGradient-16)"></path>
                    <path d="M26.428777,12.2458832 C27.0169784,12.2458832 27.4520863,12.5232732 27.621295,13.6083573 C27.7502129,16.0115931 27.6449562,18.4218434 27.3070504,20.8041787 C27.1834543,21.7999625 26.6359021,22.6911977 25.8083453,23.2435784 C24.5173936,23.941853 23.1884597,24.5656173 21.8279137,25.1118812 C20.5064748,25.6748196 19.1769784,26.2132825 17.7991367,26.6783185 C16.7516547,27.0372937 15.2610072,27.6083907 14.8258993,26.7762209 L14.8258993,28 L27.7179856,22.8764447 C27.6092192,19.1757625 27.6979816,15.4718328 27.9838849,11.7808471 L26.4126619,12.2866758 L26.428777,12.2458832 Z" id="Path" fill="url(#radialGradient-17)" opacity="0.5" style="mix-blend-mode: multiply;"></path>
                    <polygon id="Path" fill="#B3B3B3" points="2.8523741 14.8321365 11.6270504 17.7855234 11.6753957 23.9696874 2.99741007 20.7144349 2.8523741 14.8321365"></polygon>
                    <polygon id="Path" fill="#B3B3B3" points="18.0569784 17.7692064 25.0831655 15.3787578 24.9864748 21.3181659 18.0166906 23.9615288 18.0569784 17.7692064"></polygon>
                    <polygon id="Path" fill="url(#radialGradient-18)" points="3.31165468 20.6002155 11.6753957 23.7412486 11.6270504 17.7855234 3.17467626 14.9381973 3.31165468 20.6002155"></polygon>
                    <polygon id="Path" fill="url(#radialGradient-19)" points="18.0569784 17.7692064 18.0247482 23.716773 24.6319424 21.195788 24.7366906 15.4929772 18.0569784 17.7692064"></polygon>
                    <polygon id="Path" fill="url(#radialGradient-20)" points="2.8523741 14.8321365 2.99741007 20.7144349 3.31165468 20.6002155 3.17467626 14.9381973 2.8523741 14.8321365"></polygon>
                    <polygon id="Path" fill="url(#linearGradient-21)" points="11.6753957 23.7412486 3.31165468 20.6002155 2.99741007 20.7144349 11.6753957 23.9696874 11.6753957 23.7412486"></polygon>
                    <polygon id="Path" fill="url(#linearGradient-22)" points="24.6319424 21.195788 18.0247482 23.716773 18.0166906 23.9615288 24.9864748 21.3181659 24.6319424 21.195788"></polygon>
                    <polygon id="Path" fill="url(#linearGradient-23)" points="24.7366906 15.4929772 24.6319424 21.195788 24.9864748 21.3181659 25.0831655 15.3787578 24.7366906 15.4929772"></polygon>
                    <path d="M16.6388489,12.4172123 L20.7401439,3.38572224 L11.7559712,1.25634654 L11.7156835,1.25634654 C10.821641,1.05747273 9.88909367,1.13710689 9.04057554,1.48478531 C6.39769784,2.52091832 4.46388489,5.61300028 3.79510791,8.38689966 C3.79510791,8.46848493 3.75482014,8.55007021 3.73064748,8.63165549 L11.2483453,10.8426165 L16.6388489,12.4253708 L16.6388489,12.4172123 Z" id="Path" fill="url(#linearGradient-24)"></path>
                    <path d="M16.4051799,3.58968543 C18.298705,4.08735562 20.2164029,4.64213549 22.0454676,5.17243979 C20.2405755,4.78898899 18.2423022,4.26684322 16.348777,3.76101451 C14.4552518,3.2551858 12.4328058,2.74935709 10.7084892,2.18641869 C12.5214388,2.59434507 14.4955396,3.09201525 16.348777,3.58968543 L16.4051799,3.58968543 Z" id="Path" fill="#3B1919" fill-rule="nonzero"></path>
                    <path d="M10.8132374,2.17826016 C13.2305036,2.72488151 15.6477698,3.3449296 18.065036,3.99761181 C17.9791632,3.89735338 17.8630573,3.82853724 17.7346763,3.80180715 C15.4060432,3.17360052 13.0935252,2.61066212 10.8132374,2.17010163 L10.8132374,2.17826016 Z" id="Path" fill="#AC3E6E" opacity="0.5" style="mix-blend-mode: screen;"></path>
                    <path d="M15.156259,5.2948177 C12.2689143,4.82435291 9.42735865,4.1009671 6.66359712,3.13280789 C5.91223419,3.90719981 5.28187338,4.79306097 4.7942446,5.75985377 C7.70510657,6.18366053 10.5542377,6.96445637 13.2788489,8.08503414 C13.7760999,7.07265123 14.4077559,6.13388087 15.156259,5.2948177 L15.156259,5.2948177 Z" id="Path" fill="url(#radialGradient-25)" opacity="0.35" style="mix-blend-mode: screen;"></path>
                    <path d="M12.1830216,6.02092666 C14.3505036,6.59202359 16.5582734,7.22838874 18.6693525,7.84027831 C16.5985612,7.39971782 14.3021583,6.79598678 12.1266187,6.20857279 C9.95107914,5.6211588 7.62244604,5.03374482 5.68057554,4.38922114 C7.76748201,4.86241574 10.0316547,5.43351267 12.1910791,6.02092666 L12.1830216,6.02092666 Z" id="Path" fill="#3B1919" fill-rule="nonzero"></path>
                    <path d="M5.72892086,4.39737966 C8.52489209,5.03374482 11.2886331,5.74353672 14.0604317,6.49412126 C13.9660693,6.37360452 13.8313226,6.29232393 13.6817266,6.26568248 C10.9985612,5.54773206 8.3476259,4.89504985 5.72892086,4.39737966 L5.72892086,4.39737966 Z" id="Path" fill="#AC3E6E" opacity="0.5" style="mix-blend-mode: screen;"></path>
                    <path d="M14.8420144,15.9988059 L27.9838849,11.7400545 C27.9355396,9.68410555 27.7905036,7.6607907 26.6543885,5.8577561 C26.0737491,4.82408343 25.1050728,4.07197786 23.9685081,3.7723684 C22.8319433,3.47275893 21.6240276,3.65109376 20.6192806,4.26684322 C17.9441727,5.68642702 16.0023022,9.0803745 15.3174101,11.9766518 C15.0470644,13.3013732 14.8880307,14.6469014 14.8420144,15.9988059 L14.8420144,15.9988059 Z" id="Path" fill="url(#radialGradient-26)"></path>
                    <path d="M12.1588489,11.1036893 L3.29553957,8.50111905 L3.36805755,8.15030236 C4.06906475,5.30297623 6.05122302,2.12115047 8.77467626,1.06054188 C9.60696951,0.718407667 10.5193282,0.627728701 11.4014388,0.799468995 L8.69410072,0.154945314 L8.33956835,0.0733600384 C7.48542708,-0.0823805521 6.60515751,0.0109938086 5.80143885,0.342591449 C3.12633094,1.38688298 1.18446043,4.51159905 0.499568345,7.30997402 C0.223411673,8.6144481 0.0642987895,9.94153135 0.0241726619,11.2750184 L14.8420144,15.9988059 C14.8880307,14.6469014 15.0470644,13.3013732 15.3174101,11.9766518 C16.0023022,9.0803745 17.9441727,5.68642702 20.6192806,4.26684322 C21.5964814,3.70552705 22.740915,3.52012303 23.8423022,3.74469746 L20.7240288,3.00227145 L20.4178417,2.9288447 C19.3707523,2.75702023 18.2970617,2.94971535 17.3720863,3.47546605 C14.7453237,4.86241574 12.8356835,8.19925352 12.1669065,11.0384211 L12.1669065,11.1036893 L12.1588489,11.1036893 Z" id="Path" fill="url(#linearGradient-27)"></path>
                    <path d="M17.178705,12.2866758 L25.5585612,9.72489818 C24.9864748,7.84843684 24.1323741,6.82046236 23.141295,6.41253598 C20.7240288,6.01276813 17.8716547,9.03142334 17.1545324,12.2866758 L17.178705,12.2866758 Z" id="Path" fill="url(#radialGradient-28)"></path>
                    <path d="M23.1654676,6.41253598 C24.1323741,6.82046236 24.9864748,7.84843684 25.5827338,9.72489818 L26.1789928,9.89622726 C25.4860432,7.64447365 24.3902158,6.63281623 23.1896403,6.41253598 L23.1654676,6.41253598 Z" id="Path" fill="url(#linearGradient-29)"></path>
                    <path d="M25.5585612,9.72489818 L17.178705,12.2866758 C17.1460348,12.4099352 17.1218046,12.5353305 17.1061871,12.6619681 L26.1225899,9.89622726 L25.5263309,9.72489818 L25.5585612,9.72489818 Z" id="Path" fill="url(#linearGradient-30)"></path>
                    <path d="M20.4258993,2.9288447 C19.5534379,2.77829909 18.6564997,2.89182137 17.847482,3.2551858 C18.9584226,3.34828334 20.0469935,3.62383642 21.0705036,4.07103856 C21.9326564,3.68138843 22.8946247,3.57855899 23.8181295,3.77733157 L20.3936691,2.96147881 L20.4258993,2.9288447 Z M8.79079137,1.06054188 C9.52900109,0.760945397 10.3298177,0.654328163 11.1194245,0.750517829 C11.2199953,0.758217651 11.3197338,0.77459413 11.417554,0.799468995 L8.39597122,0.0733600384 C7.54182996,-0.0823805521 6.66156038,0.0109938086 5.85784173,0.342591449 L5.85784173,0.342591449 C6.86701627,0.483302484 7.8601515,0.723767446 8.82302158,1.06054188 L8.79079137,1.06054188 Z" id="Shape" fill="url(#radialGradient-31)" opacity="0.65" style="mix-blend-mode: multiply;"></path>
                    <path d="M4.2705036,5.71090261 C4.76760648,4.669765 5.41982826,3.71219207 6.20431655,2.871735 C5.71280576,2.9288447 3.50503597,2.53723537 3.27942446,2.12115047 C2.51002109,2.95167395 1.86892866,3.89510753 1.37784173,4.91952543 C2.38636167,4.99218501 3.37011946,5.26964624 4.2705036,5.73537819 L4.2705036,5.71090261 Z M15.228777,5.18059831 C14.4184,6.07823426 13.7399687,7.0893999 13.2143885,8.18293647 C14.3239144,8.2289482 15.4089711,8.52731367 16.3890647,9.05589892 C16.9311084,7.94540902 17.6255656,6.9181365 18.4517986,6.0046096 C17.3385223,5.92611845 16.2475594,5.64995984 15.228777,5.18875684 L15.228777,5.18059831 Z" id="Shape" fill="url(#radialGradient-32)" style="mix-blend-mode: screen;"></path>
                    <path d="M0.120863309,10.0512393 C0.120863309,10.4591657 0.0644604317,10.867092 0.0402877698,11.2750184 L14.8420144,15.9988059 C14.8420144,15.5582454 14.8984173,15.1095264 14.9306475,14.6608074 C14.4552518,15.9988059 0.580143885,11.6666278 0.104748201,10.0512393 L0.120863309,10.0512393 Z" id="Path" fill="url(#radialGradient-33)" opacity="0.25" style="mix-blend-mode: screen;"></path>
                    <path d="M14.9467626,14.6608074 C14.9467626,15.1095264 14.8903597,15.5582454 14.8581295,15.9988059 L28,11.7400545 C28,11.304933 27.9838849,10.8725311 27.9516547,10.4428486 C27.2103597,12.5559073 15.301295,15.9906474 14.9467626,14.6608074 Z" id="Path" fill="url(#radialGradient-34)" opacity="0.3" style="mix-blend-mode: screen;"></path>
                    <path d="M3.19884892,15.8437939 C4.00460432,15.2155873 10.8454676,17.6631455 11.6351079,18.69112 L11.6351079,17.7855234 L3.18273381,14.9381973 L3.18273381,15.8437939 L3.19884892,15.8437939 Z" id="Path" fill="#990000" opacity="0.5" style="mix-blend-mode: multiply;"></path>
                    <path d="M22.1743885,14.8239779 C23.52,14.8239779 24.4063309,16.3496226 24.1565468,18.2260839 C23.9067626,20.1025453 22.617554,21.6118729 21.2880576,21.6118729 C19.9585612,21.6118729 19.0561151,20.0943868 19.3058993,18.2097669 C19.5556835,16.325147 20.8529496,14.8076609 22.1985612,14.8076609 L22.1743885,14.8239779 Z M22.1743885,16.2435617 C21.854179,16.3026294 21.5670371,16.4799809 21.3686331,16.7412319 C20.979014,17.2216378 20.7330112,17.8047246 20.6595683,18.4218886 C20.5951079,18.8624491 20.6595683,19.9638503 21.134964,20.1922891 C21.1748913,20.2000061 21.2159,20.2000061 21.2558273,20.1922891 C21.5784117,20.1342068 21.8667593,19.953191 22.0615827,19.6864604 C22.4475407,19.2069382 22.6931694,18.6275644 22.7706475,18.0139622 C22.8270504,17.5652432 22.7706475,16.4720005 22.2952518,16.2435617 C22.2531284,16.2313209 22.2084543,16.2313209 22.1663309,16.2435617 L22.1743885,16.2435617 Z" id="Shape" fill="#7B6A58" opacity="0.5" style="mix-blend-mode: multiply;"></path>
                    <path d="M18.065036,18.4953154 C18.6532374,17.5652432 24.3982734,15.6071966 24.7366906,16.2272447 L24.7366906,15.4929772 L18.065036,17.7692064 L18.065036,18.4953154 Z" id="Path" fill="#990000" opacity="0.5" style="mix-blend-mode: multiply;"></path>
                    <path d="M13.2305036,1.60716323 L11.7156835,1.2155539 L11.7156835,1.2155539 C10.9134339,1.03280028 10.076918,1.07797355 9.29841727,1.34609034 C12.095708,1.83475666 14.8596131,2.50237357 17.5735252,3.3449296 C17.6610358,3.29590292 17.7527241,3.25494527 17.847482,3.22255169 C18.1735246,3.0795876 18.5139379,2.97290119 18.8627338,2.90436911 L13.222446,1.57452912 L13.2305036,1.60716323 Z" id="Path" fill="#990000" opacity="0.5" style="mix-blend-mode: multiply;"></path>
                    <path d="M10.4345324,14.5873806 L14.8420144,15.9988059 L19.6120863,14.4568442 L15.0031655,15.6643063 C14.9587869,12.9248633 15.6613758,10.2260849 17.0336691,7.86475389 C15.5106037,10.1840385 14.7080076,12.9118277 14.7292086,15.6969404 L10.4184173,14.5873806 L10.4345324,14.5873806 Z" id="Path" fill="#F4CC67"></path>
                    <path d="M4.23021583,16.1048668 C4.04077226,16.0982766 3.85660982,16.1687643 3.71884259,16.3005935 C3.58107536,16.4324227 3.50117472,16.6146164 3.49697842,16.8065001 C3.41237583,17.8354142 3.41237583,18.869668 3.49697842,19.8985821 C3.52688262,20.0895911 3.64309478,20.2555338 3.81122302,20.3473011 C6.00716703,21.43338 8.29367723,22.3206774 10.6440288,22.9988226 C10.8857554,23.0722493 11.3611511,23.0967249 11.4497842,22.7459082 C11.5625899,22.0361163 11.6189928,19.9638503 11.2805755,19.3274852 C10.4264748,17.7528893 5.93035971,16.0640741 4.24633094,16.0640741 L4.23021583,16.1048668 Z" id="Path" fill="url(#radialGradient-35)" opacity="0.3" style="mix-blend-mode: screen;"></path>
                    <path d="M18.065036,11.5768839 C18.3551079,8.57454579 21.5781295,5.6782685 24.3821583,7.34260813 C24.0552308,6.94265082 23.6416446,6.6243863 23.1735252,6.41253598 C20.9254676,6.04540224 18.3389928,8.59902138 17.3801439,11.5605669 C17.2997244,11.7979538 17.235119,12.0405344 17.1867626,12.2866758 L18.0408633,12.0174444 C18.0328491,11.870703 18.0328491,11.7236253 18.0408633,11.5768839 L18.065036,11.5768839 Z" id="Path" fill="#990000" opacity="0.5" style="mix-blend-mode: multiply;"></path>
                    <path d="M14.8420144,26.7354282 C14.108777,27.2249399 13.0451799,26.9149158 11.5706475,26.4254042 C8.71827338,25.4871735 5.72086331,24.304187 2.98129496,23.0885664 C1.36978417,22.370616 0.644604317,22.0034822 0.378705036,20.9510322 C0.360652348,20.9007082 0.347167308,20.8488229 0.338417266,20.7960201 C0.338417266,21.2855318 0.338417266,21.7750434 0.298129496,22.2645551 L14.8017266,27.9755244 L14.8017266,26.7517453 L14.8420144,26.7354282 Z" id="Path" fill="url(#radialGradient-36)" opacity="0.5" style="mix-blend-mode: multiply;"></path>
                    <path d="M0.0402877698,11.2750184 L14.8420144,15.9988059 L27.7341007,11.8134812 C27.2184173,12.0990297 24.5513669,12.9964678 21.5539568,13.9836496 C19.2253237,14.7505512 16.5179856,15.5256113 14.8178417,16.2109276 C12.7067626,15.3950749 8.8552518,14.2855151 5.84172662,13.3146503 C3.86072641,12.7382654 1.91082565,12.0574598 0,11.2750184 L0.0402877698,11.2750184 Z" id="Path" fill="#A48A7B" style="mix-blend-mode: multiply;"></path>
                    <path d="M18.8707914,18.0058037 C18.1778417,18.4218886 18.065036,20.7960201 18.1536691,22.0116407 C18.1536691,22.8274935 18.588777,22.9498714 19.0722302,22.7540668 C19.9907914,22.386933 24.4385612,17.9650111 23.7858993,16.9533536 C23.1332374,15.9416962 19.7571223,17.4918165 18.8707914,18.0058037 L18.8707914,18.0058037 Z" id="Path" fill="url(#radialGradient-37)" opacity="0.3" style="mix-blend-mode: screen;"></path>
                    <path d="M19.563741,8.55822874 C19.0027362,9.20630528 18.5973542,9.9769688 18.3792806,10.8099824 C18.298705,11.1118479 18.2020144,11.7645301 18.7176978,11.6258351 C19.5309028,11.4390785 20.322275,11.1656009 21.0785612,10.8099824 C21.9683818,9.75660408 22.7286637,8.5977808 23.3427338,7.35892518 C23.3427338,7.26918138 23.2541007,7.17943757 23.1654676,7.15496199 C21.8601439,6.7144015 20.4178417,7.61183954 19.563741,8.56638727 L19.563741,8.55822874 Z" id="Path" fill="url(#radialGradient-38)" opacity="0.3" style="mix-blend-mode: screen;"></path>
                    <path d="M21.6264748,14.7423927 C22.6256115,15.0605752 22.6820144,16.6922808 21.5539568,16.2843544 L21.1510791,16.1375009 L21.1510791,16.5617443 L21.425036,16.6678052 C21.6696918,16.8073248 21.9564746,16.8508813 22.2307914,16.7901831 C23.0365468,16.5046346 22.996259,14.7423927 21.7634532,14.3426248 L21.0866187,14.1223446 L21.0866187,14.5792221 L21.5942446,14.7342341 L21.6264748,14.7423927 Z" id="Path" fill="url(#linearGradient-39)"></path>
                    <path d="M22.7867626,14.5221124 C24.1323741,14.5221124 25.0267626,16.0477571 24.7769784,17.9242184 C24.5271942,19.8006798 23.2299281,21.3263244 21.8843165,21.3263244 C20.538705,21.3263244 19.6443165,19.8088383 19.8941007,17.9242184 C20.1438849,16.0395985 21.4411511,14.5221124 22.7867626,14.5221124 Z M22.7867626,15.9416962 C22.4665531,16.0007639 22.1794112,16.1781154 21.9810072,16.4393664 C21.5962509,16.922746 21.3508691,17.5043607 21.2719424,18.1200231 C21.2155396,18.5605836 21.2719424,19.6619848 21.7473381,19.8904236 C21.7898947,19.8989961 21.8337024,19.8989961 21.876259,19.8904236 C22.1985463,19.8315569 22.4866291,19.6507073 22.6820144,19.3845949 C23.0611934,18.9165213 23.3064303,18.3521802 23.3910791,17.7528893 C23.447482,17.3041703 23.3910791,16.2109276 22.9156835,15.9824889 C22.8735601,15.970248 22.828886,15.970248 22.7867626,15.9824889 L22.7867626,15.9416962 Z" id="Shape" fill="url(#radialGradient-40)"></path>
                    <path d="M23.3507914,16.7167563 C23.5441727,16.2109276 24.2129496,15.6153551 24.6077698,16.0477571 C24.3850823,15.2026854 23.649439,14.5995448 22.7867626,14.5547465 C21.8966165,14.6241089 21.0948155,15.1258133 20.6353957,15.9009036 C20.827426,15.6047101 21.179728,15.4587804 21.5217266,15.5337698 C21.7852106,15.6151056 21.9521304,15.877246 21.9165468,16.1538179 C21.9165468,16.2925129 21.6667626,16.8065001 21.5781295,17.067573 C21.6902425,16.8374856 21.8281275,16.6212224 21.9890647,16.4230493 C22.1874688,16.1617983 22.4746107,15.9844468 22.7948201,15.9253792 C22.8369435,15.9131383 22.8816176,15.9131383 22.923741,15.9253792 C23.1690972,16.0852089 23.329239,16.349451 23.3588489,16.6433296 L23.3507914,16.7167563 Z" id="Path" fill="url(#radialGradient-41)" style="mix-blend-mode: multiply;"></path>
                    <path d="M22.4,14.6444903 C23.7456115,14.6444903 24.64,16.170135 24.3821583,18.0465963 C24.2643937,19.4334102 23.4563762,20.6637006 22.2388489,21.3100074 C23.447482,21.0734101 24.5433094,19.6783019 24.7769784,17.9405355 C25.0267626,16.0640741 24.1323741,14.5384295 22.7867626,14.5384295 C22.5321674,14.5418091 22.2805559,14.5944235 22.0454676,14.6934415 C22.1633252,14.6809905 22.2821424,14.6809905 22.4,14.6934415 L22.4,14.6444903 Z" id="Path" fill="url(#radialGradient-42)" style="mix-blend-mode: multiply;"></path>
                    <path d="M23.3830216,16.912561 C23.3427338,16.4556835 23.2138129,15.9661718 22.8915108,15.8193183 C22.8493874,15.8070775 22.8047133,15.8070775 22.7625899,15.8193183 C22.4393631,15.8810222 22.151353,16.0647424 21.9568345,16.3333055 C21.5649628,16.8194376 21.3164119,17.4076 21.2397122,18.0302793 C21.1468517,18.5863695 21.2315283,19.1579545 21.4814388,19.6619848 C21.2848114,19.1969244 21.2179247,18.6861665 21.2880576,18.1852913 C21.3669842,17.5696289 21.612366,16.9880142 21.9971223,16.5046346 C22.1955264,16.2433836 22.4826682,16.0660321 22.8028777,16.0069644 C22.8450011,15.9947236 22.8896752,15.9947236 22.9317986,16.0069644 C23.2280265,16.2286536 23.4017171,16.580388 23.3991367,16.9533536 L23.3830216,16.912561 Z" id="Path" fill="#896443" opacity="0.5" style="mix-blend-mode: multiply;"></path>
                    <path d="M21.7876259,14.3507833 C23.0204317,14.7423927 23.0768345,16.5046346 22.254964,16.7983416 L22.7867626,16.618854 C23.1965635,16.5340372 23.5577399,16.2912108 23.7939568,15.9416962 C24.094075,15.1352289 23.6944227,14.2347681 22.8995683,13.9265399 L22.3113669,13.7388938 L21.1107914,14.1305031 L21.7876259,14.3507833 L21.7876259,14.3507833 Z" id="Path" fill="url(#linearGradient-43)"></path>
                    <path d="M22.4080576,14.7505512 C22.6450092,15.0256354 22.7840249,15.373221 22.8028777,15.737733 C23.1254316,15.503552 23.5099909,15.3728118 23.9067626,15.3624408 C23.8846826,15.0054696 23.7553544,14.6638637 23.5361151,14.3834174 C23.1948878,14.5962234 22.8078374,14.7221915 22.4080576,14.7505512 L22.4080576,14.7505512 Z" id="Path" fill="url(#radialGradient-44)" opacity="0.5" style="mix-blend-mode: screen;"></path>
                    <path d="M23.7939568,15.9009036 C23.4799799,16.1269522 23.1073305,16.2546166 22.7223022,16.2680373 C22.6505136,16.4961172 22.4776589,16.6771732 22.254964,16.757549 L22.7867626,16.5780614 C23.1965635,16.4932445 23.5577399,16.2504181 23.7939568,15.9009036 L23.7939568,15.9009036 Z" id="Path" fill="url(#radialGradient-45)" style="mix-blend-mode: multiply;"></path>
                    <path d="M21.6264748,14.7423927 C22.3597122,14.97899 22.5853237,15.9090621 22.2146763,16.2354032 L22.2146763,16.2354032 L22.5369784,16.6106955 C22.7984756,16.2241995 22.8656377,15.7358336 22.7183715,15.2917051 C22.5711052,14.8475765 22.2264898,14.4991933 21.7876259,14.3507833 L21.1107914,14.1305031 L21.1107914,14.5873806 L21.6184173,14.7423927 L21.6264748,14.7423927 Z" id="Path" fill="url(#linearGradient-46)"></path>
                    <path d="M20.8448921,15.9009036 C19.9102158,16.8962439 19.6523741,19.417229 20.5064748,20.4615205 C20.683741,20.6736422 21.3122302,21.0815686 21.1188489,20.4615205 C20.7320863,18.829815 20.8851799,18.0139622 21.5297842,16.2517203 C21.7151079,15.721416 21.0463309,15.6969404 20.8448921,15.9090621 L20.8448921,15.9009036 Z" id="Path" fill="url(#radialGradient-47)" style="mix-blend-mode: screen;"></path>
                    <path d="M22.0938129,20.02096 C22.5611511,19.9720088 23.068777,19.2866925 23.3105036,18.4708398 C23.4750472,17.9230077 23.4750472,17.3380151 23.3105036,16.7901831 C23.3105036,16.7901831 23.3105036,16.8717684 23.3105036,16.912561 C23.3419143,17.183582 23.3419143,17.4573927 23.3105036,17.7284138 C23.255079,18.1550423 23.1211595,18.56737 22.9156835,18.9440344 C22.8277488,19.1075028 22.7223704,19.2607115 22.6014388,19.4009119 C22.5255848,19.4951635 22.4390428,19.5800517 22.3435971,19.6538263 C22.1963318,19.7964273 22.0064172,19.8853994 21.803741,19.9067406 C21.7611844,19.9153132 21.7173768,19.9153132 21.6748201,19.9067406 C21.6315535,19.8843669 21.5909949,19.856989 21.5539568,19.8251553 C21.6687511,19.9748263 21.8510555,20.0548148 22.0374101,20.0372771 L22.0938129,20.02096 Z" id="Path" fill="#896443" opacity="0.5" style="mix-blend-mode: multiply;"></path>
                    <path d="M23.7053237,17.2878533 C23.6474479,17.4273744 23.6173283,17.5770869 23.6166906,17.7284138 C23.5775639,18.6909219 23.120447,19.5867516 22.3677698,20.175972 C22.2307914,20.2983499 22.4402878,20.4370449 22.5853237,20.3880938 C23.4555396,20.1514965 24.0759712,18.9114003 24.1968345,17.9405355 C24.2332278,17.7766918 24.2332278,17.606709 24.1968345,17.4428653 C24.1323741,17.2470606 23.8906475,17.051256 23.7617266,17.3041703 L23.7053237,17.2878533 Z" id="Path" fill="url(#radialGradient-48)" style="mix-blend-mode: screen;"></path>
                </g>
            </g>
        </g>
    </g>
</svg>