<?xml version="1.0" encoding="UTF-8"?>
<svg width="56px" height="57px" viewBox="0 0 56 57" version="1.1" xmlns="http://www.w3.org/2000/svg" xmlns:xlink="http://www.w3.org/1999/xlink">
    <title>0939BF07-A109-4B6A-B0B9-0B992E66BF26</title>
    <defs>
        <linearGradient x1="70.051913%" y1="96.1912944%" x2="33.2121205%" y2="4.3814433%" id="linearGradient-1">
            <stop stop-color="#FFD24F" offset="0%"></stop>
            <stop stop-color="#BA7014" offset="100%"></stop>
        </linearGradient>
        <linearGradient x1="29.6796315%" y1="96.9125214%" x2="67.1865293%" y2="3.25900515%" id="linearGradient-2">
            <stop stop-color="#FFD24F" offset="0%"></stop>
            <stop stop-color="#FCB33A" offset="50%"></stop>
            <stop stop-color="#FFD24F" offset="100%"></stop>
        </linearGradient>
        <linearGradient x1="50.0276243%" y1="100%" x2="50.0276243%" y2="0%" id="linearGradient-3">
            <stop stop-color="#F7BC34" offset="0%"></stop>
            <stop stop-color="#6E4500" offset="100%"></stop>
        </linearGradient>
        <linearGradient x1="0.235710077%" y1="50%" x2="100%" y2="50%" id="linearGradient-4">
            <stop stop-color="#BA7014" offset="0%"></stop>
            <stop stop-color="#FFD24F" offset="72%"></stop>
            <stop stop-color="#FFE48A" offset="100%"></stop>
        </linearGradient>
        <linearGradient x1="0%" y1="50.4750594%" x2="100%" y2="50.4750594%" id="linearGradient-5">
            <stop stop-color="#BA7014" offset="0%"></stop>
            <stop stop-color="#FFD24F" offset="72%"></stop>
            <stop stop-color="#FFE48A" offset="100%"></stop>
        </linearGradient>
        <linearGradient x1="70.4417693%" y1="3.00773417%" x2="32.6648221%" y2="97.1354913%" id="linearGradient-6">
            <stop stop-color="#945200" offset="0%"></stop>
            <stop stop-color="#B57405" offset="100%"></stop>
        </linearGradient>
        <linearGradient x1="29.9197841%" y1="3.83624392%" x2="67.3948973%" y2="97.2802748%" id="linearGradient-7">
            <stop stop-color="#945200" offset="0%"></stop>
            <stop stop-color="#C77E00" offset="100%"></stop>
        </linearGradient>
        <linearGradient x1="0.235710077%" y1="50%" x2="100%" y2="50%" id="linearGradient-8">
            <stop stop-color="#945200" offset="0%"></stop>
            <stop stop-color="#E39919" offset="70%"></stop>
            <stop stop-color="#EBAB21" offset="100%"></stop>
        </linearGradient>
        <linearGradient x1="0%" y1="50%" x2="100%" y2="50%" id="linearGradient-9">
            <stop stop-color="#945200" offset="0%"></stop>
            <stop stop-color="#E39919" offset="70%"></stop>
            <stop stop-color="#EBAB21" offset="100%"></stop>
        </linearGradient>
        <linearGradient x1="0%" y1="49.5967742%" x2="100%" y2="49.5967742%" id="linearGradient-10">
            <stop stop-color="#473626" offset="0%"></stop>
            <stop stop-color="#E8E7B3" offset="100%"></stop>
        </linearGradient>
        <linearGradient x1="1.36752411e-12%" y1="50.2024291%" x2="100%" y2="50.2024291%" id="linearGradient-11">
            <stop stop-color="#473626" offset="0%"></stop>
            <stop stop-color="#E8E7B3" offset="100%"></stop>
        </linearGradient>
        <linearGradient x1="49.609375%" y1="100%" x2="49.609375%" y2="-0.170357751%" id="linearGradient-12">
            <stop stop-color="#E8E7B3" offset="0%"></stop>
            <stop stop-color="#473626" offset="100%"></stop>
        </linearGradient>
        <linearGradient x1="49.9013807%" y1="100%" x2="49.9013807%" y2="-0.170357751%" id="linearGradient-13">
            <stop stop-color="#E8E7B3" offset="0%"></stop>
            <stop stop-color="#473626" offset="100%"></stop>
        </linearGradient>
        <linearGradient x1="50.7695177%" y1="54.4877704%" x2="13.8826992%" y2="4.09846184%" id="linearGradient-14">
            <stop stop-color="#D07C13" offset="0%"></stop>
            <stop stop-color="#FFE600" offset="100%"></stop>
        </linearGradient>
        <linearGradient x1="-5.22619611%" y1="62.0298344%" x2="96.60039%" y2="24.4662207%" id="linearGradient-15">
            <stop stop-color="#353535" offset="0%"></stop>
            <stop stop-color="#FFFFFF" offset="100%"></stop>
        </linearGradient>
        <linearGradient x1="122.561866%" y1="245.12413%" x2="92.0852793%" y2="202.657902%" id="linearGradient-16">
            <stop stop-color="#FFFFFF" offset="0%"></stop>
            <stop stop-color="#FFFFFF" offset="100%"></stop>
        </linearGradient>
        <linearGradient x1="49.7576685%" y1="51.9565002%" x2="41.4227409%" y2="115.173403%" id="linearGradient-17">
            <stop stop-color="#D07C13" offset="0%"></stop>
            <stop stop-color="#FFE600" offset="100%"></stop>
        </linearGradient>
        <linearGradient x1="-113.574823%" y1="167.875112%" x2="-173.319082%" y2="217.802641%" id="linearGradient-18">
            <stop stop-color="#FFFFFF" offset="0%"></stop>
            <stop stop-color="#FFFFFF" offset="100%"></stop>
        </linearGradient>
        <linearGradient x1="-214.107855%" y1="185.845466%" x2="-263.943621%" y2="215.915289%" id="linearGradient-19">
            <stop stop-color="#FFFFFF" offset="0%"></stop>
            <stop stop-color="#FFFFFF" offset="100%"></stop>
        </linearGradient>
        <linearGradient x1="76.0359408%" y1="93.0261716%" x2="-2.71087559%" y2="43.0128117%" id="linearGradient-20">
            <stop stop-color="#A05B05" offset="0%"></stop>
            <stop stop-color="#F9B70C" offset="100%"></stop>
        </linearGradient>
        <linearGradient x1="44.5526836%" y1="89.910729%" x2="2.49950381%" y2="58.8168315%" id="linearGradient-21">
            <stop stop-color="#FFFFFF" offset="0%"></stop>
            <stop stop-color="#FFFFFF" offset="100%"></stop>
        </linearGradient>
    </defs>
    <g id="Ready-Flow--(-Janis-)" stroke="none" stroke-width="1" fill="none" fill-rule="evenodd">
        <g id="21" transform="translate(-1521.000000, -30.000000)">
            <g id="Group-3" transform="translate(1521.000000, 30.000000)">
                <g id="Group-103">
                    <path d="M28,2.63966181 C38.5432319,2.63684579 48.0497549,8.94157278 52.0857856,18.6133581 C56.1218163,28.2851435 53.8923259,39.4188113 46.4371349,46.8216879 C38.9819439,54.2245645 27.7695971,56.4384102 18.0294635,52.430701 C8.28932992,48.4229918 1.9400489,38.9831778 1.94288482,28.5139296 C1.94675752,14.2255594 13.6106572,2.64350733 28,2.63966181 L28,2.63966181 Z M28,3.96994036 C17.9992557,3.96994036 8.98338102,9.9523433 5.15691744,19.1272608 C1.33045385,28.3021783 3.44705863,38.8625272 10.5196559,45.8835024 C17.5922531,52.9044777 28.2278296,55.0032335 37.4664981,51.2010179 C46.7051665,47.3988022 52.727286,38.4444965 52.7244499,28.5139296 C52.7244499,22.0032523 50.1193355,15.7593371 45.4824002,11.1562462 C40.8454648,6.55315525 34.5566865,3.96809382 28,3.96994036 Z" id="Shape" fill="#936037"></path>
                    <path d="M39.2224449,5.8643695 L39.2224449,5.8643695 C47.896362,10.1078947 53.3878367,18.8774322 53.3837675,28.4791056 L56,28.4791056 C55.7565539,27.0841482 55.3880199,25.7135916 54.8987976,24.3837977 C54.7928295,24.0727581 54.6687048,23.7681121 54.5270541,23.4714076 L54.5270541,23.4714076 C53.8906864,23.2507163 53.4084828,22.7274159 53.243487,22.0784457 C52.1826818,17.9504429 50.1077606,14.147988 47.2044088,11.0113636 C46.9308617,10.7118768 46.6503006,10.4193548 46.3557114,10.1337977 L46.3136273,10.0920088 L46.2364729,10.0153959 C45.9488978,9.73680352 45.6613226,9.47214076 45.3667335,9.20747801 L45.3176353,9.15872434 C44.9886822,8.88006008 44.8075286,8.46633053 44.8266533,8.03739003 C43.3746825,6.51213335 41.7065001,5.20525322 39.8747495,4.1579912 L39.4539078,5.25146628 L39.4539078,5.25146628 L39.2154309,5.87133431 L39.2224449,5.8643695 Z" id="Path" fill="url(#linearGradient-1)"></path>
                    <path d="M2.60921844,28.5139296 L2.60921844,28.5139296 C2.59940315,18.897992 8.09733103,10.1133312 16.7845691,5.8643695 L16.5390782,5.24450147 L16.5390782,5.24450147 L16.1252505,4.15102639 C14.2904582,5.19689782 12.6197666,6.50389247 11.1663327,8.03042522 C11.193799,8.45936326 11.0141123,8.87569001 10.6823647,9.15175953 L10.6332665,9.2005132 C10.3386774,9.45821114 10.0511022,9.72983871 9.76352705,10.0014663 L9.68637275,10.085044 L9.64428858,10.1268328 C9.3496994,10.41239 9.06212425,10.704912 8.79559118,11.0043988 C5.8897036,14.1402817 3.81233887,17.9427983 2.749499,22.0714809 C2.58702631,22.7194582 2.10733322,23.2428944 1.47294589,23.4644428 L1.47294589,23.4644428 C1.36072144,23.7082111 1.23446894,24.0146628 1.1012024,24.3768328 C0.615080015,25.7075959 0.24661994,27.0778776 -2.55168854e-12,28.4721408 L2.60921844,28.5139296 Z" id="Path" fill="url(#linearGradient-2)"></path>
                    <path d="M3.26853608,28.5139296 C3.26853608,18.5833623 9.29321526,9.63075361 18.5329697,5.831141 C27.7727242,2.03152838 38.4077006,4.13328057 45.4782915,11.1562482 C52.5488823,18.1792157 54.6624695,28.7401605 50.8333845,37.9139996 C47.0042995,47.0878387 37.9867158,53.0676999 27.9859719,53.0648837 C21.4292852,53.0648837 15.1412457,50.4780499 10.5056258,45.8736527 C5.87000594,41.2692556 3.26667649,35.0246067 3.26853608,28.5139296 L3.26853608,28.5139296 Z M27.9859719,3.30131965 C13.9630305,3.30131965 2.59519038,14.5893896 2.59519038,28.5139296 C2.59519038,42.4384696 13.9630305,53.7265396 27.9859719,53.7265396 C42.0089134,53.7265396 53.3767535,42.4384696 53.3767535,28.5139296 C53.3767535,14.5893896 42.0089134,3.30131965 27.9859719,3.30131965 L27.9859719,3.30131965 Z" id="Shape" fill="url(#linearGradient-3)"></path>
                    <path d="M16.1252505,4.17888563 L16.7775551,5.89222874 C20.2681548,4.18371 24.1083799,3.29712297 28,3.30131965 L28,0.0278592375 C25.9952019,0.28487954 24.0415698,0.843840432 22.2064128,1.68548387 C22.0467628,2.29830979 21.7015639,2.84772472 21.2174349,3.25953079 C20.9495273,3.47729876 20.6425164,3.64272478 20.3126253,3.74706745 C19.9759519,3.84457478 19.6462926,3.95601173 19.3166333,4.0813783 C18.943647,4.2367713 18.5147534,4.17516545 18.2014028,3.92118768 C17.4951713,3.94506508 16.7917663,4.02189669 16.0971944,4.15102639 L16.1252505,4.17888563 Z" id="Path" fill="url(#linearGradient-4)"></path>
                    <path d="M39.8817635,4.17888563 L39.2224449,5.8643695 C35.7327012,4.15347322 31.8919081,3.26675504 28,3.27346041 L28,0 C29.9991178,0.267932085 31.9455617,0.836260227 33.7725451,1.68548387 C33.9345264,2.29900182 34.282165,2.84840329 34.7685371,3.25953079 C35.0338723,3.47723356 35.3385788,3.64270063 35.6663327,3.74706745 C36.003006,3.84457478 36.3677355,3.95601173 36.6693387,4.0813783 C37.0399522,4.23715269 37.4670474,4.17541687 37.7775551,3.92118768 C38.4837259,3.94589958 39.1870682,4.02272433 39.8817635,4.15102639 L39.8817635,4.17888563 Z" id="Path" fill="url(#linearGradient-5)"></path>
                    <path d="M39.2224449,51.1356305 L39.2224449,51.1356305 C47.8940403,46.8895613 53.384512,38.1216255 53.3837675,28.5208944 L56,28.5208944 C55.7573668,29.9183002 55.3888185,31.2912407 54.8987976,32.6231672 C54.7929659,32.9319883 54.6688347,33.2343245 54.5270541,33.5285924 L54.5270541,33.5285924 C53.892116,33.7514327 53.4107651,34.2738078 53.243487,34.9215543 C52.1826818,39.0495571 50.1077606,42.852012 47.2044088,45.9886364 C46.9308617,46.2881232 46.6503006,46.5806452 46.3557114,46.8662023 L46.3136273,46.9079912 L46.2364729,46.9846041 C45.9488978,47.2562317 45.6613226,47.5278592 45.3667335,47.792522 L45.3176353,47.8412757 C44.9886822,48.1199399 44.8075286,48.5336695 44.8266533,48.96261 C43.3741975,50.4854006 41.7060395,51.7899154 39.8747495,52.835044 L39.4539078,51.7485337 L39.4539078,51.7485337 L39.2154309,51.1217009 L39.2224449,51.1356305 Z" id="Path" fill="url(#linearGradient-6)"></path>
                    <path d="M2.60921844,28.5208944 L2.60921844,28.5208944 C2.60777994,38.1256937 8.10519692,46.8960329 16.7845691,51.1356305 L16.5390782,51.7624633 L16.5390782,51.7624633 L16.1252505,52.8489736 C14.290751,51.8054843 12.6200492,50.5008282 11.1663327,48.9765396 C11.193799,48.5476016 11.0141123,48.1312748 10.6823647,47.8552053 L10.6332665,47.8064516 C10.3386774,47.5417889 10.0511022,47.2771261 9.76352705,46.9985337 L9.68637275,46.9219208 L9.64428858,46.880132 C9.3496994,46.5945748 9.06212425,46.3020528 8.79559118,46.002566 C5.8897036,42.8666831 3.81233887,39.0641665 2.749499,34.9354839 C2.58473466,34.2887266 2.10589463,33.7662212 1.47294589,33.542522 L1.47294589,33.542522 C1.36072144,33.3057185 1.23446894,32.9923021 1.1012024,32.6370968 C0.614345861,31.3041818 0.245873295,29.9315232 -2.55168854e-12,28.534824 L2.61623246,28.534824 L2.60921844,28.5208944 Z" id="Path" fill="url(#linearGradient-7)"></path>
                    <path d="M16.1252505,52.8489736 L16.7775551,51.1356305 C20.2681548,52.8441492 24.1083799,53.7307363 28,53.7265396 L28,57 C25.9930261,56.7372685 24.0388622,56.1687586 22.2064128,55.3145161 C22.0488882,54.7007865 21.7033157,54.1507769 21.2174349,53.7404692 C20.9512197,53.5202116 20.643696,53.3545093 20.3126253,53.2529326 C19.9759519,53.1484604 19.6462926,53.0439883 19.3166333,52.9186217 C18.943647,52.7632287 18.5147534,52.8248346 18.2014028,53.0788123 C17.4947628,53.0557232 16.7911155,52.9765361 16.0971944,52.8420088 L16.1252505,52.8489736 Z" id="Path" fill="url(#linearGradient-8)"></path>
                    <path d="M39.8817635,52.8489736 L39.2224449,51.1356305 C35.7327012,52.8465268 31.8919081,53.733245 28,53.7265396 L28,57 C29.9997836,56.7351745 31.9466954,56.1667097 33.7725451,55.3145161 C33.9328337,54.7002717 34.2807714,54.1503976 34.7685371,53.7404692 C35.0321446,53.5202464 35.3373743,53.3544952 35.6663327,53.2529326 C36.003006,53.1484604 36.3677355,53.0439883 36.6693387,52.9186217 C37.0399522,52.7628473 37.4670474,52.8245831 37.7775551,53.0788123 C38.4841432,53.0550192 39.1877344,52.9758384 39.8817635,52.8420088 L39.8817635,52.8489736 Z" id="Path" fill="url(#linearGradient-9)"></path>
                    <path d="M17.7314629,5.45344575 C20.9655146,4.03224308 24.4633984,3.2991409 28,3.30131965 L28,0.292521994 C27.9509018,0.738269795 27.9368737,1.19794721 27.8527054,1.63673021 C27.7513778,2.12744932 27.3925043,2.52635432 26.9128257,2.68145161 C26.7105996,2.76191055 26.5017365,2.82482887 26.2885772,2.86950147 C22.9639279,3.60777126 20.7124248,4.03958944 17.7314629,5.47434018 L17.7314629,5.45344575 Z" id="Path" fill="url(#linearGradient-10)" style="mix-blend-mode: screen;"></path>
                    <path d="M8.03106212,12.9475806 C10.3767101,9.96699635 13.3655113,7.5465622 16.7775551,5.8643695 L16.5390782,5.24450147 L16.1953908,4.34604106 C16.3041489,4.68115369 16.3258632,5.03812248 16.258517,5.38379765 C16.1677519,5.63464249 15.9948692,5.84800322 15.7675351,5.98973607 C15.5150301,6.1638563 15.255511,6.32404692 14.995992,6.49120235 C11.9519038,8.40652493 9.95290581,10.0432551 8.03106212,12.9197214 L8.03106212,12.9475806 Z" id="Path" fill="url(#linearGradient-11)" style="mix-blend-mode: screen;"></path>
                    <path d="M1.69038076,28.3398094 C1.28356713,28.4164223 0.841683367,28.465176 0.420841683,28.5139296 L2.60921844,28.5139296 L2.60921844,28.5139296 C2.61889019,25.7301465 3.09290872,22.9671829 4.01202405,20.3372434 C3.03707415,22.7958211 2.85470942,24.1121701 2.48296593,27.0791789 C2.41282565,27.6642229 2.48296593,28.0890762 1.97094188,28.2840909 C1.8888342,28.3141274 1.80438238,28.3374217 1.71843687,28.353739 L1.69038076,28.3398094 Z" id="Path" fill="url(#linearGradient-12)" style="mix-blend-mode: screen;"></path>
                    <path d="M54.3096192,28.3398094 C54.7234469,28.4164223 55.1583166,28.465176 55.5791583,28.5139296 L53.3907816,28.5139296 L53.3907816,28.5139296 C53.3925232,25.7320856 52.9303605,22.9691539 52.0230461,20.3372434 C52.997996,22.7958211 53.1803607,24.1121701 53.5450902,27.0791789 C53.6152305,27.6642229 53.5801603,28.0890762 54.0571142,28.2840909 L54.3096192,28.353739 L54.3096192,28.3398094 Z" id="Path" fill="url(#linearGradient-13)" style="mix-blend-mode: screen;"></path>
                </g>
                <ellipse id="Oval" fill-opacity="0.8" fill="#1C0005" cx="28" cy="28.498607" rx="24.5" ry="24.3280792"></ellipse>
                <g id="cartoon_golden_bell_notification_icon-[преобразованный]" transform="translate(26.000000, 28.499305) scale(-1, 1) translate(-26.000000, -28.499305) translate(15.500000, 15.500000)" fill-rule="nonzero">
                    <g id="Layer_5">
                        <path d="M6.66156326,9.31104328 C2.53158705,11.0732106 1.50271211,8.47889361 0.751506078,6.58412501 C-0.230102357,4.10920337 0.824062778,1.3052208 3.10122691,0.333595617 C5.37839104,-0.638029568 8.02985007,0.585411341 9.01128409,3.06051389 L9.10965423,3.30672165 C9.56923814,4.45364097 10.0446938,5.64035875 9.54569209,6.8849652 C9.15325802,7.86852993 8.23653202,8.63917288 6.66156326,9.31104328 Z M3.8853974,2.31103648 C2.65908452,2.83420536 2.1084559,4.38634538 2.6576892,5.77133187 C3.42267402,7.70047187 3.65359967,8.28279574 5.87739277,7.33414512 C7.13108883,6.79921761 7.52962743,6.34895228 7.64299728,6.06565959 C7.81305204,5.64053965 7.53206925,4.9391822 7.20695942,4.12747448 L7.10562422,3.87421154 C6.5560421,2.48886325 5.11171028,1.78786761 3.8853974,2.31103648 Z" id="Shape" fill="url(#linearGradient-14)"></path>
                        <path d="M2.76512892,0.661390224 C1.68881307,1.23141274 0.749238681,2.60319338 0.572730555,4.12476095 C0.396222428,5.64632852 1.15981193,6.37355496 1.51683973,6.31801802 C2.79565157,6.11902571 1.29899522,4.17649895 2.69257222,2.81991409 C3.69231983,1.84666079 5.24060307,1.37758164 6.28674511,2.37598034 C7.33288715,3.37437903 7.83572601,2.00078938 7.5856147,1.43655573 C7.33550338,0.872322073 4.97322466,-0.507237349 2.76512892,0.661390224 Z" id="Path" fill="url(#linearGradient-15)" opacity="0.61" style="mix-blend-mode: overlay;"></path>
                        <path d="M2.50961074,1.1413235 C1.73276568,1.64549765 0.911444766,3.15241215 0.972141236,3.76205223 C1.03283771,4.37169231 2.01584146,2.81123079 3.15669092,2.28100673 C4.29754039,1.75078268 4.19306571,0.0474084929 2.50961074,1.1413235 Z" id="Path" fill="url(#linearGradient-16)" opacity="0.49" style="mix-blend-mode: overlay;"></path>
                        <path d="M9.01128409,3.06051389 C8.66188713,2.17263648 8.07317039,1.40802029 7.31562005,0.858211709 C7.77851785,1.42135995 8.0071761,1.79257106 8.10729039,2.15527977 C8.33019295,2.96318856 7.91543373,3.58151194 7.12393781,3.92088428 L7.20643617,4.12747448 C7.53189483,4.9391822 7.81287763,5.64053965 7.64247403,6.06565959 C7.5292786,6.34840957 7.13161207,6.79740859 5.8834973,7.33106978 C5.89867142,8.15001359 5.96198411,8.96172132 6.04657546,9.54748232 C6.2440134,9.47910133 6.44773029,9.40276064 6.66104001,9.31104328 C8.23600877,8.63917288 9.15273477,7.86816812 9.54604092,6.8849652 C10.044345,5.63963514 9.56888931,4.45364097 9.11000306,3.30672165 L9.01128409,3.06051389 Z" id="Path" fill="#C45C0F" opacity="0.32"></path>
                        <ellipse id="Oval" fill="url(#linearGradient-17)" transform="translate(11.968242, 22.550454) rotate(-22.360000) translate(-11.968242, -22.550454) " cx="11.9682424" cy="22.5504543" rx="2.74992677" ry="2.59730194"></ellipse>
                        <path d="M12.0495959,22.7567728 C14.015429,21.9181107 14.6290215,22.2898645 14.6715788,22.7113664 C14.71716,22.3041178 14.6626807,21.8915276 14.5132098,21.5119855 C13.9843831,20.1785561 12.4233676,19.5808555 11.0264767,20.176928 C9.62958578,20.7730004 8.92582067,22.3368991 9.45464739,23.6701475 C9.60584474,24.048974 9.8470559,24.3819282 10.1557963,24.6379738 C9.92591711,24.4181777 9.90533612,23.6706902 12.0495959,22.7567728 Z" id="Path" fill="#C45C0F" opacity="0.32"></path>
                        <path d="M12.0870952,23.0232416 C9.96027689,23.9306466 10.4718365,24.5182166 10.9584548,24.7995194 C11.445073,25.0808221 12.9746938,25.1283994 13.707063,23.9492795 C14.4394322,22.7701596 13.6304948,22.364758 12.0870952,23.0232416 Z" id="Path" fill="url(#linearGradient-18)" opacity="0.49" style="mix-blend-mode: overlay;"></path>
                        <path d="M11.8690762,23.9887161 C10.9809543,23.9898016 10.946769,24.3324301 11.3025758,24.5386585 C11.6583827,24.7448869 12.7765582,24.7790774 13.3120127,23.916898 C13.8474672,23.0547186 12.5789459,23.9878116 11.8690762,23.9887161 Z" id="Path" fill="url(#linearGradient-19)" opacity="0.49" style="mix-blend-mode: overlay;"></path>
                        <path d="M16.7631652,12.6767269 C14.8749468,11.482773 15.4027271,7.7891139 11.8340188,5.1110392 C8.8340783,2.86079797 5.6865826,3.78158966 4.75747312,4.13308244 L4.75171742,4.13199703 C4.75171742,4.13199703 4.70218352,4.15099175 4.61741776,4.18843849 C4.532652,4.22588522 4.48364135,4.24632716 4.48364135,4.24632716 C3.58174063,4.67958769 0.719936937,6.32272147 0.116111706,10.111716 C-0.603350766,14.6194345 2.27728976,16.8579171 1.74619565,19.0844602 C1.21510153,21.3110032 -0.334751443,23.2396005 1.58224541,25.1555347 C1.74270735,25.315814 1.94555216,25.4397319 2.18014053,25.5354291 C4.08614923,26.3114991 20.003973,19.5202533 20.8317473,17.5779075 C20.9336057,17.3389358 20.9936045,17.1026777 20.998837,16.8723893 C21.06058,14.1105569 18.6513836,13.8714043 16.7631652,12.6767269 Z" id="Path" fill="url(#linearGradient-20)"></path>
                        <path d="M20.9848838,16.8774546 C21.0473244,14.1170694 18.638128,13.8780977 16.7499096,12.6832393 C14.8616913,11.488381 15.3894715,7.79562638 11.8207632,5.11773258 C9.7853385,3.59055704 7.68206627,3.52416597 6.24959469,3.74902728 C8.23949707,3.97533581 11.4443754,4.93502146 13.3643373,8.59195743 C16.3014883,14.1859931 6.56825116,17.8496224 6.56825116,17.8496224 C6.56825116,17.8496224 11.7148932,16.4539627 14.423386,14.8538837 C17.1318788,13.2538046 19.5337498,14.9852186 19.7482804,16.3381854 C19.962811,17.6911522 15.5841188,20.5895657 8.4079821,23.1366672 C4.77508905,24.4257756 2.58617899,24.8092881 1.30928571,24.8744128 C1.38829577,24.97011 1.47306153,25.0658072 1.56864103,25.1615045 C1.72910296,25.3217837 1.93194778,25.4458826 2.16653615,25.5413989 C4.07254485,26.3174689 19.9903686,19.5262231 20.8181429,17.5836964 C20.9196525,17.3438202 20.9796513,17.1077429 20.9848838,16.8774546 Z" id="Path" fill="#A44600" opacity="0.32"></path>
                        <path d="M4.63224305,6.22774787 C3.2163409,7.05591769 1.7904971,9.7604041 2.19165193,12.608165 C2.59280676,15.4559258 4.86404078,17.5093456 7.92014294,14.5163203 C10.9762451,11.5232951 8.28519384,4.09147496 4.63224305,6.22774787 Z" id="Path" fill="#C1C1C1" opacity="0.49" style="mix-blend-mode: overlay;"></path>
                        <path d="M18.140696,14.2447863 C17.5476845,14.5749326 15.4585399,16.10048 10.2853867,18.3074857 C5.11223353,20.5144913 3.13820292,20.8491602 2.69379313,21.1295584 C1.96124952,21.5921251 0.589125578,24.9002818 4.50457116,24.0744637 C8.42001675,23.2486456 13.8903733,20.4938685 17.0413574,18.8208858 C20.1923414,17.1479032 19.7461874,16.2935026 19.4597978,15.5711605 C19.1734081,14.8488184 18.6649879,13.9535339 18.140696,14.2447863 Z" id="Path" fill="url(#linearGradient-21)" opacity="0.49" style="mix-blend-mode: overlay;"></path>
                        <path d="M8.46100431,20.0694721 C6.48732253,20.7706487 4.1560897,21.6559835 2.99675224,21.9340301 C1.83741477,22.2120766 2.2788595,23.9738822 4.12469498,23.8865065 C5.97053046,23.7991307 11.7332068,21.44071 13.534392,20.4054073 C15.3355772,19.3701046 12.1650587,18.7534093 8.46100431,20.0694721 Z" id="Path" fill="#F8CB23"></path>
                    </g>
                </g>
            </g>
        </g>
    </g>
</svg>