<?xml version="1.0" encoding="UTF-8"?>
<svg width="56px" height="57px" viewBox="0 0 56 57" version="1.1" xmlns="http://www.w3.org/2000/svg" xmlns:xlink="http://www.w3.org/1999/xlink">
    <title>8C17FAE3-F0DC-4D1D-AC2C-95D5F89847BD</title>
    <defs>
        <linearGradient x1="70.051913%" y1="96.1912944%" x2="33.2121205%" y2="4.3814433%" id="linearGradient-1">
            <stop stop-color="#FFD24F" offset="0%"></stop>
            <stop stop-color="#BA7014" offset="100%"></stop>
        </linearGradient>
        <linearGradient x1="29.6796315%" y1="96.9125214%" x2="67.1865293%" y2="3.25900515%" id="linearGradient-2">
            <stop stop-color="#FFD24F" offset="0%"></stop>
            <stop stop-color="#FCB33A" offset="50%"></stop>
            <stop stop-color="#FFD24F" offset="100%"></stop>
        </linearGradient>
        <linearGradient x1="50.0276243%" y1="100%" x2="50.0276243%" y2="0%" id="linearGradient-3">
            <stop stop-color="#F7BC34" offset="0%"></stop>
            <stop stop-color="#6E4500" offset="100%"></stop>
        </linearGradient>
        <linearGradient x1="0.235710077%" y1="50%" x2="100%" y2="50%" id="linearGradient-4">
            <stop stop-color="#BA7014" offset="0%"></stop>
            <stop stop-color="#FFD24F" offset="72%"></stop>
            <stop stop-color="#FFE48A" offset="100%"></stop>
        </linearGradient>
        <linearGradient x1="0%" y1="50.4750594%" x2="100%" y2="50.4750594%" id="linearGradient-5">
            <stop stop-color="#BA7014" offset="0%"></stop>
            <stop stop-color="#FFD24F" offset="72%"></stop>
            <stop stop-color="#FFE48A" offset="100%"></stop>
        </linearGradient>
        <linearGradient x1="70.4417693%" y1="3.00773417%" x2="32.6648221%" y2="97.1354913%" id="linearGradient-6">
            <stop stop-color="#945200" offset="0%"></stop>
            <stop stop-color="#B57405" offset="100%"></stop>
        </linearGradient>
        <linearGradient x1="29.9197841%" y1="3.83624392%" x2="67.3948973%" y2="97.2802748%" id="linearGradient-7">
            <stop stop-color="#945200" offset="0%"></stop>
            <stop stop-color="#C77E00" offset="100%"></stop>
        </linearGradient>
        <linearGradient x1="0.235710077%" y1="50%" x2="100%" y2="50%" id="linearGradient-8">
            <stop stop-color="#945200" offset="0%"></stop>
            <stop stop-color="#E39919" offset="70%"></stop>
            <stop stop-color="#EBAB21" offset="100%"></stop>
        </linearGradient>
        <linearGradient x1="0%" y1="50%" x2="100%" y2="50%" id="linearGradient-9">
            <stop stop-color="#945200" offset="0%"></stop>
            <stop stop-color="#E39919" offset="70%"></stop>
            <stop stop-color="#EBAB21" offset="100%"></stop>
        </linearGradient>
        <linearGradient x1="0%" y1="49.5967742%" x2="100%" y2="49.5967742%" id="linearGradient-10">
            <stop stop-color="#473626" offset="0%"></stop>
            <stop stop-color="#E8E7B3" offset="100%"></stop>
        </linearGradient>
        <linearGradient x1="1.36752411e-12%" y1="50.2024291%" x2="100%" y2="50.2024291%" id="linearGradient-11">
            <stop stop-color="#473626" offset="0%"></stop>
            <stop stop-color="#E8E7B3" offset="100%"></stop>
        </linearGradient>
        <linearGradient x1="49.609375%" y1="100%" x2="49.609375%" y2="-0.170357751%" id="linearGradient-12">
            <stop stop-color="#E8E7B3" offset="0%"></stop>
            <stop stop-color="#473626" offset="100%"></stop>
        </linearGradient>
        <linearGradient x1="49.9013807%" y1="100%" x2="49.9013807%" y2="-0.170357751%" id="linearGradient-13">
            <stop stop-color="#E8E7B3" offset="0%"></stop>
            <stop stop-color="#473626" offset="100%"></stop>
        </linearGradient>
        <linearGradient x1="50.971428%" y1="113.800049%" x2="49.6683977%" y2="10.8973779%" id="linearGradient-14">
            <stop stop-color="#3B3B3B" offset="0%"></stop>
            <stop stop-color="#3A3A3A" offset="100%"></stop>
        </linearGradient>
        <linearGradient x1="0%" y1="49.9940012%" x2="100%" y2="49.9940012%" id="linearGradient-15">
            <stop stop-color="#585858" offset="0%"></stop>
            <stop stop-color="#292929" offset="100%"></stop>
        </linearGradient>
        <linearGradient x1="0%" y1="49.9940012%" x2="100%" y2="49.9940012%" id="linearGradient-16">
            <stop stop-color="#585858" offset="0%"></stop>
            <stop stop-color="#292929" offset="100%"></stop>
        </linearGradient>
        <linearGradient x1="75.6551141%" y1="4.52913868%" x2="21.1749789%" y2="64.0274692%" id="linearGradient-17">
            <stop stop-color="#2F2F2F" offset="0%"></stop>
            <stop stop-color="#3E3E3E" offset="100%"></stop>
        </linearGradient>
        <linearGradient x1="0%" y1="49.9940012%" x2="100%" y2="49.9940012%" id="linearGradient-18">
            <stop stop-color="#585858" offset="0%"></stop>
            <stop stop-color="#292929" offset="100%"></stop>
        </linearGradient>
        <linearGradient x1="49.9884922%" y1="99.5698834%" x2="49.9884922%" y2="2.26794888%" id="linearGradient-19">
            <stop stop-color="#484848" offset="0%"></stop>
            <stop stop-color="#C7C7C7" offset="100%"></stop>
        </linearGradient>
        <linearGradient x1="52.8445426%" y1="-5.08184117%" x2="48.2784725%" y2="83.3613785%" id="linearGradient-20">
            <stop stop-color="#4D4D4D" offset="0%"></stop>
            <stop stop-color="#000000" offset="100%"></stop>
        </linearGradient>
        <linearGradient x1="52.2267234%" y1="1.93639263%" x2="47.5673368%" y2="102.525793%" id="linearGradient-21">
            <stop stop-color="#6F6F6F" offset="0%"></stop>
            <stop stop-color="#1E1E1E" offset="100%"></stop>
        </linearGradient>
        <linearGradient x1="53.7940455%" y1="20.9102978%" x2="49.0284364%" y2="83.8264607%" id="linearGradient-22">
            <stop stop-color="#8B8B8B" offset="0%"></stop>
            <stop stop-color="#121212" offset="100%"></stop>
        </linearGradient>
        <linearGradient x1="50.4304728%" y1="25.2813021%" x2="46.1864772%" y2="75.0497661%" id="linearGradient-23">
            <stop stop-color="#464646" offset="0%"></stop>
            <stop stop-color="#5C5C5C" offset="100%"></stop>
        </linearGradient>
    </defs>
    <g id="Ready-Flow--(-Janis-)" stroke="none" stroke-width="1" fill="none" fill-rule="evenodd">
        <g id="21" transform="translate(-1450.000000, -30.000000)">
            <g id="Group-3" transform="translate(1450.000000, 30.000000)">
                <g id="Group-103">
                    <path d="M28,2.63966181 C38.5432319,2.63684579 48.0497549,8.94157278 52.0857856,18.6133581 C56.1218163,28.2851435 53.8923259,39.4188113 46.4371349,46.8216879 C38.9819439,54.2245645 27.7695971,56.4384102 18.0294635,52.430701 C8.28932992,48.4229918 1.9400489,38.9831778 1.94288482,28.5139296 C1.94675752,14.2255594 13.6106572,2.64350733 28,2.63966181 L28,2.63966181 Z M28,3.96994036 C17.9992557,3.96994036 8.98338102,9.9523433 5.15691744,19.1272608 C1.33045385,28.3021783 3.44705863,38.8625272 10.5196559,45.8835024 C17.5922531,52.9044777 28.2278296,55.0032335 37.4664981,51.2010179 C46.7051665,47.3988022 52.727286,38.4444965 52.7244499,28.5139296 C52.7244499,22.0032523 50.1193355,15.7593371 45.4824002,11.1562462 C40.8454648,6.55315525 34.5566865,3.96809382 28,3.96994036 Z" id="Shape" fill="#936037"></path>
                    <path d="M39.2224449,5.8643695 L39.2224449,5.8643695 C47.896362,10.1078947 53.3878367,18.8774322 53.3837675,28.4791056 L56,28.4791056 C55.7565539,27.0841482 55.3880199,25.7135916 54.8987976,24.3837977 C54.7928295,24.0727581 54.6687048,23.7681121 54.5270541,23.4714076 L54.5270541,23.4714076 C53.8906864,23.2507163 53.4084828,22.7274159 53.243487,22.0784457 C52.1826818,17.9504429 50.1077606,14.147988 47.2044088,11.0113636 C46.9308617,10.7118768 46.6503006,10.4193548 46.3557114,10.1337977 L46.3136273,10.0920088 L46.2364729,10.0153959 C45.9488978,9.73680352 45.6613226,9.47214076 45.3667335,9.20747801 L45.3176353,9.15872434 C44.9886822,8.88006008 44.8075286,8.46633053 44.8266533,8.03739003 C43.3746825,6.51213335 41.7065001,5.20525322 39.8747495,4.1579912 L39.4539078,5.25146628 L39.4539078,5.25146628 L39.2154309,5.87133431 L39.2224449,5.8643695 Z" id="Path" fill="url(#linearGradient-1)"></path>
                    <path d="M2.60921844,28.5139296 L2.60921844,28.5139296 C2.59940315,18.897992 8.09733103,10.1133312 16.7845691,5.8643695 L16.5390782,5.24450147 L16.5390782,5.24450147 L16.1252505,4.15102639 C14.2904582,5.19689782 12.6197666,6.50389247 11.1663327,8.03042522 C11.193799,8.45936326 11.0141123,8.87569001 10.6823647,9.15175953 L10.6332665,9.2005132 C10.3386774,9.45821114 10.0511022,9.72983871 9.76352705,10.0014663 L9.68637275,10.085044 L9.64428858,10.1268328 C9.3496994,10.41239 9.06212425,10.704912 8.79559118,11.0043988 C5.8897036,14.1402817 3.81233887,17.9427983 2.749499,22.0714809 C2.58702631,22.7194582 2.10733322,23.2428944 1.47294589,23.4644428 L1.47294589,23.4644428 C1.36072144,23.7082111 1.23446894,24.0146628 1.1012024,24.3768328 C0.615080015,25.7075959 0.24661994,27.0778776 0,28.4721408 L2.60921844,28.5139296 Z" id="Path" fill="url(#linearGradient-2)"></path>
                    <path d="M3.26853608,28.5139296 C3.26853608,18.5833623 9.29321526,9.63075361 18.5329697,5.831141 C27.7727242,2.03152838 38.4077006,4.13328057 45.4782915,11.1562482 C52.5488823,18.1792157 54.6624695,28.7401605 50.8333845,37.9139996 C47.0042995,47.0878387 37.9867158,53.0676999 27.9859719,53.0648837 C21.4292852,53.0648837 15.1412457,50.4780499 10.5056258,45.8736527 C5.87000594,41.2692556 3.26667649,35.0246067 3.26853608,28.5139296 L3.26853608,28.5139296 Z M27.9859719,3.30131965 C13.9630305,3.30131965 2.59519038,14.5893896 2.59519038,28.5139296 C2.59519038,42.4384696 13.9630305,53.7265396 27.9859719,53.7265396 C42.0089134,53.7265396 53.3767535,42.4384696 53.3767535,28.5139296 C53.3767535,14.5893896 42.0089134,3.30131965 27.9859719,3.30131965 L27.9859719,3.30131965 Z" id="Shape" fill="url(#linearGradient-3)"></path>
                    <path d="M16.1252505,4.17888563 L16.7775551,5.89222874 C20.2681548,4.18371 24.1083799,3.29712297 28,3.30131965 L28,0.0278592375 C25.9952019,0.28487954 24.0415698,0.843840432 22.2064128,1.68548387 C22.0467628,2.29830979 21.7015639,2.84772472 21.2174349,3.25953079 C20.9495273,3.47729876 20.6425164,3.64272478 20.3126253,3.74706745 C19.9759519,3.84457478 19.6462926,3.95601173 19.3166333,4.0813783 C18.943647,4.2367713 18.5147534,4.17516545 18.2014028,3.92118768 C17.4951713,3.94506508 16.7917663,4.02189669 16.0971944,4.15102639 L16.1252505,4.17888563 Z" id="Path" fill="url(#linearGradient-4)"></path>
                    <path d="M39.8817635,4.17888563 L39.2224449,5.8643695 C35.7327012,4.15347322 31.8919081,3.26675504 28,3.27346041 L28,0 C29.9991178,0.267932085 31.9455617,0.836260227 33.7725451,1.68548387 C33.9345264,2.29900182 34.282165,2.84840329 34.7685371,3.25953079 C35.0338723,3.47723356 35.3385788,3.64270063 35.6663327,3.74706745 C36.003006,3.84457478 36.3677355,3.95601173 36.6693387,4.0813783 C37.0399522,4.23715269 37.4670474,4.17541687 37.7775551,3.92118768 C38.4837259,3.94589958 39.1870682,4.02272433 39.8817635,4.15102639 L39.8817635,4.17888563 Z" id="Path" fill="url(#linearGradient-5)"></path>
                    <path d="M39.2224449,51.1356305 L39.2224449,51.1356305 C47.8940403,46.8895613 53.384512,38.1216255 53.3837675,28.5208944 L56,28.5208944 C55.7573668,29.9183002 55.3888185,31.2912407 54.8987976,32.6231672 C54.7929659,32.9319883 54.6688347,33.2343245 54.5270541,33.5285924 L54.5270541,33.5285924 C53.892116,33.7514327 53.4107651,34.2738078 53.243487,34.9215543 C52.1826818,39.0495571 50.1077606,42.852012 47.2044088,45.9886364 C46.9308617,46.2881232 46.6503006,46.5806452 46.3557114,46.8662023 L46.3136273,46.9079912 L46.2364729,46.9846041 C45.9488978,47.2562317 45.6613226,47.5278592 45.3667335,47.792522 L45.3176353,47.8412757 C44.9886822,48.1199399 44.8075286,48.5336695 44.8266533,48.96261 C43.3741975,50.4854006 41.7060395,51.7899154 39.8747495,52.835044 L39.4539078,51.7485337 L39.4539078,51.7485337 L39.2154309,51.1217009 L39.2224449,51.1356305 Z" id="Path" fill="url(#linearGradient-6)"></path>
                    <path d="M2.60921844,28.5208944 L2.60921844,28.5208944 C2.60777994,38.1256937 8.10519692,46.8960329 16.7845691,51.1356305 L16.5390782,51.7624633 L16.5390782,51.7624633 L16.1252505,52.8489736 C14.290751,51.8054843 12.6200492,50.5008282 11.1663327,48.9765396 C11.193799,48.5476016 11.0141123,48.1312748 10.6823647,47.8552053 L10.6332665,47.8064516 C10.3386774,47.5417889 10.0511022,47.2771261 9.76352705,46.9985337 L9.68637275,46.9219208 L9.64428858,46.880132 C9.3496994,46.5945748 9.06212425,46.3020528 8.79559118,46.002566 C5.8897036,42.8666831 3.81233887,39.0641665 2.749499,34.9354839 C2.58473466,34.2887266 2.10589463,33.7662212 1.47294589,33.542522 L1.47294589,33.542522 C1.36072144,33.3057185 1.23446894,32.9923021 1.1012024,32.6370968 C0.614345861,31.3041818 0.245873295,29.9315232 0,28.534824 L2.61623246,28.534824 L2.60921844,28.5208944 Z" id="Path" fill="url(#linearGradient-7)"></path>
                    <path d="M16.1252505,52.8489736 L16.7775551,51.1356305 C20.2681548,52.8441492 24.1083799,53.7307363 28,53.7265396 L28,57 C25.9930261,56.7372685 24.0388622,56.1687586 22.2064128,55.3145161 C22.0488882,54.7007865 21.7033157,54.1507769 21.2174349,53.7404692 C20.9512197,53.5202116 20.643696,53.3545093 20.3126253,53.2529326 C19.9759519,53.1484604 19.6462926,53.0439883 19.3166333,52.9186217 C18.943647,52.7632287 18.5147534,52.8248346 18.2014028,53.0788123 C17.4947628,53.0557232 16.7911155,52.9765361 16.0971944,52.8420088 L16.1252505,52.8489736 Z" id="Path" fill="url(#linearGradient-8)"></path>
                    <path d="M39.8817635,52.8489736 L39.2224449,51.1356305 C35.7327012,52.8465268 31.8919081,53.733245 28,53.7265396 L28,57 C29.9997836,56.7351745 31.9466954,56.1667097 33.7725451,55.3145161 C33.9328337,54.7002717 34.2807714,54.1503976 34.7685371,53.7404692 C35.0321446,53.5202464 35.3373743,53.3544952 35.6663327,53.2529326 C36.003006,53.1484604 36.3677355,53.0439883 36.6693387,52.9186217 C37.0399522,52.7628473 37.4670474,52.8245831 37.7775551,53.0788123 C38.4841432,53.0550192 39.1877344,52.9758384 39.8817635,52.8420088 L39.8817635,52.8489736 Z" id="Path" fill="url(#linearGradient-9)"></path>
                    <path d="M17.7314629,5.45344575 C20.9655146,4.03224308 24.4633984,3.2991409 28,3.30131965 L28,0.292521994 C27.9509018,0.738269795 27.9368737,1.19794721 27.8527054,1.63673021 C27.7513778,2.12744932 27.3925043,2.52635432 26.9128257,2.68145161 C26.7105996,2.76191055 26.5017365,2.82482887 26.2885772,2.86950147 C22.9639279,3.60777126 20.7124248,4.03958944 17.7314629,5.47434018 L17.7314629,5.45344575 Z" id="Path" fill="url(#linearGradient-10)" style="mix-blend-mode: screen;"></path>
                    <path d="M8.03106212,12.9475806 C10.3767101,9.96699635 13.3655113,7.5465622 16.7775551,5.8643695 L16.5390782,5.24450147 L16.1953908,4.34604106 C16.3041489,4.68115369 16.3258632,5.03812248 16.258517,5.38379765 C16.1677519,5.63464249 15.9948692,5.84800322 15.7675351,5.98973607 C15.5150301,6.1638563 15.255511,6.32404692 14.995992,6.49120235 C11.9519038,8.40652493 9.95290581,10.0432551 8.03106212,12.9197214 L8.03106212,12.9475806 Z" id="Path" fill="url(#linearGradient-11)" style="mix-blend-mode: screen;"></path>
                    <path d="M1.69038076,28.3398094 C1.28356713,28.4164223 0.841683367,28.465176 0.420841683,28.5139296 L2.60921844,28.5139296 L2.60921844,28.5139296 C2.61889019,25.7301465 3.09290872,22.9671829 4.01202405,20.3372434 C3.03707415,22.7958211 2.85470942,24.1121701 2.48296593,27.0791789 C2.41282565,27.6642229 2.48296593,28.0890762 1.97094188,28.2840909 C1.8888342,28.3141274 1.80438238,28.3374217 1.71843687,28.353739 L1.69038076,28.3398094 Z" id="Path" fill="url(#linearGradient-12)" style="mix-blend-mode: screen;"></path>
                    <path d="M54.3096192,28.3398094 C54.7234469,28.4164223 55.1583166,28.465176 55.5791583,28.5139296 L53.3907816,28.5139296 L53.3907816,28.5139296 C53.3925232,25.7320856 52.9303605,22.9691539 52.0230461,20.3372434 C52.997996,22.7958211 53.1803607,24.1121701 53.5450902,27.0791789 C53.6152305,27.6642229 53.5801603,28.0890762 54.0571142,28.2840909 L54.3096192,28.353739 L54.3096192,28.3398094 Z" id="Path" fill="url(#linearGradient-13)" style="mix-blend-mode: screen;"></path>
                </g>
                <circle id="Oval" fill-opacity="0.8" fill="#1C0005" cx="27.9818182" cy="28.6813636" r="24.4840909"></circle>
                <g id="Group-114" transform="translate(28.000000, 28.500000) scale(-1, 1) translate(-28.000000, -28.500000) translate(16.000000, 15.000000)" fill-rule="nonzero">
                    <g id="Group-112">
                        <path d="M21.7982951,22.3600539 C21.701748,22.5483789 21.5668143,22.7342698 21.3944402,22.9164226 L20.8901448,22.5506487 C21.2598219,22.3315581 21.6148515,22.1073289 21.9552335,21.8779611 C21.9314704,22.0395575 21.8790653,22.2005386 21.7982951,22.3600539 L21.7982951,22.3600539 Z" id="Shape" fill="#939393"></path>
                        <path d="M22.0403465,5.55594105 L18.2572659,3.79474674 L19.3911883,2.7192036 L11.6171517,0.0895583067 L11.4017628,0.0106082171 C11.2853025,-0.032510678 11.1682161,0.059800196 11.1406664,0.215271142 L10.8945971,1.60114887 L8.13148308,0.637350467 L8.11144691,0.630670075 L8.11144691,0.630670075 C8.05299642,0.613302263 7.989459,0.625627747 7.94239166,0.663464727 L4.83678427,3.03196742 L4.83678427,3.03196742 L3.7974076,3.82146831 C3.67256674,3.93313238 3.6404807,4.11214326 3.71914128,4.25812304 L4.59572402,5.91789684 C4.10345259,6.62169301 3.6839991,7.37089674 3.34346297,8.15461361 L1.46006236,7.72949775 C1.31104329,7.69609579 1.16452875,7.81148438 1.13322222,7.98638919 L0.00618728129,14.2550263 C-0.0257453754,14.4305384 0.0688003336,14.5896532 0.223454573,14.6103017 L2.22268933,15.3141721 C2.29508547,16.0362051 2.42975765,16.7510809 2.62529126,17.4512903 L1.17642523,18.7533595 C1.05095063,18.8661724 1.01865789,19.0463982 1.09753278,19.1936581 L3.89633622,23.6385481 C3.942026,23.7173389 4.04036979,23.7517197 4.12737839,23.7193201 L6.80158185,24.6497166 L6.71768036,25.1215952 C6.69013062,25.2801027 6.76839693,25.408852 6.89362304,25.408852 L11.1081076,26.8755018 L11.5113356,24.2179203 L11.5113356,24.2142765 L11.652215,23.4162732 C12.2702622,23.2174232 12.8594586,22.9424983 13.4053805,22.5982289 L14.0596869,23.8377453 C14.1141602,23.9409877 14.2306205,23.9434169 14.3201572,23.8444256 L14.7227591,23.3986613 L14.8880576,24.2185276 L18.5352679,25.3116827 L19.4575581,20.250982 L20.9809337,17.9432101 L20.8175136,12.0711454 L18.9679241,5.85595139 L21.1988271,7.45924552 L22.0403465,5.55594105 Z M14.664529,13.6531837 C14.2299944,16.127358 12.4104591,18.025804 10.4475399,17.8126388 C10.1750761,17.7825721 9.90911394,17.7114724 9.65924156,17.6019028 L9.22533311,16.0502299 L8.9748809,13.8432712 L9.87713498,10.2735126 L12.319044,8.3495596 C14.1104035,8.93318296 15.0846625,11.2622106 14.664529,13.6531837 Z" id="Shape" fill="url(#linearGradient-14)"></path>
                        <polygon id="Path" fill="url(#linearGradient-15)" points="8.13273534 5.72720201 3.7974076 3.82389754 7.94176553 0.665286652 12.3265576 2.20784994"></polygon>
                        <polygon id="Path" fill="url(#linearGradient-16)" points="3.34534136 8.15704285 7.59551536 9.73968849 5.55057307 9.33825765 1.46194075 7.73496352"></polygon>
                        <polygon id="Path" fill="#0B0B0B" opacity="0.2" points="4.59509789 5.91971877 8.84527188 7.50297172 8.5666438 7.73496352 4.59509789 6.1104136"></polygon>
                        <path d="M2.2220632,15.3196379 L4.47300243,16.1984131 L6.43404323,16.4644142 L6.8723346,19.0394017 L2.62216061,17.4567561 C2.62216061,17.4567561 2.26839686,15.9111563 2.2220632,15.3196379 Z" id="Path" fill="#141414" opacity="0.5"></path>
                        <path d="M1.09690665,19.1991238 L5.30325151,20.6062574 L8.27236245,25.3153265 C8.27236245,25.3153265 7.5923847,24.7778586 6.33511461,24.4329075 C5.07784452,24.0879563 3.89320557,23.6434066 3.89320557,23.6434066 L1.09690665,19.1991238 Z" id="Path" fill="#141414" opacity="0.5"></path>
                        <polygon id="Path" fill="url(#linearGradient-17)" opacity="0.5" points="19.1983401 4.23443801 22.0403465 5.55533374 20.6353096 6.86772715 19.0774969 5.07556012"></polygon>
                        <path d="M11.1406664,0.217093067 L15.6688423,1.89751536 L19.4256255,2.72102552 L15.1798344,1.29688737 C15.1798344,1.29688737 11.5764532,-0.0270449025 11.3998844,0.0124301423 C11.2884316,0.0437185026 11.19487,0.117589092 11.1406664,0.217093067 Z" id="Path" fill="url(#linearGradient-18)"></path>
                        <path d="M23.874909,13.3877899 L23.0102227,13.1940586 C23.0027205,12.5060043 22.9422349,11.8194549 22.829271,11.1401416 L23.7390386,10.2455764 C23.8229343,10.1487146 23.846834,10.0156545 23.8016517,9.89698136 L22.0772882,5.67375887 C22.0271978,5.5522972 21.9176249,5.51342946 21.8324712,5.59055763 L20.9032935,6.42621396 C20.4869634,5.86420447 19.9948232,5.35887553 19.4400265,4.92373302 L19.5696355,3.05686706 C19.5953068,2.90989843 19.5326938,2.76050057 19.4293822,2.72284745 L15.6538152,1.59689771 C15.5373549,1.55438612 15.4202685,1.64608969 15.3927188,1.80216794 L15.0796535,3.56336225 C14.4613914,3.60791411 13.8527767,3.73734672 13.2720147,3.94778845 L12.5206581,2.3639282 C12.4517837,2.21878149 12.3065214,2.16898221 12.1956963,2.25279076 L8.05133838,5.41079435 C7.92649751,5.52245841 7.89441147,5.70146929 7.97307206,5.84744907 L8.84965479,7.50722288 C8.35773726,8.21122793 7.93830322,8.96039693 7.59739375,9.74393965 L5.71399313,9.31882378 C5.56497407,9.28602913 5.41845953,9.40081041 5.387153,9.57571523 L4.26011806,15.8443523 C4.2281854,16.0198645 4.32273111,16.1795866 4.47675922,16.1996277 L6.43842615,16.4656288 C6.49597318,17.3359485 6.64279575,18.1985398 6.87671751,19.0406164 L5.42597309,20.3445074 C5.30049849,20.4573204 5.26820575,20.6375461 5.34708065,20.784806 L8.14588409,25.2303034 C8.22039362,25.3517651 8.37504786,25.3517651 8.490882,25.2388057 L9.88089177,23.8723618 C10.3177253,24.2263097 10.7990989,24.5250623 11.3134784,24.7614613 L10.9672282,26.7127431 C10.9390523,26.8712506 11.0179448,27 11.1425448,27 L15.3470112,26.8044467 C15.4578363,26.8044467 15.5686614,26.682985 15.5974634,26.5354091 L15.9036413,25.0074212 C16.5216884,24.8085712 17.1108849,24.5336463 17.6568067,24.1893768 L18.4200598,25.1877918 C18.4739071,25.2904269 18.5909935,25.2934634 18.6805301,25.1944722 L21.6452582,22.0310028 C21.7294717,21.9333308 21.7533585,21.7994156 21.7078712,21.6799786 L21.1368402,20.4781153 C21.4889111,19.8704363 21.7922283,19.2373701 22.0441033,18.5845278 L22.9513664,18.7059894 C23.0409031,18.7181356 23.1329443,18.618537 23.1561111,18.4837146 L23.9957522,13.6665445 C24.0157883,13.5329366 23.9631934,13.4078311 23.874909,13.3877899 Z M14.6970878,19.4001429 C12.688461,19.1784754 11.3072171,16.7589588 11.8049909,13.9641256 C12.3002601,11.1814386 14.4190858,9.39170079 16.3801266,9.88240596 C18.2923292,10.3615723 19.3492375,12.7677281 18.914703,15.2400805 C18.4801684,17.7124329 16.6600069,19.6157374 14.6970878,19.3977137 L14.6970878,19.4001429 Z" id="Shape" fill="#DBA783"></path>
                        <path d="M23.874909,13.385968 L23.0102227,13.1928439 C23.002747,12.504587 22.9422614,11.8178338 22.829271,11.1383197 L23.7390386,10.2437544 C23.8229343,10.1468927 23.846834,10.0138326 23.8016517,9.89515943 L22.0772882,5.67193695 C22.0271978,5.55047527 21.9176249,5.51221485 21.8324712,5.5887357 L20.9032935,6.42439203 C20.4869634,5.86238254 19.9948232,5.3570536 19.4400265,4.9219111 L19.5696355,3.05504513 C19.5953068,2.90868381 19.5326938,2.75928595 19.4293822,2.72102552 L15.6538152,1.59507578 C15.5373549,1.5525642 15.4202685,1.64426776 15.3927188,1.80034602 L15.0796535,3.55850378 C14.4613914,3.60305565 13.8527767,3.73248826 13.2720147,3.94292999 L12.5206581,2.35906973 C12.4517837,2.21392303 12.3065214,2.16412374 12.1956963,2.24793229 L8.05133838,5.40593588 C7.92619282,5.51769285 7.89408635,5.69706683 7.97307206,5.84319791 L8.84965479,7.50236441 C8.35751213,8.2062366 7.93806573,8.95542767 7.59739375,9.73908118 L5.71399313,9.31760916 C5.5656002,9.2842072 5.41908566,9.39898849 5.387153,9.5738933 L4.26011806,15.8425304 C4.2281854,16.0186498 4.32273111,16.1777646 4.47738535,16.1978058 L6.43842615,16.4638069 C6.49602689,17.3341207 6.64284858,18.1967067 6.87671751,19.0387944 L5.42597309,20.3445074 C5.30039486,20.4575194 5.26810676,20.6379678 5.34708065,20.7854133 L8.14588409,25.2303034 C8.22039362,25.3487285 8.37504786,25.3517651 8.490882,25.2388057 L9.88089177,23.8723618 C10.317825,24.2261778 10.7991806,24.5249192 11.3134784,24.7614613 L10.9672282,26.7127431 C10.9390523,26.8712506 11.0179448,27 11.1425448,27 L15.3470112,26.8044467 C15.4578363,26.8044467 15.5686614,26.682985 15.5974634,26.5354091 L15.9036413,25.0074212 C16.5216884,24.8085712 17.1108849,24.5336463 17.6568067,24.1893768 L18.4200598,25.1877918 C18.4739071,25.2904269 18.5909935,25.2934634 18.6805301,25.1944722 L21.6452582,22.0310028 C21.7294717,21.9333308 21.7533585,21.7994156 21.7078712,21.6799786 L21.1368402,20.4781153 C21.4889111,19.8704363 21.7922283,19.2373701 22.0441033,18.5845278 L22.9513664,18.7059894 C23.0409031,18.7181356 23.1329443,18.618537 23.1561111,18.4837146 L23.9919954,13.6641153 C24.0157883,13.5311147 23.9631934,13.4060092 23.874909,13.385968 Z M14.6970878,19.398321 C12.688461,19.1766534 11.3072171,16.7571368 11.8049909,13.9623037 C12.3002601,11.1796167 14.4190858,9.38927155 16.3801266,9.88119134 C18.2923292,10.3597503 19.3492375,12.7659062 18.914703,15.2382586 C18.4801684,17.710611 16.6600069,19.6120935 14.6970878,19.3958918 L14.6970878,19.398321 Z" id="Shape" fill="url(#linearGradient-19)"></path>
                        <path d="M15.6156212,7.33778384 C12.1211868,7.03412965 8.92854724,10.2607591 8.4846207,14.5392466 C8.04069416,18.8177342 10.515162,22.5289957 14.0095964,22.8302207 C17.5040309,23.1314456 20.6972966,19.9072454 21.140597,15.6287579 C21.5838974,11.3502703 19.1106818,7.6390088 15.6156212,7.33778384 Z M18.3417935,15.7544707 C17.7707625,18.0962518 15.945592,19.754811 14.1197954,19.4286864 C12.2939988,19.1025618 11.7699276,16.9775898 11.7304813,14.5738632 C11.6728773,11.0107849 14.4053109,9.11173162 16.2311075,9.43785622 C18.0569041,9.76398082 19.0981592,12.6529468 18.3417935,15.7544707 L18.3417935,15.7544707 Z" id="Shape" fill="#747474"></path>
                        <path d="M15.3607861,6.64788152 C12.0554431,6.35090772 9.03686782,9.53198902 8.61548198,13.7533896 C8.19409614,17.9747901 10.5358243,21.637467 13.8417935,21.9344408 C17.1477626,22.2314146 20.1657117,19.0503333 20.5870976,14.8289327 C21.0084834,10.6075322 18.6667553,6.94485532 15.3607861,6.64788152 Z M17.9398177,14.9522163 C17.4608279,17.2763855 15.6732252,18.8997208 13.9463573,18.5778474 C12.2194893,18.2559739 11.2076623,16.111568 11.6860261,13.7873989 C12.1643898,11.4632297 13.9532447,9.83989437 15.6794865,10.1623751 C17.4057284,10.4848559 18.4181815,12.631691 17.9398177,14.9522163 Z" id="Shape" fill="url(#linearGradient-20)"></path>
                        <path d="M15.9412091,6.88716102 C12.6352399,6.59018722 9.61729081,9.77126852 9.19590497,13.9926691 C8.77451913,18.2140696 11.1162473,21.8767465 14.4222165,22.1737203 C17.7281856,22.4706941 20.7461347,19.2896128 21.1675206,15.0682122 C21.5889064,10.8468117 19.2471783,7.18413482 15.9412091,6.88716102 Z M18.5196146,15.1914958 C18.0412509,17.515665 16.2530221,19.1390003 14.5261541,18.8171269 C12.7992861,18.4952534 11.7874592,16.3508475 12.2664491,14.0266784 C12.7454389,11.7025092 14.5330416,10.0791739 16.2599095,10.4016546 C17.9867775,10.7241354 18.9986044,12.867934 18.5196146,15.1914958 Z" id="Shape" fill="url(#linearGradient-21)"></path>
                        <g id="Group" opacity="0.5" transform="translate(9.131654, 6.867342)">
                            <path d="M5.4414598,12.4666045 C7.16832778,12.7884779 8.95655656,11.1651426 9.43554641,8.84158077 C9.57689154,8.17154308 9.59131896,7.48214686 9.47812328,6.80709769 C9.51231877,7.31550002 9.47673555,7.82605559 9.37230723,8.32536865 C8.89394351,10.6495378 7.10571473,12.2728731 5.37884675,11.9509997 C4.1798068,11.7275102 3.32576476,10.6252455 3.07593868,9.19503425 C3.19239896,10.8705981 4.10154048,12.2170008 5.4414598,12.4666045 Z" id="Path" fill="#8C8C8C"></path>
                            <path d="M0.111210655,7.64214672 C0.530718106,3.42135347 3.55054562,0.240272164 6.85651478,0.536638654 C9.52007403,0.775310848 11.5562505,3.20029322 12.0277268,6.34129216 C11.7146615,2.9525114 9.60209713,0.268208349 6.79390173,0.0192119127 C3.48793257,-0.277761886 0.469983445,2.90331942 0.0485976029,7.12471998 C-0.0311806005,7.91593319 -0.0126815922,8.71357704 0.103697089,9.50051036 C0.0467713594,8.88217056 0.0492867233,8.26003446 0.111210655,7.64214672 Z" id="Path" fill="#A5A5A5"></path>
                        </g>
                        <g id="Group" opacity="0.4" transform="translate(9.111305, 10.018453)">
                            <path d="M7.1104104,0.0406799165 C5.38354242,-0.281193526 3.59593977,1.34214178 3.11694992,3.66570365 C3.02270825,4.11757992 2.98445201,4.57875716 3.00299417,5.0394352 C3.01592544,4.72870442 3.05402813,4.41944099 3.11694992,4.11450454 C3.59593977,1.79033536 5.38354242,0.16700006 7.1104104,0.488873502 C8.48789755,0.745764947 9.41081395,2.1626154 9.48407122,3.90559046 C9.56546818,1.96220364 8.60686235,0.318827155 7.1104104,0.0406799165 Z" id="Path" fill="url(#linearGradient-22)"></path>
                            <path d="M12.0198998,4.70663021 C11.6003924,8.92803077 8.57993874,12.1091121 5.27459571,11.8121383 C2.28670085,11.543708 0.0883565831,8.52599262 0.00257670137,4.83173574 C-0.0869599635,8.72761901 2.16648379,11.9815773 5.27459571,12.2603319 C8.57993874,12.5573057 11.598514,9.37622436 12.0198998,5.1548238 C12.0595841,4.75583531 12.0748467,4.35491579 12.0656074,3.95417513 C12.0597635,4.20317156 12.0445276,4.45398992 12.0198998,4.70663021 Z" id="Path" fill="url(#linearGradient-23)"></path>
                        </g>
                        <path d="M6.57930552,16.6623967 C6.57930552,16.6623967 6.6281437,17.8812647 6.99067327,19.0078217 C6.99067327,19.0078217 6.16856389,19.8811312 5.80603432,20.2030046 C5.44350475,20.524878 5.75719614,20.5941112 5.80603432,20.7775183 C5.8548725,20.9609255 6.6281437,19.8349757 7.20794056,19.2143065 L6.57930552,16.6623967 Z" id="Path" fill="#FFE9DE" opacity="0.2"></path>
                        <path d="M4.93258224,13.4412331 C4.93258224,13.4412331 5.57937507,10.3627869 5.63071777,10.018443 C5.68206048,9.67409918 5.73089866,9.58178831 6.26248347,9.71964731 C6.79406829,9.85750631 7.68943493,10.018443 7.68943493,10.018443 C7.68943493,10.018443 8.1277263,9.23683715 8.31556546,8.7771047 C8.50340461,8.31737226 8.99241255,7.65054766 8.99241255,7.65054766 C8.99241255,7.65054766 8.21851523,9.3060703 7.75956155,10.2947683 C7.75956155,10.2947683 6.2117669,9.94920988 6.1153428,10.018443 C6.0189187,10.0876762 4.93258224,13.4412331 4.93258224,13.4412331 Z" id="Path" fill="#FFFFFF"></path>
                        <path d="M8.29365089,5.51282215 C8.53533727,5.35188543 11.5820884,2.9147569 11.9690371,2.63903889 C12.3559857,2.36332089 12.3077737,2.38639861 12.573253,2.89167918 C12.8387324,3.39695975 13.1780951,4.13362482 13.1780951,4.13362482 C13.4888468,4.03898534 13.804417,3.95993056 14.1235522,3.89677455 C14.5806275,3.81175138 13.4679935,4.17917295 13.0328328,4.40934282 C12.5976721,4.6395127 12.2107234,2.89107187 12.2107234,2.89107187 L8.29365089,5.51282215 Z" id="Path" fill="#FFFFFF"></path>
                        <path d="M15.3570293,3.60465922 C15.3570293,3.60465922 15.6926353,2.17930645 15.7170544,2.01836973 C15.7414735,1.85743301 15.9825337,1.85743301 16.4176944,2.01836973 C16.8528551,2.17930645 19.1989662,2.86860146 19.1989662,2.86860146 C19.1989662,2.86860146 16.2974774,2.2704027 16.1522151,2.22485458 C16.0069528,2.17930645 15.3570293,3.60465922 15.3570293,3.60465922 Z" id="Path" fill="#FFFFFF"></path>
                        <path d="M21.0366593,6.75416049 C21.0366593,6.75416049 21.8099305,6.1104136 21.9069807,6.01871004 C22.004031,5.92700647 23.4541493,9.55871059 23.4541493,9.55871059 L21.8099305,6.47844248 L21.0366593,6.75416049 Z" id="Path" fill="#FFFFFF"></path>
                    </g>
                </g>
            </g>
        </g>
    </g>
</svg>