<svg width="30" height="40" viewBox="0 0 30 40" fill="none" xmlns="http://www.w3.org/2000/svg">
<path fill-rule="evenodd" clip-rule="evenodd" d="M9.64602 32.4258C12.8328 34.2688 14.6355 37.0916 13.6702 38.8062C12.7049 40.5209 9.33199 40.3576 6.14523 38.5146C2.95846 36.6717 1.1441 33.8489 2.10943 32.1225C3.07476 30.3962 6.45925 30.5712 9.64602 32.4258Z" fill="url(#paint0_radial_131_799)"/>
<g style="mix-blend-mode:multiply">
<path fill-rule="evenodd" clip-rule="evenodd" d="M13.833 38.5846C12.9607 40.1127 9.65766 39.8327 6.44763 37.9781C3.2376 36.1234 1.35345 33.3823 2.22574 31.8659C3.67956 34.6537 9.00635 38.4213 13.8563 38.5846H13.833Z" fill="#5ACCC9"/>
</g>
<path opacity="0.15" fill-rule="evenodd" clip-rule="evenodd" d="M19.1482 9.47024L18.3108 10.8816C17.1477 12.8413 17.6595 12.3164 15.7986 13.7394C14.7876 14.5256 13.5806 15.0178 12.3094 15.1625C8.23874 15.8973 4.50533 17.4954 2.35368 21.2163C1.48632 22.7492 1.02953 24.4812 1.0278 26.2437C1.15677 30.5575 3.51302 34.4937 7.24868 36.636C10.9843 38.7782 15.5619 38.8182 19.3343 36.7416C20.8331 35.8468 22.0784 34.5818 22.9514 33.0674C25.103 29.3231 24.5913 25.2989 23.1956 21.4029C22.705 20.2367 22.5324 18.9605 22.6955 17.7053C22.6725 16.4076 23.0818 15.1392 23.8585 14.101L24.6611 12.6663C23.6242 12.3557 22.6285 11.9209 21.6953 11.3715C20.7535 10.8373 19.8822 10.1868 19.1017 9.43525L19.1482 9.47024Z" fill="white"/>
<path fill-rule="evenodd" clip-rule="evenodd" d="M12.6467 18.7085C18.8342 18.7085 23.8586 21.0413 23.8586 23.8641C23.8586 26.6869 18.8342 29.0198 12.6467 29.0198C6.45927 29.0198 1.42325 26.6869 1.42325 23.8641C1.42325 21.0413 6.44764 18.7085 12.6467 18.7085Z" fill="url(#paint1_radial_131_799)"/>
<path fill-rule="evenodd" clip-rule="evenodd" d="M12.6467 29.0198C6.44763 29.0198 1.42324 26.6869 1.42324 23.8641C1.42686 23.6149 1.46602 23.3674 1.53955 23.1293C1.22276 24.1219 1.0504 25.1551 1.0278 26.197C1.14103 30.5192 3.49103 34.4701 7.22944 36.6235C10.9679 38.7768 15.5548 38.8216 19.3343 36.7416C20.8331 35.8468 22.0784 34.5818 22.9514 33.0674C24.5704 30.0499 24.8735 26.4953 23.7888 23.2459C23.8587 23.4609 23.8978 23.6848 23.9051 23.9108C23.9051 26.7569 18.8807 29.0665 12.6932 29.0665L12.6467 29.0198Z" fill="url(#paint2_radial_131_799)"/>
<path style="mix-blend-mode:screen" fill-rule="evenodd" clip-rule="evenodd" d="M21.9628 26.0804C21.9628 23.4209 17.3106 21.2513 11.4953 21.2513C6.84307 21.2513 2.9701 22.616 1.55118 24.5057C2.23738 27.0485 6.95938 29.0198 12.6816 29.0198C15.8932 29.1451 19.0769 28.3781 21.8814 26.8036C21.9605 26.5708 21.9998 26.3263 21.9977 26.0804H21.9628Z" fill="url(#paint3_radial_131_799)"/>
<path style="mix-blend-mode:screen" fill-rule="evenodd" clip-rule="evenodd" d="M19.0668 26.6286C19.0668 24.2957 15.0542 22.4994 10.0996 22.4994C6.30807 22.4994 3.1213 23.5725 1.7489 25.1006C2.91196 27.3518 7.37808 29.0198 12.6467 29.0198C14.5453 29.03 16.4373 28.7948 18.2759 28.3199C18.7573 27.887 19.0427 27.2766 19.0668 26.6286Z" fill="url(#paint4_radial_131_799)"/>
<path style="mix-blend-mode:screen" fill-rule="evenodd" clip-rule="evenodd" d="M12.6467 29.0198C7.37808 29.0198 2.97011 27.4101 1.80706 25.0772C1.71154 24.9 1.63736 24.7121 1.58608 24.5173C1.49103 25.0333 1.43659 25.5559 1.42325 26.0804C1.49771 29.8859 3.54917 33.3759 6.83315 35.2838C10.1171 37.1917 14.1564 37.2403 17.485 35.4119C18.7958 34.6227 19.8876 33.5156 20.6602 32.1925C21.5956 30.5578 22.0361 28.6852 21.9279 26.8036C20.8268 27.4985 19.6211 28.0105 18.3573 28.3199C16.5187 28.7948 14.6267 29.03 12.7281 29.0198H12.6467Z" fill="url(#paint5_radial_131_799)"/>
<path style="mix-blend-mode:screen" fill-rule="evenodd" clip-rule="evenodd" d="M12.7049 28.9965C7.37806 29.0198 2.97009 27.4101 1.80704 25.0772L1.88845 24.9839C1.88187 24.9336 1.88187 24.8826 1.88845 24.8323C1.88845 24.9139 1.88845 24.9839 1.88845 25.0539C1.83823 25.4016 1.81103 25.7523 1.80704 26.1037C1.8675 29.2033 3.54015 32.0453 6.21669 33.5963C8.89323 35.1472 12.1837 35.1811 14.8914 33.6856C15.9579 33.0418 16.8458 32.1393 17.4734 31.0611C17.9686 30.211 18.2926 29.2718 18.4271 28.2966C16.5885 28.7715 14.6965 29.0067 12.7979 28.9965H12.7049Z" fill="url(#paint6_radial_131_799)"/>
<path fill-rule="evenodd" clip-rule="evenodd" d="M24.8123 14.6376L25.7776 12.9112C25.5783 12.8913 25.3803 12.8601 25.1844 12.8179C24.9801 12.7744 24.7782 12.7199 24.5796 12.6546L23.7888 14.066C22.3165 16.2587 22.0453 19.048 23.0677 21.4846C24.4517 25.3455 24.9635 29.3347 22.8234 33.044C21.9662 34.5427 20.736 35.7926 19.2529 36.6717C15.5067 38.7337 10.9583 38.6819 7.25977 36.5351C3.56125 34.3882 1.2507 30.4586 1.16737 26.1737C1.19653 24.4488 1.66067 22.7594 2.51651 21.263C4.6449 17.5537 8.33178 16.0256 12.3792 15.2675C12.8432 15.1538 13.3335 15.2428 13.7284 15.5124C14.81 16.3173 15.6125 17.6587 17.3338 18.4518C16.3452 17.6937 14.8449 15.944 14.8333 14.9525C14.8182 14.7462 14.9052 14.5457 15.0659 14.416C16.5069 13.6088 17.6767 12.391 18.4271 10.9166L19.2412 9.54023C19.09 9.3886 18.9388 9.23696 18.8109 9.08532C18.6728 8.93848 18.5446 8.78262 18.4271 8.61874L17.4152 10.3101C16.4395 12.3996 14.455 13.8339 12.1699 14.101C7.71536 14.9059 3.79587 16.6789 1.50466 20.6564C-1.79842 26.3953 0.51606 33.9538 6.69188 37.5232C12.8677 41.0925 20.5438 39.3428 23.8469 33.6039C26.173 29.6147 25.7078 25.3222 24.1726 21.053C23.2753 18.9459 23.5167 16.5247 24.8123 14.6376Z" fill="url(#paint7_radial_131_799)"/>
<path style="mix-blend-mode:screen" fill-rule="evenodd" clip-rule="evenodd" d="M23.2654 15.2325C22.8611 16.6655 22.7621 18.1677 22.9746 19.6416C23.1946 21.2752 23.5052 22.8952 23.9051 24.494C23.1436 22.8849 22.5285 21.2101 22.0674 19.49C22.1235 18 22.5215 16.543 23.2305 15.2325H23.2654Z" fill="url(#paint8_linear_131_799)"/>
<path style="mix-blend-mode:screen" opacity="0.5" fill-rule="evenodd" clip-rule="evenodd" d="M22.1372 10.73L24.8006 12.2464C22.6839 15.9207 19.7762 18.2069 18.3108 17.3554C16.8453 16.5039 17.3571 12.8296 19.4738 9.1903L22.1372 10.7417V10.73Z" fill="url(#paint9_radial_131_799)"/>
<path style="mix-blend-mode:screen" opacity="0.5" fill-rule="evenodd" clip-rule="evenodd" d="M21.1952 10.0768L22.4164 10.8816C20.9626 13.2145 19.2412 14.7659 18.5667 14.381C17.8921 13.996 18.5667 11.6865 19.9623 9.34193L21.1952 10.1351V10.0768Z" fill="url(#paint10_radial_131_799)"/>
<path style="mix-blend-mode:screen" fill-rule="evenodd" clip-rule="evenodd" d="M8.4132 19.3617C8.1457 19.105 7.83167 18.7901 7.47113 18.8134C6.16851 18.8134 4.61002 20.4815 3.98197 21.4729C2.30021 23.6902 1.86175 26.6145 2.81891 29.2298C3.13294 29.9413 5.2148 31.2127 5.2497 30.7461C5.24387 29.5305 5.52695 28.3309 6.07546 27.2468C6.89621 25.8262 8.00098 24.5911 9.32038 23.6192C10.5881 22.6394 10.6695 22.3128 10.1927 21.6129C9.64624 20.8005 9.05203 20.0215 8.4132 19.28V19.3617ZM14.0191 17.577C15.345 19.0584 15.2869 19.9099 14.6821 20.6098C13.519 21.9045 11.7279 21.298 10.5649 19.8516C9.4018 18.4052 9.18082 17.6353 9.79724 16.9821C10.716 16.014 12.6932 16.1073 14.0191 17.577Z" fill="url(#paint11_radial_131_799)"/>
<path fill-rule="evenodd" clip-rule="evenodd" d="M13.1933 17.6937C12.5595 16.8621 11.3948 16.659 10.5183 17.2271C10.1461 17.6003 10.309 18.0669 11.0766 18.9651C11.8442 19.8632 13.0073 20.2715 13.6935 19.525C14.054 19.1284 14.0656 18.6151 13.1933 17.6937ZM7.28503 19.6883C7.13383 19.595 6.95937 19.595 6.68024 19.6883C5.83781 20.2078 5.10648 20.8897 4.52859 21.6946C3.0971 23.4553 2.52545 25.7657 2.9701 27.9933C3.02825 28.2033 3.17945 28.6115 3.40043 28.6932C3.62141 28.7748 3.59815 28.6932 3.6563 28.3783C3.83665 27.6372 4.13093 26.9289 4.52859 26.2787C5.47423 24.7636 6.69296 23.4385 8.12242 22.3711C8.59928 22.0095 8.69232 21.7879 8.6458 21.5896C8.25896 20.9103 7.80293 20.2732 7.28503 19.6883Z" fill="url(#paint12_radial_131_799)"/>
<path style="mix-blend-mode:screen" opacity="0.5" fill-rule="evenodd" clip-rule="evenodd" d="M20.9393 10.0768L21.5673 10.5084C20.5904 12.188 19.5087 13.3545 19.1598 13.1095C18.8109 12.8646 19.3227 11.3249 20.3229 9.61021L20.9509 10.0418L20.9393 10.0768Z" fill="url(#paint13_radial_131_799)"/>
<g style="mix-blend-mode:multiply" opacity="0.5">
<path fill-rule="evenodd" clip-rule="evenodd" d="M24.8006 14.6609C24.4401 15.2791 22.7188 14.4393 20.9626 12.7829C19.2063 11.1266 18.0549 9.28361 18.4038 8.67706C20.3238 10.882 22.9231 12.3805 25.7892 12.9346L24.789 14.6726L24.8006 14.6609Z" fill="#7F8E99"/>
</g>
<path fill-rule="evenodd" clip-rule="evenodd" d="M27.592 13.0512C26.8592 13.8561 24.2424 13.3078 21.5441 11.7565C18.8458 10.2051 17.0663 8.18716 17.4036 7.14903C17.8238 6.116 18.4266 5.16761 19.1831 4.34957L24.1493 7.21902L29.1156 10.1001C28.7777 11.1654 28.2583 12.1639 27.5803 13.0512H27.592ZM27.592 9.93682L23.8934 7.79057L20.1717 5.64432C19.9799 5.88612 19.8087 6.14364 19.6599 6.41417C18.2643 8.8637 25.766 13.2029 27.1733 10.7767C27.3381 10.5101 27.4783 10.229 27.592 9.93682Z" fill="url(#paint14_radial_131_799)"/>
<path opacity="0.15" fill-rule="evenodd" clip-rule="evenodd" d="M27.2547 10.8466C27.4382 10.5367 27.5977 10.213 27.7315 9.8785L23.9051 7.6506L20.067 5.44602C19.8421 5.72641 19.6435 6.02708 19.4738 6.34418C17.9735 8.95701 25.7427 13.4595 27.2547 10.8466Z" fill="white"/>
<path fill-rule="evenodd" clip-rule="evenodd" d="M26.2312 10.905C25.8357 11.3715 24.2424 11.0099 22.5792 10.0418C20.916 9.07365 19.8925 7.96553 20.0088 7.37065C20.1989 6.80146 20.4322 6.24772 20.7067 5.7143L27.2663 9.50524C26.9465 9.99006 26.601 10.4573 26.2312 10.905Z" fill="#8E633F"/>
<path style="mix-blend-mode:screen" fill-rule="evenodd" clip-rule="evenodd" d="M12.8095 38.7129C9.15755 39.0279 4.01685 36.38 2.63281 32.8807C5.15988 36.0546 8.8001 38.1408 12.8095 38.7129Z" fill="url(#paint15_linear_131_799)"/>
<path fill-rule="evenodd" clip-rule="evenodd" d="M16.636 37.8031C20.4904 36.2687 23.3295 32.9096 24.2075 28.8448C24.0679 33.6156 21.137 37.1849 16.636 37.8031Z" fill="white"/>
<path style="mix-blend-mode:screen" fill-rule="evenodd" clip-rule="evenodd" d="M18.2294 8.23382C18.0549 7.33566 19.3924 5.51601 19.9391 4.73449L19.1831 4.30291C18.4266 5.12095 17.8238 6.06934 17.4036 7.10237C17.0896 8.07052 18.5666 9.85517 20.9625 11.3482C19.8576 10.555 18.4387 9.31861 18.2294 8.18716V8.23382Z" fill="url(#paint16_radial_131_799)"/>
<path fill-rule="evenodd" clip-rule="evenodd" d="M25.0681 5.62099C27.8129 7.20735 29.6273 9.21363 29.1156 10.1001C28.6038 10.9866 25.9753 10.4267 23.2305 8.8287C20.4857 7.23068 18.6713 5.23607 19.1831 4.34957C19.6948 3.46307 22.3233 4.03463 25.0681 5.62099Z" fill="url(#paint17_radial_131_799)"/>
<path fill-rule="evenodd" clip-rule="evenodd" d="M27.8013 10.5084C26.0951 10.399 24.4454 9.85283 23.0095 8.92201C22.3991 8.57248 21.8124 8.18281 21.2533 7.75557C21.1197 7.9361 20.9141 8.04904 20.6905 8.06474C20.4669 8.08044 20.2476 7.99732 20.0903 7.83722C19.6826 7.45989 19.5608 6.86351 19.7879 6.35584C19.1482 5.58599 18.8923 4.89779 19.1482 4.45455C19.146 4.42737 19.146 4.40007 19.1482 4.37289C18.8225 5.24773 20.6951 7.19568 23.4399 8.78204C24.7774 9.59763 26.2389 10.1886 27.7664 10.5317L27.8013 10.5084Z" fill="white"/>
<path fill-rule="evenodd" clip-rule="evenodd" d="M27.5454 9.03866C27.1151 9.54023 25.4054 9.14364 23.6376 8.11717C21.8697 7.09071 20.7532 5.88927 20.8695 5.24773C21.5419 3.48231 22.3467 1.77052 23.277 0.127052L29.9297 5.81929C29.1388 6.9274 28.4061 8.03552 27.5454 9.03866Z" fill="#8E633F"/>
<path style="mix-blend-mode:screen" fill-rule="evenodd" clip-rule="evenodd" d="M27.5803 8.38545C27.1965 8.8287 25.6264 8.45544 23.9865 7.49896C22.3466 6.54248 21.3231 5.45769 21.4161 4.88613C22.0058 3.32192 22.7134 1.80504 23.5329 0.348675L29.604 5.53934C28.8829 6.53081 28.3479 7.48729 27.5803 8.38545Z" fill="url(#paint18_radial_131_799)"/>
<path style="mix-blend-mode:screen" fill-rule="evenodd" clip-rule="evenodd" d="M26.4405 3.18313C25.0914 5.51601 23.8004 6.68245 22.7653 5.8776C21.7302 5.07276 22.3466 2.86819 23.6957 0.52364L26.4405 3.18313Z" fill="url(#paint19_radial_131_799)"/>
<path fill-rule="evenodd" clip-rule="evenodd" d="M23.6841 5.03777C24.1301 5.07459 24.471 5.45222 24.4633 5.90093C24.4868 6.35839 24.2411 6.78728 23.8353 6.99739C23.4747 7.11403 23.056 6.49582 22.9746 5.92426C22.8932 5.35271 23.2305 4.94445 23.6841 5.03777Z" fill="url(#paint20_linear_131_799)"/>
<path fill-rule="evenodd" clip-rule="evenodd" d="M27.9641 6.51915C28.1432 6.99633 27.9925 7.53485 27.592 7.84889C27.1793 8.06962 26.6696 7.97799 26.3591 7.62727C26.1265 7.34732 26.3591 6.82242 26.7662 6.51915C27.1733 6.21587 27.7432 6.18088 27.9293 6.51915H27.9641Z" fill="url(#paint21_linear_131_799)"/>
<g style="mix-blend-mode:screen" opacity="0.25">
<path fill-rule="evenodd" clip-rule="evenodd" d="M27.1384 2.02835C25.2426 0.558632 23.5562 -0.397849 23.2073 0.220365C23.0212 0.546968 23.2073 1.2235 23.7074 2.01668C23.3672 2.44282 23.3672 3.0486 23.7074 3.47474C24.0381 3.90668 24.6411 4.01755 25.103 3.73135C25.3124 3.94131 25.545 4.13961 25.7892 4.34957C27.7315 5.94759 29.4877 6.53081 29.9181 5.81928C30.3484 5.10775 29.0342 3.50973 27.1384 2.02835Z" fill="#EDCAA6"/>
</g>
<path fill-rule="evenodd" clip-rule="evenodd" d="M27.2081 1.90004C29.069 3.45141 30.2902 5.20107 29.9297 5.81928C29.5691 6.4375 27.778 5.69098 25.9172 4.15127C24.0563 2.61157 22.8467 0.850244 23.2072 0.220366C23.5678 -0.409512 25.3589 0.360339 27.2081 1.90004Z" fill="#936E4E"/>
<path style="mix-blend-mode:screen" fill-rule="evenodd" clip-rule="evenodd" d="M26.615 1.57344C28.1386 2.84486 29.1388 4.29124 28.8481 4.80448C28.5573 5.31771 27.0802 4.6995 25.545 3.42808C24.0098 2.15666 23.0212 0.710271 23.3119 0.197037C23.6027 -0.316198 25.0798 0.302016 26.615 1.57344Z" fill="url(#paint22_radial_131_799)"/>
<path fill-rule="evenodd" clip-rule="evenodd" d="M25.6264 1.08353C26.2079 1.51511 26.5917 2.01668 26.4754 2.24997C26.3591 2.48326 25.8125 2.24997 25.2426 1.80672C24.6727 1.36348 24.2773 0.873572 24.3819 0.640284C24.4866 0.406995 25.0449 0.640283 25.6264 1.08353Z" fill="url(#paint23_linear_131_799)"/>
<path fill-rule="evenodd" clip-rule="evenodd" d="M26.8825 3.33476C27.2896 3.63804 27.5571 4.02296 27.4524 4.18626C27.3477 4.34956 26.9523 4.18626 26.5336 3.92965C26.1149 3.67303 25.859 3.22978 25.9521 3.06648C26.0451 2.90318 26.4638 3.06648 26.8825 3.33476Z" fill="url(#paint24_linear_131_799)"/>
<path fill-rule="evenodd" clip-rule="evenodd" d="M28.9527 4.08129C29.4063 4.45455 29.6971 4.90946 29.5924 5.09609C29.4877 5.28272 29.0225 5.09609 28.5573 4.76949C28.0921 4.44288 27.8129 3.92965 27.9176 3.74302C28.0223 3.55639 28.4875 3.74302 28.9527 4.08129Z" fill="url(#paint25_linear_131_799)"/>
<path fill-rule="evenodd" clip-rule="evenodd" d="M24.9751 3.52139C24.5892 3.7432 24.0972 3.61336 23.8702 3.22978C23.5534 2.91584 23.5234 2.41302 23.8004 2.06334C24.0795 1.85338 24.6262 2.06334 24.9634 2.49493C25.3007 2.92651 25.2542 3.3231 24.9634 3.53306L24.9751 3.52139Z" fill="url(#paint26_linear_131_799)"/>
<path style="mix-blend-mode:screen" fill-rule="evenodd" clip-rule="evenodd" d="M22.742 30.9094C21.6828 33.6541 19.5234 35.8268 16.7901 36.898C14.0569 37.9692 11.0008 37.8405 8.36667 36.5433C13.69 36.5218 18.8146 34.5134 22.742 30.9094Z" fill="url(#paint27_radial_131_799)"/>
<defs>
<radialGradient id="paint0_radial_131_799" cx="0" cy="0" r="1" gradientUnits="userSpaceOnUse" gradientTransform="translate(-1.31839 26.1853) scale(20.0976 20.0976)">
<stop stop-color="white"/>
<stop offset="1" stop-color="#5E689E"/>
</radialGradient>
<radialGradient id="paint1_radial_131_799" cx="0" cy="0" r="1" gradientUnits="userSpaceOnUse" gradientTransform="translate(4.11949 29.883) scale(16.3874 16.3874)">
<stop stop-color="#95C11F"/>
<stop offset="1" stop-color="#3D8C00"/>
</radialGradient>
<radialGradient id="paint2_radial_131_799" cx="0" cy="0" r="1" gradientUnits="userSpaceOnUse" gradientTransform="translate(5.77833 27.0252) scale(20.9466 20.9466)">
<stop stop-color="#79A600"/>
<stop offset="0.61" stop-color="#007011"/>
<stop offset="0.89" stop-color="#95C11F"/>
</radialGradient>
<radialGradient id="paint3_radial_131_799" cx="0" cy="0" r="1" gradientUnits="userSpaceOnUse" gradientTransform="translate(3.94508 31.9942) scale(19.6673 19.6672)">
<stop stop-color="#468A00"/>
<stop offset="1"/>
</radialGradient>
<radialGradient id="paint4_radial_131_799" cx="0" cy="0" r="1" gradientUnits="userSpaceOnUse" gradientTransform="translate(2.24665 32.7058) scale(17.0853 17.0853)">
<stop stop-color="#64AA19"/>
<stop offset="1"/>
</radialGradient>
<radialGradient id="paint5_radial_131_799" cx="0" cy="0" r="1" gradientUnits="userSpaceOnUse" gradientTransform="translate(6.71399 24.1441) scale(13.9683 13.9683)">
<stop stop-color="#95C11F"/>
<stop offset="1"/>
</radialGradient>
<radialGradient id="paint6_radial_131_799" cx="0" cy="0" r="1" gradientUnits="userSpaceOnUse" gradientTransform="translate(63.1769 25.3572) scale(12.8285 12.8285)">
<stop stop-color="#95C11F"/>
<stop offset="1"/>
</radialGradient>
<radialGradient id="paint7_radial_131_799" cx="0" cy="0" r="1" gradientUnits="userSpaceOnUse" gradientTransform="translate(11.2394 12.1923) scale(45.4405 45.4405)">
<stop stop-color="#CCF0EF"/>
<stop offset="1" stop-color="#5E73E6"/>
</radialGradient>
<linearGradient id="paint8_linear_131_799" x1="22.9615" y1="15.2325" x2="25.3647" y2="31.4066" gradientUnits="userSpaceOnUse">
<stop stop-color="white"/>
<stop offset="1"/>
</linearGradient>
<radialGradient id="paint9_radial_131_799" cx="0" cy="0" r="1" gradientUnits="userSpaceOnUse" gradientTransform="translate(13.5074 6.98555) scale(13.4798 13.4798)">
<stop stop-color="white"/>
<stop offset="1"/>
</radialGradient>
<radialGradient id="paint10_radial_131_799" cx="0" cy="0" r="1" gradientUnits="userSpaceOnUse" gradientTransform="translate(17.7874 7.89312) scale(7.24583 7.24582)">
<stop stop-color="white"/>
<stop offset="1"/>
</radialGradient>
<radialGradient id="paint11_radial_131_799" cx="0" cy="0" r="1" gradientUnits="userSpaceOnUse" gradientTransform="translate(21.3245 25.9371) scale(12.2805 12.2805)">
<stop stop-opacity="0"/>
<stop offset="1" stop-color="white" stop-opacity="0.357517"/>
</radialGradient>
<radialGradient id="paint12_radial_131_799" cx="0" cy="0" r="1" gradientUnits="userSpaceOnUse" gradientTransform="translate(12.4955 25.5626) scale(19.9464 19.9464)">
<stop stop-color="#ABABAB" stop-opacity="0.117024"/>
<stop offset="1" stop-color="white" stop-opacity="0.232709"/>
</radialGradient>
<radialGradient id="paint13_radial_131_799" cx="0" cy="0" r="1" gradientUnits="userSpaceOnUse" gradientTransform="translate(19.0203 7.45068) scale(5.21048)">
<stop stop-color="white"/>
<stop offset="1"/>
</radialGradient>
<radialGradient id="paint14_radial_131_799" cx="0" cy="0" r="1" gradientUnits="userSpaceOnUse" gradientTransform="translate(15.3095 4.31458) scale(16.0153)">
<stop stop-color="#CCF0EF"/>
<stop offset="1" stop-color="#364E82"/>
</radialGradient>
<linearGradient id="paint15_linear_131_799" x1="2.12107" y1="34.9899" x2="10.6423" y2="40.0983" gradientUnits="userSpaceOnUse">
<stop stop-color="white"/>
<stop offset="1"/>
</linearGradient>
<radialGradient id="paint16_radial_131_799" cx="0" cy="0" r="1" gradientUnits="userSpaceOnUse" gradientTransform="translate(22.2535 4.81285) scale(6.2456 6.24559)">
<stop/>
<stop offset="1" stop-color="white"/>
</radialGradient>
<radialGradient id="paint17_radial_131_799" cx="0" cy="0" r="1" gradientUnits="userSpaceOnUse" gradientTransform="translate(12.5416 4.13961) scale(18.667 18.667)">
<stop stop-color="#F2FFFF"/>
<stop offset="1" stop-color="#6A79C2"/>
</radialGradient>
<radialGradient id="paint18_radial_131_799" cx="0" cy="0" r="1" gradientUnits="userSpaceOnUse" gradientTransform="translate(23.5096 1.80109) scale(7.85061 7.85061)">
<stop stop-color="#CA9E67"/>
<stop offset="1"/>
</radialGradient>
<radialGradient id="paint19_radial_131_799" cx="0" cy="0" r="1" gradientUnits="userSpaceOnUse" gradientTransform="translate(23.6957 0.585919) scale(5.73385 5.73386)">
<stop stop-color="#CA9E67"/>
<stop offset="1"/>
</radialGradient>
<linearGradient id="paint20_linear_131_799" x1="24.069" y1="6.58913" x2="23.0563" y2="5.58258" gradientUnits="userSpaceOnUse">
<stop stop-color="#B07A38"/>
<stop offset="1" stop-color="#704824"/>
</linearGradient>
<linearGradient id="paint21_linear_131_799" x1="27.7781" y1="7.63472" x2="26.7344" y2="6.58801" gradientUnits="userSpaceOnUse">
<stop stop-color="#B07A38"/>
<stop offset="1" stop-color="#704824"/>
</linearGradient>
<radialGradient id="paint22_radial_131_799" cx="0" cy="0" r="1" gradientUnits="userSpaceOnUse" gradientTransform="translate(21.4096 -1.96088) scale(8.44377 8.44377)">
<stop stop-color="#CA9E67"/>
<stop offset="1"/>
</radialGradient>
<linearGradient id="paint23_linear_131_799" x1="24.3703" y1="1.4218" x2="26.4987" y2="1.4218" gradientUnits="userSpaceOnUse">
<stop stop-color="#6B4E35"/>
<stop offset="1" stop-color="#87643A"/>
</linearGradient>
<linearGradient id="paint24_linear_131_799" x1="25.9404" y1="3.62637" x2="27.4757" y2="3.62637" gradientUnits="userSpaceOnUse">
<stop stop-color="#6B4E35"/>
<stop offset="1" stop-color="#87643A"/>
</linearGradient>
<linearGradient id="paint25_linear_131_799" x1="27.8943" y1="4.44288" x2="29.6157" y2="4.44288" gradientUnits="userSpaceOnUse">
<stop stop-color="#6B4E35"/>
<stop offset="1" stop-color="#87643A"/>
</linearGradient>
<linearGradient id="paint26_linear_131_799" x1="24.9882" y1="3.47474" x2="23.7097" y2="2.19252" gradientUnits="userSpaceOnUse">
<stop stop-color="#B07A38"/>
<stop offset="1" stop-color="#704824"/>
</linearGradient>
<radialGradient id="paint27_radial_131_799" cx="0" cy="0" r="1" gradientUnits="userSpaceOnUse" gradientTransform="translate(54.1294 28.4249) scale(13.8171 13.8171)">
<stop stop-color="#95C11F"/>
<stop offset="1"/>
</radialGradient>
</defs>
</svg>
