<?xml version="1.0" encoding="UTF-8"?>
<svg width="18px" height="18px" viewBox="0 0 18 18" version="1.1" xmlns="http://www.w3.org/2000/svg" xmlns:xlink="http://www.w3.org/1999/xlink">
    <title>7A1BD8F8-713A-4061-A7AA-1177FFE8E8E0</title>
    <g id="Ready-Flow-Magia-Janis-(D)" stroke="none" stroke-width="1" fill="none" fill-rule="evenodd">
        <g id="10.3" transform="translate(-449.000000, -360.000000)" fill="#FFFFFF" fill-rule="nonzero">
            <g id="Group-17" transform="translate(416.000000, 345.000000)">
                <g id="Group-25" transform="translate(33.000000, 12.000000)">
                    <g id="maximize" transform="translate(0.000000, 3.000000)">
                        <path d="M17.1,6.3 C16.6029437,6.3 16.2,5.89705627 16.2,5.4 L16.2,1.8 L12.6,1.8 C12.1029437,1.8 11.7,1.39705627 11.7,0.9 C11.7,0.402943725 12.1029437,0 12.6,0 L16.2,0 C17.1941125,0 18,0.80588745 18,1.8 L18,5.4 C18,5.89705627 17.5970563,6.3 17.1,6.3 Z" id="Path"></path>
                        <path d="M16.2,18 L12.6,18 C12.1029437,18 11.7,17.5970563 11.7,17.1 C11.7,16.6029437 12.1029437,16.2 12.6,16.2 L16.2,16.2 L16.2,12.6 C16.2,12.1029437 16.6029437,11.7 17.1,11.7 C17.5970563,11.7 18,12.1029437 18,12.6 L18,16.2 C18,17.1941125 17.1941125,18 16.2,18 Z" id="Path"></path>
                        <path d="M5.4,18 L1.8,18 C0.80588745,18 0,17.1941125 0,16.2 L0,12.6 C0,12.1029437 0.402943725,11.7 0.9,11.7 C1.39705627,11.7 1.8,12.1029437 1.8,12.6 L1.8,16.2 L5.4,16.2 C5.89705627,16.2 6.3,16.6029437 6.3,17.1 C6.3,17.5970563 5.89705627,18 5.4,18 Z" id="Path"></path>
                        <path d="M0.9,6.3 C0.402943725,6.3 0,5.89705627 0,5.4 L0,1.8 C0,0.80588745 0.80588745,0 1.8,0 L5.4,0 C5.89705627,0 6.3,0.402943725 6.3,0.9 C6.3,1.39705627 5.89705627,1.8 5.4,1.8 L1.8,1.8 L1.8,5.4 C1.8,5.89705627 1.39705627,6.3 0.9,6.3 Z" id="Path"></path>
                    </g>
                </g>
            </g>
        </g>
    </g>
</svg>