<svg id="Line" enable-background="new 0 0 100 100" height="512" fill="#FFFFFF" viewBox="0 0 100 100" width="512" xmlns="http://www.w3.org/2000/svg"><path d="m90.6 54c-1.9-20.8-19.4-37.1-40.6-37.1s-38.7 16.3-40.6 37.1c-.1.6-.2 7.9-.2 7.9 0 10.3 17.9 18.4 40.8 18.4s40.8-8.1 40.8-18.4c0 0-.1-7.3-.2-7.9zm-40.6-12.2c4.4 0 8.6.3 12.4.9 1 4.2 1.5 8.5 1.7 12.7-4.2.7-9 1.2-14.1 1.2s-9.9-.4-14.1-1.2c.2-4.2.7-8.5 1.7-12.7 3.8-.5 8-.9 12.4-.9zm-11.1-3.8c.2-.8.5-1.6.8-2.4 3.3.4 6.7.7 10.3.7s7-.2 10.4-.7c.3.8.5 1.6.8 2.4-3.5-.4-7.3-.7-11.1-.7-4 0-7.7.3-11.2.7zm29.7 16.5c-.2-3.6-.6-7.2-1.3-10.9 6.1 1.3 11 3.3 14.3 5.6-3.1 2-7.5 3.9-13 5.3zm-37.2 0c-5.6-1.3-10-3.2-13-5.3 3.3-2.3 8.2-4.3 14.3-5.6-.7 3.6-1.1 7.3-1.3 10.9zm-17.5.1c.2-.8.6-1.5 1.1-2.3 3.9 2.9 9.6 5.3 16.4 6.8.1 3.1.4 6 1 8.6-11.1-2.5-18.1-7.1-18.6-11.5 0-.5 0-1.1.1-1.6zm23.4 14c-.8-2.6-1.2-5.5-1.4-8.7 4.4.8 9.2 1.1 14.1 1.1s9.7-.4 14.1-1.1c-.1 3.2-.6 6.1-1.4 8.7-3.9.6-8.1.9-12.7.9s-8.8-.3-12.7-.9zm31.3-9.5c6.8-1.5 12.5-3.8 16.4-6.8.6.8.9 1.5 1.1 2.3 0 .5.1 1.1.1 1.6-.5 4.4-7.5 9-18.6 11.5.6-2.6.9-5.5 1-8.6zm15.6-13.5c-4.3-3-10.6-5.4-18-6.8-.4-1.4-.8-2.7-1.2-4 3.7-.8 7.2-1.9 10.2-3.2 4 3.8 7.1 8.6 9 14zm-20.9-15.1c-1.2-2.9-2.6-5.6-4.3-8 4.5 1.1 8.6 3.1 12.2 5.7-2.4 1-5 1.8-7.9 2.3zm-11.1-9c2.4 2.3 4.6 5.7 6.4 9.8-2.8.3-5.7.5-8.6.5s-5.8-.2-8.6-.5c1.8-4 4-7.4 6.4-9.8.7 0 1.5-.1 2.2-.1s1.5 0 2.2.1zm-15.5 9c-2.8-.6-5.5-1.3-7.9-2.2 3.6-2.6 7.7-4.6 12.2-5.7-1.7 2.3-3.1 5-4.3 7.9zm-11.9 1.1c3 1.4 6.5 2.4 10.2 3.2-.4 1.3-.8 2.6-1.2 4-7.4 1.4-13.7 3.8-18 6.8 1.9-5.4 5-10.2 9-14zm25.2 44.2c-17.8 0-31.1-5.1-35-10.6 7 5.4 19.9 8.9 35 8.9s28-3.5 35-8.9c-3.9 5.5-17.2 10.6-35 10.6z"/></svg>