<?xml version="1.0" encoding="UTF-8"?>
<svg width="20px" height="22px" viewBox="0 0 20 22" version="1.1" xmlns="http://www.w3.org/2000/svg" xmlns:xlink="http://www.w3.org/1999/xlink">
    <title>8B419746-FEA8-4E9D-A991-21BA61845B74</title>
    <defs>
        <linearGradient x1="36.9900743%" y1="103.233037%" x2="76.5539081%" y2="13.4277755%" id="linearGradient-1">
            <stop stop-color="#E86F0C" offset="0%"></stop>
            <stop stop-color="#FC940D" offset="69%"></stop>
            <stop stop-color="#E86F0C" offset="100%"></stop>
        </linearGradient>
        <radialGradient cx="28.026322%" cy="46.8050041%" fx="28.026322%" fy="46.8050041%" r="100.247998%" gradientTransform="translate(0.280263,0.468050),scale(1.000000,0.640183),translate(-0.280263,-0.468050)" id="radialGradient-2">
            <stop stop-color="#FFF369" offset="0%"></stop>
            <stop stop-color="#FAEF67" offset="11%"></stop>
            <stop stop-color="#EDE262" offset="23%"></stop>
            <stop stop-color="#D6CC58" offset="36%"></stop>
            <stop stop-color="#B7AE4B" offset="50%"></stop>
            <stop stop-color="#8E873B" offset="64%"></stop>
            <stop stop-color="#5C5826" offset="78%"></stop>
            <stop stop-color="#23210E" offset="92%"></stop>
            <stop stop-color="#000000" offset="100%"></stop>
        </radialGradient>
        <radialGradient cx="20.7956818%" cy="39.9605991%" fx="20.7956818%" fy="39.9605991%" r="87.4900732%" gradientTransform="translate(0.207957,0.399606),scale(1.000000,0.785258),translate(-0.207957,-0.399606)" id="radialGradient-3">
            <stop stop-color="#FFFFFF" offset="51%"></stop>
            <stop stop-color="#E6DDC3" offset="68%"></stop>
            <stop stop-color="#B09444" offset="100%"></stop>
        </radialGradient>
        <radialGradient cx="29.2534458%" cy="2.8924294%" fx="29.2534458%" fy="2.8924294%" r="101.233212%" gradientTransform="translate(0.292534,0.028924),scale(1.000000,0.876919),translate(-0.292534,-0.028924)" id="radialGradient-4">
            <stop stop-color="#FCF80D" offset="0%"></stop>
            <stop stop-color="#FC9C0D" offset="100%"></stop>
        </radialGradient>
        <radialGradient cx="-13.7950073%" cy="-21.5432087%" fx="-13.7950073%" fy="-21.5432087%" r="163.09961%" gradientTransform="translate(-0.137950,-0.215432),scale(1.000000,0.858213),translate(0.137950,0.215432)" id="radialGradient-5">
            <stop stop-color="#FCF80D" offset="0%"></stop>
            <stop stop-color="#F78A0C" offset="100%"></stop>
        </radialGradient>
        <radialGradient cx="80.1004281%" cy="62.4505957%" fx="80.1004281%" fy="62.4505957%" r="97.7823793%" gradientTransform="translate(0.801004,0.624506),scale(1.000000,0.846537),translate(-0.801004,-0.624506)" id="radialGradient-6">
            <stop stop-color="#FFFFFF" offset="51%"></stop>
            <stop stop-color="#FFE2C3" offset="69%"></stop>
            <stop stop-color="#FFA84B" offset="100%"></stop>
        </radialGradient>
        <linearGradient x1="24.1900799%" y1="88.7444916%" x2="62.3443148%" y2="-3.60070208%" id="linearGradient-7">
            <stop stop-color="#FC940D" offset="0%"></stop>
            <stop stop-color="#E86F0C" offset="100%"></stop>
        </linearGradient>
        <radialGradient cx="94.3188624%" cy="66.2834992%" fx="94.3188624%" fy="66.2834992%" r="109.527047%" gradientTransform="translate(0.943189,0.662835),scale(1.000000,0.736079),translate(-0.943189,-0.662835)" id="radialGradient-8">
            <stop stop-color="#FFFFFF" offset="51%"></stop>
            <stop stop-color="#E6DDC3" offset="68%"></stop>
            <stop stop-color="#B09444" offset="100%"></stop>
        </radialGradient>
        <radialGradient cx="-43.230319%" cy="-51.9710145%" fx="-43.230319%" fy="-51.9710145%" r="170.637634%" gradientTransform="translate(-0.432303,-0.519710),scale(1.000000,0.990649),translate(0.432303,0.519710)" id="radialGradient-9">
            <stop stop-color="#FFF369" offset="0%"></stop>
            <stop stop-color="#FAEF67" offset="11%"></stop>
            <stop stop-color="#EDE262" offset="23%"></stop>
            <stop stop-color="#D6CC58" offset="36%"></stop>
            <stop stop-color="#B7AE4B" offset="50%"></stop>
            <stop stop-color="#8E873B" offset="64%"></stop>
            <stop stop-color="#5C5826" offset="78%"></stop>
            <stop stop-color="#23210E" offset="92%"></stop>
            <stop stop-color="#000000" offset="100%"></stop>
        </radialGradient>
        <radialGradient cx="50.0006571%" cy="49.9107798%" fx="50.0006571%" fy="49.9107798%" r="49.9992641%" gradientTransform="translate(0.500007,0.499108),scale(1.000000,0.972028),translate(-0.500007,-0.499108)" id="radialGradient-10">
            <stop stop-color="#FFF200" offset="0%"></stop>
            <stop stop-color="#E1D600" offset="7%"></stop>
            <stop stop-color="#A69E00" offset="21%"></stop>
            <stop stop-color="#746E00" offset="36%"></stop>
            <stop stop-color="#4A4600" offset="50%"></stop>
            <stop stop-color="#2A2800" offset="64%"></stop>
            <stop stop-color="#131200" offset="77%"></stop>
            <stop stop-color="#050500" offset="89%"></stop>
            <stop stop-color="#000000" offset="100%"></stop>
        </radialGradient>
    </defs>
    <g id="Ready-Flow--(-Janis-)" stroke="none" stroke-width="1" fill="none" fill-rule="evenodd">
        <g id="14" transform="translate(-1335.000000, -409.000000)">
            <g id="Group-5" transform="translate(1196.000000, 375.000000)">
                <g id="Group-4" transform="translate(138.000000, 0.000000)">
                    <g id="Group-118" transform="translate(1.500000, 34.000000)">
                        <path d="M16.1416855,4.17011127 C19.3459197,6.66630463 19.9667846,11.9670447 17.4405065,16.4675345 C14.9142283,20.9680243 10.1471271,23.0751051 6.44334643,21.4599212 C5.46277017,21.0326957 4.50936059,20.5422726 3.58879483,19.9915721 L8.53430548,11.1814779 L13.4869525,2.3713837 C14.4116145,2.90915767 15.2986793,3.51264603 16.1416855,4.17745301 L16.1416855,4.17011127 Z" id="Path" fill="url(#linearGradient-1)"></path>
                        <path d="M16.0417762,5.35947399 C18.2540537,7.09212585 19.0033735,10.9318586 17.6902797,14.2870361 C16.377186,17.6422137 13.4655434,19.3087898 10.9892199,18.2515785 C10.3279752,17.9697244 9.68653917,17.6410035 9.06953391,17.2677847 L11.6457667,10.660214 L14.2148632,4.08935207 C14.848602,4.46028488 15.4588013,4.87225184 16.0417762,5.32276526 L16.0417762,5.35947399 Z" id="Path" fill="url(#radialGradient-2)" style="mix-blend-mode: screen;"></path>
                        <path d="M16.3629132,5.17593036 C19.08901,7.31237821 19.6956022,11.9229942 17.6403251,15.8728531 C15.7349119,19.5437257 12.1667224,21.437896 9.14803408,20.600937 C7.29151779,21.1840946 5.28419775,20.9640662 3.58879483,19.9915721 C4.50936059,20.5422726 5.46277017,21.0326957 6.44334643,21.4599212 C10.1471271,23.0604216 14.9213647,20.9606825 17.4405065,16.4675345 C19.9596483,11.9743864 19.3459197,6.66630463 16.1416855,4.17011127 C15.3004376,3.50857248 14.4158025,2.90756796 13.4940889,2.3713837 C14.4836798,2.9673603 15.3109174,3.81082756 15.8990486,4.82352659 L16.3629132,5.17593036 L16.3629132,5.17593036 Z" id="Path" fill="url(#radialGradient-3)" style="mix-blend-mode: multiply;"></path>
                        <path d="M14.0364537,2.76783794 C17.6688706,4.92631102 18.4752814,10.4986956 15.8276848,15.212096 C13.1800882,19.9254964 8.09898636,21.9885268 4.46656945,19.8300538 C0.834152539,17.6715807 0.0277417118,12.0991961 2.66820194,7.3931374 C5.30866217,2.68707874 10.4040368,0.609364851 14.0364537,2.76783794 L14.0364537,2.76783794 Z" id="Path" fill="#FCCE3A" style="mix-blend-mode: screen;"></path>
                        <path d="M13.4869525,2.36404195 C17.3263244,4.6473247 18.2255082,10.4399617 15.492275,15.3075387 C12.7590419,20.1751158 7.43530312,22.2675132 3.58879483,19.9915721 C-0.257713448,17.7156311 -1.14976082,11.9156524 1.58347233,7.04807538 C4.31670549,2.18049832 9.64044423,0.0807591971 13.4869525,2.36404195 Z" id="Path" fill="url(#radialGradient-4)"></path>
                        <path d="M9.51912578,18.295629 C9.44347923,18.5409006 9.24853621,18.7275262 9.0053065,18.7875259 C8.79513233,18.8560927 8.56595217,18.8208619 8.38444152,18.6920832 C7.2578439,18.9861345 6.06754275,18.8774002 5.00893426,18.38373 C1.96170042,16.9153809 0.976880119,12.4589416 2.80379314,8.42832348 C3.67923751,6.39457966 5.24441308,4.75826494 7.20693899,3.82504924 C7.25426048,3.5322581 7.4682905,3.29758273 7.74930379,3.23036788 C8.00318388,3.15284319 8.27791677,3.22632933 8.46294169,3.42125326 C8.86389937,3.33397714 9.27365854,3.29699898 9.6832625,3.31112708 C9.79850044,3.15181836 9.99554644,3.07941962 10.182809,3.12758345 C10.3400942,3.15635216 10.4749801,3.25974758 10.5467644,3.40656977 C10.9185829,3.4855313 11.2802109,3.60872163 11.6243576,3.77365703 C14.6787278,5.24200606 15.6635481,9.69110365 13.8366351,13.7290635 C12.9702932,15.7329299 11.4365698,17.3524495 9.51198941,18.295629 L9.51912578,18.295629 Z" id="Path" fill="#FFFCE4" style="mix-blend-mode: screen;"></path>
                        <path d="M12.1453133,4.15542778 C14.9998649,5.86605441 15.6207298,10.3298355 13.4869525,14.1328595 C11.3531752,17.9358835 7.29971192,19.6244849 4.42375118,17.9212 C1.54779044,16.2179151 0.955470982,11.754134 3.08211192,7.95111004 C5.20875287,4.14808603 9.2764889,2.45214289 12.1453133,4.15542778 Z" id="Path" fill="url(#radialGradient-5)"></path>
                        <path d="M4.67352444,9.44882606 C6.6931197,5.85137092 10.5324916,4.24352872 13.2371792,5.85871266 C13.6232641,6.08542605 13.9744123,6.36997488 14.2790906,6.70301336 C13.8627953,5.62931577 13.1091132,4.72988527 12.1381769,4.14808603 C9.28362528,2.44480115 5.20875287,4.14808603 3.07497555,7.94376829 C0.941198224,11.7394506 1.54779044,16.2105734 4.4166148,17.9138583 C4.62208838,18.0367214 4.83687915,18.1422968 5.05888891,18.2295533 C3.09638468,16.3060161 2.86088418,12.6351435 4.64497893,9.41945908 L4.67352444,9.44882606 Z" id="Path" fill="url(#radialGradient-6)" opacity="0.5" style="mix-blend-mode: multiply;"></path>
                        <path d="M4.05265947,8.51642442 C6.00802732,5.0364372 9.56908044,3.31846883 12.366541,4.36099664 L12.630587,4.47112282 L12.3950865,4.30226268 L12.1667224,4.15542778 C9.31217079,2.45214289 5.23729838,4.15542778 3.10352106,7.95111004 C0.96974374,11.7467923 1.57633596,16.2179151 4.44516031,17.9212 L4.68066082,18.0533514 L4.93757047,18.1708193 C4.8590703,18.1194271 4.78770651,18.0533514 4.70920634,17.9946175 C2.43983781,16.0270297 2.104428,11.9890699 4.05265947,8.51642442 L4.05265947,8.51642442 Z" id="Path" fill="url(#linearGradient-7)"></path>
                        <path d="M10.3540821,4.06732683 C11.0373126,4.02395711 11.7219845,4.12386845 12.366541,4.36099664 L12.630587,4.47112282 L12.3950865,4.30226268 L12.1667224,4.15542778 C9.31217079,2.45214289 5.23729838,4.15542778 3.10352106,7.95111004 C0.96974374,11.7467923 1.57633596,16.2179151 4.44516031,17.9212 L4.68066082,18.0533514 L4.93757047,18.1708193 C4.8590703,18.1194271 4.78770651,18.0533514 4.70920634,17.9946175 C4.36138639,17.6894363 4.05637574,17.3361159 3.8028862,16.9447479 C1.6619725,15.1166533 1.33369907,11.3503381 3.0892483,8.0906032 C4.77343375,4.99238673 7.82780396,3.37720279 10.3469457,4.06732683 L10.3540821,4.06732683 Z" id="Path" fill="url(#radialGradient-8)" style="mix-blend-mode: multiply;"></path>
                        <path d="M12.8089965,5.81466219 C7.7136219,3.428595 2.96079348,10.2197093 3.66015862,14.6247564 C6.47902833,13.5455199 11.160493,11.1667944 12.8089965,5.81466219 Z" id="Path" fill="url(#radialGradient-9)" style="mix-blend-mode: screen;"></path>
                        <path d="M10.0971788,4.14074429 C10.10006,5.81915339 9.11951446,7.33394785 7.61306994,7.97830664 C6.10662543,8.62266543 4.37119786,8.26958728 3.21655828,7.08382264 C2.06191871,5.898058 1.71564327,4.11331766 2.33930818,2.56238261 C2.9629731,1.01144756 4.43365581,0 6.06511835,0 C8.2891764,0 10.0932361,1.85268728 10.0971788,4.14074429 L10.0971788,4.14074429 Z" id="Path" fill="url(#radialGradient-10)" style="mix-blend-mode: screen;"></path>
                    </g>
                </g>
            </g>
        </g>
    </g>
</svg>