<?xml version="1.0" encoding="UTF-8"?>
<svg width="18px" height="18px" viewBox="0 0 18 18" version="1.1" xmlns="http://www.w3.org/2000/svg" xmlns:xlink="http://www.w3.org/1999/xlink">
    <title>BF47494B-C2C2-477F-8C46-5FB560C89613</title>
    <g id="Ready-Flow-Magia-Janis-(D)" stroke="none" stroke-width="1" fill="none" fill-rule="evenodd">
        <g id="10.3" transform="translate(-438.000000, -519.000000)" fill="#FFFFFF" fill-rule="nonzero">
            <g id="Group-17" transform="translate(416.000000, 345.000000)">
                <g id="Connect-wallet" transform="translate(0.000000, 159.000000)">
                    <g id="Group-25" transform="translate(22.000000, 12.000000)">
                        <g id="hammer-(1)" transform="translate(0.000000, 3.000000)">
                            <path d="M10.6471486,0 C9.79854176,0 8.94995801,0.325105536 8.30228837,0.972763785 L7.08528147,2.18977069 C6.98308449,2.29299939 6.96810461,2.45406946 7.04951251,2.57437382 C7.13092041,2.69467818 7.28601154,2.74066411 7.41983912,2.68417903 C7.41983912,2.68417903 9.35905385,1.84948621 10.7368772,3.2273095 C10.9585133,3.44894519 10.9585248,3.79183999 10.7368772,4.01348718 L9.51988186,5.23108055 C9.46266501,5.28816439 9.43050971,5.36566657 9.43050971,5.44648941 C9.43050971,5.52731226 9.46266501,5.60481444 9.51988186,5.66189828 L11.3453811,7.4879951 C11.4640618,7.60597186 11.6557357,7.60597186 11.7744164,7.4879951 L12.3835063,6.87949165 C12.5924814,6.67052809 12.9074446,6.66114473 13.1286893,6.84625894 L15.3939178,4.58161692 C15.2085966,4.36037221 15.217543,4.04551247 15.4265756,3.83644541 C15.5445523,3.71776469 15.5445523,3.52609078 15.4265756,3.40741006 L12.9919868,0.972809782 C12.344317,0.325140034 11.4957217,0 10.6471259,0 L10.6471486,0 Z M16.4243271,4.53403321 C16.3451686,4.53498241 16.2694964,4.56674454 16.2133742,4.62257709 L13.170282,7.66508287 C13.1127012,7.72221358 13.0803146,7.79997006 13.0803146,7.88108394 C13.0803146,7.96219782 13.1127012,8.0399543 13.170282,8.09708502 L14.2613036,9.18810663 C14.6151341,9.54194868 15.1987418,9.5402238 15.5525839,9.18580679 L17.7346271,7.00376356 C18.0884576,6.64992151 18.0884576,6.06810771 17.7346271,5.71426566 L16.6436055,4.62324405 C16.5856315,4.56495024 16.5065357,4.53259682 16.4243271,4.53352975 L16.4243271,4.53403321 Z M9.17819435,6.18125989 L7.54462873,7.81482552 C7.6173037,7.86519204 7.68700027,7.92153814 7.75141882,7.98596819 L9.02012627,9.25526199 C9.08475181,9.31988752 9.14075282,9.38987169 9.19125733,9.46265016 L10.8254208,7.82848657 L9.17819435,6.18125989 Z M6.67585226,8.15175094 C6.44153306,8.15206272 6.20683405,8.24098607 6.02991889,8.41797034 L0.529055435,13.9194317 C-0.176351812,14.624839 -0.176351812,15.7740006 0.529055435,16.4794078 C1.23446274,17.1848151 2.38362434,17.1848151 3.08903171,16.4794078 L8.58989477,10.977958 C8.94372544,10.6241159 8.94372544,10.0393238 8.58989477,9.68548176 L7.32119928,8.41619947 C7.14428377,8.23927269 6.91018295,8.15136126 6.67585226,8.15175094 L6.67585226,8.15175094 Z" id="path6087"></path>
                        </g>
                    </g>
                </g>
            </g>
        </g>
    </g>
</svg>