<?xml version="1.0" encoding="UTF-8"?>
<svg width="18px" height="18px" viewBox="0 0 18 18" version="1.1" xmlns="http://www.w3.org/2000/svg" xmlns:xlink="http://www.w3.org/1999/xlink">
    <title>ACEBA781-D9FC-4D60-B789-68099A8C5CA5</title>
    <g id="Ready-Flow-Magia-Janis-(D)" stroke="none" stroke-width="1" fill="none" fill-rule="evenodd">
        <g id="10.3" transform="translate(-477.000000, -466.000000)" fill="#FFFFFF" fill-rule="nonzero">
            <g id="Group-17" transform="translate(416.000000, 345.000000)">
                <g id="Connect-wallet" transform="translate(0.000000, 106.000000)">
                    <g id="Group-27" transform="translate(61.000000, 12.000000)">
                        <g id="move" transform="translate(0.000000, 3.000000)">
                            <polygon id="Path" points="5.77369974 4.86678654 12.2262651 4.86678654 9 0"></polygon>
                            <polygon id="Path" points="9 18 12.2262651 13.1332486 5.77369974 13.1332486"></polygon>
                            <polygon id="Path" points="4.86678654 12.2263003 4.86678654 5.77373493 0 9"></polygon>
                            <polygon id="Path" points="13.1332135 5.77373493 13.1332135 12.2263003 18 9"></polygon>
                            <path d="M11.480308,9 C11.480308,7.63234759 10.3676524,6.51969196 9,6.51969196 C7.63234759,6.51969196 6.51969196,7.63234759 6.51969196,9 C6.51969196,10.3676524 7.63234759,11.480308 9,11.480308 C10.3676524,11.480308 11.480308,10.3676524 11.480308,9 Z" id="Path"></path>
                        </g>
                    </g>
                </g>
            </g>
        </g>
    </g>
</svg>