<?xml version="1.0" encoding="UTF-8"?>
<svg width="61px" height="60px" viewBox="0 0 61 60" version="1.1" xmlns="http://www.w3.org/2000/svg" xmlns:xlink="http://www.w3.org/1999/xlink">
    <title>30FCFEF5-56C4-4F7D-83EF-50AAD7B747E8</title>
    <g id="Ready-Flow-Magia-Janis-(D)" stroke="none" stroke-width="1" fill="none" fill-rule="evenodd">
        <g id="6.1" transform="translate(-770.000000, -281.000000)">
            <g id="Group-64" transform="translate(520.000000, 215.000000)">
                <g id="Group-37" transform="translate(250.500000, 66.000000)">
                    <g id="Group-34" fill-rule="nonzero">
                        <g id="nft-(1)">
                            <path d="M48.4456651,11.5538784 L51.2128345,8.78670902 C39.4971418,-2.92890301 20.5023365,-2.92890301 8.7866438,8.78670902 L11.5535523,11.5536175 L48.4456651,11.5538784 Z" id="Path" fill="#885722"></path>
                            <path d="M51.2128345,8.78670902 L48.4456651,11.5538784 L11.5535523,11.5538784 L8.7866438,8.78723076 C-2.92888127,20.5029085 -2.92888127,39.4976132 8.7866438,51.2135518 L11.5536827,48.4462521 L48.4457956,48.4462521 L51.2130953,51.2135518 C56.8392524,45.5874598 60,37.9568025 60,30.0002609 C60,22.0437192 56.8392524,14.4130619 51.2130953,8.78670902 L51.2128345,8.78670902 Z" id="Path" fill="#DEAB54"></path>
                            <path d="M11.5538131,48.4462521 L8.78677424,51.213291 C14.412861,56.8394082 22.0434903,60.0001304 30,60.0001304 C37.9565097,60.0001304 45.587139,56.8394082 51.2132258,51.213291 L48.445926,48.4459912 L11.5538131,48.4462521 Z" id="Path" fill="#885722"></path>
                            <circle id="Oval" fill="#BD9C03" cx="30" cy="30.0001957" r="26.0869133"></circle>
                            <circle id="Oval" fill="#FFC864" cx="30" cy="30.0001957" r="23.4777003"></circle>
                            <path d="M16.6951525,11.7390954 C16.5867706,11.7396288 16.4786031,11.7487881 16.3716747,11.7664867 L11.214292,6.60910393 C10.6703798,7.04605973 10.1425546,7.50171115 9.63081632,7.97605819 L14.7438513,13.0903976 C14.4224703,13.9444915 14.6935857,14.9083418 15.4130964,15.4696499 C16.132607,16.0309579 17.1334577,16.0593998 17.8836836,15.5398583 C18.6339095,15.0203168 18.9593241,14.0734186 18.6869653,13.2024518 C18.4146066,12.3314851 17.6077105,11.7386701 16.6951525,11.7390954 L16.6951525,11.7390954 Z" id="Path" fill="#B97A0A"></path>
                            <path d="M43.3038041,15.913005 C43.9892177,15.9142458 44.6313845,15.5782479 45.02115,15.0144428 C45.4109155,14.4506376 45.4983983,13.7311797 45.2551052,13.0903976 L50.3694445,7.97605819 C49.858141,7.50258071 49.3298811,7.04692929 48.7846646,6.60910393 L43.6272818,11.7664867 C43.5203534,11.7487881 43.4121859,11.7396288 43.3038041,11.7390954 C42.1512117,11.7390954 41.216851,12.6734562 41.216851,13.8260485 C41.216851,14.9786409 42.1512117,15.913005 43.3038041,15.913005 L43.3038041,15.913005 Z" id="Path" fill="#B97A0A"></path>
                            <path d="M45.2551052,46.909472 C45.5764862,46.055378 45.3053708,45.0915278 44.5858601,44.5302197 C43.8663495,43.9689117 42.8654989,43.9404698 42.1152729,44.4600113 C41.365047,44.9795528 41.0396324,45.926451 41.3119912,46.7974177 C41.58435,47.6683844 42.3912461,48.2611994 43.3038041,48.2607741 C43.4121859,48.2602408 43.5203534,48.2510814 43.6272818,48.2333829 L48.7859689,53.39207 C49.3298811,52.9551142 49.8577063,52.4994628 50.3694445,52.0251157 L45.2551052,46.909472 Z" id="Path" fill="#B97A0A"></path>
                            <path d="M16.6951525,44.0868645 C16.0097389,44.0856237 15.367572,44.4216217 14.9778065,44.9854268 C14.5880411,45.5492319 14.5005582,46.2686898 14.7438513,46.909472 L9.62951198,52.0238114 C10.1425546,52.4985932 10.6708146,52.9546794 11.214292,53.39207 L16.3716747,48.2333829 C16.4786031,48.2510814 16.5867706,48.2602408 16.6951525,48.2607741 C17.8477448,48.2607741 18.7821055,47.3264134 18.7821055,46.1738211 C18.7821055,45.0212287 17.8477448,44.0868645 16.6951525,44.0868645 L16.6951525,44.0868645 Z" id="Path" fill="#B97A0A"></path>
                            <g id="Group" transform="translate(0.780256, 0.782403)" fill="#ECAB2C">
                                <path d="M15.9148962,45.3914135 C15.2293556,45.3900039 14.5870259,45.7260508 14.1972774,46.2900225 C13.807529,46.8539942 13.7202863,47.5736495 13.9639864,48.2144132 L6.87408512,55.304445 L3.89430744,55.304445 C3.42202404,54.4864261 2.45919134,54.0876078 1.54680987,54.3320796 C0.634428392,54.5765515 -5.21319048e-16,55.4033547 -5.21319048e-16,56.3479215 C-5.21319048e-16,57.2924883 0.634428392,58.1192915 1.54680987,58.3637634 C2.45919134,58.6082353 3.42202404,58.2094169 3.89430744,57.391398 L7.30621484,57.391398 C7.58296588,57.3914135 7.8483856,57.2814774 8.04408318,57.0857899 L15.5919403,49.5378023 C16.3667836,49.6599228 17.1446306,49.3370212 17.6051914,48.7020571 C18.0657521,48.0670931 18.1311523,47.2274299 17.7744624,46.5288113 C17.4177725,45.8301928 16.6993038,45.3907453 15.9148962,45.3914135 Z" id="Path"></path>
                                <path d="M56.3496119,54.2609684 C55.6045424,54.2611015 54.9162051,54.6589269 54.5441367,55.304445 L51.564359,55.304445 L44.4744577,48.2144132 C44.8178995,47.3226088 44.51872,46.3113281 43.745357,45.7499218 C42.9719939,45.1885154 41.9177801,45.2173291 41.1762374,45.8201408 C40.4346947,46.4229524 40.191201,47.4490654 40.5828433,48.3207786 C40.9744855,49.1924917 41.9033571,49.6918859 42.8465038,49.5378023 L50.3943609,57.0857899 C50.5900585,57.2814774 50.8554782,57.3914081 51.1322293,57.391398 L54.5441367,57.391398 C55.0508218,58.2679058 56.1136627,58.6541331 57.0648603,58.3074075 C58.016058,57.9606819 58.5810376,56.98109 58.404814,55.9841242 C58.2285904,54.9871584 57.3620325,54.2606049 56.3496119,54.2609684 L56.3496119,54.2609684 Z" id="Path"></path>
                                <path d="M15.9148962,8.86973922 C15.8066945,8.87054785 15.6987186,8.87974935 15.5919403,8.89726091 L8.04408318,1.3492734 C7.8483856,1.15358591 7.58296588,1.04365513 7.30621484,1.04366521 L3.89430744,1.04366521 C3.42202404,0.225646362 2.45919134,-0.173171998 1.54680987,0.0712998815 C0.634428392,0.315771761 3.18585431e-15,1.14257494 3.18585431e-15,2.08714175 C3.18585431e-15,3.03170856 0.634428392,3.85851173 1.54680987,4.10298361 C2.45919134,4.34745549 3.42202404,3.94863713 3.89430744,3.13061828 L6.87408512,3.13061828 L13.9639864,10.22065 C13.6424756,11.0746817 13.9134658,12.0385609 14.6329107,12.5999327 C15.3523556,13.1613045 16.3531982,13.1898169 17.1034354,12.6703138 C17.8536726,12.1508108 18.1790974,11.2039224 17.9067284,10.3329721 C17.6343594,9.46202181 16.8274416,8.8692466 15.9148962,8.86973922 L15.9148962,8.86973922 Z" id="Path"></path>
                                <path d="M42.5235479,13.0436498 C43.2090885,13.0450594 43.8514182,12.7090125 44.2411667,12.1450408 C44.6309151,11.5810691 44.7181578,10.8614138 44.4744577,10.22065 L51.564359,3.13061828 L54.5441367,3.13061828 C55.0164201,3.94863713 55.9792528,4.34745549 56.8916342,4.10298361 C57.8040157,3.85851173 58.4384441,3.03170856 58.4384441,2.08714175 C58.4384441,1.14257494 57.8040157,0.315771761 56.8916342,0.0712998815 C55.9792528,-0.173171998 55.0164201,0.225646362 54.5441367,1.04366521 L51.1322293,1.04366521 C50.8554782,1.04365513 50.5900585,1.15358591 50.3943609,1.3492734 L42.8465038,8.89726091 C42.0716605,8.77514047 41.2938135,9.09804203 40.8332527,9.73300611 C40.372692,10.3679702 40.3072918,11.2076334 40.6639817,11.9062519 C41.0206716,12.6048705 41.7391403,13.044318 42.5235479,13.0436498 Z" id="Path"></path>
                                <polygon id="Path" points="46.9593666 39.4537756 46.9593666 18.9698095 29.2197438 8.72795684 11.480121 18.9698095 11.480121 39.4537756 29.2197438 49.6957586"></polygon>
                            </g>
                        </g>
                    </g>
                    <text id="MP" font-family="ToppanBunkyuMidashiGothicStdN-ExtraBold, Toppan Bunkyu Midashi Gothic" font-size="20" font-weight="600" fill="#885722">
                        <tspan x="14.12" y="38">MP</tspan>
                    </text>
                </g>
            </g>
        </g>
    </g>
</svg>