<svg width="33" height="40" viewBox="0 0 33 40" fill="none" xmlns="http://www.w3.org/2000/svg">
<path d="M22.7509 14.3254C29.105 17.0366 30.688 13.0451 31.8438 10.13C33.354 6.32219 31.7321 2.00814 28.2286 0.513252C24.7251 -0.981636 20.6457 0.900681 19.1357 4.70873L18.9844 5.08754C18.2773 6.85212 17.5458 8.67794 18.3135 10.5928C18.9173 12.1061 20.3277 13.2917 22.7509 14.3254ZM27.0221 3.55563C28.9089 4.36055 29.756 6.74858 28.911 8.87945C27.7341 11.8475 27.3788 12.7434 23.9574 11.2839C22.0285 10.4609 21.4153 9.76814 21.2409 9.33228C20.9793 8.67822 21.4116 7.59915 21.9118 6.3503L22.0677 5.96064C22.9132 3.82923 25.1354 2.75071 27.0221 3.55563Z" fill="url(#paint0_linear_131_309)"/>
<path style="mix-blend-mode:overlay" opacity="0.61" d="M28.7457 1.01758C30.4017 1.89458 31.8473 4.00513 32.1188 6.34612C32.3904 8.68712 31.2156 9.80599 30.6663 9.72055C28.6988 9.41439 31.0014 6.42573 28.8574 4.33856C27.3192 2.84117 24.9371 2.11947 23.3276 3.65555C21.718 5.19163 20.9444 3.0783 21.3292 2.2102C21.714 1.3421 25.3485 -0.780408 28.7457 1.01758Z" fill="url(#paint1_linear_131_309)"/>
<path style="mix-blend-mode:overlay" opacity="0.49" d="M29.1389 1.75598C30.3341 2.53168 31.5977 4.85013 31.5043 5.78809C31.4109 6.72605 29.8985 4.32521 28.1433 3.50943C26.388 2.69366 26.5488 0.0729456 29.1389 1.75598Z" fill="url(#paint2_linear_131_309)"/>
<path opacity="0.32" d="M19.1357 4.70874C19.6733 3.3427 20.5791 2.16631 21.7446 1.3204C21.0324 2.18683 20.6806 2.75796 20.5266 3.316C20.1836 4.559 20.8218 5.51032 22.0395 6.03246L21.9126 6.35031C21.4119 7.59916 20.9795 8.67823 21.2417 9.33229C21.4159 9.76731 22.0277 10.4581 23.948 11.2792C23.9246 12.5392 23.8272 13.788 23.6971 14.6892C23.3933 14.584 23.0799 14.4666 22.7517 14.3255C20.3285 13.2918 18.9181 12.1055 18.313 10.5928C17.5463 8.67683 18.2778 6.85213 18.9839 5.08754L19.1357 4.70874Z" fill="#C45C0F"/>
<path d="M13.0661 38.3905C10.9052 37.5016 9.83399 35.1264 10.6736 33.0853C11.5132 31.0443 13.9456 30.1103 16.1065 30.9993C18.2675 31.8882 19.3387 34.2634 18.4991 36.3044C17.6595 38.3454 15.2271 39.2794 13.0661 38.3905Z" fill="url(#paint3_linear_131_309)"/>
<path opacity="0.32" d="M14.4612 35.0123C11.4366 33.722 10.4926 34.2939 10.4271 34.9424C10.357 34.3159 10.4408 33.6811 10.6708 33.0971C11.4844 31.0456 13.8861 30.126 16.0353 31.0431C18.1845 31.9602 19.2672 34.3663 18.4536 36.4176C18.221 37.0004 17.8499 37.5127 17.3749 37.9066C17.7285 37.5684 17.7602 36.4184 14.4612 35.0123Z" fill="#C45C0F"/>
<path style="mix-blend-mode:overlay" opacity="0.49" d="M14.4035 35.4223C17.6757 36.8184 16.8886 37.7224 16.1399 38.1552C15.3913 38.588 13.0379 38.6612 11.9111 36.847C10.7843 35.0329 12.0289 34.4092 14.4035 35.4223Z" fill="url(#paint4_linear_131_309)"/>
<path style="mix-blend-mode:overlay" opacity="0.49" d="M14.7389 36.9077C16.1053 36.9094 16.1579 37.4365 15.6105 37.7538C15.0631 38.0711 13.3427 38.1237 12.5189 36.7972C11.6951 35.4707 13.6467 36.9063 14.7389 36.9077Z" fill="url(#paint5_linear_131_309)"/>
<path d="M7.20913 19.5037C10.1142 17.6667 9.30223 11.9839 14.7928 7.86355C19.4084 4.40145 24.2509 5.81813 25.6804 6.35892L25.6893 6.35725C25.6893 6.35725 25.7655 6.38647 25.8959 6.44409C26.0263 6.5017 26.1017 6.53315 26.1017 6.53315C27.4893 7.19974 31.8923 9.72777 32.8214 15.5573C33.9283 22.4926 29.4963 25.9366 30.3134 29.3623C31.1305 32.7879 33.515 35.7551 30.5656 38.7029C30.3188 38.9495 30.0067 39.1401 29.6458 39.2874C26.7133 40.4814 2.22301 30.0328 0.949442 27.0444C0.792728 26.6767 0.700418 26.3132 0.692367 25.9589C0.597373 21.7097 4.30403 21.3418 7.20913 19.5037Z" fill="url(#paint6_linear_131_309)"/>
<path opacity="0.32" d="M0.713841 25.9667C0.617773 21.7197 4.32443 21.3521 7.22953 19.5137C10.1346 17.6754 9.32263 11.9939 14.8132 7.87386C17.9448 5.52423 21.1808 5.42209 23.3847 5.76804C20.3232 6.11623 15.3923 7.59275 12.4384 13.2191C7.91945 21.8258 22.8945 27.4624 22.8945 27.4624C22.8945 27.4624 14.9761 25.3151 10.809 22.8534C6.64186 20.3916 2.94648 23.0554 2.61641 25.137C2.28635 27.2186 9.02316 31.678 20.064 35.5968C25.6533 37.5801 29.0211 38.1702 30.9856 38.2704C30.8641 38.4176 30.7336 38.5648 30.5866 38.7121C30.3397 38.9587 30.0276 39.1496 29.6667 39.2966C26.7342 40.4906 2.24395 30.042 0.970378 27.0533C0.814201 26.6842 0.721891 26.321 0.713841 25.9667Z" fill="#A44600"/>
<g style="mix-blend-mode:overlay" opacity="0.49">
<path d="M25.8731 9.58165C28.0515 10.8558 30.2452 15.0168 29.628 19.3982C29.0108 23.7796 25.5164 26.9389 20.8145 22.334C16.1126 17.7291 20.2529 6.2949 25.8731 9.58165Z" fill="#C1C1C1"/>
</g>
<path style="mix-blend-mode:overlay" opacity="0.49" d="M5.08976 21.9162C6.00213 22.4242 9.21637 24.7713 17.1755 28.1669C25.1346 31.5624 28.1717 32.0773 28.8555 32.5087C29.9825 33.2204 32.0936 38.3102 26.0695 37.0396C20.0454 35.769 11.6291 31.5307 6.78114 28.9567C1.93321 26.3828 2.61964 25.0683 3.06026 23.9569C3.50088 22.8455 4.28311 21.4681 5.08976 21.9162Z" fill="url(#paint7_linear_131_309)"/>
<path d="M19.9824 30.8778C23.019 31.9565 26.6057 33.3187 28.3894 33.7465C30.1731 34.1742 29.4939 36.8849 26.654 36.7504C23.8141 36.616 14.948 32.9875 12.1768 31.3946C9.40555 29.8017 14.2835 28.8529 19.9824 30.8778Z" fill="#F8CB23"/>
<defs>
<linearGradient id="paint0_linear_131_309" x1="25.0866" y1="8.29703" x2="30.7886" y2="0.919335" gradientUnits="userSpaceOnUse">
<stop stop-color="#D07C13"/>
<stop offset="1" stop-color="#FFE600"/>
</linearGradient>
<linearGradient id="paint1_linear_131_309" x1="32.7301" y1="6.15235" x2="22.0493" y2="1.57667" gradientUnits="userSpaceOnUse">
<stop stop-color="#353535"/>
<stop offset="1" stop-color="white"/>
</linearGradient>
<linearGradient id="paint2_linear_131_309" x1="25.9613" y1="12.9664" x2="27.4491" y2="11.0109" gradientUnits="userSpaceOnUse">
<stop stop-color="white"/>
<stop offset="1" stop-color="white"/>
</linearGradient>
<linearGradient id="paint3_linear_131_309" x1="14.5458" y1="34.8473" x2="13.2032" y2="39.7682" gradientUnits="userSpaceOnUse">
<stop stop-color="#D07C13"/>
<stop offset="1" stop-color="#FFE600"/>
</linearGradient>
<linearGradient id="paint4_linear_131_309" x1="22.8327" y1="40.77" x2="24.8802" y2="43.3854" gradientUnits="userSpaceOnUse">
<stop stop-color="white"/>
<stop offset="1" stop-color="white"/>
</linearGradient>
<linearGradient id="paint5_linear_131_309" x1="23.6737" y1="39.4075" x2="24.6073" y2="40.6" gradientUnits="userSpaceOnUse">
<stop stop-color="white"/>
<stop offset="1" stop-color="white"/>
</linearGradient>
<linearGradient id="paint6_linear_131_309" x1="8.43323" y1="37.0268" x2="34.511" y2="21.1816" gradientUnits="userSpaceOnUse">
<stop stop-color="#A05B05"/>
<stop offset="1" stop-color="#F9B70C"/>
</linearGradient>
<linearGradient id="paint7_linear_131_309" x1="17.9432" y1="35.6872" x2="24.4769" y2="27.0994" gradientUnits="userSpaceOnUse">
<stop stop-color="white"/>
<stop offset="1" stop-color="white"/>
</linearGradient>
</defs>
</svg>
