<svg width="17" height="24" viewBox="0 0 17 24" fill="none" xmlns="http://www.w3.org/2000/svg">
<path d="M8.5 0C3.81307 0 0 3.89916 0 8.69185C0 14.6397 7.60667 23.3716 7.93053 23.7404C8.23472 24.0868 8.76583 24.0862 9.06947 23.7404C9.39333 23.3716 17 14.6397 17 8.69185C17 3.89916 13.1869 0 8.5 0ZM8.5 13.065C6.14189 13.065 4.22348 11.1032 4.22348 8.69185C4.22348 6.28051 6.14194 4.31879 8.5 4.31879C10.8581 4.31879 12.7765 6.28055 12.7765 8.6919C12.7765 11.1032 10.8581 13.065 8.5 13.065Z" fill="#DD4747"/>
</svg>
