<svg width="36" height="40" viewBox="0 0 36 40" fill="none" xmlns="http://www.w3.org/2000/svg">
<path d="M3.70624 33.126C3.84927 33.405 4.04918 33.6804 4.30455 33.9503L5.05165 33.4084C4.50398 33.0838 3.97801 32.7516 3.47374 32.4118C3.50895 32.6512 3.58658 32.8897 3.70624 33.126Z" fill="#939393"/>
<path d="M3.34764 8.23102L8.9522 5.62185L7.27232 4.02845L18.7894 0.132679L19.1085 0.0157159C19.281 -0.048164 19.4545 0.0885929 19.4953 0.31892L19.8599 2.37207L23.9534 0.944223L23.983 0.934326C24.0696 0.908596 24.1638 0.926856 24.2335 0.982911L28.8344 4.4918L30.3742 5.66143C30.5592 5.82686 30.6067 6.09206 30.4902 6.30833L29.1915 8.76725C29.9208 9.80992 30.5422 10.9198 31.0467 12.0809L33.8369 11.4511C34.0577 11.4016 34.2748 11.5726 34.3212 11.8317L35.9908 21.1186C36.0381 21.3786 35.8981 21.6143 35.669 21.6449L32.7071 22.6877C32.5999 23.7573 32.4004 24.8164 32.1107 25.8538L34.2571 27.7828C34.443 27.9499 34.4909 28.2169 34.374 28.4351L30.2277 35.0201C30.16 35.1368 30.0143 35.1877 29.8854 35.1397L25.9236 36.5181L26.0479 37.2172C26.0887 37.452 25.9727 37.6427 25.7872 37.6427L19.5435 39.8156L18.9462 35.8784V35.873L18.7375 34.6908C17.8218 34.3962 16.949 33.9889 16.1402 33.4789L15.1708 35.3152C15.0901 35.4681 14.9176 35.4717 14.785 35.3251L14.1885 34.6647L13.9436 35.8793L8.54034 37.4988L7.17399 30.0015L4.91714 26.5825L5.15924 17.8832L7.89937 8.67548L4.59433 11.0507L3.34764 8.23102ZM14.2748 20.2269C14.9185 23.8924 17.6141 26.7049 20.5222 26.3891C20.9258 26.3446 21.3198 26.2392 21.69 26.0769L22.3328 23.7781L22.7039 20.5086L21.3672 15.22L17.7496 12.3697C15.0957 13.2343 13.6524 16.6848 14.2748 20.2269Z" fill="url(#paint0_linear_131_416)"/>
<path d="M23.9515 8.48474L30.3742 5.66503L24.2344 0.98561L17.7384 3.27089L23.9515 8.48474Z" fill="url(#paint1_linear_131_416)"/>
<path d="M31.0439 12.0845L24.7474 14.4292L27.7769 13.8345L33.8342 11.4592L31.0439 12.0845Z" fill="url(#paint2_linear_131_416)"/>
<path opacity="0.2" d="M29.1925 8.76995L22.8959 11.1155L23.3087 11.4592L29.1925 9.05246V8.76995Z" fill="#0B0B0B"/>
<path opacity="0.5" d="M32.7081 22.6958L29.3733 23.9977L26.4681 24.3917L25.8188 28.2065L32.1153 25.8619C32.1153 25.8619 32.6394 23.5721 32.7081 22.6958Z" fill="#141414"/>
<path opacity="0.5" d="M34.375 28.4431L28.1433 30.5278L23.7446 37.5042C23.7446 37.5042 24.752 36.7079 26.6146 36.1969C28.4773 35.6859 30.2323 35.0273 30.2323 35.0273L34.375 28.4431Z" fill="#141414"/>
<path opacity="0.5" d="M7.558 6.27324L3.34762 8.23012L5.42916 10.1744L7.73703 7.51935L7.558 6.27324Z" fill="url(#paint3_linear_131_416)"/>
<path d="M19.4953 0.321619L12.7869 2.81113L7.22129 4.03115L13.5113 1.92131C13.5113 1.92131 18.8497 -0.0400665 19.1113 0.018415C19.2764 0.0647681 19.415 0.174206 19.4953 0.321619Z" fill="url(#paint4_linear_131_416)"/>
<path d="M0.629757 19.8338L1.91077 19.5468C1.92189 18.5274 2.0115 17.5103 2.17885 16.5039L0.831046 15.1786C0.706756 15.0351 0.67135 14.838 0.738287 14.6622L3.2929 8.40557C3.36711 8.22563 3.52944 8.16804 3.65559 8.28231L5.03215 9.52032C5.64894 8.68771 6.37803 7.93908 7.19995 7.29442L7.00794 4.52869C6.96991 4.31096 7.06267 4.08963 7.21572 4.03385L12.8092 2.36577C12.9817 2.30279 13.1551 2.43865 13.196 2.66988L13.6598 5.27906C14.5757 5.34506 15.4774 5.53681 16.3377 5.84858L17.4509 3.50212C17.5529 3.28708 17.7681 3.21331 17.9323 3.33747L24.0721 8.01599C24.257 8.18142 24.3046 8.44662 24.188 8.66289L22.8894 11.1218C23.6182 12.1648 24.2395 13.2747 24.7446 14.4355L27.5348 13.8057C27.7556 13.7571 27.9726 13.9271 28.019 14.1862L29.6887 23.4731C29.736 23.7331 29.5959 23.9698 29.3678 23.9994L26.4616 24.3935C26.3763 25.6829 26.1588 26.9608 25.8123 28.2083L27.9615 30.14C28.1474 30.3071 28.1952 30.5741 28.0784 30.7923L23.932 37.3782C23.8216 37.5582 23.5925 37.5582 23.4209 37.3908L21.3616 35.3665C20.7145 35.8908 20.0013 36.3334 19.2393 36.6836L19.7522 39.5744C19.794 39.8093 19.6771 40 19.4925 40L13.2637 39.7103C13.0995 39.7103 12.9353 39.5304 12.8926 39.3117L12.439 37.048C11.5234 36.7534 10.6505 36.3461 9.84176 35.8361L8.71102 37.3152C8.63124 37.4673 8.45778 37.4718 8.32513 37.3251L3.93294 32.6385C3.80818 32.4938 3.7728 32.2954 3.84018 32.1185L4.68615 30.338C4.16457 29.4377 3.71521 28.4998 3.34206 27.5326L1.99797 27.7126C1.86532 27.7306 1.72896 27.583 1.69464 27.3833L0.450729 20.2467C0.421046 20.0488 0.498965 19.8635 0.629757 19.8338ZM14.2265 28.741C17.2023 28.4126 19.2486 24.8281 18.5111 20.6876C17.7774 16.5651 14.6384 13.9136 11.7331 14.6406C8.90024 15.3505 7.33445 18.9152 7.97821 22.5779C8.62196 26.2406 11.3185 29.0604 14.2265 28.7374V28.741Z" fill="#DBA783"/>
<path d="M0.62976 19.8311L1.91077 19.545C1.92185 18.5253 2.01146 17.5079 2.17885 16.5012L0.831049 15.1759C0.706759 15.0324 0.671353 14.8353 0.738289 14.6595L3.2929 8.40287C3.36711 8.22293 3.52944 8.16624 3.65559 8.27961L5.03215 9.51762C5.64894 8.68501 6.37803 7.93638 7.19995 7.29172L7.00794 4.52599C6.96991 4.30916 7.06267 4.08783 7.21572 4.03115L12.8092 2.36307C12.9817 2.30009 13.1552 2.43595 13.196 2.66718L13.6598 5.27186C14.5757 5.33786 15.4774 5.52961 16.3378 5.84138L17.4509 3.49492C17.5529 3.27989 17.7681 3.20611 17.9323 3.33027L24.0721 8.00879C24.2575 8.17436 24.3051 8.4401 24.188 8.65659L22.8894 11.1146C23.6185 12.1574 24.2399 13.2673 24.7446 14.4283L27.5348 13.8039C27.7547 13.7544 27.9717 13.9244 28.019 14.1835L29.6887 23.4704C29.736 23.7313 29.5959 23.9671 29.3668 23.9967L26.4616 24.3908C26.3763 25.6802 26.1587 26.9581 25.8123 28.2056L27.9615 30.14C28.1476 30.3074 28.1954 30.5748 28.0784 30.7932L23.932 37.3782C23.8216 37.5537 23.5925 37.5582 23.4209 37.3908L21.3616 35.3665C20.7143 35.8906 20.0012 36.3332 19.2393 36.6836L19.7522 39.5744C19.794 39.8093 19.6771 40 19.4925 40L13.2637 39.7103C13.0995 39.7103 12.9353 39.5303 12.8926 39.3117L12.439 37.048C11.5234 36.7534 10.6505 36.3461 9.84176 35.8361L8.71102 37.3152C8.63124 37.4673 8.45778 37.4718 8.32513 37.3251L3.93295 32.6385C3.80819 32.4938 3.7728 32.2954 3.84019 32.1185L4.68616 30.3379C4.16457 29.4377 3.71521 28.4998 3.34206 27.5326L1.99797 27.7126C1.86532 27.7306 1.72897 27.583 1.69465 27.3833L0.456299 20.2431C0.42105 20.0461 0.498968 19.8608 0.62976 19.8311ZM14.2265 28.7383C17.2023 28.4099 19.2486 24.8254 18.5111 20.6849C17.7774 16.5624 14.6384 13.91 11.7331 14.6388C8.90025 15.3478 7.33446 18.9125 7.97821 22.5752C8.62197 26.2379 11.3185 29.055 14.2265 28.7347V28.7383Z" fill="url(#paint5_linear_131_416)"/>
<path d="M12.8658 10.8708C18.0427 10.4209 22.7725 15.2011 23.4302 21.5396C24.0879 27.8781 20.422 33.3763 15.245 33.8225C10.0681 34.2688 5.33735 29.4922 4.68061 23.1537C4.02387 16.8152 7.68789 11.3171 12.8658 10.8708ZM8.82698 23.34C9.67295 26.8093 12.3769 29.2664 15.0818 28.7832C17.7867 28.3001 18.5631 25.152 18.6215 21.5909C18.7069 16.3123 14.6588 13.4989 11.9539 13.982C9.24904 14.4652 7.70644 18.7451 8.82698 23.34Z" fill="#747474"/>
<path d="M13.2433 9.84871C18.1401 9.40875 22.6121 14.1215 23.2363 20.3754C23.8606 26.6293 20.3914 32.0555 15.4936 32.4955C10.5959 32.9354 6.12488 28.2227 5.5006 21.9688C4.87633 15.7149 8.34555 10.2887 13.2433 9.84871ZM9.4225 22.1514C10.1321 25.5946 12.7804 27.9996 15.3387 27.5227C17.8971 27.0459 19.3961 23.869 18.6874 20.4258C17.9787 16.9826 15.3285 14.5776 12.7711 15.0554C10.2137 15.5331 8.71381 18.7136 9.4225 22.1514Z" fill="url(#paint6_linear_131_416)"/>
<path d="M12.3834 10.2032C17.2811 9.76324 21.7522 14.476 22.3764 20.7299C23.0007 26.9838 19.5315 32.41 14.6338 32.85C9.73602 33.2899 5.26498 28.5772 4.64071 22.3233C4.01643 16.0694 7.48566 10.6432 12.3834 10.2032ZM8.56353 22.5059C9.27222 25.9491 11.9214 28.3541 14.4798 27.8772C17.0381 27.4004 18.5371 24.2235 17.8275 20.7803C17.1179 17.337 14.4696 14.9321 11.9112 15.4099C9.35292 15.8876 7.85392 19.0636 8.56353 22.5059Z" fill="url(#paint7_linear_131_416)"/>
<g opacity="0.5">
<path d="M14.4102 28.6429C11.8519 29.1197 9.20265 26.7148 8.49303 23.2725C8.28363 22.2798 8.26226 21.2585 8.42995 20.2584C8.37929 21.0116 8.43201 21.768 8.58672 22.5077C9.29541 25.9509 11.9446 28.3559 14.503 27.879C16.2793 27.5479 17.5446 25.9149 17.9147 23.7961C17.7421 26.2784 16.3953 28.2731 14.4102 28.6429Z" fill="#8C8C8C"/>
<path d="M22.3069 21.4955C21.6854 15.2425 17.2116 10.5298 12.3138 10.9689C8.3678 11.3224 5.35125 14.915 4.65276 19.5683C5.11656 14.5479 8.24629 10.5712 12.4066 10.2023C17.3043 9.76234 21.7753 14.4751 22.3996 20.729C22.5178 21.9011 22.4904 23.0828 22.318 24.2487C22.4023 23.3326 22.3986 22.4109 22.3069 21.4955Z" fill="#A5A5A5"/>
</g>
<g opacity="0.4">
<path d="M11.9679 14.9024C14.5262 14.4256 17.1745 16.8305 17.8841 20.2728C18.0237 20.9423 18.0804 21.6255 18.0529 22.308C18.0338 21.8476 17.9773 21.3895 17.8841 20.9377C17.1745 17.4945 14.5262 15.0896 11.9679 15.5664C9.92713 15.947 8.55985 18.046 8.45132 20.6282C8.33073 17.7491 9.75089 15.3145 11.9679 14.9024Z" fill="url(#paint8_linear_131_416)"/>
<path d="M4.69453 21.8149C5.31602 28.0689 9.79076 32.7816 14.6876 32.3416C19.1141 31.9439 22.3709 27.4733 22.498 22.0003C22.6306 27.772 19.2922 32.5926 14.6876 33.0056C9.79076 33.4456 5.3188 28.7329 4.69453 22.4789C4.63573 21.8878 4.61312 21.2939 4.62681 20.7002C4.63547 21.0691 4.65804 21.4407 4.69453 21.8149Z" fill="url(#paint9_linear_131_416)"/>
</g>
<path opacity="0.2" d="M26.2529 24.685C26.2529 24.685 26.1805 26.4908 25.6435 28.1597C25.6435 28.1597 26.8614 29.4535 27.3985 29.9304C27.9356 30.4072 27.4708 30.5098 27.3985 30.7815C27.3261 31.0532 26.1805 29.3851 25.3216 28.4656L26.2529 24.685Z" fill="#FFE9DE"/>
<path d="M28.6925 19.9129C28.6925 19.9129 27.7342 15.3523 27.6582 14.8421C27.5821 14.332 27.5098 14.1952 26.7222 14.3995C25.9347 14.6037 24.6082 14.8421 24.6082 14.8421C24.6082 14.8421 23.9589 13.6842 23.6806 13.0031C23.4024 12.322 22.6779 11.3341 22.6779 11.3341C22.6779 11.3341 23.8244 13.7868 24.5043 15.2515C24.5043 15.2515 26.7974 14.7396 26.9402 14.8421C27.0831 14.9447 28.6925 19.9129 28.6925 19.9129Z" fill="white"/>
<path d="M23.7131 8.16714C23.3551 7.92872 18.8413 4.31816 18.2681 3.90969C17.6948 3.50122 17.7663 3.53541 17.373 4.28397C16.9797 5.03253 16.4769 6.12389 16.4769 6.12389C16.0165 5.98368 15.549 5.86656 15.0762 5.773C14.3991 5.64704 16.0474 6.19137 16.6921 6.53236C17.3368 6.87335 17.91 4.28307 17.91 4.28307L23.7131 8.16714Z" fill="white"/>
<path d="M13.2489 5.34024C13.2489 5.34024 12.7517 3.2286 12.7155 2.99018C12.6793 2.75175 12.3222 2.75175 11.6775 2.99018C11.0328 3.2286 7.5571 4.24978 7.5571 4.24978C7.5571 4.24978 11.8556 3.36356 12.0708 3.29608C12.286 3.2286 13.2489 5.34024 13.2489 5.34024Z" fill="white"/>
<path d="M4.83459 10.0062C4.83459 10.0062 3.68901 9.05246 3.54523 8.91661C3.40145 8.78075 1.25313 14.1611 1.25313 14.1611L3.68901 9.59769L4.83459 10.0062Z" fill="white"/>
<defs>
<linearGradient id="paint0_linear_131_416" x1="19.3566" y1="45.3101" x2="19.9892" y2="4.34205" gradientUnits="userSpaceOnUse">
<stop stop-color="#3B3B3B"/>
<stop offset="1" stop-color="#3A3A3A"/>
</linearGradient>
<linearGradient id="paint1_linear_131_416" x1="30.3742" y1="4.73473" x2="17.7384" y2="4.73473" gradientUnits="userSpaceOnUse">
<stop stop-color="#585858"/>
<stop offset="1" stop-color="#292929"/>
</linearGradient>
<linearGradient id="paint2_linear_131_416" x1="33.8342" y1="12.944" x2="24.7474" y2="12.944" gradientUnits="userSpaceOnUse">
<stop stop-color="#585858"/>
<stop offset="1" stop-color="#292929"/>
</linearGradient>
<linearGradient id="paint3_linear_131_416" x1="4.41622" y1="6.44993" x2="6.50534" y2="9.01702" gradientUnits="userSpaceOnUse">
<stop stop-color="#2F2F2F"/>
<stop offset="1" stop-color="#3E3E3E"/>
</linearGradient>
<linearGradient id="paint4_linear_131_416" x1="19.4953" y1="2.0239" x2="7.22129" y2="2.0239" gradientUnits="userSpaceOnUse">
<stop stop-color="#585858"/>
<stop offset="1" stop-color="#292929"/>
</linearGradient>
<linearGradient id="paint5_linear_131_416" x1="15.0762" y1="39.8381" x2="15.0762" y2="3.20161" gradientUnits="userSpaceOnUse">
<stop stop-color="#484848"/>
<stop offset="1" stop-color="#C7C7C7"/>
</linearGradient>
<linearGradient id="paint6_linear_131_416" x1="13.8598" y1="8.66649" x2="15.174" y2="28.7137" gradientUnits="userSpaceOnUse">
<stop stop-color="#4D4D4D"/>
<stop offset="1"/>
</linearGradient>
<linearGradient id="paint7_linear_131_416" x1="13.1104" y1="10.6144" x2="14.4518" y2="33.422" gradientUnits="userSpaceOnUse">
<stop stop-color="#6F6F6F"/>
<stop offset="1" stop-color="#1E1E1E"/>
</linearGradient>
<linearGradient id="paint8_linear_131_416" x1="12.8871" y1="16.4033" x2="13.164" y2="21.1112" gradientUnits="userSpaceOnUse">
<stop stop-color="#8B8B8B"/>
<stop offset="1" stop-color="#121212"/>
</linearGradient>
<linearGradient id="paint9_linear_131_416" x1="13.4854" y1="23.8184" x2="13.8479" y2="29.9801" gradientUnits="userSpaceOnUse">
<stop stop-color="#464646"/>
<stop offset="1" stop-color="#5C5C5C"/>
</linearGradient>
</defs>
</svg>
