<svg width="512" height="512" viewBox="0 0 512 512" fill="none" xmlns="http://www.w3.org/2000/svg">
<path d="M506.24 371.7L410.24 291.7C405.472 287.7 398.816 286.9 393.216 289.492C387.584 292.148 384 297.78 384 303.988V351.988H357.216C335.008 351.988 314.72 340.724 302.944 321.908L199.328 156.148C175.808 118.484 135.232 95.988 90.784 95.988H0V159.988H90.784C112.992 159.988 133.28 171.252 145.056 190.068L248.672 355.828C272.224 393.492 312.8 415.988 357.216 415.988H384V463.988C384 470.196 387.584 475.828 393.216 478.484C395.36 479.476 397.696 479.988 400 479.988C403.68 479.988 407.328 478.74 410.24 476.276L506.24 396.276C509.92 393.236 512 388.724 512 383.988C512 379.252 509.92 374.74 506.24 371.7Z" fill="#926025"/>
<path d="M506.24 115.7L410.24 35.7C405.472 31.732 398.816 30.9 393.216 33.524C387.584 36.116 384 41.78 384 47.988V95.988H357.216C312.768 95.988 272.192 118.484 248.672 156.148L145.088 321.908C133.312 340.724 112.992 351.988 90.784 351.988H0V415.988H90.784C135.2 415.988 175.776 393.492 199.328 355.828L302.912 190.068C314.72 171.252 335.008 159.988 357.216 159.988H384V207.988C384 214.196 387.584 219.86 393.216 222.484C395.36 223.476 397.696 223.988 400 223.988C403.68 223.988 407.328 222.708 410.24 220.276L506.24 140.276C509.92 137.236 512 132.724 512 127.988C512 123.252 509.92 118.74 506.24 115.7Z" fill="#D39943"/>
</svg>
