<?xml version="1.0" encoding="UTF-8"?>
<svg width="18px" height="18px" viewBox="0 0 18 18" version="1.1" xmlns="http://www.w3.org/2000/svg" xmlns:xlink="http://www.w3.org/1999/xlink">
    <title>31895AA7-D81A-4C10-971A-91C873040A02</title>
    <g id="Ready-Flow-Magia-Janis-(D)" stroke="none" stroke-width="1" fill="none" fill-rule="evenodd">
        <g id="10.3" transform="translate(-473.000000, -413.000000)" fill="#FFFFFF" fill-rule="nonzero">
            <g id="Group-17" transform="translate(416.000000, 345.000000)">
                <g id="Connect-wallet" transform="translate(0.000000, 53.000000)">
                    <g id="Group-25" transform="translate(57.000000, 12.000000)">
                        <g id="sword-(1)" transform="translate(0.000000, 3.000000)">
                            <path d="M7.53316796,14.3199931 L3.67997215,10.4667973 C3.06315567,9.84998083 2.05947976,9.84994568 1.44262811,10.4667973 C0.825776473,11.083649 0.825811629,12.0872897 1.44262811,12.7041414 C1.64857345,12.9100867 1.9824524,12.9100867 2.18839774,12.7041414 C2.39434308,12.498196 2.39434308,12.1643171 2.18839774,11.9583717 C1.98280397,11.752778 1.98276881,11.418231 2.18839774,11.2126021 C2.39402667,11.0069732 2.72857359,11.0070083 2.93416737,11.2126021 L3.92852687,12.2069616 L0.38614751,15.7493761 C-0.128715837,16.2642395 -0.128715837,17.0989544 0.38614751,17.6138178 C0.901010858,18.1286811 1.73572581,18.1286811 2.25058916,17.6138178 L5.79303883,14.0713681 L6.78739833,15.0657276 C6.99299211,15.2713214 6.99302726,15.6058683 6.78739833,15.8114972 C6.5817694,16.0171262 6.24722248,16.017091 6.04162871,15.8114972 C5.83568337,15.6055519 5.50180442,15.6055519 5.29585908,15.8114972 C5.08991374,16.0174426 5.08991374,16.3513215 5.29585908,16.5572669 C5.91267556,17.1740833 6.91635147,17.1741185 7.53320312,16.5572669 C8.14998444,15.9404855 8.14998444,14.9368096 7.53316796,14.3199931 Z" id="Path"></path>
                            <path d="M13.9309032,7.92225793 L14.8619111,6.99125 C16.5876262,5.26553493 17.6901263,3.01476121 17.9957396,0.593479647 C18.0388763,0.251760853 17.7482044,-0.0388759033 17.4065208,0.00426082103 C14.9852392,0.309909298 12.7344303,1.41240944 11.0087504,3.13808935 L10.0777425,4.06909728 C9.45350805,4.69333174 8.89192204,5.37726151 8.40103526,6.11104285 C7.39605857,7.61330477 6.10072637,8.89714087 4.59319102,9.88847693 L5.97947245,11.2747584 L14.382661,2.87153463 C14.5886064,2.66558929 14.9224853,2.66558929 15.1284307,2.87153463 C15.334376,3.07747997 15.334376,3.41135891 15.1284307,3.61730425 L6.72524207,12.020528 L8.1115235,13.4068094 C9.10285957,11.8992741 10.3866957,10.6039067 11.8889576,9.59896518 C12.6227389,9.1080784 13.3066335,8.54649239 13.9309032,7.92225793 L13.9309032,7.92225793 Z" id="Path"></path>
                        </g>
                    </g>
                </g>
            </g>
        </g>
    </g>
</svg>