<svg width="90" height="90" viewBox="0 0 90 90" fill="none" xmlns="http://www.w3.org/2000/svg">
<path fill-rule="evenodd" clip-rule="evenodd" d="M45 1C32.8497 1 21.8497 5.92487 13.8873 13.8873C5.92486 21.8497 1 32.8497 1 45C1 57.1503 5.92486 68.1503 13.8873 76.1127C21.8497 84.0751 32.8497 89 45 89C57.1503 89 68.1503 84.0751 76.1127 76.1127C84.0751 68.1503 89 57.1503 89 45C89 32.8497 84.0751 21.8497 76.1127 13.8873C68.1503 5.92487 57.1503 1 45 1Z" fill="#1B1B1B" fill-opacity="0.3" stroke="url(#paint0_linear_131_175)" stroke-width="2"/>
<path d="M44.625 5.625H45.375C66.9141 5.625 84.375 23.0859 84.375 44.625V45.375C84.375 66.9141 66.9141 84.375 45.375 84.375H44.625C23.0859 84.375 5.625 66.9141 5.625 45.375V44.625C5.625 23.0859 23.0859 5.625 44.625 5.625Z" fill="black" fill-opacity="0.496688"/>
<mask id="mask0_131_175" style="mask-type:alpha" maskUnits="userSpaceOnUse" x="11" y="11" width="68" height="68">
<path d="M45 78.75C26.3604 78.75 11.25 63.6396 11.25 45C11.25 26.3604 26.3604 11.25 45 11.25C63.6396 11.25 78.75 26.3604 78.75 45C78.75 63.6396 63.6396 78.75 45 78.75Z" fill="white"/>
</mask>
<g mask="url(#mask0_131_175)">
<path d="M45 78.75C26.3604 78.75 11.25 63.6396 11.25 45C11.25 26.3604 26.3604 11.25 45 11.25C63.6396 11.25 78.75 26.3604 78.75 45C78.75 63.6396 63.6396 78.75 45 78.75Z" fill="#1A0408"/>
</g>
<defs>
<linearGradient id="paint0_linear_131_175" x1="45" y1="1" x2="45" y2="89" gradientUnits="userSpaceOnUse">
<stop stop-color="#FEDD60"/>
<stop offset="1" stop-color="#935A0F"/>
</linearGradient>
</defs>
</svg>
