<svg width="56" height="57" viewBox="0 0 56 57" fill="none" xmlns="http://www.w3.org/2000/svg">
<path fill-rule="evenodd" clip-rule="evenodd" d="M28 2.63966C38.5432 2.63685 48.0498 8.94158 52.0858 18.6134C56.1218 28.2851 53.8923 39.4188 46.4371 46.8217C38.9819 54.2246 27.7696 56.4384 18.0295 52.4307C8.28933 48.423 1.94005 38.9832 1.94288 28.5139C1.94676 14.2256 13.6107 2.64351 28 2.63966ZM28 3.96994C17.9993 3.96994 8.98338 9.95234 5.15692 19.1273C1.33045 28.3022 3.44706 38.8625 10.5197 45.8835C17.5923 52.9045 28.2278 55.0032 37.4665 51.201C46.7052 47.3988 52.7273 38.4445 52.7244 28.5139C52.7244 22.0033 50.1193 15.7593 45.4824 11.1562C40.8455 6.55316 34.5567 3.9681 28 3.96994Z" fill="#936037"/>
<path fill-rule="evenodd" clip-rule="evenodd" d="M39.2224 5.86437C47.8964 10.1079 53.3878 18.8774 53.3838 28.4791H56C55.7566 27.0841 55.388 25.7136 54.8988 24.3838C54.7928 24.0728 54.6687 23.7681 54.5271 23.4714C53.8907 23.2507 53.4085 22.7274 53.2435 22.0784C52.1827 17.9504 50.1078 14.148 47.2044 11.0114C46.9309 10.7119 46.6503 10.4194 46.3557 10.1338L46.3136 10.092L46.2365 10.0154C45.9489 9.7368 45.6613 9.47214 45.3667 9.20748L45.3176 9.15872C44.9887 8.88006 44.8075 8.46633 44.8267 8.03739C43.3747 6.51213 41.7065 5.20525 39.8747 4.15799L39.4539 5.25146L39.2154 5.87133L39.2224 5.86437Z" fill="url(#paint0_linear_131_289)"/>
<path fill-rule="evenodd" clip-rule="evenodd" d="M2.60922 28.5139C2.5994 18.898 8.09733 10.1133 16.7846 5.86437L16.5391 5.24451L16.1252 4.15103C14.2905 5.1969 12.6198 6.5039 11.1663 8.03043C11.1938 8.45937 11.0141 8.87569 10.6824 9.15176L10.6333 9.20052C10.3387 9.45822 10.0511 9.72984 9.76353 10.0015L9.68637 10.085L9.64429 10.1268C9.3497 10.4124 9.06212 10.7049 8.79559 11.0044C5.8897 14.1403 3.81234 17.9428 2.7495 22.0715C2.58703 22.7195 2.10733 23.2429 1.47295 23.4644C1.36072 23.7082 1.23447 24.0147 1.1012 24.3768C0.61508 25.7076 0.24662 27.0779 0 28.4721L2.60922 28.5139Z" fill="url(#paint1_linear_131_289)"/>
<path fill-rule="evenodd" clip-rule="evenodd" d="M3.26854 28.5139C3.26854 18.5834 9.29322 9.63075 18.533 5.83114C27.7727 2.03152 38.4077 4.13328 45.4783 11.1562C52.5489 18.1792 54.6625 28.7402 50.8334 37.914C47.0043 47.0878 37.9867 53.0677 27.986 53.0649C21.4293 53.0649 15.1412 50.478 10.5056 45.8736C5.87001 41.2693 3.26668 35.0246 3.26854 28.5139ZM27.986 3.30132C13.963 3.30132 2.59519 14.5894 2.59519 28.5139C2.59519 42.4385 13.963 53.7265 27.986 53.7265C42.0089 53.7265 53.3768 42.4385 53.3768 28.5139C53.3768 14.5894 42.0089 3.30132 27.986 3.30132Z" fill="url(#paint2_linear_131_289)"/>
<path fill-rule="evenodd" clip-rule="evenodd" d="M16.1252 4.17889L16.7776 5.89223C20.2682 4.18371 24.1084 3.29713 28 3.30132V0.0278625C25.9952 0.284883 24.0416 0.843844 22.2064 1.68549C22.0468 2.29831 21.7016 2.84773 21.2174 3.25953C20.9495 3.4773 20.6425 3.64273 20.3126 3.74707C19.976 3.84458 19.6463 3.95602 19.3166 4.08138C18.9436 4.23677 18.5148 4.17517 18.2014 3.92119C17.4952 3.94507 16.7918 4.0219 16.0972 4.15103L16.1252 4.17889Z" fill="url(#paint3_linear_131_289)"/>
<path fill-rule="evenodd" clip-rule="evenodd" d="M39.8818 4.17889L39.2224 5.86437C35.7327 4.15347 31.8919 3.26676 28 3.27346V0C29.9991 0.267932 31.9456 0.83626 33.7725 1.68548C33.9345 2.299 34.2822 2.8484 34.7685 3.25953C35.0339 3.47723 35.3386 3.6427 35.6663 3.74707C36.003 3.84457 36.3677 3.95601 36.6693 4.08138C37.04 4.23715 37.467 4.17542 37.7776 3.92119C38.4837 3.9459 39.1871 4.02272 39.8818 4.15103V4.17889Z" fill="url(#paint4_linear_131_289)"/>
<path fill-rule="evenodd" clip-rule="evenodd" d="M39.2224 51.1356C47.894 46.8896 53.3845 38.1216 53.3838 28.5209H56C55.7574 29.9183 55.3888 31.2912 54.8988 32.6232C54.793 32.932 54.6688 33.2343 54.5271 33.5286C53.8921 33.7514 53.4108 34.2738 53.2435 34.9216C52.1827 39.0496 50.1078 42.852 47.2044 45.9886C46.9309 46.2881 46.6503 46.5806 46.3557 46.8662L46.3136 46.908L46.2365 46.9846C45.9489 47.2562 45.6613 47.5279 45.3667 47.7925L45.3176 47.8413C44.9887 48.1199 44.8075 48.5337 44.8267 48.9626C43.3742 50.4854 41.706 51.7899 39.8747 52.835L39.4539 51.7485L39.2154 51.1217L39.2224 51.1356Z" fill="url(#paint5_linear_131_289)"/>
<path fill-rule="evenodd" clip-rule="evenodd" d="M2.60922 28.5209C2.60778 38.1257 8.1052 46.896 16.7846 51.1356L16.5391 51.7625L16.1252 52.849C14.2908 51.8055 12.62 50.5008 11.1663 48.9765C11.1938 48.5476 11.0141 48.1313 10.6824 47.8552L10.6333 47.8065C10.3387 47.5418 10.0511 47.2771 9.76353 46.9985L9.68637 46.9219L9.64429 46.8801C9.3497 46.5946 9.06212 46.3021 8.79559 46.0026C5.8897 42.8667 3.81234 39.0642 2.7495 34.9355C2.58473 34.2887 2.10589 33.7662 1.47295 33.5425C1.36072 33.3057 1.23447 32.9923 1.1012 32.6371C0.614346 31.3042 0.245873 29.9315 0 28.5348H2.61623L2.60922 28.5209Z" fill="url(#paint6_linear_131_289)"/>
<path fill-rule="evenodd" clip-rule="evenodd" d="M16.1252 52.849L16.7776 51.1356C20.2682 52.8442 24.1084 53.7307 28 53.7265V57C25.993 56.7373 24.0389 56.1688 22.2064 55.3145C22.0489 54.7008 21.7033 54.1508 21.2174 53.7405C20.9512 53.5202 20.6437 53.3545 20.3126 53.2529C19.976 53.1485 19.6463 53.044 19.3166 52.9186C18.9436 52.7632 18.5148 52.8248 18.2014 53.0788C17.4948 53.0557 16.7911 52.9765 16.0972 52.842L16.1252 52.849Z" fill="url(#paint7_linear_131_289)"/>
<path fill-rule="evenodd" clip-rule="evenodd" d="M39.8818 52.849L39.2224 51.1356C35.7327 52.8465 31.8919 53.7332 28 53.7265V57C29.9998 56.7352 31.9467 56.1667 33.7725 55.3145C33.9328 54.7003 34.2808 54.1504 34.7685 53.7405C35.0321 53.5203 35.3374 53.3545 35.6663 53.2529C36.003 53.1485 36.3677 53.044 36.6693 52.9186C37.04 52.7629 37.467 52.8246 37.7776 53.0788C38.4841 53.055 39.1877 52.9758 39.8818 52.842V52.849Z" fill="url(#paint8_linear_131_289)"/>
<path style="mix-blend-mode:screen" fill-rule="evenodd" clip-rule="evenodd" d="M17.7315 5.45345C20.9655 4.03225 24.4634 3.29915 28 3.30132V0.292526C27.9509 0.738274 27.9369 1.19795 27.8527 1.63673C27.7514 2.12745 27.3925 2.52636 26.9128 2.68146C26.7106 2.76191 26.5017 2.82483 26.2886 2.86951C22.9639 3.60778 20.7124 4.03959 17.7315 5.47434V5.45345Z" fill="url(#paint9_linear_131_289)"/>
<path style="mix-blend-mode:screen" fill-rule="evenodd" clip-rule="evenodd" d="M8.03106 12.9476C10.3767 9.96699 13.3655 7.54656 16.7776 5.86437L16.5391 5.2445L16.1954 4.34604C16.3041 4.68115 16.3259 5.03812 16.2585 5.3838C16.1678 5.63464 15.9949 5.848 15.7675 5.98973C15.515 6.16385 15.2555 6.32404 14.996 6.4912C11.9519 8.40652 9.95291 10.0433 8.03106 12.9197V12.9476Z" fill="url(#paint10_linear_131_289)"/>
<path style="mix-blend-mode:screen" fill-rule="evenodd" clip-rule="evenodd" d="M1.69038 28.3398C1.28357 28.4164 0.841683 28.4652 0.420841 28.5139H2.60922C2.61889 25.7301 3.09291 22.9672 4.01202 20.3372C3.03707 22.7958 2.85471 24.1122 2.48297 27.0792C2.41283 27.6642 2.48297 28.0891 1.97094 28.2841C1.88883 28.3141 1.80438 28.3374 1.71844 28.3537L1.69038 28.3398Z" fill="url(#paint11_linear_131_289)"/>
<path style="mix-blend-mode:screen" fill-rule="evenodd" clip-rule="evenodd" d="M54.3096 28.3398C54.7234 28.4164 55.1583 28.4652 55.5792 28.5139H53.3908C53.3925 25.7321 52.9304 22.9692 52.023 20.3372C52.998 22.7958 53.1804 24.1122 53.5451 27.0792C53.6152 27.6642 53.5802 28.0891 54.0571 28.2841L54.3096 28.3537V28.3398Z" fill="url(#paint12_linear_131_289)"/>
<path d="M28 52.8267C41.531 52.8267 52.5 41.9346 52.5 28.4986C52.5 15.0626 41.531 4.17053 28 4.17053C14.469 4.17053 3.5 15.0626 3.5 28.4986C3.5 41.9346 14.469 52.8267 28 52.8267Z" fill="#1C0005" fill-opacity="0.8"/>
<defs>
<linearGradient id="paint0_linear_131_289" x1="50.9733" y1="27.5528" x2="39.7083" y2="8.17825" gradientUnits="userSpaceOnUse">
<stop stop-color="#FFD24F"/>
<stop offset="1" stop-color="#BA7014"/>
</linearGradient>
<linearGradient id="paint1_linear_131_289" x1="4.9816" y1="27.7617" x2="16.4852" y2="7.97259" gradientUnits="userSpaceOnUse">
<stop stop-color="#FFD24F"/>
<stop offset="0.5" stop-color="#FCB33A"/>
<stop offset="1" stop-color="#FFD24F"/>
</linearGradient>
<linearGradient id="paint2_linear_131_289" x1="28" y1="53.7265" x2="28" y2="3.30132" gradientUnits="userSpaceOnUse">
<stop stop-color="#F7BC34"/>
<stop offset="1" stop-color="#6E4500"/>
</linearGradient>
<linearGradient id="paint3_linear_131_289" x1="16.1253" y1="2.96005" x2="28" y2="2.96005" gradientUnits="userSpaceOnUse">
<stop stop-color="#BA7014"/>
<stop offset="0.72" stop-color="#FFD24F"/>
<stop offset="1" stop-color="#FFE48A"/>
</linearGradient>
<linearGradient id="paint4_linear_131_289" x1="28" y1="2.96004" x2="39.8818" y2="2.96004" gradientUnits="userSpaceOnUse">
<stop stop-color="#BA7014"/>
<stop offset="0.72" stop-color="#FFD24F"/>
<stop offset="1" stop-color="#FFE48A"/>
</linearGradient>
<linearGradient id="paint5_linear_131_289" x1="51.0388" y1="29.2522" x2="39.4926" y2="49.1122" gradientUnits="userSpaceOnUse">
<stop stop-color="#945200"/>
<stop offset="1" stop-color="#B57405"/>
</linearGradient>
<linearGradient id="paint6_linear_131_289" x1="5.02191" y1="29.4542" x2="16.4875" y2="49.1788" gradientUnits="userSpaceOnUse">
<stop stop-color="#945200"/>
<stop offset="1" stop-color="#C77E00"/>
</linearGradient>
<linearGradient id="paint7_linear_131_289" x1="16.1253" y1="54.0678" x2="28" y2="54.0678" gradientUnits="userSpaceOnUse">
<stop stop-color="#945200"/>
<stop offset="0.7" stop-color="#E39919"/>
<stop offset="1" stop-color="#EBAB21"/>
</linearGradient>
<linearGradient id="paint8_linear_131_289" x1="28" y1="54.0678" x2="39.8818" y2="54.0678" gradientUnits="userSpaceOnUse">
<stop stop-color="#945200"/>
<stop offset="0.7" stop-color="#E39919"/>
<stop offset="1" stop-color="#EBAB21"/>
</linearGradient>
<linearGradient id="paint9_linear_131_289" x1="17.7315" y1="2.86254" x2="28" y2="2.86254" gradientUnits="userSpaceOnUse">
<stop stop-color="#473626"/>
<stop offset="1" stop-color="#E8E7B3"/>
</linearGradient>
<linearGradient id="paint10_linear_131_289" x1="8.03106" y1="8.66422" x2="16.7776" y2="8.66422" gradientUnits="userSpaceOnUse">
<stop stop-color="#473626"/>
<stop offset="1" stop-color="#E8E7B3"/>
</linearGradient>
<linearGradient id="paint11_linear_131_289" x1="2.2024" y1="28.5139" x2="2.2024" y2="20.3233" gradientUnits="userSpaceOnUse">
<stop stop-color="#E8E7B3"/>
<stop offset="1" stop-color="#473626"/>
</linearGradient>
<linearGradient id="paint12_linear_131_289" x1="53.7976" y1="28.5139" x2="53.7976" y2="20.3233" gradientUnits="userSpaceOnUse">
<stop stop-color="#E8E7B3"/>
<stop offset="1" stop-color="#473626"/>
</linearGradient>
</defs>
</svg>
