<svg width="24" height="24" viewBox="0 0 24 24" fill="none" xmlns="http://www.w3.org/2000/svg">
<path fill-rule="evenodd" clip-rule="evenodd" d="M2.2248 12.0139L11.9861 2.25261V0L0 12.0139H2.2248Z" fill="url(#paint0_linear_203_2298)"/>
<path fill-rule="evenodd" clip-rule="evenodd" d="M11.9862 2.25256L2.22485 12.0139H4.47746L11.9862 4.50517V2.25256Z" fill="url(#paint1_linear_203_2298)"/>
<path fill-rule="evenodd" clip-rule="evenodd" d="M21.7474 12.0139L11.9861 2.25261V0L23.9722 12.0139H21.7474Z" fill="url(#paint2_linear_203_2298)"/>
<path fill-rule="evenodd" clip-rule="evenodd" d="M11.9861 2.25256L21.7474 12.0139H19.4948L11.9861 4.50517V2.25256Z" fill="url(#paint3_linear_203_2298)"/>
<path fill-rule="evenodd" clip-rule="evenodd" d="M2.2248 12.0139L11.9861 21.7752V24L0 12.0139H2.2248Z" fill="url(#paint4_linear_203_2298)"/>
<path fill-rule="evenodd" clip-rule="evenodd" d="M11.9862 21.7752L2.22485 12.0139H4.47746L11.9862 19.5226V21.7752Z" fill="url(#paint5_linear_203_2298)"/>
<path fill-rule="evenodd" clip-rule="evenodd" d="M21.7474 12.0139L11.9861 21.7752V24L23.9722 12.0139H21.7474Z" fill="url(#paint6_linear_203_2298)"/>
<path fill-rule="evenodd" clip-rule="evenodd" d="M11.9861 21.7752L21.7474 12.0139H19.4948L11.9861 19.5226V21.7752Z" fill="url(#paint7_linear_203_2298)"/>
<path fill-rule="evenodd" clip-rule="evenodd" d="M7.14722 12.0139L11.9862 7.17493L16.8251 12.0139L11.9862 16.8528L7.14722 12.0139Z" fill="url(#paint8_linear_203_2298)"/>
<path fill-rule="evenodd" clip-rule="evenodd" d="M7.14705 12.0139L11.986 7.17501V4.50525L4.47729 12.0139H7.14705Z" fill="url(#paint9_linear_203_2298)"/>
<path fill-rule="evenodd" clip-rule="evenodd" d="M16.825 12.0139L11.9861 7.17501V4.50525L19.4948 12.0139H16.825Z" fill="url(#paint10_linear_203_2298)"/>
<path fill-rule="evenodd" clip-rule="evenodd" d="M7.14705 11.9861L11.986 16.825V19.5226L4.47729 11.9861H7.14705Z" fill="url(#paint11_linear_203_2298)"/>
<path fill-rule="evenodd" clip-rule="evenodd" d="M16.825 11.9861L11.9861 16.825V19.5226L19.4948 11.9861H16.825Z" fill="url(#paint12_linear_203_2298)"/>
<defs>
<linearGradient id="paint0_linear_203_2298" x1="-0.02781" y1="6.00695" x2="11.9861" y2="6.00695" gradientUnits="userSpaceOnUse">
<stop stop-color="#FFF18F"/>
<stop offset="1" stop-color="#FFFAE3"/>
</linearGradient>
<linearGradient id="paint1_linear_203_2298" x1="2.22485" y1="7.11931" x2="11.9862" y2="7.11931" gradientUnits="userSpaceOnUse">
<stop stop-color="#AB5F0B"/>
<stop offset="1" stop-color="#753C00"/>
</linearGradient>
<linearGradient id="paint2_linear_203_2298" x1="11.9861" y1="6.00695" x2="23.9722" y2="6.00695" gradientUnits="userSpaceOnUse">
<stop stop-color="#EDA85F"/>
<stop offset="1" stop-color="#A36700"/>
</linearGradient>
<linearGradient id="paint3_linear_203_2298" x1="11.9861" y1="7.11931" x2="21.7474" y2="7.11931" gradientUnits="userSpaceOnUse">
<stop stop-color="#A15900"/>
<stop offset="1" stop-color="#E39644"/>
</linearGradient>
<linearGradient id="paint4_linear_203_2298" x1="-0.02781" y1="18.0209" x2="11.9861" y2="18.0209" gradientUnits="userSpaceOnUse">
<stop stop-color="#EDA85F"/>
<stop offset="1" stop-color="#A36700"/>
</linearGradient>
<linearGradient id="paint5_linear_203_2298" x1="2.22485" y1="16.8807" x2="11.9862" y2="16.8807" gradientUnits="userSpaceOnUse">
<stop stop-color="#6E4500"/>
<stop offset="1" stop-color="#CF9353"/>
</linearGradient>
<linearGradient id="paint6_linear_203_2298" x1="11.9861" y1="18.0209" x2="23.9722" y2="18.0209" gradientUnits="userSpaceOnUse">
<stop stop-color="#AB5F0B"/>
<stop offset="1" stop-color="#753C00"/>
</linearGradient>
<linearGradient id="paint7_linear_203_2298" x1="11.9861" y1="16.8807" x2="21.7474" y2="16.8807" gradientUnits="userSpaceOnUse">
<stop stop-color="#FFBE45"/>
<stop offset="1" stop-color="#FFF0AB"/>
</linearGradient>
<linearGradient id="paint8_linear_203_2298" x1="11.9862" y1="16.8528" x2="11.9862" y2="7.17493" gradientUnits="userSpaceOnUse">
<stop stop-color="#F72F2F"/>
<stop offset="1" stop-color="#FF8A8A"/>
</linearGradient>
<linearGradient id="paint9_linear_203_2298" x1="9.56652" y1="9.59447" x2="8.23164" y2="8.25959" gradientUnits="userSpaceOnUse">
<stop stop-color="#FF8C8C"/>
<stop offset="1" stop-color="#FF5252"/>
</linearGradient>
<linearGradient id="paint10_linear_203_2298" x1="11.9861" y1="8.25959" x2="19.4948" y2="8.25959" gradientUnits="userSpaceOnUse">
<stop stop-color="#FF5E5E"/>
<stop offset="1" stop-color="#B80000"/>
</linearGradient>
<linearGradient id="paint11_linear_203_2298" x1="4.47729" y1="15.7404" x2="11.986" y2="15.7404" gradientUnits="userSpaceOnUse">
<stop stop-color="#FF5E5E"/>
<stop offset="1" stop-color="#B80000"/>
</linearGradient>
<linearGradient id="paint12_linear_203_2298" x1="15.7404" y1="15.7404" x2="14.4105" y2="14.4105" gradientUnits="userSpaceOnUse">
<stop stop-color="#FF6666"/>
<stop offset="1" stop-color="#DE0000"/>
</linearGradient>
</defs>
</svg>
