<svg width="54" height="54" viewBox="0 0 54 54" fill="none" xmlns="http://www.w3.org/2000/svg">
<path d="M43.6011 10.3985L46.0915 7.90802C35.5474 -2.63601 18.4521 -2.63601 7.90796 7.90802L10.3982 10.3982L43.6011 10.3985Z" fill="#885722"/>
<path d="M46.0916 7.90802L43.6011 10.3985H10.3982L7.90798 7.90849C-2.63599 18.4526 -2.63599 35.5478 7.90798 46.0921L10.3983 43.6015H43.6012L46.0918 46.0921C51.1553 41.0286 54 34.161 54 27.0002C54 19.8393 51.1553 12.9717 46.0918 7.90802H46.0916Z" fill="#DEAB54"/>
<path d="M10.3984 43.6015L7.90808 46.0919C12.9716 51.1553 19.8391 54 27 54C34.1608 54 41.0284 51.1553 46.0919 46.0919L43.6013 43.6013L10.3984 43.6015Z" fill="#885722"/>
<path d="M27 50.4783C39.9666 50.4783 50.4782 39.9668 50.4782 27.0001C50.4782 14.0335 39.9666 3.52194 27 3.52194C14.0333 3.52194 3.52173 14.0335 3.52173 27.0001C3.52173 39.9668 14.0333 50.4783 27 50.4783Z" fill="#BD9C03"/>
<path d="M27 48.13C38.6698 48.13 48.13 38.6698 48.13 27.0001C48.13 15.3304 38.6698 5.87024 27 5.87024C15.3303 5.87024 5.87012 15.3304 5.87012 27.0001C5.87012 38.6698 15.3303 48.13 27 48.13Z" fill="#FFC864"/>
<path d="M15.0256 10.5652C14.9281 10.5656 14.8307 10.5739 14.7345 10.5898L10.0929 5.94818C9.60333 6.34144 9.12829 6.75153 8.66772 7.17844L13.2695 11.7813C12.9802 12.55 13.2242 13.4175 13.8718 13.9227C14.5193 14.4278 15.4201 14.4534 16.0953 13.9858C16.7705 13.5183 17.0634 12.6661 16.8183 11.8822C16.5731 11.0983 15.8469 10.5648 15.0256 10.5652Z" fill="#B97A0A"/>
<path d="M38.9735 14.3217C39.5903 14.3228 40.1683 14.0204 40.5191 13.513C40.8699 13.0055 40.9486 12.358 40.7296 11.7813L45.3326 7.17844C44.8724 6.75231 44.3969 6.34222 43.9062 5.94818L39.2646 10.5898C39.1684 10.5739 39.071 10.5656 38.9735 10.5652C37.9361 10.5652 37.0952 11.4061 37.0952 12.4434C37.0952 13.4807 37.9361 14.3217 38.9735 14.3217Z" fill="#B97A0A"/>
<path d="M40.7296 42.2184C41.0188 41.4497 40.7748 40.5823 40.1273 40.0771C39.4797 39.5719 38.5789 39.5463 37.9037 40.0139C37.2285 40.4815 36.9357 41.3337 37.1808 42.1176C37.4259 42.9014 38.1521 43.435 38.9734 43.4346C39.071 43.4341 39.1683 43.4259 39.2646 43.4099L43.9074 48.0527C44.3969 47.6595 44.8719 47.2494 45.3325 46.8225L40.7296 42.2184Z" fill="#B97A0A"/>
<path d="M15.0256 39.6781C14.4087 39.677 13.8308 39.9794 13.48 40.4868C13.1292 40.9942 13.0504 41.6417 13.2694 42.2184L8.6665 46.8213C9.12824 47.2486 9.60368 47.6591 10.0928 48.0528L14.7345 43.4099C14.8307 43.4259 14.928 43.4341 15.0256 43.4346C16.0629 43.4346 16.9038 42.5937 16.9038 41.5563C16.9038 40.519 16.0629 39.6781 15.0256 39.6781Z" fill="#B97A0A"/>
<path d="M42.9656 36.2125V17.777L27 8.55931L11.0343 17.777V36.2125L27 45.4303L42.9656 36.2125Z" fill="#ECAB2C"/>
</svg>
