<svg width="1100" height="65" viewBox="0 0 1100 65" fill="none" xmlns="http://www.w3.org/2000/svg">
<mask id="mask0_231_469" style="mask-type:alpha" maskUnits="userSpaceOnUse" x="0" y="0" width="1100" height="65">
<rect width="1100" height="65" fill="#D9D9D9"/>
</mask>
<g mask="url(#mask0_231_469)">
<path fill-rule="evenodd" clip-rule="evenodd" d="M1066.49 -1013.96C1066.47 -1006.79 1068.96 -1001.02 1072.97 -996.842C1077.03 -992.616 1082.64 -990.015 1088.82 -990.015C1089.36 -990.015 1089.89 -990.034 1090.42 -990.073L1090.42 8.62057C1090.16 8.61122 1089.89 8.60654 1089.62 8.60654C1083.45 8.60654 1077.86 11.1083 1073.82 15.1531C1069.77 19.1979 1067.27 24.7857 1067.27 30.9578C1067.27 31.2257 1067.27 31.4926 1067.28 31.7583L32.715 31.7579C32.7244 31.4922 32.7291 31.2253 32.7291 30.9573C32.7291 24.7852 30.2274 19.1974 26.1826 15.1526C22.1378 11.1078 16.55 8.60605 10.3779 8.60605C10.11 8.60605 9.84324 8.61081 9.57764 8.62018L9.57923 -990.826C9.8443 -990.816 10.1106 -990.812 10.3779 -990.812C16.55 -990.812 22.1378 -993.314 26.1826 -997.358C30.2274 -1001.4 32.7291 -1006.99 32.7291 -1013.16C32.7291 -1013.43 32.7244 -1013.7 32.7151 -1013.96L1066.49 -1013.96Z" stroke="url(#paint0_linear_231_469)" stroke-width="6.38607"/>
<path fill-rule="evenodd" clip-rule="evenodd" d="M28.5105 -1020.35L1071.49 -1020.35C1071.34 -1019.31 1071.26 -1018.24 1071.26 -1017.16C1071.26 -1010.98 1073.76 -1005.4 1077.81 -1001.35C1081.85 -997.306 1087.44 -994.804 1093.61 -994.804C1094.7 -994.804 1095.77 -994.882 1096.81 -995.031V12.8248C1095.77 12.6753 1094.7 12.5979 1093.61 12.5979C1087.44 12.5979 1081.85 15.0997 1077.81 19.1445C1073.76 23.1893 1071.26 28.777 1071.26 34.9492C1071.26 36.0333 1071.34 37.0993 1071.49 38.1421H28.5108C28.6601 37.0993 28.7375 36.0333 28.7375 34.9492C28.7375 28.777 26.2357 23.1893 22.1909 19.1445C18.1462 15.0997 12.5584 12.5979 6.38624 12.5979C5.30131 12.5979 4.23448 12.6754 3.19092 12.825L3.19212 -995.031C4.2353 -994.882 5.30173 -994.804 6.38624 -994.804C12.5584 -994.804 18.1462 -997.306 22.1909 -1001.35C26.2357 -1005.4 28.7375 -1010.98 28.7375 -1017.16C28.7375 -1018.24 28.66 -1019.31 28.5105 -1020.35Z" stroke="url(#paint1_linear_231_469)" stroke-width="6.38607"/>
<path fill-rule="evenodd" clip-rule="evenodd" d="M437.446 41.3352C443.607 45.9986 450.491 49.6216 457.824 52.0604C488.528 51.6034 519.144 55.4666 548.773 63.5363V41.3352H437.446Z" fill="url(#paint2_linear_231_469)"/>
<path fill-rule="evenodd" clip-rule="evenodd" d="M660.958 41.3353C654.797 45.9986 647.913 49.6216 640.581 52.0604C609.589 51.5168 578.677 55.3807 548.773 63.5363V41.3353H660.958Z" fill="url(#paint3_linear_231_469)"/>
</g>
<defs>
<linearGradient id="paint0_linear_231_469" x1="9.57764" y1="-491.102" x2="1090.42" y2="-491.102" gradientUnits="userSpaceOnUse">
<stop stop-color="#D58D03"/>
<stop offset="1" stop-color="#C98E4E"/>
</linearGradient>
<linearGradient id="paint1_linear_231_469" x1="550" y1="-1020.35" x2="550" y2="38.1421" gradientUnits="userSpaceOnUse">
<stop stop-color="#FEDD60"/>
<stop offset="1" stop-color="#935A0F"/>
</linearGradient>
<linearGradient id="paint2_linear_231_469" x1="437.446" y1="52.3821" x2="549.202" y2="52.3821" gradientUnits="userSpaceOnUse">
<stop stop-color="#935A0F"/>
<stop offset="1" stop-color="#C88C4A"/>
</linearGradient>
<linearGradient id="paint3_linear_231_469" x1="549.202" y1="52.3822" x2="660.958" y2="52.3822" gradientUnits="userSpaceOnUse">
<stop stop-color="#935A0F"/>
<stop offset="1" stop-color="#CA8E4C"/>
</linearGradient>
</defs>
</svg>
