<svg width="397" height="26" viewBox="0 0 397 26" fill="none" xmlns="http://www.w3.org/2000/svg">
<mask id="mask0_206_2532" style="mask-type:alpha" maskUnits="userSpaceOnUse" x="0" y="0" width="397" height="26">
<rect width="397" height="26" fill="#D9D9D9"/>
</mask>
<g mask="url(#mask0_206_2532)">
<path fill-rule="evenodd" clip-rule="evenodd" d="M158 16.8999C160.22 18.5803 162.701 19.8858 165.343 20.7646C176.407 20.6 187.439 21.992 198.116 24.8999V16.8999H158Z" fill="url(#paint0_linear_206_2532)"/>
<path fill-rule="evenodd" clip-rule="evenodd" d="M238.541 16.8999C236.321 18.5803 233.84 19.8858 231.198 20.7646C220.03 20.5687 208.892 21.9611 198.116 24.8999V16.8999H238.541Z" fill="url(#paint1_linear_206_2532)"/>
<path fill-rule="evenodd" clip-rule="evenodd" d="M13 -699.291C13 -694.044 8.97056 -689.791 4 -689.791C3.31266 -689.791 2.64331 -689.872 2.00012 -690.026L2.00076 15.4999H395V-686.5C395 -694.784 388.284 -701.5 380 -701.5L12.7552 -701.501C12.9153 -700.792 13 -700.052 13 -699.291Z" stroke="url(#paint2_linear_206_2532)" stroke-width="3"/>
<path fill-rule="evenodd" clip-rule="evenodd" d="M5.00015 -687.129L5 12.5H392V-688.5C392 -694.023 387.523 -698.5 382 -698.5L15.8229 -698.499C15.3157 -692.005 11.0727 -687.567 5.00015 -687.129Z" stroke="url(#paint3_linear_206_2532)" stroke-width="3"/>
</g>
<defs>
<linearGradient id="paint0_linear_206_2532" x1="158" y1="20.8806" x2="198.271" y2="20.8806" gradientUnits="userSpaceOnUse">
<stop stop-color="#935A0F"/>
<stop offset="1" stop-color="#C88C4A"/>
</linearGradient>
<linearGradient id="paint1_linear_206_2532" x1="198.271" y1="20.8806" x2="238.541" y2="20.8806" gradientUnits="userSpaceOnUse">
<stop stop-color="#935A0F"/>
<stop offset="1" stop-color="#CA8E4C"/>
</linearGradient>
<linearGradient id="paint2_linear_206_2532" x1="198.5" y1="-701.501" x2="198.5" y2="15.4999" gradientUnits="userSpaceOnUse">
<stop stop-color="#FEDD60"/>
<stop offset="1" stop-color="#935A0F"/>
</linearGradient>
<linearGradient id="paint3_linear_206_2532" x1="5" y1="-343" x2="392" y2="-343" gradientUnits="userSpaceOnUse">
<stop stop-color="#D58D03"/>
<stop offset="1" stop-color="#C98E4E"/>
</linearGradient>
</defs>
</svg>
